<svg width="343" height="612" viewBox="0 0 343 612" fill="none" xmlns="http://www.w3.org/2000/svg">
<path fill-rule="evenodd" clip-rule="evenodd" d="M0 24C0 10.7452 10.7452 0 24 0H319C332.255 0 343 10.7452 343 24V325.683C338.339 327.33 335 331.775 335 337C335 342.225 338.339 346.67 343 348.317V612H337.168C335.625 608.468 332.101 606 328 606C323.899 606 320.375 608.468 318.832 612H313.168C311.625 608.468 308.101 606 304 606C299.899 606 296.375 608.468 294.832 612H289.168C287.625 608.468 284.101 606 280 606C275.899 606 272.375 608.468 270.832 612H265.168C263.625 608.468 260.101 606 256 606C251.899 606 248.375 608.468 246.832 612H241.168C239.625 608.468 236.101 606 232 606C227.899 606 224.375 608.468 222.832 612H217.168C215.625 608.468 212.101 606 208 606C203.899 606 200.375 608.468 198.832 612H193.168C191.625 608.468 188.101 606 184 606C179.899 606 176.375 608.468 174.832 612H169.168C167.625 608.468 164.101 606 160 606C155.899 606 152.375 608.468 150.832 612H145.168C143.625 608.468 140.101 606 136 606C131.899 606 128.375 608.468 126.832 612H121.168C119.625 608.468 116.101 606 112 606C107.899 606 104.375 608.468 102.832 612H97.1679C95.6248 608.468 92.1006 606 88 606C83.8994 606 80.3752 608.468 78.8321 612H73.1679C71.6248 608.468 68.1006 606 64 606C59.8994 606 56.3752 608.468 54.8321 612H49.1679C47.6248 608.468 44.1006 606 40 606C35.8994 606 32.3752 608.468 30.8321 612H25.1679C23.6248 608.468 20.1006 606 16 606C11.8994 606 8.37521 608.468 6.83209 612H0V348.317C4.66077 346.67 8 342.225 8 337C8 331.775 4.66077 327.33 0 325.683V24Z" fill="white"/>
</svg>