<svg width="100" height="100" viewBox="0 0 100 100" fill="none" xmlns="http://www.w3.org/2000/svg">
<path d="M57.6537 7.49982L74.6402 14.5359C79.5408 16.5658 83.4342 20.4592 85.4641 25.3598L92.5002 42.3463C94.5301 47.2469 94.5301 52.7531 92.5002 57.6537L85.4641 74.6402C83.4342 79.5408 79.5408 83.4342 74.6402 85.4641L57.6537 92.5002C52.7531 94.5301 47.2469 94.5301 42.3463 92.5002L25.3598 85.4641C20.4592 83.4342 16.5658 79.5408 14.5359 74.6402L7.49982 57.6537C5.46994 52.7531 5.46994 47.2469 7.49982 42.3463L14.5359 25.3598C16.5658 20.4592 20.4592 16.5658 25.3598 14.5359L42.3463 7.49982C47.2469 5.46994 52.7531 5.46994 57.6537 7.49982Z" fill="#FFAE58" stroke="#105D38" stroke-width="8"/>
<path fill-rule="evenodd" clip-rule="evenodd" d="M61.8801 37.8801C62.4399 37.3252 63.1956 37.0129 63.9839 37.0108C64.7721 37.0086 65.5295 37.3167 66.0924 37.8685C66.6552 38.4203 66.9783 39.1715 66.9917 39.9596C67.0051 40.7477 66.7079 41.5095 66.1641 42.0801L50.1961 62.0401C49.9217 62.3357 49.5905 62.573 49.2223 62.7376C48.8541 62.9023 48.4564 62.991 48.0531 62.9984C47.6499 63.0059 47.2492 62.932 46.8752 62.7811C46.5011 62.6302 46.1613 62.4054 45.8761 62.1201L35.2961 51.5361C35.0014 51.2615 34.765 50.9303 34.601 50.5623C34.4371 50.1943 34.3489 49.797 34.3418 49.3942C34.3347 48.9914 34.4088 48.5913 34.5597 48.2178C34.7105 47.8442 34.9351 47.5049 35.22 47.22C35.5049 46.9351 35.8442 46.7105 36.2178 46.5597C36.5913 46.4088 36.9914 46.3347 37.3942 46.3418C37.797 46.3489 38.1943 46.4371 38.5623 46.601C38.9303 46.765 39.2615 47.0014 39.5361 47.2961L47.9121 55.6681L61.8041 37.9681C61.8289 37.9372 61.8557 37.9078 61.8841 37.8801H61.8801Z" fill="white"/>
</svg>
