<svg width="24" height="24" viewBox="0 0 24 24" fill="none" xmlns="http://www.w3.org/2000/svg">
<path d="M18 7.5C18 5.9087 17.3679 4.38258 16.2426 3.25736C15.1174 2.13214 13.5913 1.5 12 1.5C10.4087 1.5 8.88258 2.13214 7.75736 3.25736C6.63214 4.38258 6 5.9087 6 7.5C6 12.7109 4.33756 15.151 3.48775 16.058C3.35245 16.2024 3.46267 16.5 3.66056 16.5H20.3394C20.5373 16.5 20.6475 16.2024 20.5122 16.058C19.6624 15.151 18 12.7109 18 7.5Z" stroke="#BDBDBD" stroke-width="1.5" stroke-linecap="round" stroke-linejoin="round"/>
<path d="M15 19.5C14.6951 20.1083 14.2575 20.6132 13.731 20.9642C13.2045 21.3153 12.6076 21.5 12 21.5C11.3924 21.5 10.7955 21.3153 10.269 20.9642C9.74247 20.6132 9.30487 20.1083 9 19.5" stroke="#BDBDBD" stroke-width="1.5" stroke-linecap="round" stroke-linejoin="round"/>
</svg>
