<svg width="24" height="24" viewBox="0 0 24 24" fill="none" xmlns="http://www.w3.org/2000/svg">
<path d="M20.25 4.5H18V3.75C17.9994 3.15345 17.7621 2.58152 17.3403 2.1597C16.9185 1.73787 16.3465 1.50062 15.75 1.5H8.25C7.65345 1.50062 7.08152 1.73787 6.65969 2.1597C6.23787 2.58152 6.00062 3.15345 6 3.75V4.5H3.75C2.95462 4.50087 2.19206 4.81722 1.62964 5.37964C1.06722 5.94206 0.750869 6.70462 0.75 7.5V19.5C0.75 20.2956 1.06607 21.0587 1.62868 21.6213C2.19129 22.1839 2.95435 22.5 3.75 22.5H20.25C21.0456 22.5 21.8087 22.1839 22.3713 21.6213C22.9339 21.0587 23.25 20.2956 23.25 19.5V7.5C23.2491 6.70462 22.9328 5.94206 22.3704 5.37964C21.8079 4.81722 21.0454 4.50087 20.25 4.5ZM15.75 14.25H12.75V17.25C12.75 17.4489 12.671 17.6397 12.5303 17.7803C12.3897 17.921 12.1989 18 12 18C11.8011 18 11.6103 17.921 11.4697 17.7803C11.329 17.6397 11.25 17.4489 11.25 17.25V14.25H8.25C8.05109 14.25 7.86032 14.171 7.71967 14.0303C7.57902 13.8897 7.5 13.6989 7.5 13.5C7.5 13.3011 7.57902 13.1103 7.71967 12.9697C7.86032 12.829 8.05109 12.75 8.25 12.75H11.25V9.75C11.25 9.55109 11.329 9.36032 11.4697 9.21967C11.6103 9.07902 11.8011 9 12 9C12.1989 9 12.3897 9.07902 12.5303 9.21967C12.671 9.36032 12.75 9.55109 12.75 9.75V12.75H15.75C15.9489 12.75 16.1397 12.829 16.2803 12.9697C16.421 13.1103 16.5 13.3011 16.5 13.5C16.5 13.6989 16.421 13.8897 16.2803 14.0303C16.1397 14.171 15.9489 14.25 15.75 14.25ZM16.5 4.5H7.5V3.75C7.5 3.55109 7.57902 3.36032 7.71967 3.21967C7.86032 3.07902 8.05109 3 8.25 3H15.75C15.9489 3 16.1397 3.07902 16.2803 3.21967C16.421 3.36032 16.5 3.55109 16.5 3.75V4.5Z" fill="#FF3F3F"/>
</svg>
