<svg width="48" height="48" viewBox="0 0 48 48" fill="none" xmlns="http://www.w3.org/2000/svg">
<circle cx="24" cy="24" r="24" fill="#4CD080"/>
<path d="M19.2147 29.192C18.084 29.192 17.1134 28.952 16.3027 28.472C15.492 27.9813 14.868 27.304 14.4307 26.44C13.9934 25.5653 13.7747 24.5573 13.7747 23.416C13.7747 22.2747 13.9934 21.2667 14.4307 20.392C14.868 19.5173 15.492 18.8347 16.3027 18.344C17.1134 17.8533 18.084 17.608 19.2147 17.608C20.5587 17.608 21.6574 17.944 22.5107 18.616C23.3747 19.2773 23.9134 20.2107 24.1267 21.416H21.8707C21.732 20.808 21.4334 20.3333 20.9747 19.992C20.5267 19.64 19.9294 19.464 19.1827 19.464C18.148 19.464 17.3374 19.816 16.7507 20.52C16.164 21.224 15.8707 22.1893 15.8707 23.416C15.8707 24.6427 16.164 25.608 16.7507 26.312C17.3374 27.0053 18.148 27.352 19.1827 27.352C19.9294 27.352 20.5267 27.192 20.9747 26.872C21.4334 26.5413 21.732 26.088 21.8707 25.512H24.1267C23.9134 26.664 23.3747 27.5653 22.5107 28.216C21.6574 28.8667 20.5587 29.192 19.2147 29.192ZM25.9396 29V17.8H30.4356C31.5982 17.8 32.4836 18.072 33.0916 18.616C33.7102 19.1493 34.0196 19.8373 34.0196 20.68C34.0196 21.384 33.8276 21.9493 33.4436 22.376C33.0702 22.792 32.6116 23.0747 32.0676 23.224C32.7076 23.352 33.2356 23.672 33.6516 24.184C34.0676 24.6853 34.2756 25.272 34.2756 25.944C34.2756 26.8293 33.9556 27.56 33.3156 28.136C32.6756 28.712 31.7689 29 30.5956 29H25.9396ZM27.9876 22.504H30.1316C30.7076 22.504 31.1502 22.3707 31.4596 22.104C31.7689 21.8373 31.9236 21.4587 31.9236 20.968C31.9236 20.4987 31.7689 20.1307 31.4596 19.864C31.1609 19.5867 30.7076 19.448 30.0996 19.448H27.9876V22.504ZM27.9876 27.336H30.2756C30.8836 27.336 31.3529 27.1973 31.6836 26.92C32.0249 26.632 32.1956 26.232 32.1956 25.72C32.1956 25.1973 32.0196 24.7867 31.6676 24.488C31.3156 24.1893 30.8409 24.04 30.2436 24.04H27.9876V27.336Z" fill="white"/>
</svg>
