<svg width="24" height="24" viewBox="0 0 24 24" fill="none" xmlns="http://www.w3.org/2000/svg">
<path d="M11.4243 1.49824L3.11959 8.1088C2.74933 8.40354 2.95773 9 3.43099 9H20.5802C21.0522 9 21.2614 8.40611 20.8935 8.11034L12.6737 1.5013C12.3092 1.20822 11.7903 1.20695 11.4243 1.49824Z" fill="#FFAE58" stroke="#FFAE58" stroke-width="1.5"/>
<path d="M7 12H5C4.72386 12 4.5 12.1567 4.5 12.35V18.65C4.5 18.8433 4.72386 19 5 19H7C7.27614 19 7.5 18.8433 7.5 18.65V12.35C7.5 12.1567 7.27614 12 7 12Z" fill="#FFAE58" stroke="#FFAE58" stroke-width="1.5" stroke-linecap="round" stroke-linejoin="round"/>
<path d="M19 12H17C16.7239 12 16.5 12.0979 16.5 12.2188V18.7812C16.5 18.9021 16.7239 19 17 19H19C19.2761 19 19.5 18.9021 19.5 18.7812V12.2188C19.5 12.0979 19.2761 12 19 12Z" fill="#FFAE58" stroke="#FFAE58" stroke-width="1.5" stroke-linecap="round" stroke-linejoin="round"/>
<path d="M13 12H11C10.7239 12 10.5 12.056 10.5 12.125V18.875C10.5 18.944 10.7239 19 11 19H13C13.2761 19 13.5 18.944 13.5 18.875V12.125C13.5 12.056 13.2761 12 13 12Z" fill="#FFAE58" stroke="#FFAE58" stroke-width="1.5" stroke-linecap="round" stroke-linejoin="round"/>
<path d="M2 21H22C22 22.1046 21.1046 23 20 23H4C2.89543 23 2 22.1046 2 21Z" fill="#FFAE58"/>
<circle cx="12" cy="6.5" r="1.5" fill="#F9FAFD"/>
</svg>
