<svg width="24" height="24" viewBox="0 0 24 24" fill="none" xmlns="http://www.w3.org/2000/svg">
<path d="M22.6789 1.52115C22.5014 1.47894 22.3146 1.50173 22.1525 1.58537L20.9998 2.161L19.8373 1.57975C19.7332 1.52768 19.6184 1.50058 19.5019 1.50058C19.3855 1.50058 19.2707 1.52768 19.1665 1.57975L17.9895 2.16147L16.8279 1.57975C16.7235 1.5273 16.6082 1.49999 16.4914 1.49999C16.3745 1.49999 16.2593 1.5273 16.1548 1.57975L14.9998 2.15959L13.8537 1.58115C13.7496 1.52835 13.6345 1.50059 13.5177 1.50011C13.4009 1.49962 13.2857 1.52641 13.1811 1.57834L11.9998 2.16193L10.8373 1.57928C10.733 1.52724 10.618 1.50015 10.5015 1.50015C10.3849 1.50015 10.2699 1.52724 10.1656 1.57928L8.99982 2.161L7.83544 1.57928C7.68533 1.50403 7.51432 1.48134 7.34978 1.51482C7.18524 1.54831 7.0367 1.63604 6.92794 1.76397C6.81072 1.90368 6.74751 2.08082 6.74982 2.26318V13.5001L6.75216 13.5024H15.7498C16.1476 13.5024 16.5292 13.6604 16.8105 13.9417C17.0918 14.223 17.2498 14.6046 17.2498 15.0024V19.8751C17.2498 21.3249 18.8 22.5001 20.2498 22.5001H20.8123C21.4588 22.5001 22.0788 22.2433 22.5359 21.7861C22.993 21.329 23.2498 20.709 23.2498 20.0626V2.25006C23.25 2.08219 23.1938 1.91914 23.0903 1.78699C22.9867 1.65484 22.8419 1.56123 22.6789 1.52115ZM19.4998 11.2501H13.5233C13.1183 11.2501 12.7686 10.9388 12.7508 10.5338C12.7462 10.4326 12.7622 10.3315 12.7978 10.2366C12.8334 10.1418 12.8878 10.0551 12.9578 9.98186C13.0278 9.90862 13.1119 9.85032 13.2051 9.81048C13.2982 9.77064 13.3985 9.75008 13.4998 9.75006H19.4764C19.8814 9.75006 20.2311 10.0613 20.2489 10.4663C20.2534 10.5675 20.2374 10.6686 20.2019 10.7635C20.1663 10.8583 20.1118 10.945 20.0418 11.0183C19.9718 11.0915 19.8877 11.1498 19.7946 11.1896C19.7014 11.2295 19.6011 11.25 19.4998 11.2501ZM19.4998 7.50006H10.5233C10.1183 7.50006 9.76857 7.18881 9.75075 6.78381C9.7462 6.68259 9.76219 6.5815 9.79778 6.48664C9.83336 6.39178 9.8878 6.30511 9.9578 6.23186C10.0278 6.15862 10.1119 6.10032 10.2051 6.06048C10.2982 6.02064 10.3985 6.00008 10.4998 6.00006H19.4764C19.8814 6.00006 20.2311 6.31131 20.2489 6.71631C20.2534 6.81752 20.2374 6.91861 20.2019 7.01348C20.1663 7.10834 20.1118 7.19501 20.0418 7.26826C19.9718 7.3415 19.8877 7.3998 19.7946 7.43964C19.7014 7.47948 19.6011 7.50004 19.4998 7.50006Z" fill="#FFAE58"/>
<path d="M15.75 19.875V15.75C15.75 15.5511 15.671 15.3603 15.5303 15.2197C15.3897 15.079 15.1989 15 15 15H2.25C1.85215 15.0012 1.47098 15.16 1.18988 15.4415C0.908777 15.7231 0.750618 16.1045 0.75 16.5023C0.75 18.8719 1.02094 19.8572 1.42781 20.6072C2.11828 21.8808 3.36844 22.5 5.25 22.5H16.7663C16.8032 22.5 16.8394 22.4891 16.8702 22.4686C16.901 22.4481 16.9251 22.419 16.9394 22.3849C16.9536 22.3508 16.9575 22.3132 16.9505 22.2769C16.9435 22.2405 16.9258 22.2071 16.8998 22.1808C16.4564 21.7359 15.75 21.1406 15.75 19.875Z" fill="#FFAE58"/>
</svg>
