<svg width="48" height="48" viewBox="0 0 48 48" fill="none" xmlns="http://www.w3.org/2000/svg">
<rect width="48" height="48" rx="16" fill="#105D38"/>
<path d="M6.68 27V20H9.49C10.2167 20 10.77 20.17 11.15 20.51C11.5367 20.8433 11.73 21.2733 11.73 21.8C11.73 22.24 11.61 22.5933 11.37 22.86C11.1367 23.12 10.85 23.2967 10.51 23.39C10.91 23.47 11.24 23.67 11.5 23.99C11.76 24.3033 11.89 24.67 11.89 25.09C11.89 25.6433 11.69 26.1 11.29 26.46C10.89 26.82 10.3233 27 9.59 27H6.68ZM7.96 22.94H9.3C9.66 22.94 9.93667 22.8567 10.13 22.69C10.3233 22.5233 10.42 22.2867 10.42 21.98C10.42 21.6867 10.3233 21.4567 10.13 21.29C9.94333 21.1167 9.66 21.03 9.28 21.03H7.96V22.94ZM7.96 25.96H9.39C9.77 25.96 10.0633 25.8733 10.27 25.7C10.4833 25.52 10.59 25.27 10.59 24.95C10.59 24.6233 10.48 24.3667 10.26 24.18C10.04 23.9933 9.74333 23.9 9.37 23.9H7.96V25.96ZM12.9886 27V20H14.2686V26H17.3686V27H12.9886ZM21.0316 27.12C20.325 27.12 19.7183 26.97 19.2116 26.67C18.705 26.3633 18.315 25.94 18.0416 25.4C17.7683 24.8533 17.6316 24.2233 17.6316 23.51C17.6316 22.7967 17.7683 22.1667 18.0416 21.62C18.315 21.0733 18.705 20.6467 19.2116 20.34C19.7183 20.0333 20.325 19.88 21.0316 19.88C21.8716 19.88 22.5583 20.09 23.0916 20.51C23.6316 20.9233 23.9683 21.5067 24.1016 22.26H22.6916C22.605 21.88 22.4183 21.5833 22.1316 21.37C21.8516 21.15 21.4783 21.04 21.0116 21.04C20.365 21.04 19.8583 21.26 19.4916 21.7C19.125 22.14 18.9416 22.7433 18.9416 23.51C18.9416 24.2767 19.125 24.88 19.4916 25.32C19.8583 25.7533 20.365 25.97 21.0116 25.97C21.4783 25.97 21.8516 25.87 22.1316 25.67C22.4183 25.4633 22.605 25.18 22.6916 24.82H24.1016C23.9683 25.54 23.6316 26.1033 23.0916 26.51C22.5583 26.9167 21.8716 27.12 21.0316 27.12ZM25.2347 27V20H26.5147V22.83L29.1047 20H30.6847L28.1047 22.78L30.7547 27H29.1847L27.1847 23.76L26.5147 24.49V27H25.2347ZM32.3912 27V21.46L31.2412 21.73V20.75L32.9312 20H33.7212V27H32.3912ZM37.9484 27.12C37.3018 27.12 36.7484 26.97 36.2884 26.67C35.8284 26.3633 35.4718 25.94 35.2184 25.4C34.9718 24.8533 34.8484 24.22 34.8484 23.5C34.8484 22.7867 34.9718 22.1567 35.2184 21.61C35.4718 21.0633 35.8284 20.64 36.2884 20.34C36.7484 20.0333 37.3018 19.88 37.9484 19.88C38.5951 19.88 39.1484 20.0333 39.6084 20.34C40.0684 20.64 40.4218 21.0633 40.6684 21.61C40.9218 22.1567 41.0484 22.7867 41.0484 23.5C41.0484 24.22 40.9218 24.8533 40.6684 25.4C40.4218 25.94 40.0684 26.3633 39.6084 26.67C39.1484 26.97 38.5951 27.12 37.9484 27.12ZM37.9484 25.97C38.4751 25.97 38.9051 25.75 39.2384 25.31C39.5718 24.87 39.7384 24.2667 39.7384 23.5C39.7384 22.7333 39.5718 22.13 39.2384 21.69C38.9051 21.25 38.4751 21.03 37.9484 21.03C37.4151 21.03 36.9818 21.25 36.6484 21.69C36.3218 22.13 36.1584 22.7333 36.1584 23.5C36.1584 24.2667 36.3218 24.87 36.6484 25.31C36.9818 25.75 37.4151 25.97 37.9484 25.97Z" fill="white"/>
</svg>
