<svg width="48" height="48" viewBox="0 0 48 48" fill="none" xmlns="http://www.w3.org/2000/svg">
<rect width="48" height="48" rx="16" fill="white"/>
<path d="M14.4279 15.9628C14.4279 15.1256 15.4884 14.3721 16.4372 14.3721H18.5581C20.0372 14.3721 21.5163 15.7395 21.5163 17.2465V17.5535C21.5163 19.9814 17.5814 22.214 16.4372 24.0279C16.7442 24.5581 18.5581 26.3721 19.0884 26.9023C19.8419 27.6558 21.3209 28.9116 21.3209 30.1953V30.8372C21.3209 32.0093 19.8419 33.6 18.7814 33.6H16.2419C15.4884 33.6 14.5395 32.7628 14.5395 32.0093V15.9907H14.4279V15.9628ZM24.4186 17.4419C24.4186 16.9116 24.1954 16.0744 24.1116 15.6279C23.8884 15.2093 23.3582 14.4558 23.3582 14.2605H25.4791C26.7628 14.2605 28.3535 15.4326 28.3535 16.6884V17.4419C28.3535 19.1442 22.7163 23.1628 22.7163 23.9163C22.7163 23.9163 26.9582 28.2698 27.3768 28.6884C28.214 29.5256 28.9675 30.2791 29.7209 31.0326C30.1396 31.4512 31.7303 33.0419 31.9535 33.4605H23.3582C23.8884 32.707 24.4186 31.9814 24.4186 30.6977V30.2791C24.4186 28.6884 23.2465 27.5163 22.5209 26.6791C21.9907 26.1488 20.2884 24.1395 19.8698 23.8047C21.1256 21.907 24.4186 20.5395 24.4186 17.4419ZM30.893 16.9116C30.893 15.6279 30.1396 15.0977 29.6093 14.3721C31.7303 14.3721 32.9023 14.1488 33.4326 15.8512C33.7396 16.8 33.5442 19.6744 33.5442 21.0419C33.5442 24.5302 33.5442 28.0465 33.5442 31.6465L26.0093 24C27.1814 22.2977 30.7814 20.4 30.7814 17.8326V16.8837H30.893V16.9116ZM12 16.493V31.8698C12 33.9907 14.0093 36 16.2419 36H32.0651C33.9628 36 36 33.8791 36 31.7581V15.9349C36 13.9256 33.9907 12 31.7582 12H16.2419C13.814 12.0279 12 14.0651 12 16.493Z" fill="#1F489D"/>
</svg>
