<svg width="32" height="32" viewBox="0 0 32 32" fill="none" xmlns="http://www.w3.org/2000/svg">
<path d="M27.5467 9.30699C26.3832 7.29063 24.7088 5.61661 22.6921 4.45366C20.6481 3.26299 18.4174 2.66699 16.0001 2.66699C13.5827 2.66699 11.3521 3.26299 9.30675 4.45366C7.26275 5.64433 5.64408 7.26299 4.45341 9.30699C3.26275 11.351 2.66675 13.583 2.66675 16.0003C2.66675 18.4177 3.26141 20.6497 4.45341 22.6937C5.61651 24.7103 7.29109 26.3844 9.30808 27.547C11.3521 28.7377 13.5827 29.3337 16.0001 29.3337C18.4174 29.3337 20.6481 28.7377 22.6934 27.547C24.7101 26.384 26.3846 24.71 27.5481 22.6937C28.7387 20.6497 29.3334 18.4177 29.3334 16.0003C29.3334 13.583 28.7387 11.351 27.5467 9.30699ZM16.0001 4.88033C18.6667 4.88033 21.0294 5.73366 23.0934 7.43899C21.8667 9.00433 20.0454 10.2923 17.6267 11.3057C16.2907 8.88833 14.8427 6.86966 13.2787 5.25233C14.1652 5.00723 15.0804 4.88212 16.0001 4.88033ZM7.34675 9.06699C8.32173 7.8289 9.55537 6.81869 10.9614 6.10699C12.5774 7.70833 14.0614 9.70699 15.4147 12.107C12.7481 12.907 9.92941 13.307 6.96008 13.307C6.19608 13.307 5.61875 13.2897 5.22675 13.2537C5.63538 11.7262 6.35735 10.3004 7.34675 9.06699ZM4.88008 16.0003C4.88008 15.9283 4.88408 15.8403 4.89341 15.7337C4.90275 15.627 4.90675 15.539 4.90675 15.467C5.24541 15.4857 5.76142 15.4937 6.45475 15.4937C10.0094 15.4937 13.3161 15.0043 16.3734 14.027C16.6227 14.5243 16.8814 15.0843 17.1467 15.707C15.3867 16.0977 13.5814 17.0483 11.7321 18.5603C9.88275 20.0723 8.53342 21.663 7.68008 23.3337C5.81342 21.2177 4.88008 18.7737 4.88008 16.0003ZM16.0001 27.1203C13.4747 27.1203 11.2081 26.3377 9.19875 24.775C10.0001 23.1923 11.2307 21.679 12.8934 20.2403C14.5547 18.8003 16.2041 17.903 17.8401 17.547C18.8721 20.399 19.5701 23.361 19.9201 26.3737C18.6706 26.8619 17.3416 27.1151 16.0001 27.1203ZM25.4401 21.8403C24.5674 23.2464 23.3922 24.4402 22.0001 25.335C21.6801 22.5617 21.0667 19.859 20.1614 17.227C21.4041 17.139 22.5147 17.0937 23.4947 17.0937C24.5601 17.0937 25.7428 17.139 27.0401 17.227C26.866 18.8668 26.3187 20.4449 25.4401 21.8403ZM23.7867 15.1737C22.2401 15.1737 20.8094 15.2363 19.4934 15.3603C19.2147 14.6307 18.9123 13.9103 18.5867 13.2003C21.3414 11.9923 23.2961 10.5257 24.4521 8.80033C26.0521 10.6857 26.9241 12.8363 27.0654 15.2537C25.9827 15.2003 24.8894 15.1737 23.7867 15.1737Z" fill="white"/>
</svg>
