<svg width="343" height="176" viewBox="0 0 343 176" fill="none" xmlns="http://www.w3.org/2000/svg">
<rect width="343" height="176" rx="16" fill="#F2F2F2"/>
<path d="M17.162 155H20.914C22.566 155 23.672 153.838 23.672 152.242C23.672 150.898 22.916 150.198 21.782 149.932V149.862C22.734 149.582 23.336 148.924 23.336 147.79C23.336 146.222 22.3 145.228 20.536 145.228H17.162V155ZM18.702 153.796V150.576H20.438C21.474 150.576 22.062 150.982 22.062 151.934V152.438C22.062 153.376 21.474 153.796 20.438 153.796H18.702ZM18.702 149.428V146.432H20.214C21.194 146.432 21.726 146.796 21.726 147.678V148.182C21.726 149.064 21.194 149.428 20.214 149.428H18.702ZM31.6745 155V153.81H29.3785V146.418H31.6745V145.228H25.5145V146.418H27.8105V153.81H25.5145V155H31.6745ZM40.9231 155L38.0671 145.228H35.9251L33.0691 155H34.6651L35.4071 152.396H38.5151L39.2571 155H40.9231ZM38.2211 151.094H35.7011L36.9051 146.81H37.0171L38.2211 151.094ZM46.5596 155H48.5756V145.228H47.2036V152.746H47.0776L44.2076 145.228H42.1916V155H43.5636V147.482H43.6896L46.5596 155ZM54.0581 155.168C55.9481 155.168 56.8161 154.076 57.2641 152.746L55.8501 152.27C55.5561 153.166 55.1501 153.866 54.0441 153.866C52.6581 153.866 52.0561 152.732 52.0561 150.94V149.288C52.0561 147.496 52.6581 146.362 54.0441 146.362C55.1501 146.362 55.5561 147.062 55.8501 147.958L57.2641 147.482C56.8161 146.152 55.9481 145.06 54.0581 145.06C51.5801 145.06 50.3901 146.88 50.3901 150.114C50.3901 153.348 51.5801 155.168 54.0581 155.168ZM66.1067 155L63.2507 145.228H61.1087L58.2527 155H59.8487L60.5907 152.396H63.6987L64.4407 155H66.1067ZM63.4047 151.094H60.8847L62.0887 146.81H62.2007L63.4047 151.094ZM79.2417 155.168C81.1317 155.168 81.9997 154.076 82.4477 152.746L81.0337 152.27C80.7397 153.166 80.3337 153.866 79.2277 153.866C77.8417 153.866 77.2397 152.732 77.2397 150.94V149.288C77.2397 147.496 77.8417 146.362 79.2277 146.362C80.3337 146.362 80.7397 147.062 81.0337 147.958L82.4477 147.482C81.9997 146.152 81.1317 145.06 79.2417 145.06C76.7637 145.06 75.5737 146.88 75.5737 150.114C75.5737 153.348 76.7637 155.168 79.2417 155.168ZM87.3563 155.168C89.8343 155.168 90.9403 153.306 90.9403 150.114C90.9403 146.922 89.8343 145.06 87.3563 145.06C84.8783 145.06 83.7723 146.922 83.7723 150.114C83.7723 153.306 84.8783 155.168 87.3563 155.168ZM87.3563 153.866C85.9563 153.866 85.4383 152.732 85.4383 150.94V149.288C85.4383 147.496 85.9563 146.362 87.3563 146.362C88.7563 146.362 89.2743 147.496 89.2743 149.288V150.926C89.2743 152.732 88.7563 153.866 87.3563 153.866ZM95.7508 155.168C98.2288 155.168 99.3348 153.306 99.3348 150.114C99.3348 146.922 98.2288 145.06 95.7508 145.06C93.2728 145.06 92.1668 146.922 92.1668 150.114C92.1668 153.306 93.2728 155.168 95.7508 155.168ZM95.7508 153.866C94.3508 153.866 93.8328 152.732 93.8328 150.94V149.288C93.8328 147.496 94.3508 146.362 95.7508 146.362C97.1508 146.362 97.6688 147.496 97.6688 149.288V150.926C97.6688 152.732 97.1508 153.866 95.7508 153.866ZM102.689 155V151.108H104.775C106.623 151.108 107.645 149.988 107.645 148.168C107.645 146.348 106.623 145.228 104.775 145.228H101.121V155H102.689ZM102.689 146.53H104.537C105.517 146.53 105.993 146.964 105.993 147.86V148.462C105.993 149.358 105.517 149.806 104.537 149.806H102.689V146.53ZM115.662 155V153.684H111.112V150.702H115.494V149.386H111.112V146.544H115.662V145.228H109.544V155H115.662ZM119.464 151.052H120.766L122.838 155H124.574L122.32 150.912C123.678 150.688 124.434 149.652 124.434 148.168C124.434 146.348 123.412 145.228 121.564 145.228H117.91V155H119.464V151.052ZM119.464 149.792V146.53H121.34C122.32 146.53 122.796 146.964 122.796 147.86V148.462C122.796 149.358 122.32 149.792 121.34 149.792H119.464Z" fill="#8F92A1"/>
<path d="M292.937 155V153.698H290.571V145.228H288.149L285.657 147.93L286.623 148.798L288.891 146.376H289.003V153.698H286.259V155H292.937ZM301.332 155V153.698H298.966V145.228H296.544L294.052 147.93L295.018 148.798L297.286 146.376H297.398V153.698H294.654V155H301.332ZM304.336 156.932L309.054 144.36H307.696L302.978 156.932H304.336ZM317.841 153.67H312.787L315.153 151.682C316.525 150.548 317.519 149.484 317.519 147.93C317.519 146.264 316.371 145.06 314.341 145.06C312.353 145.06 311.359 146.208 310.967 147.44L312.339 147.958C312.605 147.062 313.151 146.418 314.229 146.418C315.279 146.418 315.867 146.992 315.867 148.014V148.168C315.867 149.05 315.279 149.834 314.285 150.716L311.093 153.502V155H317.841V153.67ZM325.171 155V153.096H326.543V151.864H325.171V145.228H323.113L319.025 151.752V153.096H323.673V155H325.171ZM323.589 146.67H323.673V151.864H320.355L323.589 146.67Z" fill="#8F92A1"/>
<path opacity="0.6" d="M309.192 30C309.192 37.4611 303.212 43.5 295.846 43.5C288.48 43.5 282.5 37.4611 282.5 30C282.5 22.5389 288.48 16.5 295.846 16.5C303.212 16.5 309.192 22.5389 309.192 30Z" stroke="#8F92A1"/>
<path opacity="0.6" d="M326.5 30C326.5 37.4611 320.52 43.5 313.154 43.5C305.788 43.5 299.808 37.4611 299.808 30C299.808 22.5389 305.788 16.5 313.154 16.5C320.52 16.5 326.5 22.5389 326.5 30Z" stroke="#8F92A1"/>
<path d="M240.72 88.48H234.944L237.648 86.208C239.216 84.912 240.352 83.696 240.352 81.92C240.352 80.016 239.04 78.64 236.72 78.64C234.448 78.64 233.312 79.952 232.864 81.36L234.432 81.952C234.736 80.928 235.36 80.192 236.592 80.192C237.792 80.192 238.464 80.848 238.464 82.016V82.192C238.464 83.2 237.792 84.096 236.656 85.104L233.008 88.288V90H240.72V88.48ZM244.778 83.44V84.944H245.978C247.45 84.944 248.25 85.584 248.25 86.72V86.848C248.25 88 247.466 88.688 246.074 88.688C244.746 88.688 244.09 88.064 243.53 87.168L242.202 88.192C242.906 89.216 243.978 90.192 246.058 90.192C248.522 90.192 250.138 88.88 250.138 86.928C250.138 85.312 249.018 84.4 247.738 84.16V84.08C248.938 83.824 249.914 82.944 249.914 81.52C249.914 79.712 248.362 78.64 246.25 78.64C244.362 78.64 243.338 79.504 242.634 80.48L243.85 81.52C244.362 80.672 245.114 80.144 246.186 80.144C247.306 80.144 248.042 80.704 248.042 81.728V81.84C248.042 82.752 247.354 83.44 245.93 83.44H244.778ZM259.364 78.832H252.932L252.516 85.056L254.004 85.264C254.42 84.816 254.948 84.384 255.94 84.384C257.3 84.384 258.068 85.152 258.068 86.448V86.576C258.068 87.872 257.316 88.688 255.94 88.688C254.644 88.688 254.02 88.032 253.46 87.168L252.148 88.192C252.836 89.216 253.892 90.192 255.908 90.192C258.468 90.192 259.94 88.608 259.94 86.4C259.94 84.208 258.468 82.912 256.548 82.912C255.284 82.912 254.644 83.472 254.132 84.352H254.004L254.292 80.384H259.364V78.832ZM265.613 90.192C268.013 90.192 269.581 88.64 269.581 86.416C269.581 84.288 268.173 82.944 266.253 82.944C264.829 82.944 264.077 83.696 263.597 84.576L263.485 84.544C264.045 82.128 265.517 80.656 268.093 78.832H265.693C263.821 80.048 261.629 82.608 261.629 85.84C261.629 88.512 263.117 90.192 265.613 90.192ZM265.597 88.752C264.253 88.752 263.469 87.984 263.469 86.64V86.48C263.469 85.136 264.253 84.368 265.597 84.368C266.957 84.368 267.741 85.136 267.741 86.48V86.64C267.741 87.984 266.957 88.752 265.597 88.752Z" fill="#8F92A1"/>
<path d="M185.184 83.44V84.944H186.384C187.856 84.944 188.656 85.584 188.656 86.72V86.848C188.656 88 187.872 88.688 186.48 88.688C185.152 88.688 184.496 88.064 183.936 87.168L182.608 88.192C183.312 89.216 184.384 90.192 186.464 90.192C188.928 90.192 190.544 88.88 190.544 86.928C190.544 85.312 189.424 84.4 188.144 84.16V84.08C189.344 83.824 190.32 82.944 190.32 81.52C190.32 79.712 188.768 78.64 186.656 78.64C184.768 78.64 183.744 79.504 183.04 80.48L184.256 81.52C184.768 80.672 185.52 80.144 186.592 80.144C187.712 80.144 188.448 80.704 188.448 81.728V81.84C188.448 82.752 187.76 83.44 186.336 83.44H185.184ZM196.202 90L200.234 80.4V78.832H192.538V82.384H194.09V80.32H198.442L194.298 90H196.202ZM210.227 90V88.512H207.524V78.832H204.756L201.908 81.92L203.012 82.912L205.604 80.144H205.732V88.512H202.596V90H210.227ZM215.613 90.192C218.013 90.192 219.581 88.64 219.581 86.416C219.581 84.288 218.173 82.944 216.253 82.944C214.829 82.944 214.077 83.696 213.597 84.576L213.485 84.544C214.045 82.128 215.517 80.656 218.093 78.832H215.693C213.821 80.048 211.629 82.608 211.629 85.84C211.629 88.512 213.117 90.192 215.613 90.192ZM215.597 88.752C214.253 88.752 213.469 87.984 213.469 86.64V86.48C213.469 85.136 214.253 84.368 215.597 84.368C216.957 84.368 217.741 85.136 217.741 86.48V86.64C217.741 87.984 216.957 88.752 215.597 88.752Z" fill="#8F92A1"/>
<path d="M136.608 90L140.64 80.4V78.832H132.944V82.384H134.496V80.32H138.848L134.704 90H136.608ZM149.77 78.832H143.338L142.922 85.056L144.41 85.264C144.826 84.816 145.354 84.384 146.346 84.384C147.706 84.384 148.474 85.152 148.474 86.448V86.576C148.474 87.872 147.722 88.688 146.346 88.688C145.05 88.688 144.426 88.032 143.866 87.168L142.554 88.192C143.242 89.216 144.298 90.192 146.314 90.192C148.874 90.192 150.346 88.608 150.346 86.4C150.346 84.208 148.874 82.912 146.954 82.912C145.69 82.912 145.05 83.472 144.538 84.352H144.41L144.698 80.384H149.77V78.832ZM156.02 90.192C158.42 90.192 159.988 88.64 159.988 86.416C159.988 84.288 158.58 82.944 156.66 82.944C155.236 82.944 154.484 83.696 154.004 84.576L153.892 84.544C154.452 82.128 155.924 80.656 158.5 78.832H156.1C154.228 80.048 152.036 82.608 152.036 85.84C152.036 88.512 153.524 90.192 156.02 90.192ZM156.004 88.752C154.66 88.752 153.876 87.984 153.876 86.64V86.48C153.876 85.136 154.66 84.368 156.004 84.368C157.364 84.368 158.148 85.136 158.148 86.48V86.64C158.148 87.984 157.364 88.752 156.004 88.752ZM169.821 90V88.512H167.117V78.832H164.349L161.501 81.92L162.605 82.912L165.197 80.144H165.325V88.512H162.189V90H169.821Z" fill="#8F92A1"/>
<path d="M89.04 90V88.512H86.336V78.832H83.568L80.72 81.92L81.824 82.912L84.416 80.144H84.544V88.512H81.408V90H89.04ZM98.3458 82.992C98.3458 80.32 96.8578 78.64 94.3618 78.64C91.9618 78.64 90.3938 80.192 90.3938 82.416C90.3938 84.544 91.8018 85.888 93.7218 85.888C95.1458 85.888 95.8978 85.136 96.3778 84.256L96.4898 84.288C95.9298 86.704 94.4578 88.176 91.8818 90H94.2818C96.1538 88.784 98.3458 86.224 98.3458 82.992ZM94.3778 84.464C93.0178 84.464 92.2338 83.696 92.2338 82.352V82.192C92.2338 80.848 93.0178 80.08 94.3778 80.08C95.7218 80.08 96.5058 80.848 96.5058 82.192V82.352C96.5058 83.696 95.7218 84.464 94.3778 84.464ZM107.364 78.832H100.932L100.516 85.056L102.004 85.264C102.42 84.816 102.948 84.384 103.94 84.384C105.3 84.384 106.068 85.152 106.068 86.448V86.576C106.068 87.872 105.316 88.688 103.94 88.688C102.644 88.688 102.02 88.032 101.46 87.168L100.148 88.192C100.836 89.216 101.892 90.192 103.908 90.192C106.468 90.192 107.94 88.608 107.94 86.4C107.94 84.208 106.468 82.912 104.548 82.912C103.284 82.912 102.644 83.472 102.132 84.352H102.004L102.292 80.384H107.364V78.832ZM113.613 90.192C116.013 90.192 117.581 88.64 117.581 86.416C117.581 84.288 116.173 82.944 114.253 82.944C112.829 82.944 112.077 83.696 111.597 84.576L111.485 84.544C112.045 82.128 113.517 80.656 116.093 78.832H113.693C111.821 80.048 109.629 82.608 109.629 85.84C109.629 88.512 111.117 90.192 113.613 90.192ZM113.597 88.752C112.253 88.752 111.469 87.984 111.469 86.64V86.48C111.469 85.136 112.253 84.368 113.597 84.368C114.957 84.368 115.741 85.136 115.741 86.48V86.64C115.741 87.984 114.957 88.752 113.597 88.752Z" fill="#8F92A1"/>
<g opacity="0.3">
<rect x="16.5" y="68.5" width="47" height="31" rx="5.5" fill="#8F92A1" stroke="#F2F2F2"/>
<path d="M16.5 74H63.5" stroke="#F2F2F2"/>
<path d="M16.5 92H63.5" stroke="#F2F2F2"/>
<path d="M36.5 86H63.5" stroke="#F2F2F2"/>
<path d="M16.5 86H27.5" stroke="#F2F2F2"/>
<path d="M36.5 80H63.5" stroke="#F2F2F2"/>
<path d="M16.5 80H27" stroke="#F2F2F2"/>
<path d="M32.5 69V74.5" stroke="#F2F2F2"/>
<path d="M32.5 92V99.5" stroke="#F2F2F2"/>
<path d="M32 74C29.2386 74 27 76.2386 27 79C27 80.1571 27.3931 81.2225 28.053 82.0697C28.4622 82.5951 28.4622 83.4049 28.053 83.9303C27.3931 84.7775 27 85.8429 27 87C27 89.7614 29.2386 92 32 92C34.7614 92 37 89.7614 37 87C37 85.8429 36.6069 84.7775 35.947 83.9303C35.5378 83.4049 35.5378 82.5952 35.947 82.0697C36.4116 81.4732 36.744 80.7686 36.9 80" stroke="#F2F2F2"/>
</g>
</svg>
