<svg width="327" height="135" viewBox="0 0 327 135" fill="none" xmlns="http://www.w3.org/2000/svg">
<rect width="327" height="186" rx="16" fill="#4CD080"/>
<ellipse opacity="0.6" cx="279.846" cy="30" rx="13.8462" ry="14" fill="white"/>
<ellipse opacity="0.4" cx="297.154" cy="30" rx="13.8462" ry="14" fill="white"/>
<path fill-rule="evenodd" clip-rule="evenodd" d="M288.5 40.9296C291.665 38.3639 293.692 34.4213 293.692 30.0001C293.692 25.579 291.665 21.6365 288.5 19.0708C285.335 21.6365 283.308 25.5791 283.308 30.0003C283.308 34.4214 285.334 38.3639 288.5 40.9296Z" fill="white"/>
<path d="M22.072 62.24C20.872 62.144 19.816 61.88 18.904 61.448C18.008 61 17.28 60.416 16.72 59.696L18.808 57.416C19.32 57.96 19.864 58.384 20.44 58.688C21.032 58.992 21.656 59.192 22.312 59.288V54.872L21.76 54.776C20.224 54.504 19.088 53.944 18.352 53.096C17.616 52.232 17.248 51.184 17.248 49.952C17.248 48.592 17.664 47.488 18.496 46.64C19.328 45.792 20.52 45.264 22.072 45.056V42.536H24.808V45.032C25.816 45.16 26.672 45.416 27.376 45.8C28.096 46.184 28.696 46.656 29.176 47.216L27.112 49.52C26.44 48.784 25.592 48.304 24.568 48.08V52.088L25.12 52.184C26.656 52.472 27.792 53.032 28.528 53.864C29.264 54.68 29.632 55.696 29.632 56.912C29.632 57.568 29.52 58.184 29.296 58.76C29.088 59.336 28.776 59.848 28.36 60.296C27.96 60.744 27.456 61.128 26.848 61.448C26.256 61.752 25.576 61.976 24.808 62.12V64.712H22.072V62.24ZM20.632 49.832C20.632 50.344 20.76 50.736 21.016 51.008C21.288 51.264 21.72 51.472 22.312 51.632V48.008C21.72 48.104 21.288 48.304 21.016 48.608C20.76 48.912 20.632 49.32 20.632 49.832ZM26.272 57.152C26.272 56.608 26.136 56.2 25.864 55.928C25.592 55.656 25.16 55.448 24.568 55.304V59.264C25.144 59.136 25.568 58.896 25.84 58.544C26.128 58.176 26.272 57.712 26.272 57.152ZM43.7106 62H31.6626V58.712L36.9426 54.32C37.8546 53.536 38.5106 52.856 38.9106 52.28C39.3106 51.704 39.5106 51.096 39.5106 50.456V50.216C39.5106 49.512 39.3026 48.984 38.8866 48.632C38.4706 48.264 37.9106 48.08 37.2066 48.08C36.4066 48.08 35.7906 48.312 35.3586 48.776C34.9266 49.24 34.6226 49.792 34.4466 50.432L31.3026 49.232C31.4946 48.656 31.7586 48.112 32.0946 47.6C32.4306 47.072 32.8546 46.616 33.3666 46.232C33.8946 45.848 34.5026 45.544 35.1906 45.32C35.8786 45.08 36.6706 44.96 37.5666 44.96C38.4786 44.96 39.2946 45.088 40.0146 45.344C40.7346 45.6 41.3426 45.952 41.8386 46.4C42.3346 46.848 42.7106 47.384 42.9666 48.008C43.2226 48.616 43.3506 49.28 43.3506 50C43.3506 50.704 43.2306 51.352 42.9906 51.944C42.7666 52.52 42.4466 53.064 42.0306 53.576C41.6306 54.088 41.1506 54.584 40.5906 55.064C40.0466 55.544 39.4626 56.024 38.8386 56.504L35.6466 58.976H43.7106V62ZM52.0773 62.288C51.0693 62.288 50.1653 62.136 49.3653 61.832C48.5813 61.512 47.9173 61.064 47.3733 60.488C46.8293 59.896 46.4133 59.192 46.1253 58.376C45.8373 57.56 45.6933 56.648 45.6933 55.64C45.6933 54.472 45.8773 53.368 46.2453 52.328C46.6133 51.272 47.0853 50.304 47.6613 49.424C48.2533 48.528 48.9093 47.728 49.6293 47.024C50.3653 46.32 51.0933 45.728 51.8133 45.248H56.7812C55.7413 45.968 54.8053 46.664 53.9733 47.336C53.1573 47.992 52.4373 48.656 51.8133 49.328C51.2053 49.984 50.7013 50.664 50.3013 51.368C49.9173 52.072 49.6373 52.832 49.4613 53.648L49.6773 53.72C49.8213 53.4 49.9973 53.088 50.2053 52.784C50.4133 52.48 50.6693 52.216 50.9733 51.992C51.2773 51.752 51.6293 51.56 52.0293 51.416C52.4453 51.272 52.9253 51.2 53.4693 51.2C54.1733 51.2 54.8293 51.328 55.4373 51.584C56.0453 51.824 56.5653 52.176 56.9973 52.64C57.4453 53.088 57.7973 53.632 58.0533 54.272C58.3093 54.912 58.4373 55.632 58.4373 56.432C58.4373 57.28 58.2853 58.064 57.9813 58.784C57.6773 59.504 57.2453 60.128 56.6853 60.656C56.1413 61.168 55.4773 61.568 54.6933 61.856C53.9093 62.144 53.0373 62.288 52.0773 62.288ZM52.0533 59.48C52.9173 59.48 53.5733 59.256 54.0213 58.808C54.4693 58.344 54.6933 57.696 54.6933 56.864V56.528C54.6933 55.696 54.4613 55.064 53.9973 54.632C53.5493 54.184 52.9013 53.96 52.0533 53.96C51.2373 53.96 50.5973 54.184 50.1333 54.632C49.6693 55.064 49.4373 55.696 49.4373 56.528V56.864C49.4373 57.696 49.6533 58.344 50.0853 58.808C50.5333 59.256 51.1893 59.48 52.0533 59.48ZM64.6199 57.824H69.1799L65.8919 65.624H63.2519L64.6199 57.824ZM87.0505 51.608C87.0505 52.792 86.8665 53.904 86.4985 54.944C86.1305 55.984 85.6505 56.952 85.0585 57.848C84.4825 58.728 83.8265 59.52 83.0905 60.224C82.3705 60.928 81.6505 61.52 80.9305 62H75.9625C77.0025 61.28 77.9305 60.592 78.7465 59.936C79.5785 59.264 80.2985 58.6 80.9065 57.944C81.5305 57.272 82.0345 56.584 82.4185 55.88C82.8185 55.176 83.1065 54.416 83.2825 53.6L83.0665 53.528C82.9225 53.848 82.7385 54.16 82.5145 54.464C82.3065 54.768 82.0505 55.04 81.7465 55.28C81.4585 55.504 81.1065 55.688 80.6905 55.832C80.2905 55.976 79.8185 56.048 79.2745 56.048C78.5705 56.048 77.9145 55.928 77.3065 55.688C76.6985 55.432 76.1705 55.08 75.7225 54.632C75.2905 54.168 74.9465 53.616 74.6905 52.976C74.4345 52.336 74.3065 51.616 74.3065 50.816C74.3065 49.968 74.4585 49.184 74.7625 48.464C75.0665 47.744 75.4905 47.128 76.0345 46.616C76.5945 46.088 77.2665 45.68 78.0505 45.392C78.8345 45.104 79.7065 44.96 80.6665 44.96C81.6745 44.96 82.5705 45.12 83.3545 45.44C84.1545 45.744 84.8265 46.192 85.3705 46.784C85.9145 47.36 86.3305 48.056 86.6185 48.872C86.9065 49.688 87.0505 50.6 87.0505 51.608ZM80.6905 53.288C81.5065 53.288 82.1465 53.072 82.6105 52.64C83.0745 52.192 83.3065 51.552 83.3065 50.72V50.384C83.3065 49.552 83.0825 48.912 82.6345 48.464C82.2025 48 81.5545 47.768 80.6905 47.768C79.8265 47.768 79.1705 48 78.7225 48.464C78.2745 48.912 78.0505 49.552 78.0505 50.384V50.72C78.0505 51.552 78.2745 52.192 78.7225 52.64C79.1865 53.072 79.8425 53.288 80.6905 53.288ZM95.2491 62.288C94.2411 62.288 93.3371 62.136 92.5371 61.832C91.7531 61.512 91.0891 61.064 90.5451 60.488C90.0011 59.896 89.5851 59.192 89.2971 58.376C89.0091 57.56 88.8651 56.648 88.8651 55.64C88.8651 54.472 89.0491 53.368 89.4171 52.328C89.7851 51.272 90.2571 50.304 90.8331 49.424C91.4251 48.528 92.0811 47.728 92.8011 47.024C93.5371 46.32 94.2651 45.728 94.9851 45.248H99.9531C98.9131 45.968 97.9771 46.664 97.1451 47.336C96.3291 47.992 95.6091 48.656 94.9851 49.328C94.3771 49.984 93.8731 50.664 93.4731 51.368C93.0891 52.072 92.8091 52.832 92.6331 53.648L92.8491 53.72C92.9931 53.4 93.1691 53.088 93.3771 52.784C93.5851 52.48 93.8411 52.216 94.1451 51.992C94.4491 51.752 94.8011 51.56 95.2011 51.416C95.6171 51.272 96.0971 51.2 96.6411 51.2C97.3451 51.2 98.0011 51.328 98.6091 51.584C99.2171 51.824 99.7371 52.176 100.169 52.64C100.617 53.088 100.969 53.632 101.225 54.272C101.481 54.912 101.609 55.632 101.609 56.432C101.609 57.28 101.457 58.064 101.153 58.784C100.849 59.504 100.417 60.128 99.8571 60.656C99.3131 61.168 98.6491 61.568 97.8651 61.856C97.0811 62.144 96.2091 62.288 95.2491 62.288ZM95.2251 59.48C96.0891 59.48 96.7451 59.256 97.1931 58.808C97.6411 58.344 97.8651 57.696 97.8651 56.864V56.528C97.8651 55.696 97.6331 55.064 97.1691 54.632C96.7211 54.184 96.0731 53.96 95.2251 53.96C94.4091 53.96 93.7691 54.184 93.3051 54.632C92.8411 55.064 92.6091 55.696 92.6091 56.528V56.864C92.6091 57.696 92.8251 58.344 93.2571 58.808C93.7051 59.256 94.3611 59.48 95.2251 59.48ZM109.544 62.288C108.536 62.288 107.64 62.168 106.856 61.928C106.072 61.672 105.408 61.328 104.864 60.896C104.32 60.464 103.904 59.952 103.616 59.36C103.344 58.752 103.208 58.096 103.208 57.392C103.208 56.304 103.52 55.432 104.144 54.776C104.768 54.104 105.568 53.632 106.544 53.36V53.168C105.712 52.864 105.032 52.4 104.504 51.776C103.976 51.152 103.712 50.352 103.712 49.376C103.712 48.736 103.84 48.144 104.096 47.6C104.352 47.056 104.728 46.592 105.224 46.208C105.72 45.808 106.328 45.504 107.048 45.296C107.768 45.072 108.6 44.96 109.544 44.96C110.472 44.96 111.296 45.072 112.016 45.296C112.752 45.504 113.368 45.808 113.864 46.208C114.36 46.592 114.736 47.056 114.992 47.6C115.248 48.144 115.376 48.736 115.376 49.376C115.376 50.352 115.112 51.152 114.584 51.776C114.056 52.4 113.376 52.864 112.544 53.168V53.36C113.52 53.632 114.32 54.104 114.944 54.776C115.568 55.432 115.88 56.304 115.88 57.392C115.88 58.096 115.736 58.752 115.448 59.36C115.176 59.952 114.768 60.464 114.224 60.896C113.68 61.328 113.016 61.672 112.232 61.928C111.448 62.168 110.552 62.288 109.544 62.288ZM109.544 59.528C110.376 59.528 111.008 59.336 111.44 58.952C111.888 58.568 112.112 58.048 112.112 57.392V56.912C112.112 56.24 111.896 55.72 111.464 55.352C111.032 54.968 110.392 54.776 109.544 54.776C108.696 54.776 108.056 54.968 107.624 55.352C107.192 55.72 106.976 56.24 106.976 56.912V57.392C106.976 58.048 107.192 58.568 107.624 58.952C108.072 59.336 108.712 59.528 109.544 59.528ZM109.544 52.136C110.344 52.136 110.952 51.952 111.368 51.584C111.784 51.216 111.992 50.72 111.992 50.096V49.736C111.992 49.112 111.776 48.624 111.344 48.272C110.928 47.904 110.328 47.72 109.544 47.72C108.76 47.72 108.152 47.904 107.72 48.272C107.304 48.624 107.096 49.112 107.096 49.736V50.096C107.096 50.72 107.304 51.216 107.72 51.584C108.136 51.952 108.744 52.136 109.544 52.136ZM123.934 62.288C123.038 62.288 122.39 62.096 121.99 61.712C121.606 61.312 121.414 60.84 121.414 60.296V59.456C121.414 58.912 121.606 58.448 121.99 58.064C122.39 57.664 123.038 57.464 123.934 57.464C124.83 57.464 125.47 57.664 125.854 58.064C126.254 58.448 126.454 58.912 126.454 59.456V60.296C126.454 60.84 126.254 61.312 125.854 61.712C125.47 62.096 124.83 62.288 123.934 62.288ZM138.325 62.288C136.085 62.288 134.429 61.528 133.357 60.008C132.301 58.488 131.773 56.36 131.773 53.624C131.773 50.888 132.301 48.76 133.357 47.24C134.429 45.72 136.085 44.96 138.325 44.96C140.565 44.96 142.213 45.72 143.269 47.24C144.341 48.76 144.877 50.888 144.877 53.624C144.877 56.36 144.341 58.488 143.269 60.008C142.213 61.528 140.565 62.288 138.325 62.288ZM138.325 59.456C139.397 59.456 140.141 59.08 140.557 58.328C140.989 57.576 141.205 56.528 141.205 55.184V52.064C141.205 50.72 140.989 49.672 140.557 48.92C140.141 48.168 139.397 47.792 138.325 47.792C137.253 47.792 136.501 48.168 136.069 48.92C135.653 49.672 135.445 50.72 135.445 52.064V55.184C135.445 56.528 135.653 57.576 136.069 58.328C136.501 59.08 137.253 59.456 138.325 59.456ZM138.325 55.04C137.765 55.04 137.373 54.928 137.149 54.704C136.941 54.48 136.837 54.208 136.837 53.888V53.36C136.837 53.04 136.941 52.768 137.149 52.544C137.373 52.32 137.765 52.208 138.325 52.208C138.885 52.208 139.269 52.32 139.477 52.544C139.701 52.768 139.813 53.04 139.813 53.36V53.888C139.813 54.208 139.701 54.48 139.477 54.704C139.269 54.928 138.885 55.04 138.325 55.04ZM152.716 62.288C150.476 62.288 148.82 61.528 147.748 60.008C146.692 58.488 146.164 56.36 146.164 53.624C146.164 50.888 146.692 48.76 147.748 47.24C148.82 45.72 150.476 44.96 152.716 44.96C154.956 44.96 156.604 45.72 157.66 47.24C158.732 48.76 159.268 50.888 159.268 53.624C159.268 56.36 158.732 58.488 157.66 60.008C156.604 61.528 154.956 62.288 152.716 62.288ZM152.716 59.456C153.788 59.456 154.532 59.08 154.948 58.328C155.38 57.576 155.596 56.528 155.596 55.184V52.064C155.596 50.72 155.38 49.672 154.948 48.92C154.532 48.168 153.788 47.792 152.716 47.792C151.644 47.792 150.892 48.168 150.46 48.92C150.044 49.672 149.836 50.72 149.836 52.064V55.184C149.836 56.528 150.044 57.576 150.46 58.328C150.892 59.08 151.644 59.456 152.716 59.456ZM152.716 55.04C152.156 55.04 151.764 54.928 151.54 54.704C151.332 54.48 151.228 54.208 151.228 53.888V53.36C151.228 53.04 151.332 52.768 151.54 52.544C151.764 52.32 152.156 52.208 152.716 52.208C153.276 52.208 153.66 52.32 153.868 52.544C154.092 52.768 154.204 53.04 154.204 53.36V53.888C154.204 54.208 154.092 54.48 153.868 54.704C153.66 54.928 153.276 55.04 152.716 55.04Z" fill="white"/>
<path d="M17.232 31H20.97C22.482 31 23.602 29.768 23.602 28.186C23.602 26.828 22.804 26.142 21.712 25.89V25.848C22.608 25.568 23.238 24.91 23.238 23.748C23.238 22.222 22.216 21.228 20.55 21.228H17.232V31ZM18.408 29.978V26.436H20.62C21.698 26.436 22.356 26.94 22.356 27.92V28.494C22.356 29.488 21.698 29.978 20.62 29.978H18.408ZM18.408 25.47V22.25H20.424C21.404 22.25 22.006 22.698 22.006 23.594V24.14C22.006 25.036 21.404 25.47 20.424 25.47H18.408ZM32.0945 31V30.02H31.0865V26.044C31.0865 24.518 30.0085 23.608 28.3145 23.608C26.8445 23.608 25.9205 24.308 25.5565 25.064L26.3125 25.624C26.6905 24.966 27.2785 24.56 28.2445 24.56C29.3365 24.56 29.9665 25.106 29.9665 26.156V26.87H28.4265C26.2565 26.87 25.3185 27.64 25.3185 28.97C25.3185 30.328 26.2845 31.168 27.7965 31.168C28.9725 31.168 29.6585 30.65 29.9665 29.824H30.0365C30.1205 30.496 30.4565 31 31.3245 31H32.0945ZM27.9925 30.23C27.0685 30.23 26.4945 29.838 26.4945 29.096V28.802C26.4945 28.102 27.0965 27.71 28.4265 27.71H29.9665V28.9C29.9665 29.642 29.1405 30.23 27.9925 30.23ZM33.9091 31H40.0691V30.048H37.5491V20.64H33.9091V21.592H36.4291V30.048H33.9091V31ZM48.8836 31V30.02H47.8756V26.044C47.8756 24.518 46.7976 23.608 45.1036 23.608C43.6336 23.608 42.7096 24.308 42.3456 25.064L43.1016 25.624C43.4796 24.966 44.0676 24.56 45.0336 24.56C46.1256 24.56 46.7556 25.106 46.7556 26.156V26.87H45.2156C43.0456 26.87 42.1076 27.64 42.1076 28.97C42.1076 30.328 43.0736 31.168 44.5856 31.168C45.7616 31.168 46.4476 30.65 46.7556 29.824H46.8256C46.9096 30.496 47.2456 31 48.1136 31H48.8836ZM44.7816 30.23C43.8576 30.23 43.2836 29.838 43.2836 29.096V28.802C43.2836 28.102 43.8856 27.71 45.2156 27.71H46.7556V28.9C46.7556 29.642 45.9296 30.23 44.7816 30.23ZM52.0701 31V25.988C52.0701 25.036 52.9661 24.602 53.8621 24.602C54.9681 24.602 55.5701 25.246 55.5701 26.562V31H56.6901V26.366C56.6901 24.616 55.6961 23.608 54.1841 23.608C52.9941 23.608 52.4341 24.238 52.1261 24.952H52.0701V23.776H50.9501V31H52.0701ZM62.4247 31.168C63.8667 31.168 64.7767 30.454 65.1967 29.488L64.3987 28.942C64.0347 29.726 63.4047 30.202 62.4387 30.202C61.0807 30.202 60.3527 29.278 60.3527 28.004V26.772C60.3527 25.498 61.0947 24.574 62.4107 24.574C63.3067 24.574 63.9227 25.008 64.1887 25.75L65.0847 25.274C64.6787 24.294 63.8107 23.608 62.4107 23.608C60.3667 23.608 59.1487 25.092 59.1487 27.388C59.1487 29.67 60.3527 31.168 62.4247 31.168ZM70.6932 31.168C72.1212 31.168 73.1572 30.468 73.5912 29.502L72.7652 28.942C72.3872 29.726 71.6592 30.202 70.6932 30.202C69.3352 30.202 68.4812 29.278 68.4812 28.004V27.668H73.8292V27.136C73.8292 25.092 72.5692 23.608 70.6232 23.608C68.6632 23.608 67.3052 25.092 67.3052 27.402C67.3052 29.684 68.6212 31.168 70.6932 31.168ZM70.6232 24.532C71.8132 24.532 72.6252 25.4 72.6252 26.674V26.828H68.4812V26.73C68.4812 25.47 69.3912 24.532 70.6232 24.532Z" fill="#F2F2F2"/>
<circle cx="75" cy="108" r="3" fill="white"/>
<circle cx="87" cy="108" r="3" fill="white"/>
<circle cx="99" cy="108" r="3" fill="white"/>
<circle cx="111" cy="108" r="3" fill="white"/>
<circle cx="133" cy="108" r="3" fill="white"/>
<circle cx="145" cy="108" r="3" fill="white"/>
<circle cx="157" cy="108" r="3" fill="white"/>
<circle cx="169" cy="108" r="3" fill="white"/>
<circle cx="191" cy="108" r="3" fill="white"/>
<circle cx="203" cy="108" r="3" fill="white"/>
<circle cx="215" cy="108" r="3" fill="white"/>
<circle cx="227" cy="108" r="3" fill="white"/>
<path d="M250.336 107.44C251.051 107.44 251.579 107.291 251.92 106.992C252.272 106.683 252.448 106.299 252.448 105.84V105.728C252.448 105.216 252.277 104.827 251.936 104.56C251.605 104.283 251.157 104.144 250.592 104.144C250.048 104.144 249.584 104.267 249.2 104.512C248.827 104.757 248.512 105.093 248.256 105.52L247.04 104.48C247.211 104.235 247.408 104 247.632 103.776C247.856 103.552 248.112 103.36 248.4 103.2C248.688 103.029 249.019 102.896 249.392 102.8C249.765 102.693 250.187 102.64 250.656 102.64C251.179 102.64 251.664 102.704 252.112 102.832C252.56 102.96 252.949 103.152 253.28 103.408C253.611 103.653 253.867 103.957 254.048 104.32C254.229 104.672 254.32 105.072 254.32 105.52C254.32 105.872 254.261 106.192 254.144 106.48C254.037 106.768 253.883 107.024 253.68 107.248C253.488 107.461 253.259 107.637 252.992 107.776C252.725 107.915 252.443 108.016 252.144 108.08V108.16C252.464 108.224 252.768 108.331 253.056 108.48C253.344 108.619 253.6 108.805 253.824 109.04C254.048 109.264 254.224 109.536 254.352 109.856C254.48 110.165 254.544 110.523 254.544 110.928C254.544 111.419 254.448 111.867 254.256 112.272C254.064 112.667 253.787 113.008 253.424 113.296C253.072 113.584 252.645 113.808 252.144 113.968C251.643 114.117 251.083 114.192 250.464 114.192C249.941 114.192 249.477 114.133 249.072 114.016C248.677 113.909 248.325 113.765 248.016 113.584C247.707 113.392 247.435 113.179 247.2 112.944C246.976 112.699 246.779 112.448 246.608 112.192L247.936 111.168C248.213 111.616 248.539 111.984 248.912 112.272C249.296 112.549 249.819 112.688 250.48 112.688C251.184 112.688 251.723 112.528 252.096 112.208C252.469 111.877 252.656 111.424 252.656 110.848V110.72C252.656 110.144 252.459 109.707 252.064 109.408C251.68 109.099 251.12 108.944 250.384 108.944H249.184V107.44H250.336ZM258.298 114L262.442 104.32H258.09V106.384H256.538V102.832H264.234V104.4L260.202 114H258.298ZM270.02 114.192C269.39 114.192 268.83 114.091 268.34 113.888C267.849 113.685 267.433 113.397 267.092 113.024C266.75 112.64 266.489 112.181 266.308 111.648C266.126 111.115 266.036 110.512 266.036 109.84C266.036 109.029 266.158 108.267 266.404 107.552C266.649 106.837 266.969 106.181 267.364 105.584C267.758 104.987 268.196 104.459 268.676 104C269.156 103.531 269.63 103.141 270.1 102.832H272.5C271.86 103.291 271.284 103.733 270.772 104.16C270.26 104.587 269.812 105.024 269.428 105.472C269.054 105.92 268.74 106.395 268.484 106.896C268.228 107.387 268.03 107.936 267.892 108.544L268.004 108.576C268.121 108.352 268.26 108.144 268.42 107.952C268.58 107.749 268.766 107.573 268.98 107.424C269.193 107.275 269.438 107.157 269.716 107.072C269.993 106.987 270.308 106.944 270.66 106.944C271.14 106.944 271.582 107.024 271.988 107.184C272.393 107.344 272.745 107.579 273.044 107.888C273.342 108.187 273.572 108.549 273.732 108.976C273.902 109.403 273.988 109.883 273.988 110.416C273.988 110.971 273.892 111.483 273.7 111.952C273.518 112.411 273.252 112.805 272.9 113.136C272.558 113.467 272.142 113.728 271.652 113.92C271.161 114.101 270.617 114.192 270.02 114.192ZM270.004 112.752C270.686 112.752 271.214 112.571 271.588 112.208C271.961 111.835 272.148 111.312 272.148 110.64V110.48C272.148 109.808 271.961 109.291 271.588 108.928C271.214 108.555 270.686 108.368 270.004 108.368C269.332 108.368 268.809 108.555 268.436 108.928C268.062 109.291 267.876 109.808 267.876 110.48V110.64C267.876 111.312 268.062 111.835 268.436 112.208C268.809 112.571 269.332 112.752 270.004 112.752ZM282.957 104.384H277.885L277.597 108.352H277.725C277.981 107.915 278.291 107.568 278.653 107.312C279.016 107.045 279.512 106.912 280.141 106.912C280.621 106.912 281.064 106.992 281.469 107.152C281.885 107.312 282.243 107.541 282.541 107.84C282.851 108.139 283.091 108.507 283.261 108.944C283.443 109.371 283.533 109.856 283.533 110.4C283.533 110.955 283.443 111.467 283.261 111.936C283.08 112.395 282.819 112.795 282.477 113.136C282.136 113.467 281.715 113.728 281.213 113.92C280.712 114.101 280.141 114.192 279.501 114.192C279 114.192 278.552 114.133 278.157 114.016C277.773 113.909 277.427 113.765 277.117 113.584C276.819 113.392 276.557 113.179 276.333 112.944C276.109 112.699 275.912 112.448 275.741 112.192L277.053 111.168C277.192 111.381 277.336 111.584 277.485 111.776C277.645 111.957 277.821 112.117 278.013 112.256C278.205 112.395 278.424 112.501 278.669 112.576C278.925 112.651 279.213 112.688 279.533 112.688C280.227 112.688 280.755 112.501 281.117 112.128C281.48 111.744 281.661 111.227 281.661 110.576V110.448C281.661 109.797 281.475 109.291 281.101 108.928C280.739 108.565 280.216 108.384 279.533 108.384C279.032 108.384 278.637 108.475 278.349 108.656C278.061 108.837 277.811 109.04 277.597 109.264L276.109 109.056L276.525 102.832H282.957V104.384Z" fill="white"/>
<g opacity="0.7">
<rect x="16.5" y="94.5" width="39" height="27" rx="5.5" fill="white" stroke="#BDBDBD"/>
<path d="M16.4165 99.25H55.5832" stroke="#BDBDBD"/>
<path d="M16.4165 115H55.5832" stroke="#BDBDBD"/>
<path d="M33.0835 109.75H55.5835" stroke="#BDBDBD"/>
<path d="M16.4165 109.75H25.5832" stroke="#BDBDBD"/>
<path d="M33.0835 104.5H55.5835" stroke="#BDBDBD"/>
<path d="M16.4165 104.5H25.1665" stroke="#BDBDBD"/>
<path d="M29.75 94.875V99.6875" stroke="#BDBDBD"/>
<path d="M29.75 115V121.563" stroke="#BDBDBD"/>
<path d="M29.3332 99.25C27.032 99.25 25.1665 101.209 25.1665 103.625C25.1665 104.59 25.4639 105.481 25.9676 106.205C26.3371 106.735 26.3371 107.515 25.9676 108.045C25.4639 108.769 25.1665 109.66 25.1665 110.625C25.1665 113.041 27.032 115 29.3332 115C31.6344 115 33.4998 113.041 33.4998 110.625C33.4998 109.66 33.2025 108.769 32.6987 108.045C32.3293 107.515 32.3293 106.735 32.6987 106.205C33.046 105.706 33.2952 105.127 33.4165 104.5" stroke="#BDBDBD"/>
</g>
</svg>
