<svg width="375" height="350" viewBox="0 0 375 350" fill="none" xmlns="http://www.w3.org/2000/svg">
<mask id="mask0_156_6546" style="mask-type:alpha" maskUnits="userSpaceOnUse" x="0" y="0" width="375" height="350">
<path d="M0 0H375V318C375 335.673 360.673 350 343 350H32C14.3269 350 0 335.673 0 318V0Z" fill="#4CD080"/>
</mask>
<g mask="url(#mask0_156_6546)">
<g opacity="0.2" filter="url(#filter0_b_156_6546)">
<rect x="40" y="199" width="295" height="186" rx="16" fill="#030319"/>
</g>
<rect x="24" y="215" width="327" height="186" rx="16" fill="#FFAE58"/>
<ellipse opacity="0.6" cx="303.846" cy="245" rx="13.8462" ry="14" fill="white"/>
<ellipse opacity="0.4" cx="321.154" cy="245" rx="13.8462" ry="14" fill="white"/>
<path fill-rule="evenodd" clip-rule="evenodd" d="M312.5 255.93C315.665 253.364 317.692 249.421 317.692 245C317.692 240.579 315.665 236.637 312.5 234.071C309.335 236.637 307.308 240.579 307.308 245C307.308 249.421 309.334 253.364 312.5 255.93Z" fill="white"/>
<path d="M46.264 277.264C45.016 277.168 43.944 276.888 43.048 276.424C42.168 275.944 41.448 275.328 40.888 274.576L42.784 272.632C43.84 273.816 45.056 274.488 46.432 274.648V269.68L45.88 269.584C45.096 269.44 44.416 269.224 43.84 268.936C43.28 268.648 42.816 268.296 42.448 267.88C42.096 267.464 41.832 267 41.656 266.488C41.496 265.976 41.416 265.424 41.416 264.832C41.416 263.472 41.832 262.376 42.664 261.544C43.512 260.712 44.712 260.208 46.264 260.032V257.536H48.616V260.008C49.656 260.136 50.544 260.4 51.28 260.8C52.032 261.2 52.664 261.72 53.176 262.36L51.28 264.304C50.544 263.424 49.6 262.888 48.448 262.696V267.256L49.048 267.352C50.616 267.64 51.752 268.2 52.456 269.032C53.16 269.848 53.512 270.856 53.512 272.056C53.512 273.416 53.088 274.552 52.24 275.464C51.408 276.36 50.2 276.928 48.616 277.168V279.712H46.264V277.264ZM44.368 264.736C44.368 265.328 44.528 265.784 44.848 266.104C45.168 266.424 45.696 266.672 46.432 266.848V262.624C45.056 262.816 44.368 263.52 44.368 264.736ZM50.584 272.248C50.584 271.608 50.416 271.128 50.08 270.808C49.744 270.472 49.2 270.224 48.448 270.064V274.624C49.168 274.496 49.704 274.232 50.056 273.832C50.408 273.432 50.584 272.904 50.584 272.248ZM61.5906 277.288C60.5026 277.288 59.5586 277.096 58.7586 276.712C57.9586 276.312 57.2946 275.744 56.7666 275.008C56.2546 274.272 55.8706 273.368 55.6146 272.296C55.3746 271.224 55.2546 270 55.2546 268.624C55.2546 267.264 55.3746 266.048 55.6146 264.976C55.8706 263.888 56.2546 262.976 56.7666 262.24C57.2946 261.504 57.9586 260.944 58.7586 260.56C59.5586 260.16 60.5026 259.96 61.5906 259.96C63.7666 259.96 65.3666 260.72 66.3906 262.24C67.4146 263.76 67.9266 265.888 67.9266 268.624C67.9266 271.36 67.4146 273.488 66.3906 275.008C65.3666 276.528 63.7666 277.288 61.5906 277.288ZM61.5906 274.768C62.7426 274.768 63.5506 274.36 64.0146 273.544C64.4946 272.712 64.7346 271.568 64.7346 270.112V267.136C64.7346 265.68 64.4946 264.544 64.0146 263.728C63.5506 262.896 62.7426 262.48 61.5906 262.48C60.4386 262.48 59.6226 262.896 59.1426 263.728C58.6786 264.544 58.4466 265.68 58.4466 267.136V270.112C58.4466 271.568 58.6786 272.712 59.1426 273.544C59.6226 274.36 60.4386 274.768 61.5906 274.768ZM61.5906 270.04C61.0306 270.04 60.6386 269.928 60.4146 269.704C60.2066 269.48 60.1026 269.208 60.1026 268.888V268.36C60.1026 268.04 60.2066 267.768 60.4146 267.544C60.6386 267.32 61.0306 267.208 61.5906 267.208C62.1506 267.208 62.5346 267.32 62.7426 267.544C62.9666 267.768 63.0786 268.04 63.0786 268.36V268.888C63.0786 269.208 62.9666 269.48 62.7426 269.704C62.5346 269.928 62.1506 270.04 61.5906 270.04Z" fill="white"/>
<path d="M41.232 246H44.97C46.482 246 47.602 244.768 47.602 243.186C47.602 241.828 46.804 241.142 45.712 240.89V240.848C46.608 240.568 47.238 239.91 47.238 238.748C47.238 237.222 46.216 236.228 44.55 236.228H41.232V246ZM42.408 244.978V241.436H44.62C45.698 241.436 46.356 241.94 46.356 242.92V243.494C46.356 244.488 45.698 244.978 44.62 244.978H42.408ZM42.408 240.47V237.25H44.424C45.404 237.25 46.006 237.698 46.006 238.594V239.14C46.006 240.036 45.404 240.47 44.424 240.47H42.408ZM56.0945 246V245.02H55.0865V241.044C55.0865 239.518 54.0085 238.608 52.3145 238.608C50.8445 238.608 49.9205 239.308 49.5565 240.064L50.3125 240.624C50.6905 239.966 51.2785 239.56 52.2445 239.56C53.3365 239.56 53.9665 240.106 53.9665 241.156V241.87H52.4265C50.2565 241.87 49.3185 242.64 49.3185 243.97C49.3185 245.328 50.2845 246.168 51.7965 246.168C52.9725 246.168 53.6585 245.65 53.9665 244.824H54.0365C54.1205 245.496 54.4565 246 55.3245 246H56.0945ZM51.9925 245.23C51.0685 245.23 50.4945 244.838 50.4945 244.096V243.802C50.4945 243.102 51.0965 242.71 52.4265 242.71H53.9665V243.9C53.9665 244.642 53.1405 245.23 51.9925 245.23ZM57.9091 246H64.0691V245.048H61.5491V235.64H57.9091V236.592H60.4291V245.048H57.9091V246ZM72.8836 246V245.02H71.8756V241.044C71.8756 239.518 70.7976 238.608 69.1036 238.608C67.6336 238.608 66.7096 239.308 66.3456 240.064L67.1016 240.624C67.4796 239.966 68.0676 239.56 69.0336 239.56C70.1256 239.56 70.7556 240.106 70.7556 241.156V241.87H69.2156C67.0456 241.87 66.1076 242.64 66.1076 243.97C66.1076 245.328 67.0736 246.168 68.5856 246.168C69.7616 246.168 70.4476 245.65 70.7556 244.824H70.8256C70.9096 245.496 71.2456 246 72.1136 246H72.8836ZM68.7816 245.23C67.8576 245.23 67.2836 244.838 67.2836 244.096V243.802C67.2836 243.102 67.8856 242.71 69.2156 242.71H70.7556V243.9C70.7556 244.642 69.9296 245.23 68.7816 245.23ZM76.0701 246V240.988C76.0701 240.036 76.9661 239.602 77.8621 239.602C78.9681 239.602 79.5701 240.246 79.5701 241.562V246H80.6901V241.366C80.6901 239.616 79.6961 238.608 78.1841 238.608C76.9941 238.608 76.4341 239.238 76.1261 239.952H76.0701V238.776H74.9501V246H76.0701ZM86.4247 246.168C87.8667 246.168 88.7767 245.454 89.1967 244.488L88.3987 243.942C88.0347 244.726 87.4047 245.202 86.4387 245.202C85.0807 245.202 84.3527 244.278 84.3527 243.004V241.772C84.3527 240.498 85.0947 239.574 86.4107 239.574C87.3067 239.574 87.9227 240.008 88.1887 240.75L89.0847 240.274C88.6787 239.294 87.8107 238.608 86.4107 238.608C84.3667 238.608 83.1487 240.092 83.1487 242.388C83.1487 244.67 84.3527 246.168 86.4247 246.168ZM94.6932 246.168C96.1212 246.168 97.1572 245.468 97.5912 244.502L96.7652 243.942C96.3872 244.726 95.6592 245.202 94.6932 245.202C93.3352 245.202 92.4812 244.278 92.4812 243.004V242.668H97.8292V242.136C97.8292 240.092 96.5692 238.608 94.6232 238.608C92.6632 238.608 91.3052 240.092 91.3052 242.402C91.3052 244.684 92.6212 246.168 94.6932 246.168ZM94.6232 239.532C95.8132 239.532 96.6252 240.4 96.6252 241.674V241.828H92.4812V241.73C92.4812 240.47 93.3912 239.532 94.6232 239.532Z" fill="#F2F2F2"/>
<circle cx="107" cy="325" r="3" fill="white"/>
<circle cx="119" cy="325" r="3" fill="white"/>
<circle cx="131" cy="325" r="3" fill="white"/>
<circle cx="143" cy="325" r="3" fill="white"/>
<circle cx="165" cy="325" r="3" fill="white"/>
<circle cx="177" cy="325" r="3" fill="white"/>
<circle cx="189" cy="325" r="3" fill="white"/>
<circle cx="201" cy="325" r="3" fill="white"/>
<circle cx="223" cy="325" r="3" fill="white"/>
<circle cx="235" cy="325" r="3" fill="white"/>
<circle cx="247" cy="325" r="3" fill="white"/>
<circle cx="259" cy="325" r="3" fill="white"/>
<path d="M286.72 331H279.008V329.288L282.656 326.104C283.232 325.592 283.675 325.107 283.984 324.648C284.304 324.189 284.464 323.704 284.464 323.192V323.016C284.464 322.429 284.304 321.981 283.984 321.672C283.664 321.352 283.2 321.192 282.592 321.192C281.973 321.192 281.493 321.357 281.152 321.688C280.821 322.019 280.581 322.44 280.432 322.952L278.864 322.36C278.971 322.008 279.125 321.672 279.328 321.352C279.531 321.021 279.787 320.728 280.096 320.472C280.416 320.216 280.789 320.013 281.216 319.864C281.653 319.715 282.155 319.64 282.72 319.64C283.296 319.64 283.808 319.725 284.256 319.896C284.715 320.056 285.099 320.28 285.408 320.568C285.717 320.856 285.952 321.203 286.112 321.608C286.272 322.003 286.352 322.44 286.352 322.92C286.352 323.368 286.283 323.784 286.144 324.168C286.016 324.541 285.829 324.904 285.584 325.256C285.349 325.597 285.067 325.928 284.736 326.248C284.405 326.568 284.043 326.888 283.648 327.208L280.944 329.48H286.72V331ZM291.93 324.44C292.644 324.44 293.172 324.291 293.514 323.992C293.866 323.683 294.042 323.299 294.042 322.84V322.728C294.042 322.216 293.871 321.827 293.53 321.56C293.199 321.283 292.751 321.144 292.186 321.144C291.642 321.144 291.178 321.267 290.794 321.512C290.42 321.757 290.106 322.093 289.85 322.52L288.634 321.48C288.804 321.235 289.002 321 289.226 320.776C289.45 320.552 289.706 320.36 289.994 320.2C290.282 320.029 290.612 319.896 290.986 319.8C291.359 319.693 291.78 319.64 292.25 319.64C292.772 319.64 293.258 319.704 293.706 319.832C294.154 319.96 294.543 320.152 294.874 320.408C295.204 320.653 295.46 320.957 295.642 321.32C295.823 321.672 295.914 322.072 295.914 322.52C295.914 322.872 295.855 323.192 295.738 323.48C295.631 323.768 295.476 324.024 295.274 324.248C295.082 324.461 294.852 324.637 294.586 324.776C294.319 324.915 294.036 325.016 293.738 325.08V325.16C294.058 325.224 294.362 325.331 294.65 325.48C294.938 325.619 295.194 325.805 295.418 326.04C295.642 326.264 295.818 326.536 295.946 326.856C296.074 327.165 296.138 327.523 296.138 327.928C296.138 328.419 296.042 328.867 295.85 329.272C295.658 329.667 295.38 330.008 295.018 330.296C294.666 330.584 294.239 330.808 293.738 330.968C293.236 331.117 292.676 331.192 292.058 331.192C291.535 331.192 291.071 331.133 290.666 331.016C290.271 330.909 289.919 330.765 289.61 330.584C289.3 330.392 289.028 330.179 288.794 329.944C288.57 329.699 288.372 329.448 288.202 329.192L289.53 328.168C289.807 328.616 290.132 328.984 290.506 329.272C290.89 329.549 291.412 329.688 292.074 329.688C292.778 329.688 293.316 329.528 293.69 329.208C294.063 328.877 294.25 328.424 294.25 327.848V327.72C294.25 327.144 294.052 326.707 293.658 326.408C293.274 326.099 292.714 325.944 291.978 325.944H290.778V324.44H291.93ZM305.364 321.384H300.292L300.004 325.352H300.132C300.388 324.915 300.697 324.568 301.06 324.312C301.422 324.045 301.918 323.912 302.548 323.912C303.028 323.912 303.47 323.992 303.876 324.152C304.292 324.312 304.649 324.541 304.948 324.84C305.257 325.139 305.497 325.507 305.668 325.944C305.849 326.371 305.94 326.856 305.94 327.4C305.94 327.955 305.849 328.467 305.668 328.936C305.486 329.395 305.225 329.795 304.884 330.136C304.542 330.467 304.121 330.728 303.62 330.92C303.118 331.101 302.548 331.192 301.908 331.192C301.406 331.192 300.958 331.133 300.564 331.016C300.18 330.909 299.833 330.765 299.524 330.584C299.225 330.392 298.964 330.179 298.74 329.944C298.516 329.699 298.318 329.448 298.148 329.192L299.46 328.168C299.598 328.381 299.742 328.584 299.892 328.776C300.052 328.957 300.228 329.117 300.42 329.256C300.612 329.395 300.83 329.501 301.076 329.576C301.332 329.651 301.62 329.688 301.94 329.688C302.633 329.688 303.161 329.501 303.524 329.128C303.886 328.744 304.068 328.227 304.068 327.576V327.448C304.068 326.797 303.881 326.291 303.508 325.928C303.145 325.565 302.622 325.384 301.94 325.384C301.438 325.384 301.044 325.475 300.756 325.656C300.468 325.837 300.217 326.04 300.004 326.264L298.516 326.056L298.932 319.832H305.364V321.384ZM311.613 331.192C310.984 331.192 310.424 331.091 309.933 330.888C309.443 330.685 309.027 330.397 308.685 330.024C308.344 329.64 308.083 329.181 307.901 328.648C307.72 328.115 307.629 327.512 307.629 326.84C307.629 326.029 307.752 325.267 307.997 324.552C308.243 323.837 308.563 323.181 308.957 322.584C309.352 321.987 309.789 321.459 310.269 321C310.749 320.531 311.224 320.141 311.693 319.832H314.093C313.453 320.291 312.877 320.733 312.365 321.16C311.853 321.587 311.405 322.024 311.021 322.472C310.648 322.92 310.333 323.395 310.077 323.896C309.821 324.387 309.624 324.936 309.485 325.544L309.597 325.576C309.715 325.352 309.853 325.144 310.013 324.952C310.173 324.749 310.36 324.573 310.573 324.424C310.787 324.275 311.032 324.157 311.309 324.072C311.587 323.987 311.901 323.944 312.253 323.944C312.733 323.944 313.176 324.024 313.581 324.184C313.987 324.344 314.339 324.579 314.637 324.888C314.936 325.187 315.165 325.549 315.325 325.976C315.496 326.403 315.581 326.883 315.581 327.416C315.581 327.971 315.485 328.483 315.293 328.952C315.112 329.411 314.845 329.805 314.493 330.136C314.152 330.467 313.736 330.728 313.245 330.92C312.755 331.101 312.211 331.192 311.613 331.192ZM311.597 329.752C312.28 329.752 312.808 329.571 313.181 329.208C313.555 328.835 313.741 328.312 313.741 327.64V327.48C313.741 326.808 313.555 326.291 313.181 325.928C312.808 325.555 312.28 325.368 311.597 325.368C310.925 325.368 310.403 325.555 310.029 325.928C309.656 326.291 309.469 326.808 309.469 327.48V327.64C309.469 328.312 309.656 328.835 310.029 329.208C310.403 329.571 310.925 329.752 311.597 329.752Z" fill="white"/>
<g opacity="0.7">
<rect x="40.5" y="309.5" width="47" height="31" rx="5.5" fill="white" stroke="#BDBDBD"/>
<path d="M40.5 315H87.5" stroke="#BDBDBD"/>
<path d="M40.5 333H87.5" stroke="#BDBDBD"/>
<path d="M60.5 327H87.5" stroke="#BDBDBD"/>
<path d="M40.5 327H51.5" stroke="#BDBDBD"/>
<path d="M60.5 321H87.5" stroke="#BDBDBD"/>
<path d="M40.5 321H51" stroke="#BDBDBD"/>
<path d="M56.5 310V315.5" stroke="#BDBDBD"/>
<path d="M56.5 333V340.5" stroke="#BDBDBD"/>
<path d="M56 315C53.2386 315 51 317.239 51 320C51 321.157 51.3931 322.222 52.053 323.07C52.4622 323.595 52.4622 324.405 52.053 324.93C51.3931 325.778 51 326.843 51 328C51 330.761 53.2386 333 56 333C58.7614 333 61 330.761 61 328C61 326.843 60.6069 325.778 59.947 324.93C59.5378 324.405 59.5378 323.595 59.947 323.07C60.4116 322.473 60.744 321.769 60.9 321" stroke="#BDBDBD"/>
</g>
<rect x="24" y="215" width="327" height="186" rx="16" fill="#4CD080"/>
<ellipse opacity="0.6" cx="303.846" cy="245" rx="13.8462" ry="14" fill="white"/>
<ellipse opacity="0.4" cx="321.154" cy="245" rx="13.8462" ry="14" fill="white"/>
<path fill-rule="evenodd" clip-rule="evenodd" d="M312.5 255.93C315.665 253.364 317.692 249.421 317.692 245C317.692 240.579 315.665 236.637 312.5 234.071C309.335 236.637 307.308 240.579 307.308 245C307.308 249.421 309.334 253.364 312.5 255.93Z" fill="white"/>
<path d="M46.072 277.24C44.872 277.144 43.816 276.88 42.904 276.448C42.008 276 41.28 275.416 40.72 274.696L42.808 272.416C43.32 272.96 43.864 273.384 44.44 273.688C45.032 273.992 45.656 274.192 46.312 274.288V269.872L45.76 269.776C44.224 269.504 43.088 268.944 42.352 268.096C41.616 267.232 41.248 266.184 41.248 264.952C41.248 263.592 41.664 262.488 42.496 261.64C43.328 260.792 44.52 260.264 46.072 260.056V257.536H48.808V260.032C49.816 260.16 50.672 260.416 51.376 260.8C52.096 261.184 52.696 261.656 53.176 262.216L51.112 264.52C50.44 263.784 49.592 263.304 48.568 263.08V267.088L49.12 267.184C50.656 267.472 51.792 268.032 52.528 268.864C53.264 269.68 53.632 270.696 53.632 271.912C53.632 272.568 53.52 273.184 53.296 273.76C53.088 274.336 52.776 274.848 52.36 275.296C51.96 275.744 51.456 276.128 50.848 276.448C50.256 276.752 49.576 276.976 48.808 277.12V279.712H46.072V277.24ZM44.632 264.832C44.632 265.344 44.76 265.736 45.016 266.008C45.288 266.264 45.72 266.472 46.312 266.632V263.008C45.72 263.104 45.288 263.304 45.016 263.608C44.76 263.912 44.632 264.32 44.632 264.832ZM50.272 272.152C50.272 271.608 50.136 271.2 49.864 270.928C49.592 270.656 49.16 270.448 48.568 270.304V274.264C49.144 274.136 49.568 273.896 49.84 273.544C50.128 273.176 50.272 272.712 50.272 272.152ZM67.7106 277H55.6626V273.712L60.9426 269.32C61.8546 268.536 62.5106 267.856 62.9106 267.28C63.3106 266.704 63.5106 266.096 63.5106 265.456V265.216C63.5106 264.512 63.3026 263.984 62.8866 263.632C62.4706 263.264 61.9106 263.08 61.2066 263.08C60.4066 263.08 59.7906 263.312 59.3586 263.776C58.9266 264.24 58.6226 264.792 58.4466 265.432L55.3026 264.232C55.4946 263.656 55.7586 263.112 56.0946 262.6C56.4306 262.072 56.8546 261.616 57.3666 261.232C57.8946 260.848 58.5026 260.544 59.1906 260.32C59.8786 260.08 60.6706 259.96 61.5666 259.96C62.4786 259.96 63.2946 260.088 64.0146 260.344C64.7346 260.6 65.3426 260.952 65.8386 261.4C66.3346 261.848 66.7106 262.384 66.9666 263.008C67.2226 263.616 67.3506 264.28 67.3506 265C67.3506 265.704 67.2306 266.352 66.9906 266.944C66.7666 267.52 66.4466 268.064 66.0306 268.576C65.6306 269.088 65.1506 269.584 64.5906 270.064C64.0466 270.544 63.4626 271.024 62.8386 271.504L59.6466 273.976H67.7106V277ZM76.0773 277.288C75.0693 277.288 74.1653 277.136 73.3653 276.832C72.5813 276.512 71.9173 276.064 71.3733 275.488C70.8293 274.896 70.4133 274.192 70.1253 273.376C69.8373 272.56 69.6933 271.648 69.6933 270.64C69.6933 269.472 69.8773 268.368 70.2453 267.328C70.6133 266.272 71.0853 265.304 71.6613 264.424C72.2533 263.528 72.9093 262.728 73.6293 262.024C74.3653 261.32 75.0933 260.728 75.8133 260.248H80.7812C79.7413 260.968 78.8053 261.664 77.9733 262.336C77.1573 262.992 76.4373 263.656 75.8133 264.328C75.2053 264.984 74.7013 265.664 74.3013 266.368C73.9173 267.072 73.6373 267.832 73.4613 268.648L73.6773 268.72C73.8213 268.4 73.9973 268.088 74.2053 267.784C74.4133 267.48 74.6693 267.216 74.9733 266.992C75.2773 266.752 75.6293 266.56 76.0293 266.416C76.4453 266.272 76.9253 266.2 77.4693 266.2C78.1733 266.2 78.8293 266.328 79.4373 266.584C80.0453 266.824 80.5653 267.176 80.9973 267.64C81.4453 268.088 81.7973 268.632 82.0533 269.272C82.3093 269.912 82.4373 270.632 82.4373 271.432C82.4373 272.28 82.2853 273.064 81.9813 273.784C81.6773 274.504 81.2453 275.128 80.6853 275.656C80.1413 276.168 79.4773 276.568 78.6933 276.856C77.9093 277.144 77.0373 277.288 76.0773 277.288ZM76.0533 274.48C76.9173 274.48 77.5733 274.256 78.0213 273.808C78.4693 273.344 78.6933 272.696 78.6933 271.864V271.528C78.6933 270.696 78.4613 270.064 77.9973 269.632C77.5493 269.184 76.9013 268.96 76.0533 268.96C75.2373 268.96 74.5973 269.184 74.1333 269.632C73.6693 270.064 73.4373 270.696 73.4373 271.528V271.864C73.4373 272.696 73.6533 273.344 74.0853 273.808C74.5333 274.256 75.1893 274.48 76.0533 274.48ZM88.6199 272.824H93.1799L89.8919 280.624H87.2519L88.6199 272.824ZM111.051 266.608C111.051 267.792 110.867 268.904 110.499 269.944C110.131 270.984 109.651 271.952 109.059 272.848C108.483 273.728 107.827 274.52 107.091 275.224C106.371 275.928 105.651 276.52 104.931 277H99.9625C101.003 276.28 101.931 275.592 102.747 274.936C103.579 274.264 104.299 273.6 104.907 272.944C105.531 272.272 106.035 271.584 106.419 270.88C106.819 270.176 107.107 269.416 107.283 268.6L107.067 268.528C106.923 268.848 106.739 269.16 106.515 269.464C106.307 269.768 106.051 270.04 105.747 270.28C105.459 270.504 105.107 270.688 104.691 270.832C104.291 270.976 103.819 271.048 103.275 271.048C102.571 271.048 101.915 270.928 101.307 270.688C100.699 270.432 100.171 270.08 99.7225 269.632C99.2905 269.168 98.9465 268.616 98.6905 267.976C98.4345 267.336 98.3065 266.616 98.3065 265.816C98.3065 264.968 98.4585 264.184 98.7625 263.464C99.0665 262.744 99.4905 262.128 100.035 261.616C100.595 261.088 101.267 260.68 102.051 260.392C102.835 260.104 103.707 259.96 104.667 259.96C105.675 259.96 106.571 260.12 107.355 260.44C108.155 260.744 108.827 261.192 109.371 261.784C109.915 262.36 110.331 263.056 110.619 263.872C110.907 264.688 111.051 265.6 111.051 266.608ZM104.691 268.288C105.507 268.288 106.147 268.072 106.611 267.64C107.075 267.192 107.307 266.552 107.307 265.72V265.384C107.307 264.552 107.083 263.912 106.635 263.464C106.203 263 105.555 262.768 104.691 262.768C103.827 262.768 103.171 263 102.723 263.464C102.275 263.912 102.051 264.552 102.051 265.384V265.72C102.051 266.552 102.275 267.192 102.723 267.64C103.187 268.072 103.843 268.288 104.691 268.288ZM119.249 277.288C118.241 277.288 117.337 277.136 116.537 276.832C115.753 276.512 115.089 276.064 114.545 275.488C114.001 274.896 113.585 274.192 113.297 273.376C113.009 272.56 112.865 271.648 112.865 270.64C112.865 269.472 113.049 268.368 113.417 267.328C113.785 266.272 114.257 265.304 114.833 264.424C115.425 263.528 116.081 262.728 116.801 262.024C117.537 261.32 118.265 260.728 118.985 260.248H123.953C122.913 260.968 121.977 261.664 121.145 262.336C120.329 262.992 119.609 263.656 118.985 264.328C118.377 264.984 117.873 265.664 117.473 266.368C117.089 267.072 116.809 267.832 116.633 268.648L116.849 268.72C116.993 268.4 117.169 268.088 117.377 267.784C117.585 267.48 117.841 267.216 118.145 266.992C118.449 266.752 118.801 266.56 119.201 266.416C119.617 266.272 120.097 266.2 120.641 266.2C121.345 266.2 122.001 266.328 122.609 266.584C123.217 266.824 123.737 267.176 124.169 267.64C124.617 268.088 124.969 268.632 125.225 269.272C125.481 269.912 125.609 270.632 125.609 271.432C125.609 272.28 125.457 273.064 125.153 273.784C124.849 274.504 124.417 275.128 123.857 275.656C123.313 276.168 122.649 276.568 121.865 276.856C121.081 277.144 120.209 277.288 119.249 277.288ZM119.225 274.48C120.089 274.48 120.745 274.256 121.193 273.808C121.641 273.344 121.865 272.696 121.865 271.864V271.528C121.865 270.696 121.633 270.064 121.169 269.632C120.721 269.184 120.073 268.96 119.225 268.96C118.409 268.96 117.769 269.184 117.305 269.632C116.841 270.064 116.609 270.696 116.609 271.528V271.864C116.609 272.696 116.825 273.344 117.257 273.808C117.705 274.256 118.361 274.48 119.225 274.48ZM133.544 277.288C132.536 277.288 131.64 277.168 130.856 276.928C130.072 276.672 129.408 276.328 128.864 275.896C128.32 275.464 127.904 274.952 127.616 274.36C127.344 273.752 127.208 273.096 127.208 272.392C127.208 271.304 127.52 270.432 128.144 269.776C128.768 269.104 129.568 268.632 130.544 268.36V268.168C129.712 267.864 129.032 267.4 128.504 266.776C127.976 266.152 127.712 265.352 127.712 264.376C127.712 263.736 127.84 263.144 128.096 262.6C128.352 262.056 128.728 261.592 129.224 261.208C129.72 260.808 130.328 260.504 131.048 260.296C131.768 260.072 132.6 259.96 133.544 259.96C134.472 259.96 135.296 260.072 136.016 260.296C136.752 260.504 137.368 260.808 137.864 261.208C138.36 261.592 138.736 262.056 138.992 262.6C139.248 263.144 139.376 263.736 139.376 264.376C139.376 265.352 139.112 266.152 138.584 266.776C138.056 267.4 137.376 267.864 136.544 268.168V268.36C137.52 268.632 138.32 269.104 138.944 269.776C139.568 270.432 139.88 271.304 139.88 272.392C139.88 273.096 139.736 273.752 139.448 274.36C139.176 274.952 138.768 275.464 138.224 275.896C137.68 276.328 137.016 276.672 136.232 276.928C135.448 277.168 134.552 277.288 133.544 277.288ZM133.544 274.528C134.376 274.528 135.008 274.336 135.44 273.952C135.888 273.568 136.112 273.048 136.112 272.392V271.912C136.112 271.24 135.896 270.72 135.464 270.352C135.032 269.968 134.392 269.776 133.544 269.776C132.696 269.776 132.056 269.968 131.624 270.352C131.192 270.72 130.976 271.24 130.976 271.912V272.392C130.976 273.048 131.192 273.568 131.624 273.952C132.072 274.336 132.712 274.528 133.544 274.528ZM133.544 267.136C134.344 267.136 134.952 266.952 135.368 266.584C135.784 266.216 135.992 265.72 135.992 265.096V264.736C135.992 264.112 135.776 263.624 135.344 263.272C134.928 262.904 134.328 262.72 133.544 262.72C132.76 262.72 132.152 262.904 131.72 263.272C131.304 263.624 131.096 264.112 131.096 264.736V265.096C131.096 265.72 131.304 266.216 131.72 266.584C132.136 266.952 132.744 267.136 133.544 267.136ZM147.934 277.288C147.038 277.288 146.39 277.096 145.99 276.712C145.606 276.312 145.414 275.84 145.414 275.296V274.456C145.414 273.912 145.606 273.448 145.99 273.064C146.39 272.664 147.038 272.464 147.934 272.464C148.83 272.464 149.47 272.664 149.854 273.064C150.254 273.448 150.454 273.912 150.454 274.456V275.296C150.454 275.84 150.254 276.312 149.854 276.712C149.47 277.096 148.83 277.288 147.934 277.288ZM162.325 277.288C160.085 277.288 158.429 276.528 157.357 275.008C156.301 273.488 155.773 271.36 155.773 268.624C155.773 265.888 156.301 263.76 157.357 262.24C158.429 260.72 160.085 259.96 162.325 259.96C164.565 259.96 166.213 260.72 167.269 262.24C168.341 263.76 168.877 265.888 168.877 268.624C168.877 271.36 168.341 273.488 167.269 275.008C166.213 276.528 164.565 277.288 162.325 277.288ZM162.325 274.456C163.397 274.456 164.141 274.08 164.557 273.328C164.989 272.576 165.205 271.528 165.205 270.184V267.064C165.205 265.72 164.989 264.672 164.557 263.92C164.141 263.168 163.397 262.792 162.325 262.792C161.253 262.792 160.501 263.168 160.069 263.92C159.653 264.672 159.445 265.72 159.445 267.064V270.184C159.445 271.528 159.653 272.576 160.069 273.328C160.501 274.08 161.253 274.456 162.325 274.456ZM162.325 270.04C161.765 270.04 161.373 269.928 161.149 269.704C160.941 269.48 160.837 269.208 160.837 268.888V268.36C160.837 268.04 160.941 267.768 161.149 267.544C161.373 267.32 161.765 267.208 162.325 267.208C162.885 267.208 163.269 267.32 163.477 267.544C163.701 267.768 163.813 268.04 163.813 268.36V268.888C163.813 269.208 163.701 269.48 163.477 269.704C163.269 269.928 162.885 270.04 162.325 270.04ZM176.716 277.288C174.476 277.288 172.82 276.528 171.748 275.008C170.692 273.488 170.164 271.36 170.164 268.624C170.164 265.888 170.692 263.76 171.748 262.24C172.82 260.72 174.476 259.96 176.716 259.96C178.956 259.96 180.604 260.72 181.66 262.24C182.732 263.76 183.268 265.888 183.268 268.624C183.268 271.36 182.732 273.488 181.66 275.008C180.604 276.528 178.956 277.288 176.716 277.288ZM176.716 274.456C177.788 274.456 178.532 274.08 178.948 273.328C179.38 272.576 179.596 271.528 179.596 270.184V267.064C179.596 265.72 179.38 264.672 178.948 263.92C178.532 263.168 177.788 262.792 176.716 262.792C175.644 262.792 174.892 263.168 174.46 263.92C174.044 264.672 173.836 265.72 173.836 267.064V270.184C173.836 271.528 174.044 272.576 174.46 273.328C174.892 274.08 175.644 274.456 176.716 274.456ZM176.716 270.04C176.156 270.04 175.764 269.928 175.54 269.704C175.332 269.48 175.228 269.208 175.228 268.888V268.36C175.228 268.04 175.332 267.768 175.54 267.544C175.764 267.32 176.156 267.208 176.716 267.208C177.276 267.208 177.66 267.32 177.868 267.544C178.092 267.768 178.204 268.04 178.204 268.36V268.888C178.204 269.208 178.092 269.48 177.868 269.704C177.66 269.928 177.276 270.04 176.716 270.04Z" fill="white"/>
<path d="M41.232 246H44.97C46.482 246 47.602 244.768 47.602 243.186C47.602 241.828 46.804 241.142 45.712 240.89V240.848C46.608 240.568 47.238 239.91 47.238 238.748C47.238 237.222 46.216 236.228 44.55 236.228H41.232V246ZM42.408 244.978V241.436H44.62C45.698 241.436 46.356 241.94 46.356 242.92V243.494C46.356 244.488 45.698 244.978 44.62 244.978H42.408ZM42.408 240.47V237.25H44.424C45.404 237.25 46.006 237.698 46.006 238.594V239.14C46.006 240.036 45.404 240.47 44.424 240.47H42.408ZM56.0945 246V245.02H55.0865V241.044C55.0865 239.518 54.0085 238.608 52.3145 238.608C50.8445 238.608 49.9205 239.308 49.5565 240.064L50.3125 240.624C50.6905 239.966 51.2785 239.56 52.2445 239.56C53.3365 239.56 53.9665 240.106 53.9665 241.156V241.87H52.4265C50.2565 241.87 49.3185 242.64 49.3185 243.97C49.3185 245.328 50.2845 246.168 51.7965 246.168C52.9725 246.168 53.6585 245.65 53.9665 244.824H54.0365C54.1205 245.496 54.4565 246 55.3245 246H56.0945ZM51.9925 245.23C51.0685 245.23 50.4945 244.838 50.4945 244.096V243.802C50.4945 243.102 51.0965 242.71 52.4265 242.71H53.9665V243.9C53.9665 244.642 53.1405 245.23 51.9925 245.23ZM57.9091 246H64.0691V245.048H61.5491V235.64H57.9091V236.592H60.4291V245.048H57.9091V246ZM72.8836 246V245.02H71.8756V241.044C71.8756 239.518 70.7976 238.608 69.1036 238.608C67.6336 238.608 66.7096 239.308 66.3456 240.064L67.1016 240.624C67.4796 239.966 68.0676 239.56 69.0336 239.56C70.1256 239.56 70.7556 240.106 70.7556 241.156V241.87H69.2156C67.0456 241.87 66.1076 242.64 66.1076 243.97C66.1076 245.328 67.0736 246.168 68.5856 246.168C69.7616 246.168 70.4476 245.65 70.7556 244.824H70.8256C70.9096 245.496 71.2456 246 72.1136 246H72.8836ZM68.7816 245.23C67.8576 245.23 67.2836 244.838 67.2836 244.096V243.802C67.2836 243.102 67.8856 242.71 69.2156 242.71H70.7556V243.9C70.7556 244.642 69.9296 245.23 68.7816 245.23ZM76.0701 246V240.988C76.0701 240.036 76.9661 239.602 77.8621 239.602C78.9681 239.602 79.5701 240.246 79.5701 241.562V246H80.6901V241.366C80.6901 239.616 79.6961 238.608 78.1841 238.608C76.9941 238.608 76.4341 239.238 76.1261 239.952H76.0701V238.776H74.9501V246H76.0701ZM86.4247 246.168C87.8667 246.168 88.7767 245.454 89.1967 244.488L88.3987 243.942C88.0347 244.726 87.4047 245.202 86.4387 245.202C85.0807 245.202 84.3527 244.278 84.3527 243.004V241.772C84.3527 240.498 85.0947 239.574 86.4107 239.574C87.3067 239.574 87.9227 240.008 88.1887 240.75L89.0847 240.274C88.6787 239.294 87.8107 238.608 86.4107 238.608C84.3667 238.608 83.1487 240.092 83.1487 242.388C83.1487 244.67 84.3527 246.168 86.4247 246.168ZM94.6932 246.168C96.1212 246.168 97.1572 245.468 97.5912 244.502L96.7652 243.942C96.3872 244.726 95.6592 245.202 94.6932 245.202C93.3352 245.202 92.4812 244.278 92.4812 243.004V242.668H97.8292V242.136C97.8292 240.092 96.5692 238.608 94.6232 238.608C92.6632 238.608 91.3052 240.092 91.3052 242.402C91.3052 244.684 92.6212 246.168 94.6932 246.168ZM94.6232 239.532C95.8132 239.532 96.6252 240.4 96.6252 241.674V241.828H92.4812V241.73C92.4812 240.47 93.3912 239.532 94.6232 239.532Z" fill="#F2F2F2"/>
<circle cx="99" cy="323" r="3" fill="white"/>
<circle cx="111" cy="323" r="3" fill="white"/>
<circle cx="123" cy="323" r="3" fill="white"/>
<circle cx="135" cy="323" r="3" fill="white"/>
<circle cx="157" cy="323" r="3" fill="white"/>
<circle cx="169" cy="323" r="3" fill="white"/>
<circle cx="181" cy="323" r="3" fill="white"/>
<circle cx="193" cy="323" r="3" fill="white"/>
<circle cx="215" cy="323" r="3" fill="white"/>
<circle cx="227" cy="323" r="3" fill="white"/>
<circle cx="239" cy="323" r="3" fill="white"/>
<circle cx="251" cy="323" r="3" fill="white"/>
<path d="M274.336 322.44C275.051 322.44 275.579 322.291 275.92 321.992C276.272 321.683 276.448 321.299 276.448 320.84V320.728C276.448 320.216 276.277 319.827 275.936 319.56C275.605 319.283 275.157 319.144 274.592 319.144C274.048 319.144 273.584 319.267 273.2 319.512C272.827 319.757 272.512 320.093 272.256 320.52L271.04 319.48C271.211 319.235 271.408 319 271.632 318.776C271.856 318.552 272.112 318.36 272.4 318.2C272.688 318.029 273.019 317.896 273.392 317.8C273.765 317.693 274.187 317.64 274.656 317.64C275.179 317.64 275.664 317.704 276.112 317.832C276.56 317.96 276.949 318.152 277.28 318.408C277.611 318.653 277.867 318.957 278.048 319.32C278.229 319.672 278.32 320.072 278.32 320.52C278.32 320.872 278.261 321.192 278.144 321.48C278.037 321.768 277.883 322.024 277.68 322.248C277.488 322.461 277.259 322.637 276.992 322.776C276.725 322.915 276.443 323.016 276.144 323.08V323.16C276.464 323.224 276.768 323.331 277.056 323.48C277.344 323.619 277.6 323.805 277.824 324.04C278.048 324.264 278.224 324.536 278.352 324.856C278.48 325.165 278.544 325.523 278.544 325.928C278.544 326.419 278.448 326.867 278.256 327.272C278.064 327.667 277.787 328.008 277.424 328.296C277.072 328.584 276.645 328.808 276.144 328.968C275.643 329.117 275.083 329.192 274.464 329.192C273.941 329.192 273.477 329.133 273.072 329.016C272.677 328.909 272.325 328.765 272.016 328.584C271.707 328.392 271.435 328.179 271.2 327.944C270.976 327.699 270.779 327.448 270.608 327.192L271.936 326.168C272.213 326.616 272.539 326.984 272.912 327.272C273.296 327.549 273.819 327.688 274.48 327.688C275.184 327.688 275.723 327.528 276.096 327.208C276.469 326.877 276.656 326.424 276.656 325.848V325.72C276.656 325.144 276.459 324.707 276.064 324.408C275.68 324.099 275.12 323.944 274.384 323.944H273.184V322.44H274.336ZM282.298 329L286.442 319.32H282.09V321.384H280.538V317.832H288.234V319.4L284.202 329H282.298ZM294.02 329.192C293.39 329.192 292.83 329.091 292.34 328.888C291.849 328.685 291.433 328.397 291.092 328.024C290.75 327.64 290.489 327.181 290.308 326.648C290.126 326.115 290.036 325.512 290.036 324.84C290.036 324.029 290.158 323.267 290.404 322.552C290.649 321.837 290.969 321.181 291.364 320.584C291.758 319.987 292.196 319.459 292.676 319C293.156 318.531 293.63 318.141 294.1 317.832H296.5C295.86 318.291 295.284 318.733 294.772 319.16C294.26 319.587 293.812 320.024 293.428 320.472C293.054 320.92 292.74 321.395 292.484 321.896C292.228 322.387 292.03 322.936 291.892 323.544L292.004 323.576C292.121 323.352 292.26 323.144 292.42 322.952C292.58 322.749 292.766 322.573 292.98 322.424C293.193 322.275 293.438 322.157 293.716 322.072C293.993 321.987 294.308 321.944 294.66 321.944C295.14 321.944 295.582 322.024 295.988 322.184C296.393 322.344 296.745 322.579 297.044 322.888C297.342 323.187 297.572 323.549 297.732 323.976C297.902 324.403 297.988 324.883 297.988 325.416C297.988 325.971 297.892 326.483 297.7 326.952C297.518 327.411 297.252 327.805 296.9 328.136C296.558 328.467 296.142 328.728 295.652 328.92C295.161 329.101 294.617 329.192 294.02 329.192ZM294.004 327.752C294.686 327.752 295.214 327.571 295.588 327.208C295.961 326.835 296.148 326.312 296.148 325.64V325.48C296.148 324.808 295.961 324.291 295.588 323.928C295.214 323.555 294.686 323.368 294.004 323.368C293.332 323.368 292.809 323.555 292.436 323.928C292.062 324.291 291.876 324.808 291.876 325.48V325.64C291.876 326.312 292.062 326.835 292.436 327.208C292.809 327.571 293.332 327.752 294.004 327.752ZM306.957 319.384H301.885L301.597 323.352H301.725C301.981 322.915 302.291 322.568 302.653 322.312C303.016 322.045 303.512 321.912 304.141 321.912C304.621 321.912 305.064 321.992 305.469 322.152C305.885 322.312 306.243 322.541 306.541 322.84C306.851 323.139 307.091 323.507 307.261 323.944C307.443 324.371 307.533 324.856 307.533 325.4C307.533 325.955 307.443 326.467 307.261 326.936C307.08 327.395 306.819 327.795 306.477 328.136C306.136 328.467 305.715 328.728 305.213 328.92C304.712 329.101 304.141 329.192 303.501 329.192C303 329.192 302.552 329.133 302.157 329.016C301.773 328.909 301.427 328.765 301.117 328.584C300.819 328.392 300.557 328.179 300.333 327.944C300.109 327.699 299.912 327.448 299.741 327.192L301.053 326.168C301.192 326.381 301.336 326.584 301.485 326.776C301.645 326.957 301.821 327.117 302.013 327.256C302.205 327.395 302.424 327.501 302.669 327.576C302.925 327.651 303.213 327.688 303.533 327.688C304.227 327.688 304.755 327.501 305.117 327.128C305.48 326.744 305.661 326.227 305.661 325.576V325.448C305.661 324.797 305.475 324.291 305.101 323.928C304.739 323.565 304.216 323.384 303.533 323.384C303.032 323.384 302.637 323.475 302.349 323.656C302.061 323.837 301.811 324.04 301.597 324.264L300.109 324.056L300.525 317.832H306.957V319.384Z" fill="white"/>
<g opacity="0.7">
<rect x="40.5" y="309.5" width="39" height="27" rx="5.5" fill="white" stroke="#BDBDBD"/>
<path d="M40.4165 314.25H79.5832" stroke="#BDBDBD"/>
<path d="M40.4165 330H79.5832" stroke="#BDBDBD"/>
<path d="M57.0835 324.75H79.5835" stroke="#BDBDBD"/>
<path d="M40.4165 324.75H49.5832" stroke="#BDBDBD"/>
<path d="M57.0835 319.5H79.5835" stroke="#BDBDBD"/>
<path d="M40.4165 319.5H49.1665" stroke="#BDBDBD"/>
<path d="M53.75 309.875V314.688" stroke="#BDBDBD"/>
<path d="M53.75 330V336.563" stroke="#BDBDBD"/>
<path d="M53.3332 314.25C51.032 314.25 49.1665 316.209 49.1665 318.625C49.1665 319.59 49.4639 320.481 49.9676 321.205C50.3371 321.735 50.3371 322.515 49.9676 323.045C49.4639 323.769 49.1665 324.66 49.1665 325.625C49.1665 328.041 51.032 330 53.3332 330C55.6344 330 57.4998 328.041 57.4998 325.625C57.4998 324.66 57.2025 323.769 56.6987 323.045C56.3293 322.515 56.3293 321.735 56.6987 321.205C57.046 320.706 57.2952 320.127 57.4165 319.5" stroke="#BDBDBD"/>
</g>
</g>
<defs>
<filter id="filter0_b_156_6546" x="-160" y="-1" width="695" height="586" filterUnits="userSpaceOnUse" color-interpolation-filters="sRGB">
<feFlood flood-opacity="0" result="BackgroundImageFix"/>
<feGaussianBlur in="BackgroundImage" stdDeviation="100"/>
<feComposite in2="SourceAlpha" operator="in" result="effect1_backgroundBlur_156_6546"/>
<feBlend mode="normal" in="SourceGraphic" in2="effect1_backgroundBlur_156_6546" result="shape"/>
</filter>
</defs>
</svg>
