<svg width="24" height="24" viewBox="0 0 24 24" fill="none" xmlns="http://www.w3.org/2000/svg">
<path d="M6.33333 15H3.66667C3.29848 15 3 15.1679 3 15.375V22.125C3 22.3321 3.29848 22.5 3.66667 22.5H6.33333C6.70152 22.5 7 22.3321 7 22.125V15.375C7 15.1679 6.70152 15 6.33333 15Z" fill="#105D38" stroke="#105D38" stroke-width="1.5" stroke-linecap="round" stroke-linejoin="round"/>
<path d="M20.3333 10.5H17.6667C17.2985 10.5 17 10.6679 17 10.875V22.125C17 22.3321 17.2985 22.5 17.6667 22.5H20.3333C20.7015 22.5 21 22.3321 21 22.125V10.875C21 10.6679 20.7015 10.5 20.3333 10.5Z" fill="#105D38" stroke="#105D38" stroke-width="1.5" stroke-linecap="round" stroke-linejoin="round"/>
<path d="M13.3333 1.5H10.6667C10.2985 1.5 10 1.66789 10 1.875V22.125C10 22.3321 10.2985 22.5 10.6667 22.5H13.3333C13.7015 22.5 14 22.3321 14 22.125V1.875C14 1.66789 13.7015 1.5 13.3333 1.5Z" fill="#105D38" stroke="#105D38" stroke-width="1.5" stroke-linecap="round" stroke-linejoin="round"/>
</svg>
