<svg width="48" height="32" viewBox="0 0 48 32" fill="none" xmlns="http://www.w3.org/2000/svg">
<g opacity="0.3">
<rect x="0.5" y="0.5" width="47" height="31" rx="5.5" fill="#E0E0E0" stroke="#01344A"/>
<path d="M0.5 6H47.5" stroke="#01344A"/>
<path d="M0.5 24H47.5" stroke="#01344A"/>
<path d="M20.5 18H47.5" stroke="#01344A"/>
<path d="M0.5 18H11.5" stroke="#01344A"/>
<path d="M20.5 12H47.5" stroke="#01344A"/>
<path d="M0.5 12H11" stroke="#01344A"/>
<path d="M16.5 1V6.5" stroke="#01344A"/>
<path d="M16.5 24V31.5" stroke="#01344A"/>
<path d="M16 6C13.2386 6 11 8.23858 11 11C11 12.1571 11.3931 13.2225 12.053 14.0697C12.4622 14.5951 12.4622 15.4049 12.053 15.9303C11.3931 16.7775 11 17.8429 11 19C11 21.7614 13.2386 24 16 24C18.7614 24 21 21.7614 21 19C21 17.8429 20.6069 16.7775 19.947 15.9303C19.5378 15.4049 19.5378 14.5952 19.947 14.0697C20.4116 13.4732 20.744 12.7686 20.9 12" stroke="#01344A"/>
</g>
</svg>
