<svg width="48" height="48" viewBox="0 0 48 48" fill="none" xmlns="http://www.w3.org/2000/svg">
<path fill-rule="evenodd" clip-rule="evenodd" d="M0 0H48V48H0V0Z" fill="#F2F2F2"/>
<path fill-rule="evenodd" clip-rule="evenodd" d="M19.3173 28.901L19.2742 28.9449C18.5812 29.6747 17.7789 30.0618 16.953 30.0618C15.2286 30.0618 13.9765 28.7235 13.9765 26.8771C13.9765 25.0344 15.2286 23.6953 16.953 23.6953C17.7789 23.6953 18.5812 24.0831 19.2742 24.8144L19.3173 24.8594L20.4264 23.4721L20.3968 23.4347C19.4751 22.3073 18.3678 21.7593 17.007 21.7593C15.6423 21.7593 14.3933 22.2346 13.4938 23.0912C12.5157 24.0197 12 25.3282 12 26.8775C12 28.4272 12.5157 29.7388 13.4938 30.667C14.3933 31.5279 15.642 32 17.007 32C18.3678 32 19.4751 31.452 20.3968 30.3243L20.4264 30.2893L19.3173 28.901ZM21.5473 31.8102H23.507V21.9192H21.5473V31.8102ZM31.1838 29.66C30.66 29.9891 30.1739 30.155 29.7362 30.155C29.1032 30.155 28.8166 29.8094 28.8166 29.0396V23.7907H30.8133V21.9282H28.8166V18.8501L26.8962 19.9133V21.9282H25.2394V23.7907H26.8962V29.3748C26.8962 30.895 27.7674 31.9341 29.0694 31.9625C29.9521 31.9802 30.4845 31.708 30.8077 31.5085L30.8275 31.4948L31.2987 29.5872L31.1838 29.66ZM32.8057 31.8102H34.7672V21.9192H32.8057V31.8102Z" fill="#1C4882"/>
<path fill-rule="evenodd" clip-rule="evenodd" d="M35.9098 20.1858C34.1196 17.5638 31.1469 16 28.1223 16C25.0984 16 22.1247 17.5641 20.3376 20.1858L20.2457 20.3204H22.5004L22.5244 20.2923C24.0594 18.6562 26.0626 17.7899 28.1223 17.7899C30.182 17.7899 32.1843 18.6562 33.7216 20.2923L33.7477 20.3204H36L35.9098 20.1858Z" fill="#CC2131"/>
</svg>
