<svg width="48" height="48" viewBox="0 0 48 48" fill="none" xmlns="http://www.w3.org/2000/svg">
<rect width="48" height="48" rx="16" fill="#F2F2F2"/>
<rect x="14" y="14" width="20" height="20" rx="10" fill="white"/>
<path d="M34.2008 24.0097C34.2008 22.4185 34.2576 21.0261 35.4226 18.5257C35.7636 17.8153 36.5024 16.7355 35.4226 15.5137C34.5418 14.6329 33.5189 14.7749 32.8369 15.1727C33.2347 14.4908 33.3768 13.4679 32.4959 12.587C31.2741 11.4788 30.2228 12.246 29.484 12.5586C27.0119 13.7236 25.5912 13.8088 24 13.8088C22.4088 13.8088 21.0165 13.752 18.516 12.5586C17.8056 12.2176 16.7259 11.4788 15.5041 12.587C14.6232 13.4679 14.7653 14.4908 15.1631 15.1727C14.4811 14.7749 13.4582 14.6329 12.5774 15.5137C11.4692 16.7355 12.2364 17.7869 12.5774 18.5257C13.7424 20.9977 13.7992 22.4185 13.7992 24.0097C13.7992 25.6009 13.7424 26.9932 12.5774 29.4937C12.2364 30.2041 11.4976 31.2838 12.5774 32.5056C13.4582 33.3865 14.4811 33.2444 15.1631 32.8466C14.7653 33.5286 14.6232 34.5515 15.5041 35.4323C16.7259 36.5405 17.7772 35.7733 18.516 35.4323C20.9881 34.2673 22.4088 34.2105 24 34.2105C25.5912 34.2105 26.9835 34.2673 29.484 35.4323C30.1944 35.7733 31.2741 36.5121 32.4959 35.4323C33.3768 34.5231 33.2347 33.5286 32.8369 32.8466C33.5189 33.2444 34.5418 33.3865 35.4226 32.5056C36.5308 31.2838 35.7636 30.2325 35.4226 29.4937C34.2576 27.0216 34.2008 25.6009 34.2008 24.0097ZM31.473 31.5395L25.648 26.6522C25.648 26.6522 24.8524 25.885 23.9716 25.885C23.0907 25.885 22.2951 26.6522 22.2951 26.6522L16.4986 31.5395L16.4702 31.5111L21.3575 25.6861C21.3575 25.6861 22.1246 24.8905 22.1246 24.0097C22.1246 23.1288 21.3575 22.3332 21.3575 22.3332L16.4702 16.5082L16.4986 16.4798L22.3235 21.3671C22.3235 21.3671 23.1191 22.1343 24 22.1343C24.8808 22.1343 25.6765 21.3671 25.6765 21.3671L31.5014 16.4798L31.5298 16.5082L26.6425 22.3332C26.6425 22.3332 25.8754 23.1288 25.8754 24.0097C25.8754 24.8905 26.6425 25.6861 26.6425 25.6861L31.473 31.5395Z" fill="#CC0000"/>
</svg>
