<svg width="48" height="48" viewBox="0 0 48 48" fill="none" xmlns="http://www.w3.org/2000/svg">
<rect width="48" height="48" rx="16" fill="#FF4081"/>
<path d="M32.66 18.98C31.7874 17.4677 30.5315 16.2122 29.019 15.34C27.486 14.447 25.813 14 24 14C22.187 14 20.514 14.447 18.98 15.34C17.447 16.233 16.233 17.447 15.34 18.98C14.447 20.513 14 22.187 14 24C14 25.813 14.446 27.487 15.34 29.02C16.2123 30.5325 17.4683 31.7881 18.981 32.66C20.514 33.553 22.187 34 24 34C25.813 34 27.486 33.553 29.02 32.66C30.5325 31.7878 31.7884 30.5323 32.661 29.02C33.554 27.487 34 25.813 34 24C34 22.187 33.554 20.513 32.66 18.98ZM24 15.66C26 15.66 27.772 16.3 29.32 17.579C28.4 18.753 27.034 19.719 25.22 20.479C24.218 18.666 23.132 17.152 21.959 15.939C22.6238 15.7552 23.3103 15.6613 24 15.66ZM17.51 18.8C18.2412 17.8714 19.1665 17.1138 20.221 16.58C21.433 17.781 22.546 19.28 23.561 21.08C21.561 21.68 19.447 21.98 17.22 21.98C16.647 21.98 16.214 21.967 15.92 21.94C16.2265 20.7944 16.7679 19.7251 17.51 18.8ZM15.66 24C15.66 23.946 15.663 23.88 15.67 23.8C15.677 23.72 15.68 23.654 15.68 23.6C15.934 23.614 16.321 23.62 16.841 23.62C19.507 23.62 21.987 23.253 24.28 22.52C24.467 22.893 24.661 23.313 24.86 23.78C23.54 24.073 22.186 24.786 20.799 25.92C19.412 27.054 18.4 28.247 17.76 29.5C16.36 27.913 15.66 26.08 15.66 24ZM24 32.34C22.106 32.34 20.406 31.753 18.899 30.581C19.5 29.394 20.423 28.259 21.67 27.18C22.916 26.1 24.153 25.427 25.38 25.16C26.154 27.299 26.6775 29.5205 26.94 31.78C26.0029 32.1462 25.0061 32.336 24 32.34ZM31.08 28.38C30.4255 29.4345 29.5441 30.3299 28.5 31.001C28.26 28.921 27.8 26.894 27.121 24.92C28.053 24.854 28.886 24.82 29.621 24.82C30.42 24.82 31.307 24.854 32.28 24.92C32.1495 26.1498 31.739 27.3334 31.08 28.38ZM29.84 23.38C28.68 23.38 27.607 23.427 26.62 23.52C26.4109 22.9728 26.1841 22.4325 25.94 21.9C28.006 20.994 29.472 19.894 30.339 18.6C31.539 20.014 32.193 21.627 32.299 23.44C31.487 23.4 30.667 23.38 29.84 23.38Z" fill="white"/>
</svg>
