<svg width="24" height="24" viewBox="0 0 24 24" fill="none" xmlns="http://www.w3.org/2000/svg">
<path d="M3.75 19.5C3.75 20.2956 4.06607 21.0587 4.62868 21.6213C5.19129 22.1839 5.95435 22.5 6.75 22.5H11.0625C11.1122 22.5 11.1599 22.4802 11.1951 22.4451C11.2302 22.4099 11.25 22.3622 11.25 22.3125V13.6875C11.25 13.6378 11.2302 13.5901 11.1951 13.5549C11.1599 13.5198 11.1122 13.5 11.0625 13.5H4.125C4.02554 13.5 3.93016 13.5395 3.85984 13.6098C3.78951 13.6802 3.75 13.7755 3.75 13.875V19.5Z" fill="#4CD080"/>
<path d="M11.25 11.8123V6.74975H12.75V11.8123C12.75 11.862 12.7698 11.9097 12.8049 11.9448C12.8401 11.98 12.8878 11.9998 12.9375 11.9998H19.5C19.7555 11.9997 20.0091 11.9561 20.25 11.8708C20.6883 11.7152 21.0677 11.4278 21.3363 11.0481C21.6048 10.6684 21.7493 10.2149 21.75 9.74975V8.99975C21.75 8.40301 21.5129 7.83072 21.091 7.40876C20.669 6.9868 20.0967 6.74975 19.5 6.74975H17.5997C17.5834 6.74949 17.5674 6.74497 17.5533 6.73663C17.5393 6.7283 17.5277 6.71644 17.5196 6.70223C17.5116 6.68802 17.5074 6.67196 17.5074 6.65563C17.5075 6.6393 17.5118 6.62327 17.52 6.60912C17.954 5.87641 18.0949 5.00673 17.9146 4.17445C17.7343 3.34217 17.246 2.60884 16.5476 2.12148C15.8492 1.63413 14.9925 1.42879 14.1491 1.54665C13.3057 1.6645 12.538 2.09682 12 2.75694C11.462 2.09682 10.6943 1.6645 9.85092 1.54665C9.00752 1.42879 8.15075 1.63413 7.4524 2.12148C6.75405 2.60884 6.26574 3.34217 6.0854 4.17445C5.90506 5.00673 6.04602 5.87641 6.48 6.60912C6.48817 6.62327 6.4925 6.6393 6.49257 6.65563C6.49263 6.67196 6.48843 6.68802 6.48038 6.70223C6.47233 6.71644 6.46071 6.7283 6.44666 6.73663C6.43262 6.74497 6.41664 6.74949 6.40031 6.74975H4.5C3.90326 6.74975 3.33097 6.9868 2.90901 7.40876C2.48705 7.83072 2.25 8.40301 2.25 8.99975V9.74975C2.25066 10.2149 2.39517 10.6684 2.66372 11.0481C2.93227 11.4278 3.3117 11.7152 3.75 11.8708C3.99085 11.9561 4.24449 11.9997 4.5 11.9998H11.0625C11.1122 11.9998 11.1599 11.98 11.1951 11.9448C11.2302 11.9097 11.25 11.862 11.25 11.8123ZM12.75 4.87475C12.75 4.50391 12.86 4.1414 13.066 3.83306C13.272 3.52471 13.5649 3.28439 13.9075 3.14248C14.2501 3.00056 14.6271 2.96343 14.9908 3.03578C15.3545 3.10812 15.6886 3.2867 15.9508 3.54893C16.213 3.81115 16.3916 4.14524 16.464 4.50896C16.5363 4.87267 16.4992 5.24967 16.3573 5.59228C16.2154 5.93489 15.975 6.22773 15.6667 6.43376C15.3584 6.63978 14.9958 6.74975 14.625 6.74975H12.75V4.87475ZM9.24094 3.00444C9.49781 2.98602 9.75572 3.02072 9.9986 3.10638C10.2415 3.19203 10.4641 3.32679 10.6526 3.50227C10.8411 3.67775 10.9914 3.89018 11.0942 4.12631C11.197 4.36244 11.25 4.61722 11.25 4.87475V6.74975H9.375C8.89017 6.74851 8.42466 6.55951 8.07619 6.22242C7.72771 5.88533 7.52336 5.42636 7.50601 4.94184C7.48867 4.45731 7.65968 3.98491 7.98316 3.62376C8.30664 3.26262 8.75744 3.04082 9.24094 3.00491V3.00444Z" fill="#4CD080"/>
<path d="M12.9375 22.5H17.25C18.0456 22.5 18.8087 22.1839 19.3713 21.6213C19.9339 21.0587 20.25 20.2956 20.25 19.5V13.875C20.25 13.7755 20.2105 13.6802 20.1402 13.6098C20.0698 13.5395 19.9745 13.5 19.875 13.5H12.9375C12.8878 13.5 12.8401 13.5198 12.8049 13.5549C12.7698 13.5901 12.75 13.6378 12.75 13.6875V22.3125C12.75 22.3622 12.7698 22.4099 12.8049 22.4451C12.8401 22.4802 12.8878 22.5 12.9375 22.5Z" fill="#4CD080"/>
</svg>
