<svg width="191" height="22" viewBox="0 0 191 22" fill="none" xmlns="http://www.w3.org/2000/svg">
<path d="M160.72 17H153.008V15.288L156.656 12.104C157.232 11.592 157.675 11.1067 157.984 10.648C158.304 10.1893 158.464 9.704 158.464 9.192V9.016C158.464 8.42933 158.304 7.98133 157.984 7.672C157.664 7.352 157.2 7.192 156.592 7.192C155.973 7.192 155.493 7.35733 155.152 7.688C154.821 8.01867 154.581 8.44 154.432 8.952L152.864 8.36C152.971 8.008 153.125 7.672 153.328 7.352C153.531 7.02133 153.787 6.728 154.096 6.472C154.416 6.216 154.789 6.01333 155.216 5.864C155.653 5.71467 156.155 5.64 156.72 5.64C157.296 5.64 157.808 5.72533 158.256 5.896C158.715 6.056 159.099 6.28 159.408 6.568C159.717 6.856 159.952 7.20267 160.112 7.608C160.272 8.00267 160.352 8.44 160.352 8.92C160.352 9.368 160.283 9.784 160.144 10.168C160.016 10.5413 159.829 10.904 159.584 11.256C159.349 11.5973 159.067 11.928 158.736 12.248C158.405 12.568 158.043 12.888 157.648 13.208L154.944 15.48H160.72V17ZM165.93 10.44C166.644 10.44 167.172 10.2907 167.514 9.992C167.866 9.68267 168.042 9.29867 168.042 8.84V8.728C168.042 8.216 167.871 7.82667 167.53 7.56C167.199 7.28267 166.751 7.144 166.186 7.144C165.642 7.144 165.178 7.26667 164.794 7.512C164.42 7.75733 164.106 8.09333 163.85 8.52L162.634 7.48C162.804 7.23467 163.002 7 163.226 6.776C163.45 6.552 163.706 6.36 163.994 6.2C164.282 6.02933 164.612 5.896 164.986 5.8C165.359 5.69333 165.78 5.64 166.25 5.64C166.772 5.64 167.258 5.704 167.706 5.832C168.154 5.96 168.543 6.152 168.874 6.408C169.204 6.65333 169.46 6.95733 169.642 7.32C169.823 7.672 169.914 8.072 169.914 8.52C169.914 8.872 169.855 9.192 169.738 9.48C169.631 9.768 169.476 10.024 169.274 10.248C169.082 10.4613 168.852 10.6373 168.586 10.776C168.319 10.9147 168.036 11.016 167.738 11.08V11.16C168.058 11.224 168.362 11.3307 168.65 11.48C168.938 11.6187 169.194 11.8053 169.418 12.04C169.642 12.264 169.818 12.536 169.946 12.856C170.074 13.1653 170.138 13.5227 170.138 13.928C170.138 14.4187 170.042 14.8667 169.85 15.272C169.658 15.6667 169.38 16.008 169.018 16.296C168.666 16.584 168.239 16.808 167.738 16.968C167.236 17.1173 166.676 17.192 166.058 17.192C165.535 17.192 165.071 17.1333 164.666 17.016C164.271 16.9093 163.919 16.7653 163.61 16.584C163.3 16.392 163.028 16.1787 162.794 15.944C162.57 15.6987 162.372 15.448 162.202 15.192L163.53 14.168C163.807 14.616 164.132 14.984 164.506 15.272C164.89 15.5493 165.412 15.688 166.074 15.688C166.778 15.688 167.316 15.528 167.69 15.208C168.063 14.8773 168.25 14.424 168.25 13.848V13.72C168.25 13.144 168.052 12.7067 167.658 12.408C167.274 12.0987 166.714 11.944 165.978 11.944H164.778V10.44H165.93ZM179.364 7.384H174.292L174.004 11.352H174.132C174.388 10.9147 174.697 10.568 175.06 10.312C175.422 10.0453 175.918 9.912 176.548 9.912C177.028 9.912 177.47 9.992 177.876 10.152C178.292 10.312 178.649 10.5413 178.948 10.84C179.257 11.1387 179.497 11.5067 179.668 11.944C179.849 12.3707 179.94 12.856 179.94 13.4C179.94 13.9547 179.849 14.4667 179.668 14.936C179.486 15.3947 179.225 15.7947 178.884 16.136C178.542 16.4667 178.121 16.728 177.62 16.92C177.118 17.1013 176.548 17.192 175.908 17.192C175.406 17.192 174.958 17.1333 174.564 17.016C174.18 16.9093 173.833 16.7653 173.524 16.584C173.225 16.392 172.964 16.1787 172.74 15.944C172.516 15.6987 172.318 15.448 172.148 15.192L173.46 14.168C173.598 14.3813 173.742 14.584 173.892 14.776C174.052 14.9573 174.228 15.1173 174.42 15.256C174.612 15.3947 174.83 15.5013 175.076 15.576C175.332 15.6507 175.62 15.688 175.94 15.688C176.633 15.688 177.161 15.5013 177.524 15.128C177.886 14.744 178.068 14.2267 178.068 13.576V13.448C178.068 12.7973 177.881 12.2907 177.508 11.928C177.145 11.5653 176.622 11.384 175.94 11.384C175.438 11.384 175.044 11.4747 174.756 11.656C174.468 11.8373 174.217 12.04 174.004 12.264L172.516 12.056L172.932 5.832H179.364V7.384ZM185.613 17.192C184.984 17.192 184.424 17.0907 183.933 16.888C183.443 16.6853 183.027 16.3973 182.685 16.024C182.344 15.64 182.083 15.1813 181.901 14.648C181.72 14.1147 181.629 13.512 181.629 12.84C181.629 12.0293 181.752 11.2667 181.997 10.552C182.243 9.83733 182.563 9.18133 182.957 8.584C183.352 7.98667 183.789 7.45867 184.269 7C184.749 6.53067 185.224 6.14133 185.693 5.832H188.093C187.453 6.29067 186.877 6.73333 186.365 7.16C185.853 7.58667 185.405 8.024 185.021 8.472C184.648 8.92 184.333 9.39467 184.077 9.896C183.821 10.3867 183.624 10.936 183.485 11.544L183.597 11.576C183.715 11.352 183.853 11.144 184.013 10.952C184.173 10.7493 184.36 10.5733 184.573 10.424C184.787 10.2747 185.032 10.1573 185.309 10.072C185.587 9.98667 185.901 9.944 186.253 9.944C186.733 9.944 187.176 10.024 187.581 10.184C187.987 10.344 188.339 10.5787 188.637 10.888C188.936 11.1867 189.165 11.5493 189.325 11.976C189.496 12.4027 189.581 12.8827 189.581 13.416C189.581 13.9707 189.485 14.4827 189.293 14.952C189.112 15.4107 188.845 15.8053 188.493 16.136C188.152 16.4667 187.736 16.728 187.245 16.92C186.755 17.1013 186.211 17.192 185.613 17.192ZM185.597 15.752C186.28 15.752 186.808 15.5707 187.181 15.208C187.555 14.8347 187.741 14.312 187.741 13.64V13.48C187.741 12.808 187.555 12.2907 187.181 11.928C186.808 11.5547 186.28 11.368 185.597 11.368C184.925 11.368 184.403 11.5547 184.029 11.928C183.656 12.2907 183.469 12.808 183.469 13.48V13.64C183.469 14.312 183.656 14.8347 184.029 15.208C184.403 15.5707 184.925 15.752 185.597 15.752Z" fill="#E0E0E0"/>
<path d="M106.336 10.44C107.051 10.44 107.579 10.2907 107.92 9.992C108.272 9.68267 108.448 9.29867 108.448 8.84V8.728C108.448 8.216 108.277 7.82667 107.936 7.56C107.605 7.28267 107.157 7.144 106.592 7.144C106.048 7.144 105.584 7.26667 105.2 7.512C104.827 7.75733 104.512 8.09333 104.256 8.52L103.04 7.48C103.211 7.23467 103.408 7 103.632 6.776C103.856 6.552 104.112 6.36 104.4 6.2C104.688 6.02933 105.019 5.896 105.392 5.8C105.765 5.69333 106.187 5.64 106.656 5.64C107.179 5.64 107.664 5.704 108.112 5.832C108.56 5.96 108.949 6.152 109.28 6.408C109.611 6.65333 109.867 6.95733 110.048 7.32C110.229 7.672 110.32 8.072 110.32 8.52C110.32 8.872 110.261 9.192 110.144 9.48C110.037 9.768 109.883 10.024 109.68 10.248C109.488 10.4613 109.259 10.6373 108.992 10.776C108.725 10.9147 108.443 11.016 108.144 11.08V11.16C108.464 11.224 108.768 11.3307 109.056 11.48C109.344 11.6187 109.6 11.8053 109.824 12.04C110.048 12.264 110.224 12.536 110.352 12.856C110.48 13.1653 110.544 13.5227 110.544 13.928C110.544 14.4187 110.448 14.8667 110.256 15.272C110.064 15.6667 109.787 16.008 109.424 16.296C109.072 16.584 108.645 16.808 108.144 16.968C107.643 17.1173 107.083 17.192 106.464 17.192C105.941 17.192 105.477 17.1333 105.072 17.016C104.677 16.9093 104.325 16.7653 104.016 16.584C103.707 16.392 103.435 16.1787 103.2 15.944C102.976 15.6987 102.779 15.448 102.608 15.192L103.936 14.168C104.213 14.616 104.539 14.984 104.912 15.272C105.296 15.5493 105.819 15.688 106.48 15.688C107.184 15.688 107.723 15.528 108.096 15.208C108.469 14.8773 108.656 14.424 108.656 13.848V13.72C108.656 13.144 108.459 12.7067 108.064 12.408C107.68 12.0987 107.12 11.944 106.384 11.944H105.184V10.44H106.336ZM114.298 17L118.442 7.32H114.09V9.384H112.538V5.832H120.234V7.4L116.202 17H114.298ZM122.596 17V15.512H125.732V7.144H125.604L123.012 9.912L121.908 8.92L124.756 5.832H127.524V15.512H130.227V17H122.596ZM135.613 17.192C134.984 17.192 134.424 17.0907 133.933 16.888C133.443 16.6853 133.027 16.3973 132.685 16.024C132.344 15.64 132.083 15.1813 131.901 14.648C131.72 14.1147 131.629 13.512 131.629 12.84C131.629 12.0293 131.752 11.2667 131.997 10.552C132.243 9.83733 132.563 9.18133 132.957 8.584C133.352 7.98667 133.789 7.45867 134.269 7C134.749 6.53067 135.224 6.14133 135.693 5.832H138.093C137.453 6.29067 136.877 6.73333 136.365 7.16C135.853 7.58667 135.405 8.024 135.021 8.472C134.648 8.92 134.333 9.39467 134.077 9.896C133.821 10.3867 133.624 10.936 133.485 11.544L133.597 11.576C133.715 11.352 133.853 11.144 134.013 10.952C134.173 10.7493 134.36 10.5733 134.573 10.424C134.787 10.2747 135.032 10.1573 135.309 10.072C135.587 9.98667 135.901 9.944 136.253 9.944C136.733 9.944 137.176 10.024 137.581 10.184C137.987 10.344 138.339 10.5787 138.637 10.888C138.936 11.1867 139.165 11.5493 139.325 11.976C139.496 12.4027 139.581 12.8827 139.581 13.416C139.581 13.9707 139.485 14.4827 139.293 14.952C139.112 15.4107 138.845 15.8053 138.493 16.136C138.152 16.4667 137.736 16.728 137.245 16.92C136.755 17.1013 136.211 17.192 135.613 17.192ZM135.597 15.752C136.28 15.752 136.808 15.5707 137.181 15.208C137.555 14.8347 137.741 14.312 137.741 13.64V13.48C137.741 12.808 137.555 12.2907 137.181 11.928C136.808 11.5547 136.28 11.368 135.597 11.368C134.925 11.368 134.403 11.5547 134.029 11.928C133.656 12.2907 133.469 12.808 133.469 13.48V13.64C133.469 14.312 133.656 14.8347 134.029 15.208C134.403 15.5707 134.925 15.752 135.597 15.752Z" fill="#E0E0E0"/>
<path d="M54.704 17L58.848 7.32H54.496V9.384H52.944V5.832H60.64V7.4L56.608 17H54.704ZM69.7698 7.384H64.6978L64.4098 11.352H64.5378C64.7938 10.9147 65.1031 10.568 65.4658 10.312C65.8284 10.0453 66.3244 9.912 66.9538 9.912C67.4338 9.912 67.8764 9.992 68.2818 10.152C68.6978 10.312 69.0551 10.5413 69.3538 10.84C69.6631 11.1387 69.9031 11.5067 70.0738 11.944C70.2551 12.3707 70.3458 12.856 70.3458 13.4C70.3458 13.9547 70.2551 14.4667 70.0738 14.936C69.8924 15.3947 69.6311 15.7947 69.2898 16.136C68.9484 16.4667 68.5271 16.728 68.0258 16.92C67.5244 17.1013 66.9538 17.192 66.3138 17.192C65.8124 17.192 65.3644 17.1333 64.9698 17.016C64.5858 16.9093 64.2391 16.7653 63.9298 16.584C63.6311 16.392 63.3698 16.1787 63.1458 15.944C62.9218 15.6987 62.7244 15.448 62.5538 15.192L63.8658 14.168C64.0044 14.3813 64.1484 14.584 64.2978 14.776C64.4578 14.9573 64.6338 15.1173 64.8258 15.256C65.0178 15.3947 65.2364 15.5013 65.4818 15.576C65.7378 15.6507 66.0258 15.688 66.3458 15.688C67.0391 15.688 67.5671 15.5013 67.9298 15.128C68.2924 14.744 68.4738 14.2267 68.4738 13.576V13.448C68.4738 12.7973 68.2871 12.2907 67.9138 11.928C67.5511 11.5653 67.0284 11.384 66.3458 11.384C65.8444 11.384 65.4498 11.4747 65.1618 11.656C64.8738 11.8373 64.6231 12.04 64.4098 12.264L62.9218 12.056L63.3378 5.832H69.7698V7.384ZM76.0195 17.192C75.3902 17.192 74.8302 17.0907 74.3395 16.888C73.8488 16.6853 73.4328 16.3973 73.0915 16.024C72.7502 15.64 72.4888 15.1813 72.3075 14.648C72.1262 14.1147 72.0355 13.512 72.0355 12.84C72.0355 12.0293 72.1582 11.2667 72.4035 10.552C72.6488 9.83733 72.9688 9.18133 73.3635 8.584C73.7582 7.98667 74.1955 7.45867 74.6755 7C75.1555 6.53067 75.6302 6.14133 76.0995 5.832H78.4995C77.8595 6.29067 77.2835 6.73333 76.7715 7.16C76.2595 7.58667 75.8115 8.024 75.4275 8.472C75.0542 8.92 74.7395 9.39467 74.4835 9.896C74.2275 10.3867 74.0302 10.936 73.8915 11.544L74.0035 11.576C74.1208 11.352 74.2595 11.144 74.4195 10.952C74.5795 10.7493 74.7662 10.5733 74.9795 10.424C75.1928 10.2747 75.4382 10.1573 75.7155 10.072C75.9928 9.98667 76.3075 9.944 76.6595 9.944C77.1395 9.944 77.5822 10.024 77.9875 10.184C78.3928 10.344 78.7448 10.5787 79.0435 10.888C79.3422 11.1867 79.5715 11.5493 79.7315 11.976C79.9022 12.4027 79.9875 12.8827 79.9875 13.416C79.9875 13.9707 79.8915 14.4827 79.6995 14.952C79.5182 15.4107 79.2515 15.8053 78.8995 16.136C78.5582 16.4667 78.1422 16.728 77.6515 16.92C77.1608 17.1013 76.6168 17.192 76.0195 17.192ZM76.0035 15.752C76.6862 15.752 77.2142 15.5707 77.5875 15.208C77.9608 14.8347 78.1475 14.312 78.1475 13.64V13.48C78.1475 12.808 77.9608 12.2907 77.5875 11.928C77.2142 11.5547 76.6862 11.368 76.0035 11.368C75.3315 11.368 74.8088 11.5547 74.4355 11.928C74.0622 12.2907 73.8755 12.808 73.8755 13.48V13.64C73.8755 14.312 74.0622 14.8347 74.4355 15.208C74.8088 15.5707 75.3315 15.752 76.0035 15.752ZM82.1893 17V15.512H85.3253V7.144H85.1973L82.6053 9.912L81.5013 8.92L84.3493 5.832H87.1173V15.512H89.8212V17H82.1893Z" fill="#E0E0E0"/>
<path d="M1.408 17V15.512H4.544V7.144H4.416L1.824 9.912L0.72 8.92L3.568 5.832H6.336V15.512H9.04V17H1.408ZM18.3458 9.992C18.3458 10.8027 18.2231 11.5653 17.9778 12.28C17.7324 12.9947 17.4124 13.6507 17.0178 14.248C16.6231 14.8453 16.1858 15.3787 15.7058 15.848C15.2258 16.3173 14.7511 16.7013 14.2818 17H11.8818C12.5218 16.5413 13.0978 16.0987 13.6098 15.672C14.1218 15.2453 14.5644 14.808 14.9378 14.36C15.3218 13.912 15.6418 13.4427 15.8978 12.952C16.1538 12.4507 16.3511 11.896 16.4898 11.288L16.3778 11.256C16.2604 11.48 16.1218 11.6933 15.9618 11.896C15.8018 12.088 15.6151 12.2587 15.4018 12.408C15.1884 12.5573 14.9431 12.6747 14.6658 12.76C14.3884 12.8453 14.0738 12.888 13.7218 12.888C13.2418 12.888 12.7991 12.808 12.3938 12.648C11.9884 12.488 11.6364 12.2587 11.3378 11.96C11.0391 11.6507 10.8044 11.2827 10.6338 10.856C10.4738 10.4293 10.3938 9.94933 10.3938 9.416C10.3938 8.86133 10.4844 8.35467 10.6658 7.896C10.8578 7.42667 11.1244 7.02667 11.4658 6.696C11.8178 6.36533 12.2391 6.10933 12.7298 5.928C13.2204 5.736 13.7644 5.64 14.3618 5.64C14.9804 5.64 15.5351 5.74133 16.0258 5.944C16.5271 6.14667 16.9484 6.44 17.2898 6.824C17.6311 7.19733 17.8924 7.65067 18.0738 8.184C18.2551 8.71733 18.3458 9.32 18.3458 9.992ZM14.3778 11.464C15.0498 11.464 15.5724 11.2827 15.9458 10.92C16.3191 10.5467 16.5058 10.024 16.5058 9.352V9.192C16.5058 8.52 16.3191 8.00267 15.9458 7.64C15.5724 7.26667 15.0498 7.08 14.3778 7.08C13.6951 7.08 13.1671 7.26667 12.7938 7.64C12.4204 8.00267 12.2338 8.52 12.2338 9.192V9.352C12.2338 10.024 12.4204 10.5467 12.7938 10.92C13.1671 11.2827 13.6951 11.464 14.3778 11.464ZM27.3635 7.384H22.2915L22.0035 11.352H22.1315C22.3875 10.9147 22.6968 10.568 23.0595 10.312C23.4222 10.0453 23.9182 9.912 24.5475 9.912C25.0275 9.912 25.4702 9.992 25.8755 10.152C26.2915 10.312 26.6488 10.5413 26.9475 10.84C27.2568 11.1387 27.4968 11.5067 27.6675 11.944C27.8488 12.3707 27.9395 12.856 27.9395 13.4C27.9395 13.9547 27.8488 14.4667 27.6675 14.936C27.4862 15.3947 27.2248 15.7947 26.8835 16.136C26.5422 16.4667 26.1208 16.728 25.6195 16.92C25.1182 17.1013 24.5475 17.192 23.9075 17.192C23.4062 17.192 22.9582 17.1333 22.5635 17.016C22.1795 16.9093 21.8328 16.7653 21.5235 16.584C21.2248 16.392 20.9635 16.1787 20.7395 15.944C20.5155 15.6987 20.3182 15.448 20.1475 15.192L21.4595 14.168C21.5982 14.3813 21.7422 14.584 21.8915 14.776C22.0515 14.9573 22.2275 15.1173 22.4195 15.256C22.6115 15.3947 22.8302 15.5013 23.0755 15.576C23.3315 15.6507 23.6195 15.688 23.9395 15.688C24.6328 15.688 25.1608 15.5013 25.5235 15.128C25.8862 14.744 26.0675 14.2267 26.0675 13.576V13.448C26.0675 12.7973 25.8808 12.2907 25.5075 11.928C25.1448 11.5653 24.6222 11.384 23.9395 11.384C23.4382 11.384 23.0435 11.4747 22.7555 11.656C22.4675 11.8373 22.2168 12.04 22.0035 12.264L20.5155 12.056L20.9315 5.832H27.3635V7.384ZM33.6133 17.192C32.9839 17.192 32.4239 17.0907 31.9333 16.888C31.4426 16.6853 31.0266 16.3973 30.6853 16.024C30.3439 15.64 30.0826 15.1813 29.9013 14.648C29.7199 14.1147 29.6293 13.512 29.6293 12.84C29.6293 12.0293 29.7519 11.2667 29.9973 10.552C30.2426 9.83733 30.5626 9.18133 30.9573 8.584C31.3519 7.98667 31.7893 7.45867 32.2693 7C32.7493 6.53067 33.2239 6.14133 33.6933 5.832H36.0933C35.4533 6.29067 34.8773 6.73333 34.3653 7.16C33.8533 7.58667 33.4053 8.024 33.0213 8.472C32.6479 8.92 32.3333 9.39467 32.0773 9.896C31.8213 10.3867 31.6239 10.936 31.4853 11.544L31.5973 11.576C31.7146 11.352 31.8533 11.144 32.0133 10.952C32.1733 10.7493 32.3599 10.5733 32.5733 10.424C32.7866 10.2747 33.0319 10.1573 33.3093 10.072C33.5866 9.98667 33.9013 9.944 34.2533 9.944C34.7333 9.944 35.1759 10.024 35.5813 10.184C35.9866 10.344 36.3386 10.5787 36.6373 10.888C36.9359 11.1867 37.1653 11.5493 37.3253 11.976C37.4959 12.4027 37.5813 12.8827 37.5813 13.416C37.5813 13.9707 37.4853 14.4827 37.2933 14.952C37.1119 15.4107 36.8453 15.8053 36.4933 16.136C36.1519 16.4667 35.7359 16.728 35.2453 16.92C34.7546 17.1013 34.2106 17.192 33.6133 17.192ZM33.5973 15.752C34.2799 15.752 34.8079 15.5707 35.1813 15.208C35.5546 14.8347 35.7413 14.312 35.7413 13.64V13.48C35.7413 12.808 35.5546 12.2907 35.1813 11.928C34.8079 11.5547 34.2799 11.368 33.5973 11.368C32.9253 11.368 32.4026 11.5547 32.0293 11.928C31.6559 12.2907 31.4693 12.808 31.4693 13.48V13.64C31.4693 14.312 31.6559 14.8347 32.0293 15.208C32.4026 15.5707 32.9253 15.752 33.5973 15.752Z" fill="#E0E0E0"/>
</svg>
