<svg width="311" height="20" viewBox="0 0 311 20" fill="none" xmlns="http://www.w3.org/2000/svg">
<path d="M1.162 5.228H4.536C5.42267 5.228 6.10867 5.45667 6.594 5.914C7.08867 6.37133 7.336 6.99667 7.336 7.79C7.336 8.35933 7.196 8.812 6.916 9.148C6.636 9.484 6.258 9.722 5.782 9.862V9.932C6.35133 10.0627 6.80867 10.3147 7.154 10.688C7.49933 11.052 7.672 11.57 7.672 12.242C7.672 12.6433 7.60667 13.012 7.476 13.348C7.34533 13.684 7.15867 13.978 6.916 14.23C6.67333 14.4727 6.37933 14.664 6.034 14.804C5.698 14.9347 5.32467 15 4.914 15H1.162V5.228ZM4.438 13.796C4.96067 13.796 5.362 13.6887 5.642 13.474C5.922 13.2593 6.062 12.914 6.062 12.438V11.934C6.062 11.458 5.922 11.1127 5.642 10.898C5.362 10.6833 4.96067 10.576 4.438 10.576H2.702V13.796H4.438ZM4.214 9.428C4.70867 9.428 5.082 9.33467 5.334 9.148C5.59533 8.952 5.726 8.63 5.726 8.182V7.678C5.726 7.23 5.59533 6.91267 5.334 6.726C5.082 6.53 4.70867 6.432 4.214 6.432H2.702V9.428H4.214ZM9.51453 15V13.81H11.8105V6.418H9.51453V5.228H15.6745V6.418H13.3785V13.81H15.6745V15H9.51453ZM23.2571 15L22.5151 12.396H19.4071L18.6651 15H17.0691L19.9251 5.228H22.0671L24.9231 15H23.2571ZM21.0171 6.81H20.9051L19.7011 11.094H22.2211L21.0171 6.81ZM27.6896 7.482H27.5636V15H26.1916V5.228H28.2076L31.0776 12.746H31.2036V5.228H32.5756V15H30.5596L27.6896 7.482ZM38.0581 15.168C36.8168 15.168 35.8928 14.7293 35.2861 13.852C34.6888 12.9747 34.3901 11.7287 34.3901 10.114C34.3901 8.49933 34.6888 7.25333 35.2861 6.376C35.8928 5.49867 36.8168 5.06 38.0581 5.06C38.5341 5.06 38.9448 5.12533 39.2901 5.256C39.6448 5.37733 39.9481 5.55 40.2001 5.774C40.4521 5.98867 40.6621 6.24533 40.8301 6.544C41.0075 6.83333 41.1521 7.146 41.2641 7.482L39.8501 7.958C39.7755 7.734 39.6915 7.524 39.5981 7.328C39.5048 7.132 39.3881 6.964 39.2481 6.824C39.1081 6.684 38.9401 6.572 38.7441 6.488C38.5575 6.404 38.3241 6.362 38.0441 6.362C37.3535 6.362 36.8495 6.628 36.5321 7.16C36.2148 7.68267 36.0561 8.392 36.0561 9.288V10.94C36.0561 11.836 36.2148 12.55 36.5321 13.082C36.8495 13.6047 37.3535 13.866 38.0441 13.866C38.3241 13.866 38.5575 13.824 38.7441 13.74C38.9401 13.656 39.1081 13.544 39.2481 13.404C39.3881 13.264 39.5048 13.096 39.5981 12.9C39.6915 12.704 39.7755 12.494 39.8501 12.27L41.2641 12.746C41.1521 13.082 41.0075 13.3993 40.8301 13.698C40.6621 13.9873 40.4521 14.244 40.2001 14.468C39.9481 14.6827 39.6448 14.8553 39.2901 14.986C38.9448 15.1073 38.5341 15.168 38.0581 15.168ZM48.4407 15L47.6987 12.396H44.5907L43.8487 15H42.2527L45.1087 5.228H47.2507L50.1067 15H48.4407ZM46.2007 6.81H46.0887L44.8847 11.094H47.4047L46.2007 6.81ZM63.2417 15.168C62.0004 15.168 61.0764 14.7293 60.4697 13.852C59.8724 12.9747 59.5737 11.7287 59.5737 10.114C59.5737 8.49933 59.8724 7.25333 60.4697 6.376C61.0764 5.49867 62.0004 5.06 63.2417 5.06C63.7177 5.06 64.1284 5.12533 64.4737 5.256C64.8284 5.37733 65.1317 5.55 65.3837 5.774C65.6357 5.98867 65.8457 6.24533 66.0137 6.544C66.1911 6.83333 66.3357 7.146 66.4477 7.482L65.0337 7.958C64.9591 7.734 64.8751 7.524 64.7817 7.328C64.6884 7.132 64.5717 6.964 64.4317 6.824C64.2917 6.684 64.1237 6.572 63.9277 6.488C63.7411 6.404 63.5077 6.362 63.2277 6.362C62.5371 6.362 62.0331 6.628 61.7157 7.16C61.3984 7.68267 61.2397 8.392 61.2397 9.288V10.94C61.2397 11.836 61.3984 12.55 61.7157 13.082C62.0331 13.6047 62.5371 13.866 63.2277 13.866C63.5077 13.866 63.7411 13.824 63.9277 13.74C64.1237 13.656 64.2917 13.544 64.4317 13.404C64.5717 13.264 64.6884 13.096 64.7817 12.9C64.8751 12.704 64.9591 12.494 65.0337 12.27L66.4477 12.746C66.3357 13.082 66.1911 13.3993 66.0137 13.698C65.8457 13.9873 65.6357 14.244 65.3837 14.468C65.1317 14.6827 64.8284 14.8553 64.4737 14.986C64.1284 15.1073 63.7177 15.168 63.2417 15.168ZM71.3563 15.168C70.7403 15.168 70.2036 15.056 69.7463 14.832C69.2983 14.5987 68.9249 14.2673 68.6263 13.838C68.3369 13.4087 68.1223 12.8813 67.9823 12.256C67.8423 11.6307 67.7723 10.9167 67.7723 10.114C67.7723 9.32067 67.8423 8.61133 67.9823 7.986C68.1223 7.35133 68.3369 6.81933 68.6263 6.39C68.9249 5.96067 69.2983 5.634 69.7463 5.41C70.2036 5.17667 70.7403 5.06 71.3563 5.06C71.9723 5.06 72.5043 5.17667 72.9523 5.41C73.4096 5.634 73.7829 5.96067 74.0723 6.39C74.3709 6.81933 74.5903 7.35133 74.7303 7.986C74.8703 8.61133 74.9403 9.32067 74.9403 10.114C74.9403 10.9167 74.8703 11.6307 74.7303 12.256C74.5903 12.8813 74.3709 13.4087 74.0723 13.838C73.7829 14.2673 73.4096 14.5987 72.9523 14.832C72.5043 15.056 71.9723 15.168 71.3563 15.168ZM71.3563 13.866C72.0563 13.866 72.5509 13.6047 72.8403 13.082C73.1296 12.55 73.2743 11.8313 73.2743 10.926V9.288C73.2743 8.392 73.1296 7.68267 72.8403 7.16C72.5509 6.628 72.0563 6.362 71.3563 6.362C70.6563 6.362 70.1616 6.628 69.8723 7.16C69.5829 7.68267 69.4383 8.392 69.4383 9.288V10.94C69.4383 11.836 69.5829 12.55 69.8723 13.082C70.1616 13.6047 70.6563 13.866 71.3563 13.866ZM79.7508 15.168C79.1348 15.168 78.5981 15.056 78.1408 14.832C77.6928 14.5987 77.3194 14.2673 77.0208 13.838C76.7314 13.4087 76.5168 12.8813 76.3768 12.256C76.2368 11.6307 76.1668 10.9167 76.1668 10.114C76.1668 9.32067 76.2368 8.61133 76.3768 7.986C76.5168 7.35133 76.7314 6.81933 77.0208 6.39C77.3194 5.96067 77.6928 5.634 78.1408 5.41C78.5981 5.17667 79.1348 5.06 79.7508 5.06C80.3668 5.06 80.8988 5.17667 81.3468 5.41C81.8041 5.634 82.1774 5.96067 82.4668 6.39C82.7654 6.81933 82.9848 7.35133 83.1248 7.986C83.2648 8.61133 83.3348 9.32067 83.3348 10.114C83.3348 10.9167 83.2648 11.6307 83.1248 12.256C82.9848 12.8813 82.7654 13.4087 82.4668 13.838C82.1774 14.2673 81.8041 14.5987 81.3468 14.832C80.8988 15.056 80.3668 15.168 79.7508 15.168ZM79.7508 13.866C80.4508 13.866 80.9454 13.6047 81.2348 13.082C81.5241 12.55 81.6688 11.8313 81.6688 10.926V9.288C81.6688 8.392 81.5241 7.68267 81.2348 7.16C80.9454 6.628 80.4508 6.362 79.7508 6.362C79.0508 6.362 78.5561 6.628 78.2668 7.16C77.9774 7.68267 77.8328 8.392 77.8328 9.288V10.94C77.8328 11.836 77.9774 12.55 78.2668 13.082C78.5561 13.6047 79.0508 13.866 79.7508 13.866ZM85.1213 15V5.228H88.7753C89.7086 5.228 90.418 5.48933 90.9033 6.012C91.398 6.53467 91.6453 7.25333 91.6453 8.168C91.6453 9.08267 91.398 9.80133 90.9033 10.324C90.418 10.8467 89.7086 11.108 88.7753 11.108H86.6893V15H85.1213ZM86.6893 9.806H88.5373C89.508 9.806 89.9933 9.358 89.9933 8.462V7.86C89.9933 6.97333 89.508 6.53 88.5373 6.53H86.6893V9.806ZM93.5438 15V5.228H99.6618V6.544H95.1118V9.386H99.4938V10.702H95.1118V13.684H99.6618V15H93.5438ZM103.464 15H101.91V5.228H105.564C106.498 5.228 107.207 5.48933 107.692 6.012C108.187 6.53467 108.434 7.25333 108.434 8.168C108.434 8.91467 108.252 9.53067 107.888 10.016C107.524 10.5013 107.002 10.8 106.32 10.912L108.574 15H106.838L104.766 11.052H103.464V15ZM105.34 9.792C106.311 9.792 106.796 9.34867 106.796 8.462V7.86C106.796 6.97333 106.311 6.53 105.34 6.53H103.464V9.792H105.34Z" fill="#E0E0E0"/>
<path d="M270.259 15V13.698H273.003V6.376H272.891L270.623 8.798L269.657 7.93L272.149 5.228H274.571V13.698H276.937V15H270.259ZM278.654 15V13.698H281.398V6.376H281.286L279.018 8.798L278.052 7.93L280.544 5.228H282.966V13.698H285.332V15H278.654ZM286.978 16.932L291.696 4.36H293.054L288.336 16.932H286.978ZM301.841 15H295.093V13.502L298.285 10.716C298.789 10.268 299.176 9.84333 299.447 9.442C299.727 9.04067 299.867 8.616 299.867 8.168V8.014C299.867 7.50067 299.727 7.10867 299.447 6.838C299.167 6.558 298.761 6.418 298.229 6.418C297.688 6.418 297.268 6.56267 296.969 6.852C296.68 7.14133 296.47 7.51 296.339 7.958L294.967 7.44C295.06 7.132 295.196 6.838 295.373 6.558C295.55 6.26867 295.774 6.012 296.045 5.788C296.325 5.564 296.652 5.38667 297.025 5.256C297.408 5.12533 297.846 5.06 298.341 5.06C298.845 5.06 299.293 5.13467 299.685 5.284C300.086 5.424 300.422 5.62 300.693 5.872C300.964 6.124 301.169 6.42733 301.309 6.782C301.449 7.12733 301.519 7.51 301.519 7.93C301.519 8.322 301.458 8.686 301.337 9.022C301.225 9.34867 301.062 9.666 300.847 9.974C300.642 10.2727 300.394 10.562 300.105 10.842C299.816 11.122 299.498 11.402 299.153 11.682L296.787 13.67H301.841V15ZM307.673 15V13.096H303.025V11.752L307.113 5.228H309.171V11.864H310.543V13.096H309.171V15H307.673ZM304.355 11.864H307.673V6.67H307.589L304.355 11.864Z" fill="#E0E0E0"/>
</svg>
