<svg width="32" height="32" viewBox="0 0 32 32" fill="none" xmlns="http://www.w3.org/2000/svg">
<path d="M16 10.6666V16.6666L21.3333 18.6666" stroke="white" stroke-width="2" stroke-linecap="round" stroke-linejoin="round"/>
<path d="M5.33325 16C5.33325 13.4403 6.22596 10.9607 7.85761 8.98834C9.48925 7.01602 11.7577 5.67449 14.2721 5.19484C16.7865 4.71519 19.3894 5.12746 21.6325 6.36063C23.8757 7.59379 25.6185 9.57064 26.5608 11.9506C27.5031 14.3306 27.5859 16.9647 26.7949 19.3992C26.0039 21.8336 24.3886 23.916 22.2273 25.2876C20.0661 26.6592 17.4941 27.2341 14.9546 26.9133C12.415 26.5924 10.0669 25.396 8.3146 23.53" stroke="white" stroke-width="2" stroke-linecap="round"/>
<path d="M8 14.6666L5.33333 17.3333L2.66667 14.6666" fill="white"/>
<path d="M8 14.6666L5.33333 17.3333L2.66667 14.6666L8 14.6666Z" stroke="white" stroke-width="2" stroke-linecap="round" stroke-linejoin="round"/>
</svg>
