<svg width="24" height="24" viewBox="0 0 24 24" fill="none" xmlns="http://www.w3.org/2000/svg">
<path d="M12.0026 1.5C12.5 1.5 12.9225 1.81036 13 1.8907L21.8714 11.0574C21.9121 11.0996 21.9445 11.1503 21.9666 11.2065C21.9887 11.2626 22.0001 11.323 22 11.384V20.6949C22 21.1736 21.8245 21.6328 21.5121 21.9713C21.1996 22.3098 20.7759 22.5 20.334 22.5H15.333H14.5H14H12.001H10H9.5H9H8.6691H3.66597C3.22413 22.5 2.80038 22.3098 2.48795 21.9713C2.17552 21.6328 2 21.1736 2 20.6949L2.00156 11.384C2.0015 11.323 2.01286 11.2626 2.03496 11.2065C2.05707 11.1503 2.08945 11.0996 2.13015 11.0574L11 1.8907C11.0775 1.81036 11.5 1.5 12.0026 1.5Z" fill="#105D38" stroke="#105D38" stroke-width="1.5"/>
<path d="M2 11.3L11.2789 1.74273C11.6731 1.33675 12.3252 1.33839 12.7174 1.74634L21.9 11.3" stroke="#105D38" stroke-width="1.5" stroke-linecap="round"/>
<path d="M9 17C9 16.4477 9.44772 16 10 16H14C14.5523 16 15 16.4477 15 17V21H9V17Z" fill="white"/>
<path d="M2 21.75H22C22 22.5784 21.3284 23.25 20.5 23.25H3.5C2.67157 23.25 2 22.5784 2 21.75Z" fill="#105D38"/>
</svg>
