<svg width="375" height="340" viewBox="0 0 375 340" fill="none" xmlns="http://www.w3.org/2000/svg">
<path d="M261.35 239.383C262.902 240.176 263.13 242.453 262.253 243.946C261.376 245.439 259.723 246.333 258.179 247.067C254.464 248.791 250.565 250.084 246.556 250.922C244.743 251.31 242.339 252.339 242.794 254.144C243.123 255.586 244.987 255.932 246.463 255.957C268.393 256.295 290.079 250.407 312 250.896C313.451 250.896 315.062 251.057 316.057 252.119C317.314 253.461 316.976 255.62 316.268 257.315C312.354 266.728 301.086 270.397 291.015 272.025C268.081 275.745 244.684 274.682 221.455 274.42C175.192 273.914 128.802 276.639 82.7067 272.607C81.7305 272.609 80.7729 272.34 79.9402 271.831C79.1186 271.103 78.6133 270.083 78.5316 268.989C77.7472 263.38 82.2344 258.108 87.5144 256.058C92.7944 254.009 98.6564 254.371 104.308 254.785C128.253 256.472 152.3 257.906 176.237 256.101C191.915 255.053 207.422 252.223 222.459 247.666C229.367 245.515 236.359 241.281 243.419 239.991C245.595 239.594 247.805 239.864 249.998 239.754C253.186 239.594 258.381 237.873 261.35 239.383Z" fill="url(#paint0_linear_165_5037)"/>
<path d="M201.457 52.7099L123.378 60.3938C115.315 61.1866 108.77 67.9849 108.77 75.5338V250.593C108.77 258.184 115.315 263.65 123.378 262.857L201.457 255.173C209.529 254.38 216.074 247.582 216.074 240.041V64.9822C216.074 57.408 209.529 51.9171 201.457 52.7099ZM208.618 240.412C208.618 245.077 204.586 249.252 199.618 249.741L123.749 257.206C118.773 257.695 114.741 254.312 114.741 249.614V75.0193C114.741 70.355 118.773 66.1799 123.749 65.6907L135.119 64.5689V65.6063C135.119 68.5922 137.7 70.7598 140.88 70.4478L182.842 66.3739C184.363 66.2451 185.786 65.569 186.847 64.4709C187.908 63.3728 188.535 61.9272 188.611 60.4022V59.4069L199.576 58.3273C204.544 57.8381 208.576 61.2204 208.576 65.9184L208.618 240.412Z" fill="#4CD080"/>
<path d="M205.134 55.9402L127.047 63.6241C118.984 64.417 112.439 71.2152 112.439 78.8063V253.823C112.439 261.414 118.984 266.88 127.047 266.087L205.134 258.412C213.198 257.619 219.743 250.82 219.743 243.272V68.2125C219.743 60.6467 213.206 55.1896 205.134 55.9402ZM212.295 243.643C212.295 248.307 208.264 252.482 203.287 252.971L127.376 260.436C122.4 260.925 118.368 257.543 118.368 252.845V78.2496C118.368 73.5853 122.4 69.4018 127.376 68.9126L138.788 67.8414V68.8704C138.788 71.8562 141.369 74.0239 144.549 73.7118L186.519 69.5873C188.037 69.4534 189.455 68.7766 190.513 67.6811C191.571 66.5856 192.199 65.1451 192.28 63.6241V62.6035L203.287 61.5155C208.264 61.0263 212.295 64.417 212.295 69.1066V243.643Z" fill="#105D38"/>
<path d="M212.295 69.0814V243.677C212.295 248.341 208.264 252.516 203.287 253.005L127.376 260.47C122.4 260.959 118.368 257.577 118.368 252.879V78.2834C118.368 73.6191 122.4 69.4356 127.376 68.9464L138.788 67.8415V68.8705C138.788 71.8563 141.369 74.024 144.549 73.7119L186.519 69.5874C188.037 69.4535 189.455 68.7767 190.513 67.6812C191.571 66.5857 192.199 65.1452 192.28 63.6242V62.6036L203.287 61.5156C208.264 61.0264 212.295 64.4171 212.295 69.0814Z" stroke="url(#paint1_linear_165_5037)" stroke-width="0.63" stroke-miterlimit="10"/>
<path d="M212.295 69.0814V243.677C212.295 248.341 208.264 252.516 203.287 253.005L127.376 260.47C122.4 260.959 118.368 257.577 118.368 252.879V78.2834C118.368 73.6191 122.4 69.4356 127.376 68.9464L138.788 67.8415V68.8705C138.788 71.8563 141.369 74.024 144.549 73.7119L186.519 69.5874C188.037 69.4535 189.455 68.7767 190.513 67.6812C191.571 66.5857 192.199 65.1452 192.28 63.6242V62.6036L203.287 61.5156C208.264 61.0264 212.295 64.4171 212.295 69.0814Z" fill="#4CD080"/>
<path d="M186.384 234.744L148.26 238.396C147.723 238.441 147.182 238.373 146.672 238.198C146.163 238.022 145.695 237.743 145.298 237.378C144.902 237.012 144.586 236.569 144.37 236.075C144.154 235.581 144.042 235.047 144.043 234.508V224.969C144.043 223.987 144.408 223.041 145.068 222.314C145.727 221.587 146.634 221.133 147.611 221.038L185.718 217.386C186.259 217.334 186.806 217.396 187.321 217.568C187.837 217.74 188.312 218.018 188.714 218.385C189.116 218.751 189.436 219.197 189.656 219.695C189.875 220.192 189.987 220.731 189.986 221.274V230.814C189.984 231.8 189.613 232.75 188.947 233.477C188.28 234.204 187.367 234.656 186.384 234.744V234.744Z" fill="url(#paint2_linear_165_5037)"/>
<path d="M171.253 67.3186L156.83 68.7356V67.5379L171.253 66.1208V67.3186Z" fill="url(#paint3_linear_165_5037)"/>
<path d="M175.778 67.3946C176.546 66.9456 176.844 66.0274 176.445 65.3437C176.045 64.6601 175.098 64.4699 174.33 64.9189C173.562 65.3679 173.263 66.2861 173.663 66.9698C174.063 67.6535 175.009 67.8437 175.778 67.3946Z" fill="url(#paint4_linear_165_5037)"/>
<path d="M137.295 201.2L192.297 195.928C194.151 195.761 195.875 194.902 197.125 193.522C198.375 192.142 199.061 190.343 199.045 188.481V126.428C199.036 125.3 198.794 124.186 198.335 123.155C197.876 122.125 197.209 121.2 196.376 120.44C195.543 119.679 194.562 119.098 193.495 118.734C192.427 118.369 191.296 118.229 190.171 118.322L135.17 123.594C133.316 123.759 131.592 124.616 130.342 125.995C129.092 127.373 128.406 129.172 128.422 131.033V193.094C128.431 194.222 128.673 195.336 129.132 196.367C129.591 197.397 130.258 198.322 131.091 199.082C131.924 199.843 132.905 200.424 133.972 200.788C135.04 201.153 136.171 201.293 137.295 201.2V201.2Z" fill="#C9D9DF"/>
<path d="M140.543 202.077L195.544 196.806C197.398 196.64 199.122 195.783 200.372 194.405C201.622 193.026 202.308 191.227 202.292 189.366V127.305C202.283 126.177 202.041 125.063 201.582 124.033C201.123 123.002 200.456 122.078 199.623 121.317C198.79 120.556 197.809 119.975 196.742 119.611C195.674 119.247 194.543 119.107 193.419 119.199L138.417 124.471C136.563 124.638 134.839 125.497 133.589 126.877C132.339 128.257 131.653 130.057 131.669 131.919V193.972C131.678 195.1 131.92 196.214 132.379 197.244C132.838 198.274 133.505 199.199 134.338 199.96C135.171 200.721 136.152 201.301 137.22 201.666C138.287 202.03 139.418 202.17 140.543 202.077V202.077Z" fill="url(#paint5_linear_165_5037)"/>
<path d="M142.66 135.841L162.397 134.255V154.068L142.66 155.653V135.841ZM159.124 151.023V137.848L145.932 138.911V152.162L159.124 151.023Z" fill="#105D38"/>
<path d="M175.706 133.167L195.426 131.581V151.411L175.706 153.03V133.167ZM192.162 148.4V135.149L178.962 136.212V149.463L192.162 148.4Z" fill="#105D38"/>
<path d="M162.397 187.233L142.66 188.818V169.056L162.397 167.47V187.233ZM145.915 185.267L159.141 184.238V170.996L145.915 172.059V185.267Z" fill="#105D38"/>
<path d="M169.018 137.005L172.307 136.743V143.331L169.043 143.592V146.882L165.796 147.143V133.985L169.018 133.724V137.005Z" fill="#105D38"/>
<path d="M195.435 161.364L188.906 161.887V158.597L182.311 159.12V155.873L195.435 154.818V161.364Z" fill="#105D38"/>
<path d="M192.17 174.96V178.216L195.426 177.954V184.542L188.923 185.065V175.247L192.17 174.96Z" fill="#105D38"/>
<path d="M149.205 158.53V161.794L152.477 161.532V164.839L142.668 165.632V159.086L149.205 158.53Z" fill="#105D38"/>
<path d="M169.043 156.91L178.895 156.117V162.705L172.332 163.236V159.862L169.043 160.124V156.834V156.91Z" fill="#105D38"/>
<path d="M175.706 166.306L178.97 166.045V162.772L185.516 162.241V168.786L175.706 169.57V166.306Z" fill="#105D38"/>
<path d="M172.332 163.236V169.824L165.77 170.355V163.768L172.366 163.236H172.332Z" fill="#105D38"/>
<path d="M172.324 179.894L174.095 179.717L178.422 179.371H178.911V185.925L172.366 186.456V180.384C172.366 180.223 172.366 180.072 172.366 179.911L172.324 179.894Z" fill="#105D38"/>
<path d="M165.77 163.768L159.2 164.291V161.018L162.447 160.756V157.442L165.762 157.172V163.793L165.77 163.768Z" fill="#105D38"/>
<path d="M195.435 171.3L192.204 171.561V168.28L188.932 168.542V165.277L195.435 164.754V171.3Z" fill="#105D38"/>
<path d="M169.068 180.131V176.757L165.796 177.018V173.779L172.324 173.256V179.877C171.818 179.877 171.32 179.877 170.823 179.945C170.325 180.012 169.642 180.063 169.051 180.122L169.068 180.131Z" fill="#105D38"/>
<path d="M169.077 153.612V146.991L172.307 146.73V153.342L169.06 153.604L169.077 153.612Z" fill="#105D38"/>
<path d="M169.06 180.122V186.153V186.693L165.812 186.954V180.4L169.094 180.131L169.06 180.122Z" fill="#105D38"/>
<path d="M159.09 157.737V160.967L152.587 161.49V158.26L159.09 157.737Z" fill="#105D38"/>
<path d="M182.311 175.669V172.43L188.822 171.907V175.12L182.311 175.669Z" fill="#105D38"/>
<path d="M182.311 185.621V179.093L185.516 178.832V185.36L182.311 185.621Z" fill="#105D38"/>
<path d="M165.762 157.172V153.874L169.077 153.604C169.077 154.709 169.077 155.805 169.077 156.91L165.77 157.18L165.762 157.172Z" fill="#105D38"/>
<path d="M175.698 176.2V172.978L178.903 172.725V175.939L175.698 176.2Z" fill="#105D38"/>
<path d="M172.391 173.147V169.899L175.605 169.638V172.86L172.391 173.147Z" fill="#105D38"/>
<path d="M182.209 179L179.013 179.262V176.031L182.209 175.77V179Z" fill="#105D38"/>
<path d="M155.792 141.424L149.272 141.947V148.476L155.792 147.953V141.424Z" fill="#105D38"/>
<path d="M188.822 145.313V138.768L182.327 139.291V145.836L188.822 145.313Z" fill="#105D38"/>
<path d="M149.255 181.649L155.775 181.126V174.589L149.255 175.112V181.649Z" fill="#105D38"/>
<path d="M155.792 141.424V147.97L149.272 148.493V141.964L155.792 141.424Z" fill="#105D38"/>
<path d="M188.822 145.313L182.327 145.836V139.291L188.822 138.768V145.313Z" fill="#105D38"/>
<path d="M149.255 181.649V175.112L155.775 174.589V181.126L149.255 181.649Z" fill="#105D38"/>
<path d="M188.29 233.479L150.183 237.123C149.642 237.176 149.096 237.115 148.58 236.944C148.065 236.773 147.59 236.496 147.188 236.13C146.786 235.765 146.465 235.319 146.246 234.821C146.026 234.324 145.914 233.786 145.915 233.243V223.703C145.915 222.722 146.28 221.776 146.94 221.049C147.6 220.322 148.506 219.867 149.483 219.773L187.59 216.121C188.132 216.069 188.678 216.131 189.194 216.303C189.71 216.475 190.184 216.753 190.586 217.119C190.988 217.485 191.309 217.932 191.528 218.43C191.747 218.927 191.86 219.465 191.858 220.009V229.549C191.859 230.53 191.493 231.476 190.834 232.203C190.174 232.93 189.267 233.385 188.29 233.479V233.479Z" fill="white"/>
<path d="M157.234 229.355L158.803 229.203C158.806 229.283 158.826 229.361 158.863 229.433C158.899 229.504 158.951 229.567 159.014 229.616C159.185 229.723 159.388 229.765 159.588 229.734C159.787 229.719 159.979 229.652 160.144 229.54C160.219 229.494 160.28 229.43 160.321 229.353C160.363 229.276 160.383 229.189 160.38 229.102C160.386 229.06 160.386 229.017 160.38 228.975C160.332 228.913 160.272 228.861 160.203 228.823C160.065 228.742 159.914 228.685 159.756 228.655L159.006 228.486C158.712 228.437 158.427 228.344 158.162 228.208C157.956 228.107 157.779 227.956 157.648 227.769C157.456 227.494 157.353 227.168 157.352 226.833C157.348 226.563 157.403 226.296 157.512 226.05C157.621 225.804 157.783 225.585 157.985 225.407C158.431 225.014 158.995 224.78 159.588 224.741C160.144 224.656 160.712 224.789 161.173 225.112C161.378 225.268 161.54 225.472 161.648 225.706C161.755 225.94 161.804 226.196 161.789 226.453L160.237 226.597C160.237 226.217 160.018 226.048 159.571 226.09C159.39 226.095 159.216 226.157 159.073 226.268C159.018 226.312 158.973 226.369 158.942 226.433C158.911 226.497 158.896 226.567 158.896 226.639C158.896 226.858 159.09 227.01 159.486 227.086L160.22 227.246C161.401 227.482 161.991 228.089 161.991 228.933C161.999 229.339 161.865 229.736 161.612 230.055C161.378 230.357 161.07 230.596 160.718 230.746C160.371 230.9 160 230.994 159.621 231.025C159.034 231.113 158.434 230.984 157.934 230.662C157.718 230.52 157.54 230.326 157.418 230.097C157.296 229.869 157.233 229.614 157.234 229.355V229.355Z" fill="#4CD080"/>
<path d="M167.348 228.098L168.621 228.832C168.326 229.296 167.928 229.685 167.457 229.97C166.988 230.263 166.456 230.443 165.905 230.493C165.493 230.544 165.075 230.507 164.678 230.385C164.281 230.263 163.915 230.059 163.603 229.785C163.295 229.521 163.049 229.192 162.885 228.821C162.72 228.45 162.639 228.048 162.65 227.642C162.65 226.774 162.993 225.941 163.603 225.323C164.197 224.666 165.021 224.261 165.905 224.193C166.436 224.133 166.974 224.212 167.466 224.42C167.93 224.619 168.332 224.94 168.63 225.348L167.339 226.327C167.19 226.102 166.979 225.927 166.732 225.821C166.468 225.7 166.177 225.653 165.888 225.686C165.427 225.724 164.998 225.939 164.691 226.284C164.375 226.61 164.199 227.046 164.201 227.499C164.193 227.711 164.233 227.922 164.318 228.116C164.403 228.31 164.53 228.483 164.691 228.621C164.852 228.765 165.042 228.873 165.249 228.937C165.456 229.001 165.674 229.02 165.888 228.992C166.188 228.97 166.478 228.875 166.732 228.714C166.981 228.558 167.192 228.347 167.348 228.098Z" fill="#4CD080"/>
<path d="M173.496 229.675L172.957 228.317L170.949 228.503L170.409 229.962L168.722 230.114L171.084 223.754L172.771 223.602L175.116 229.506L173.496 229.675ZM171.936 225.104L171.362 227.179L172.56 227.069L171.936 225.104Z" fill="#4CD080"/>
<path d="M179.063 223.037L180.607 222.894V229.043L179.257 229.161L177.3 225.989V229.363L175.748 229.506V223.358L177.148 223.231L179.063 226.36V223.037Z" fill="#4CD080"/>
<path d="M239.041 137.435L197.67 118.288L129.94 126.478L131.661 198.746L137.295 201.2L199.036 196.249L202.283 189.366L238.425 140.269L239.041 137.435Z" fill="url(#paint6_linear_165_5037)"/>
<path d="M237.43 141.863V135.807C237.43 135.606 237.482 135.409 237.583 135.236C237.684 135.062 237.829 134.919 238.004 134.82L241.378 132.939C241.732 132.737 243.132 133.555 243.132 133.96L242.179 144.351L239.809 146.182L237.439 144.79L237.43 141.863Z" fill="white"/>
<path d="M237.43 141.863V135.807C237.43 135.606 237.482 135.409 237.583 135.236C237.684 135.062 237.829 134.919 238.004 134.82L241.378 132.939C241.732 132.737 243.132 133.555 243.132 133.96L242.179 144.351L239.809 146.182L237.439 144.79L237.43 141.863Z" fill="url(#paint7_linear_165_5037)"/>
<path d="M238.426 142.614V136.549C238.425 136.35 238.478 136.154 238.578 135.982C238.679 135.809 238.825 135.668 238.999 135.571L242.373 133.681C242.454 133.636 242.546 133.613 242.64 133.614C242.733 133.615 242.824 133.64 242.905 133.687C242.986 133.733 243.053 133.8 243.1 133.88C243.147 133.961 243.173 134.052 243.174 134.145V145.11L240.804 146.932L238.434 145.549L238.426 142.614Z" fill="white"/>
<path d="M239.041 142.361V137.435L242.879 135.014V143.162L242.036 145.903L240.247 146.494C240.247 146.494 239.294 146.089 239.294 145.962" fill="#4CD080"/>
<path d="M292.685 187.224L292.179 187.907L294.001 161.963L294.363 156.75L294.54 154.22L295.493 156.269C297.282 160.039 300.993 167.926 302.03 170.085C303.22 172.565 294.852 184.238 292.685 187.224Z" fill="#FFAE58"/>
<path opacity="0.1" d="M292.685 187.224C292.475 186.727 292.396 186.183 292.457 185.647C292.68 184.462 293.189 183.35 293.942 182.408C295.949 179.456 298.463 176.327 299.618 172.902C301.136 168.373 296.16 165.564 294.001 161.937C293.448 161.089 293.12 160.113 293.048 159.103C293.012 158.622 293.117 158.14 293.351 157.718C293.584 157.295 293.936 156.95 294.363 156.725C294.714 156.507 295.095 156.342 295.494 156.235C297.282 160.006 300.993 167.892 302.03 170.051C303.22 172.565 294.853 184.238 292.685 187.224Z" fill="#020202"/>
<path d="M280.328 258.606C279.526 258.972 278.864 259.588 278.439 260.36C278.351 260.531 278.324 260.728 278.363 260.917C278.425 261.056 278.516 261.181 278.632 261.282C278.747 261.382 278.882 261.456 279.029 261.499C281.155 262.342 283.559 262.182 285.777 261.777C288.003 261.232 290.277 260.901 292.567 260.79C292.761 260.821 292.959 260.81 293.148 260.758C293.337 260.705 293.513 260.613 293.663 260.486C293.804 260.275 293.873 260.023 293.857 259.77C293.949 257.779 293.604 255.792 292.845 253.95C292.896 254.068 286.831 254.312 286.308 254.667C285.347 255.333 284.545 256.185 283.516 256.801C282.487 257.416 281.399 257.998 280.328 258.606Z" fill="#030319"/>
<path d="M288.392 215.193C288.351 222.956 288.96 230.709 290.214 238.371C290.416 239.704 290.635 241.028 290.905 242.352C292.896 252.136 293.056 254.624 293.056 254.624H285.06C285.06 254.624 279.156 226.917 276.963 220.608C275.304 215.826 274.01 210.926 273.092 205.949C272.733 203.59 273.025 201.179 273.935 198.973C274.244 198.104 274.684 197.287 275.242 196.553C276.329 195.353 277.689 194.433 279.207 193.87C282.435 192.41 285.928 191.624 289.471 191.559C289.876 191.525 290.282 191.613 290.635 191.812C290.862 191.998 291.041 192.235 291.158 192.504C292.196 194.613 292.002 197.092 291.681 199.42C291.542 200.713 291.259 201.986 290.838 203.216C290.365 204.473 289.623 205.611 289.193 206.885C288.827 208.111 288.612 209.377 288.552 210.655C288.501 212.165 288.426 213.675 288.392 215.193Z" fill="#4CD080"/>
<path d="M268.351 209.07C268.519 210.078 268.584 211.101 268.545 212.123C268.511 213.955 268.571 215.788 268.722 217.614C269.169 226.31 270.485 234.972 270.494 243.676C270.494 251.099 270.249 258.859 270.249 258.859C270.249 258.859 276.718 260.849 278.211 259.356L280.699 223.509C281.079 220.802 281.661 218.052 281.855 215.328C282.024 212.958 282.074 210.95 282.96 208.673C283.955 206.143 285.372 203.756 286.14 201.124C286.636 199.439 286.85 197.683 286.772 195.929C286.797 195.39 286.649 194.859 286.351 194.41C286.056 194.105 285.695 193.872 285.296 193.727C280.817 191.737 276.17 189.712 271.27 189.754C270.874 189.722 270.478 189.807 270.131 189.999C269.8 190.272 269.562 190.64 269.448 191.053C267.645 195.811 267.091 200.95 267.837 205.982C268.031 207.071 268.199 208.066 268.351 209.07Z" fill="#4CD080"/>
<path d="M244.195 147.97C244.001 146.831 244.026 145.642 243.925 144.486C243.92 144.033 243.798 143.588 243.57 143.196C243.449 143.004 243.266 142.86 243.05 142.788C242.835 142.715 242.602 142.72 242.39 142.799C241.867 143.061 241.85 143.778 241.867 144.36C241.884 144.942 241.732 145.684 241.158 145.794C240.942 145.815 240.725 145.771 240.534 145.667C240.248 145.514 240.001 145.296 239.814 145.031C239.627 144.766 239.504 144.461 239.454 144.14C239.404 143.761 239.454 143.364 239.387 142.985C239.168 141.888 237.751 142.074 237.093 142.647C236.705 143.022 236.39 143.465 236.165 143.955C235.688 144.784 235.338 145.679 235.127 146.612C234.427 150.416 239.016 151.234 240.956 153.663C241.235 154.04 241.545 154.393 241.883 154.717C242.213 155 242.611 155.191 243.037 155.271C243.463 155.35 243.903 155.317 244.313 155.173C244.72 155.023 245.079 154.767 245.355 154.432C245.631 154.097 245.812 153.695 245.881 153.267C246.109 151.85 245.08 150.576 244.574 149.226C244.408 148.82 244.281 148.4 244.195 147.97Z" fill="#FCD4D0"/>
<path d="M277.182 138.084C277.261 138.191 277.321 138.311 277.359 138.439C277.418 138.697 277.418 138.965 277.359 139.223C277.017 140.748 276.783 142.295 276.659 143.854C276.594 144.29 276.677 144.735 276.895 145.119C277.244 145.489 277.72 145.713 278.228 145.743C278.967 145.861 279.715 145.912 280.463 145.895C280.758 145.895 281.121 145.895 281.307 146.139C281.369 146.25 281.404 146.375 281.408 146.502C281.443 147.083 281.329 147.663 281.079 148.189C280.925 148.443 280.849 148.736 280.86 149.032C280.919 149.572 281.703 149.522 282.108 149.547C283.643 149.623 285.187 149.631 286.722 149.547C286.987 149.558 287.251 149.503 287.489 149.387C287.902 149.142 287.995 148.594 288.113 148.13C288.636 145.979 290.298 144.309 291.192 142.285C291.652 141.206 291.895 140.047 291.905 138.875C291.915 137.702 291.693 136.539 291.251 135.453C290.826 134.418 290.221 133.467 289.463 132.644C288.771 131.876 287.439 131.716 286.477 131.514C284.79 131.16 282.918 131.058 281.416 131.961C279.729 132.973 278.953 135.048 277.258 136.018C276.963 136.187 276.6 136.355 276.499 136.684C276.473 136.851 276.487 137.022 276.542 137.182C276.596 137.342 276.689 137.487 276.811 137.604C276.921 137.772 277.064 137.916 277.182 138.084Z" fill="#FCD4D0"/>
<path d="M281.88 131.37C281.918 131.632 281.998 131.885 282.116 132.121C282.656 133.243 283.365 132.965 284.335 133.108C285.515 133.319 286.283 134.643 286.528 135.723C286.738 137.032 286.695 138.369 286.401 139.662C286.661 139.448 286.981 139.32 287.317 139.298C287.653 139.275 287.987 139.358 288.274 139.535C288.552 139.729 288.769 139.999 288.898 140.314C289.026 140.628 289.061 140.973 288.999 141.306C288.929 141.642 288.768 141.951 288.532 142.2C288.297 142.448 287.997 142.627 287.666 142.715C287.337 142.799 286.949 142.816 286.747 143.086C286.637 143.281 286.59 143.505 286.612 143.727C286.612 145.161 286.671 146.721 287.582 147.835C288.847 147.708 289.809 146.696 290.753 145.853C292.094 144.655 293.629 143.676 294.92 142.42C296.288 141.219 297.138 139.535 297.29 137.722C297.332 134.812 294.76 132.568 293.815 129.827C293.646 129.21 293.423 128.608 293.149 128.03C292.896 127.633 292.563 127.294 292.171 127.033C291.779 126.773 291.337 126.597 290.873 126.518C290.409 126.438 289.933 126.457 289.477 126.572C289.021 126.687 288.593 126.897 288.223 127.187C287.543 126.74 286.747 126.501 285.933 126.501C285.119 126.501 284.323 126.74 283.643 127.187C283.02 127.679 282.532 128.321 282.224 129.052C281.916 129.784 281.797 130.581 281.88 131.37Z" fill="#030319"/>
<path d="M294.228 163.371C293.88 166.089 293.767 168.832 293.891 171.569C293.967 174.243 294.093 176.9 294.203 179.574C293.688 181.877 293.115 184.179 292.516 186.456C292.136 188.317 291.509 190.118 290.652 191.812C290.22 192.627 289.649 193.361 288.965 193.98C288.292 194.572 287.525 195.048 286.696 195.389C284.749 196.11 282.668 196.397 280.598 196.232C279.139 196.175 277.69 195.954 276.28 195.574V195.574C274.467 195.122 272.784 194.256 271.362 193.044C270.648 192.406 270.024 191.674 269.507 190.868C268.267 188.882 267.519 186.63 267.322 184.297C266.898 180.469 267.393 176.594 268.764 172.995C268.84 172.784 268.925 172.582 269.009 172.371C269.591 170.886 270.173 169.402 270.772 167.917C270.772 167.917 270.772 167.875 270.772 167.858C270.865 167.622 270.957 167.403 271.042 167.175L271.092 167.049L270.763 167.184L270.418 167.31C270.308 167.354 270.195 167.391 270.08 167.42C269.836 167.512 269.574 167.58 269.33 167.647L268.486 167.858C268.005 167.96 267.516 168.052 267.027 168.111L266.361 168.187C260.229 168.727 253.54 166.247 248.412 163.506C246.738 162.655 245.207 161.548 243.874 160.225C243.596 159.93 243.334 159.62 243.09 159.297C242.476 158.489 242.023 157.569 241.757 156.59C241.572 155.997 241.572 155.361 241.757 154.768C241.769 154.744 241.783 154.722 241.799 154.7C241.984 154.295 242.241 153.926 242.558 153.612C243.337 152.759 244.162 151.948 245.03 151.183L245.299 150.947C245.532 150.743 245.805 150.591 246.101 150.5C246.392 150.435 246.694 150.434 246.985 150.498C247.277 150.562 247.551 150.69 247.788 150.871C248.219 151.172 248.62 151.514 248.985 151.892C251.327 154.124 254.104 155.849 257.144 156.958C260.183 158.067 263.418 158.536 266.647 158.336C268.42 158.261 270.162 157.843 271.776 157.104C273.191 156.337 274.506 155.396 275.689 154.304C276.758 153.428 277.778 152.493 278.742 151.504C278.996 151.234 279.257 150.955 279.485 150.66C279.712 150.365 279.856 150.205 280.033 149.977L280.252 149.69C280.445 149.398 280.698 149.15 280.994 148.965V148.965C281.42 148.77 281.885 148.677 282.352 148.695C284.183 148.619 286.173 148.273 287.978 148.315H288.172C288.348 148.322 288.523 148.342 288.695 148.374C289.32 148.473 289.904 148.744 290.382 149.159C290.969 149.723 291.506 150.339 291.985 150.998C293.108 152.228 293.989 153.659 294.583 155.215C295.46 157.796 294.633 160.621 294.228 163.371Z" fill="#FFAE58"/>
<path d="M296.337 163.093C296.331 166.018 296.108 168.939 295.671 171.831C295.291 174.437 294.827 177.01 294.203 179.574C294.093 176.9 293.967 174.243 293.891 171.569C293.767 168.832 293.88 166.089 294.228 163.371C294.633 160.63 295.46 157.796 294.608 155.164C294.014 153.608 293.133 152.177 292.01 150.947C291.531 150.288 290.995 149.673 290.407 149.108C292.094 150.382 293.427 152.752 294.54 154.169C296.438 156.657 296.32 160.124 296.337 163.093Z" fill="#FFAE58"/>
<path opacity="0.1" d="M296.337 163.093C296.331 166.018 296.108 168.939 295.671 171.831C295.291 174.437 294.827 177.01 294.203 179.574C294.093 176.9 293.967 174.243 293.891 171.569C293.767 168.832 293.88 166.089 294.228 163.371C294.633 160.63 295.46 157.796 294.608 155.164C294.014 153.608 293.133 152.177 292.01 150.947C291.531 150.288 290.995 149.673 290.407 149.108C292.094 150.382 293.427 152.752 294.54 154.169C296.438 156.657 296.32 160.124 296.337 163.093Z" fill="#020202"/>
<path opacity="0.1" d="M294.228 163.371C293.88 166.089 293.767 168.832 293.891 171.569C293.967 174.243 294.093 176.9 294.203 179.574C293.688 181.877 293.115 184.179 292.516 186.456C292.136 188.317 291.509 190.118 290.652 191.812C290.22 192.627 289.649 193.361 288.965 193.98C288.292 194.572 287.525 195.048 286.696 195.389C284.749 196.11 282.668 196.397 280.598 196.232C279.139 196.175 277.69 195.954 276.28 195.574V195.574C274.467 195.122 272.784 194.256 271.362 193.044C270.648 192.406 270.024 191.674 269.507 190.868C268.267 188.882 267.519 186.63 267.322 184.297C266.898 180.469 267.393 176.594 268.764 172.995C268.84 172.784 268.925 172.582 269.009 172.371C269.675 170.918 270.263 169.432 270.772 167.917C270.772 167.917 270.772 167.875 270.772 167.858C270.839 167.605 270.898 167.369 270.957 167.124C270.895 167.152 270.83 167.172 270.763 167.184L270.418 167.31C270.308 167.354 270.195 167.391 270.08 167.42C269.836 167.512 269.574 167.58 269.33 167.647L268.486 167.858C268.005 167.96 267.516 168.052 267.027 168.111L266.361 168.187C260.144 168.82 253.768 166.391 248.412 163.506C246.738 162.655 245.207 161.548 243.874 160.225C243.596 159.93 243.334 159.62 243.09 159.297C242.476 158.489 242.023 157.569 241.757 156.59C241.572 155.997 241.572 155.361 241.757 154.768C241.769 154.744 241.783 154.722 241.799 154.7C241.984 154.295 242.241 153.926 242.558 153.612C243.337 152.759 244.162 151.948 245.03 151.183L245.299 150.947C245.532 150.743 245.805 150.591 246.101 150.5C246.392 150.435 246.694 150.434 246.985 150.498C247.277 150.562 247.551 150.69 247.788 150.871C248.219 151.172 248.62 151.514 248.985 151.892C251.327 154.124 254.104 155.849 257.144 156.958C260.183 158.067 263.418 158.536 266.647 158.336C268.42 158.261 270.162 157.843 271.776 157.104C273.191 156.337 274.506 155.396 275.689 154.304C276.758 153.428 277.778 152.493 278.742 151.504C278.996 151.234 279.257 150.955 279.485 150.66C279.712 150.365 279.856 150.205 280.033 149.977L280.252 149.69C280.445 149.398 280.698 149.15 280.994 148.965V148.965C281.42 148.77 281.885 148.677 282.352 148.695C284.183 148.619 286.173 148.273 287.978 148.315H288.172C288.348 148.322 288.523 148.342 288.695 148.374C289.308 148.511 289.883 148.778 290.382 149.159C290.969 149.723 291.506 150.339 291.985 150.998C293.108 152.228 293.989 153.659 294.583 155.215C295.46 157.796 294.633 160.621 294.228 163.371Z" fill="#020202"/>
<path d="M265.416 263.321C264.613 263.685 263.95 264.301 263.527 265.075C263.439 265.246 263.412 265.443 263.451 265.632C263.512 265.771 263.603 265.895 263.718 265.995C263.834 266.094 263.97 266.166 264.117 266.205C266.243 267.049 268.647 266.897 270.907 266.492C273.136 265.946 275.413 265.616 277.705 265.505C277.898 265.536 278.095 265.524 278.282 265.472C278.47 265.419 278.644 265.327 278.793 265.201C278.935 264.99 279.003 264.738 278.987 264.485C279.079 262.494 278.734 260.507 277.975 258.665C278.026 258.783 271.961 259.019 271.447 259.382C270.477 260.048 269.676 260.9 268.647 261.516C267.618 262.131 266.487 262.68 265.416 263.321Z" fill="#030319"/>
<path d="M255.261 160.917C251.221 159.474 247.105 158.049 243.883 155.147C243.511 154.881 243.254 154.483 243.166 154.034C243.194 153.756 243.285 153.489 243.431 153.251C243.577 153.013 243.775 152.811 244.009 152.659C244.586 152.078 245.242 151.581 245.958 151.183C246.316 150.984 246.712 150.862 247.12 150.826C247.529 150.79 247.94 150.84 248.328 150.972C248.868 151.245 249.354 151.613 249.762 152.06C252.728 154.73 256.378 156.523 260.305 157.239C264.126 158.083 268.334 158.133 272.003 156.649C274.129 155.805 278.751 150.213 280.818 151.031C282.884 151.85 281.973 155.974 280.969 157.256C278.802 160.014 273.311 161.322 270.004 161.946C265.086 162.92 259.997 162.565 255.261 160.917V160.917Z" fill="#FFAE58"/>
<path d="M287.43 151.799C287.896 151.58 288.308 151.263 288.64 150.87C288.972 150.477 289.215 150.017 289.353 149.522C288.244 149.293 287.106 149.236 285.979 149.353L282.749 149.513L280.623 149.623C279.299 149.699 279.274 150.281 279.78 151.192C280.016 151.622 280.623 151.968 280.877 152.432C281.13 152.895 281.172 153.393 281.475 153.747C282.319 154.76 282.555 154.186 283.643 153.528C284.731 152.87 286.19 152.474 287.43 151.799Z" fill="#FFAE58"/>
<path d="M235.052 74.159L272.965 70.1779L245.856 80.797L235.052 74.159Z" fill="#4CD080"/>
<path d="M272.965 70.1779L250.369 92.0402L245.856 80.797L272.965 70.1779Z" fill="#4CD080"/>
<path d="M272.965 70.1779L250.369 92.0402L245.856 80.797L272.965 70.1779Z" fill="url(#paint8_linear_165_5037)"/>
<path d="M241.386 92.7909L245.856 80.797L272.965 70.1779L241.386 92.7909Z" fill="#4CD080"/>
<path d="M272.965 70.1779L245.856 78.4775L235.052 74.159L245.856 80.797L272.965 70.1779Z" fill="url(#paint9_linear_165_5037)"/>
<defs>
<linearGradient id="paint0_linear_165_5037" x1="229.67" y1="143.078" x2="162.455" y2="390.505" gradientUnits="userSpaceOnUse">
<stop offset="0.01"/>
<stop offset="0.13" stop-opacity="0.69"/>
<stop offset="0.25" stop-opacity="0.32"/>
<stop offset="1" stop-opacity="0"/>
</linearGradient>
<linearGradient id="paint1_linear_165_5037" x1="89.4639" y1="111.538" x2="231.351" y2="223.815" gradientUnits="userSpaceOnUse">
<stop stop-color="white"/>
<stop offset="1" stop-color="#CBCBCB"/>
</linearGradient>
<linearGradient id="paint2_linear_165_5037" x1="8690.82" y1="4738.53" x2="8435.36" y2="6604.44" gradientUnits="userSpaceOnUse">
<stop offset="0.01"/>
<stop offset="0.13" stop-opacity="0.69"/>
<stop offset="0.25" stop-opacity="0.32"/>
<stop offset="1" stop-opacity="0"/>
</linearGradient>
<linearGradient id="paint3_linear_165_5037" x1="1071.74" y1="428.724" x2="1074.44" y2="457.945" gradientUnits="userSpaceOnUse">
<stop stop-color="white"/>
<stop offset="1" stop-color="#CBCBCB"/>
</linearGradient>
<linearGradient id="paint4_linear_165_5037" x1="508.933" y1="551.061" x2="512.571" y2="574.166" gradientUnits="userSpaceOnUse">
<stop stop-color="white"/>
<stop offset="1" stop-color="#CBCBCB"/>
</linearGradient>
<linearGradient id="paint5_linear_165_5037" x1="12739" y1="10688.4" x2="19234.9" y2="12619.9" gradientUnits="userSpaceOnUse">
<stop stop-color="white"/>
<stop offset="1" stop-color="#CBCBCB"/>
</linearGradient>
<linearGradient id="paint6_linear_165_5037" x1="257.901" y1="143.01" x2="164.969" y2="161.262" gradientUnits="userSpaceOnUse">
<stop offset="0.01" stop-color="white"/>
<stop offset="1" stop-color="white" stop-opacity="0"/>
</linearGradient>
<linearGradient id="paint7_linear_165_5037" x1="1717.32" y1="1803.03" x2="1782.28" y2="1832.53" gradientUnits="userSpaceOnUse">
<stop stop-color="white"/>
<stop offset="1" stop-color="#CBCBCB"/>
</linearGradient>
<linearGradient id="paint8_linear_165_5037" x1="7085.91" y1="854.599" x2="7867.13" y2="1905.08" gradientUnits="userSpaceOnUse">
<stop offset="0.01"/>
<stop offset="0.13" stop-opacity="0.69"/>
<stop offset="0.25" stop-opacity="0.32"/>
<stop offset="1" stop-opacity="0"/>
</linearGradient>
<linearGradient id="paint9_linear_165_5037" x1="9989.39" y1="345.743" x2="9989.39" y2="805.338" gradientUnits="userSpaceOnUse">
<stop offset="0.01"/>
<stop offset="0.13" stop-opacity="0.69"/>
<stop offset="0.25" stop-opacity="0.32"/>
<stop offset="1" stop-opacity="0"/>
</linearGradient>
</defs>
</svg>
