<svg width="24" height="24" viewBox="0 0 24 24" fill="none" xmlns="http://www.w3.org/2000/svg">
<path d="M21.8409 8.84C16.3043 3.71906 7.69341 3.72094 2.15904 8.84C1.95091 9.0325 1.94685 9.35844 2.1481 9.55813L3.2181 10.6197C3.40997 10.8103 3.71872 10.8144 3.9181 10.6316C8.4781 6.45406 15.5212 6.45312 20.0822 10.6316C20.2815 10.8144 20.5903 10.81 20.7822 10.6197L21.8522 9.55813C22.0531 9.35844 22.049 9.0325 21.8409 8.84ZM12 15C10.8953 15 9.99997 15.8953 9.99997 17C9.99997 18.1047 10.8953 19 12 19C13.1047 19 14 18.1047 14 17C14 15.8953 13.1047 15 12 15ZM18.3334 12.3878C14.7315 9.2025 9.26435 9.20594 5.66654 12.3878C5.45091 12.5784 5.44404 12.9094 5.64872 13.1112L6.72497 14.1734C6.91247 14.3584 7.21435 14.3709 7.41404 14.1984C10.0375 11.9306 13.9684 11.9356 16.5856 14.1984C16.7853 14.3709 17.0872 14.3587 17.2747 14.1734L18.3509 13.1112C18.5559 12.9094 18.5487 12.5781 18.3334 12.3878Z" fill="#FF6D3F"/>
</svg>
