<svg width="164" height="120" viewBox="0 0 164 120" fill="none" xmlns="http://www.w3.org/2000/svg">
<path d="M30.5897 37.7094C30.508 34.7364 32.6166 32.1523 35.5455 31.6359L133.897 14.2938C137.505 13.6576 140.836 16.3755 140.937 20.0379L142.102 62.4803C142.184 65.4533 140.076 68.0374 137.147 68.5539L38.7948 85.896C35.1867 86.5322 31.8558 83.8143 31.7552 80.1518L30.5897 37.7094Z" fill="#FFAE58"/>
<path d="M21.8978 57.5197C21.8161 54.5467 23.9247 51.9626 26.8536 51.4462L125.205 34.1041C128.814 33.4679 132.144 36.1858 132.245 39.8482L133.411 82.2906C133.492 85.2636 131.384 87.8477 128.455 88.3642L30.1029 105.706C26.4948 106.342 23.1639 103.625 23.0633 99.9621L21.8978 57.5197Z" fill="#4CD080"/>
<path d="M50.5231 82.8125L43.2333 67.0387L46.4714 66.4678L51.7707 79.1076L52.9474 65.3259L56.28 64.7382L62.0049 77.303L62.6616 63.613L65.9233 63.0379L64.3498 80.3745L60.7573 81.008L55.309 69.3205L54.0921 82.1832L50.5231 82.8125ZM71.8791 84.4083L68.8951 67.4854L71.5895 67.0103L72.2163 68.6301C72.5028 68.0434 72.9186 67.4989 73.4636 66.9967C74.0245 66.4916 74.8012 66.1516 75.7939 65.9765C76.8969 65.782 77.9289 65.8762 78.89 66.2592C79.8511 66.6421 80.6657 67.2539 81.3339 68.0947C82.002 68.9354 82.4403 69.9467 82.6487 71.1285C82.857 72.3102 82.7911 73.4104 82.4508 74.429C82.1077 75.4318 81.5501 76.2775 80.7779 76.966C80.003 77.6388 79.064 78.0724 77.961 78.2669C77.0786 78.4225 76.2774 78.3932 75.5572 78.179C74.8371 77.9648 74.2194 77.5944 73.7041 77.0679L74.9044 83.8749L71.8791 84.4083ZM76.8561 75.7323C77.8173 75.5628 78.556 75.0995 79.0724 74.3423C79.5888 73.5851 79.7567 72.6944 79.5761 71.6702C79.3955 70.646 78.9317 69.8586 78.1847 69.308C77.4377 68.7573 76.5837 68.5667 75.6225 68.7362C74.6456 68.9085 73.9003 69.3811 73.3867 70.154C72.8861 70.9084 72.7261 71.7977 72.9067 72.8219C73.0873 73.8461 73.5432 74.6349 74.2744 75.1883C75.0186 75.7232 75.8792 75.9045 76.8561 75.7323ZM90.4723 76.0608C89.4638 76.2387 88.6088 76.227 87.9072 76.0257C87.2028 75.8087 86.6458 75.4602 86.2362 74.98C85.8266 74.4998 85.5649 73.9367 85.4509 73.2907C85.2592 72.2035 85.5291 71.2461 86.2605 70.4185C86.9919 69.5909 88.2085 69.0271 89.9102 68.727L92.8883 68.2019L92.8383 67.9183C92.6966 67.1147 92.3639 66.5641 91.8403 66.2665C91.3166 65.9689 90.7161 65.8798 90.0385 65.9993C89.424 66.1077 88.9146 66.3518 88.5105 66.7318C88.1035 67.096 87.8949 67.5714 87.8847 68.1581L84.9302 68.6791C84.859 67.8143 85.012 67.0237 85.3894 66.3073C85.7824 65.5881 86.3437 64.9936 87.0732 64.5238C87.8 64.0382 88.6518 63.7093 89.6287 63.5371C91.299 63.2426 92.6883 63.4281 93.7967 64.0938C94.9051 64.7594 95.5941 65.8564 95.8636 67.3848L97.1347 74.5936L94.5584 75.0479L93.9414 73.2071C93.7059 73.8985 93.3091 74.5046 92.7511 75.0254C92.2088 75.5434 91.4492 75.8886 90.4723 76.0608ZM90.7409 73.5764C91.6076 73.4236 92.2272 73.0219 92.5999 72.3713C92.9884 71.718 93.172 70.9626 93.1508 70.1052L90.5745 70.5595C89.7709 70.7012 89.2222 70.9523 88.9283 71.3128C88.6317 71.6576 88.5209 72.0427 88.5959 72.4681C88.6765 72.925 88.9123 73.249 89.3034 73.44C89.6945 73.631 90.1737 73.6765 90.7409 73.5764ZM102.012 79.0952L103.675 72.6361L102.966 72.7612L96.475 62.6223L99.7603 62.043L104.5 69.7125L106.473 60.8594L109.687 60.2927L105.226 78.5284L102.012 79.0952Z" fill="white"/>
</svg>
