<svg width="40" height="32" viewBox="0 0 40 32" fill="none" xmlns="http://www.w3.org/2000/svg">
<path d="M25.3826 5.71826H14.5779V25.6983H25.3826V5.71826Z" fill="#FF5F00"/>
<path d="M15.2638 15.7082C15.2638 11.6486 17.1161 8.04797 19.963 5.71814C17.8707 4.02371 15.2295 3 12.3483 3C5.52242 3 0 8.68337 0 15.7082C0 22.733 5.52242 28.4163 12.3483 28.4163C15.2295 28.4163 17.8707 27.3926 19.963 25.6982C17.1161 23.4037 15.2638 19.7677 15.2638 15.7082Z" fill="#EB001B"/>
<path d="M39.9604 15.7082C39.9604 22.733 34.4379 28.4163 27.6121 28.4163C24.7308 28.4163 22.0897 27.3926 19.9973 25.6982C22.8786 23.3684 24.6965 19.7677 24.6965 15.7082C24.6965 11.6486 22.8443 8.04797 19.9973 5.71814C22.0897 4.02371 24.7308 3 27.6121 3C34.4379 3 39.9604 8.71868 39.9604 15.7082Z" fill="#F79E1B"/>
</svg>
