<svg width="24" height="24" viewBox="0 0 24 24" fill="none" xmlns="http://www.w3.org/2000/svg">
<g clip-path="url(#clip0_147_640)">
<path d="M15.75 0H8.25C7.45435 0 6.69129 0.316071 6.12868 0.87868C5.56607 1.44129 5.25 2.20435 5.25 3V21C5.25 21.7956 5.56607 22.5587 6.12868 23.1213C6.69129 23.6839 7.45435 24 8.25 24H15.75C16.5456 24 17.3087 23.6839 17.8713 23.1213C18.4339 22.5587 18.75 21.7956 18.75 21V3C18.75 2.20435 18.4339 1.44129 17.8713 0.87868C17.3087 0.316071 16.5456 0 15.75 0V0ZM17.25 21C17.25 21.3978 17.092 21.7794 16.8107 22.0607C16.5294 22.342 16.1478 22.5 15.75 22.5H8.25C7.85218 22.5 7.47064 22.342 7.18934 22.0607C6.90804 21.7794 6.75 21.3978 6.75 21V3C6.75 2.60218 6.90804 2.22064 7.18934 1.93934C7.47064 1.65804 7.85218 1.5 8.25 1.5H8.78203C8.85456 1.49974 8.92558 1.52067 8.98638 1.56022C9.04717 1.59978 9.09508 1.65624 9.12422 1.72266C9.24068 1.99075 9.43294 2.21898 9.67735 2.37929C9.92177 2.53959 10.2077 2.625 10.5 2.625H13.5C13.7923 2.625 14.0782 2.53959 14.3226 2.37929C14.5671 2.21898 14.7593 1.99075 14.8758 1.72266C14.9049 1.65624 14.9528 1.59978 15.0136 1.56022C15.0744 1.52067 15.1454 1.49974 15.218 1.5H15.75C16.1478 1.5 16.5294 1.65804 16.8107 1.93934C17.092 2.22064 17.25 2.60218 17.25 3V21Z" fill="#FF6D3F"/>
<path d="M15.75 2.25001C15.6636 2.24948 15.5782 2.26907 15.5007 2.30723C15.4232 2.34538 15.3556 2.40106 15.3033 2.46985C15.0939 2.75069 14.8219 2.97876 14.5088 3.1359C14.1957 3.29304 13.8503 3.37492 13.5 3.37501H10.5C10.1497 3.37492 9.80428 3.29304 9.49121 3.1359C9.17814 2.97876 8.90609 2.75069 8.69672 2.46985C8.64442 2.40106 8.57683 2.34538 8.4993 2.30723C8.42176 2.26907 8.33641 2.24948 8.25 2.25001C8.05109 2.25001 7.86032 2.32903 7.71967 2.46968C7.57902 2.61033 7.5 2.8011 7.5 3.00001V21C7.5 21.1989 7.57902 21.3897 7.71967 21.5303C7.86032 21.671 8.05109 21.75 8.25 21.75H15.75C15.9489 21.75 16.1397 21.671 16.2803 21.5303C16.421 21.3897 16.5 21.1989 16.5 21V3.00001C16.5 2.8011 16.421 2.61033 16.2803 2.46968C16.1397 2.32903 15.9489 2.25001 15.75 2.25001Z" fill="#2F80ED"/>
<path d="M15.75 0H8.25C7.45435 0 6.69129 0.316071 6.12868 0.87868C5.56607 1.44129 5.25 2.20435 5.25 3V21C5.25 21.7956 5.56607 22.5587 6.12868 23.1213C6.69129 23.6839 7.45435 24 8.25 24H15.75C16.5456 24 17.3087 23.6839 17.8713 23.1213C18.4339 22.5587 18.75 21.7956 18.75 21V3C18.75 2.20435 18.4339 1.44129 17.8713 0.87868C17.3087 0.316071 16.5456 0 15.75 0V0ZM17.25 21C17.25 21.3978 17.092 21.7794 16.8107 22.0607C16.5294 22.342 16.1478 22.5 15.75 22.5H8.25C7.85218 22.5 7.47064 22.342 7.18934 22.0607C6.90804 21.7794 6.75 21.3978 6.75 21V3C6.75 2.60218 6.90804 2.22064 7.18934 1.93934C7.47064 1.65804 7.85218 1.5 8.25 1.5H8.78203C8.85456 1.49974 8.92558 1.52067 8.98638 1.56022C9.04717 1.59978 9.09508 1.65624 9.12422 1.72266C9.24068 1.99075 9.43294 2.21898 9.67735 2.37929C9.92177 2.53959 10.2077 2.625 10.5 2.625H13.5C13.7923 2.625 14.0782 2.53959 14.3226 2.37929C14.5671 2.21898 14.7593 1.99075 14.8758 1.72266C14.9049 1.65624 14.9528 1.59978 15.0136 1.56022C15.0744 1.52067 15.1454 1.49974 15.218 1.5H15.75C16.1478 1.5 16.5294 1.65804 16.8107 1.93934C17.092 2.22064 17.25 2.60218 17.25 3V21Z" fill="#2F80ED"/>
</g>
<defs>
<clipPath id="clip0_147_640">
<rect width="24" height="24" fill="white"/>
</clipPath>
</defs>
</svg>
