<svg width="24" height="158" viewBox="0 0 24 158" fill="none" xmlns="http://www.w3.org/2000/svg">
<rect x="11" y="23" width="2" height="112" fill="#4CD080"/>
<circle cx="12" cy="12" r="12" fill="#4CD080"/>
<path d="M9.728 16V9.352L8.348 9.676V8.5L10.376 7.6H11.324V16H9.728ZM13.5767 16.084C13.2967 16.084 13.0647 15.996 12.8807 15.82C12.7047 15.644 12.6167 15.432 12.6167 15.184C12.6167 14.928 12.7047 14.712 12.8807 14.536C13.0647 14.36 13.2967 14.272 13.5767 14.272C13.8567 14.272 14.0847 14.36 14.2607 14.536C14.4447 14.712 14.5367 14.928 14.5367 15.184C14.5367 15.432 14.4447 15.644 14.2607 15.82C14.0847 15.996 13.8567 16.084 13.5767 16.084Z" fill="white"/>
<circle cx="12" cy="52" r="12" fill="#4CD080"/>
<path d="M8.612 56V54.884C9.124 54.46 9.62 54.04 10.1 53.624C10.588 53.208 11.02 52.796 11.396 52.388C11.78 51.98 12.084 51.584 12.308 51.2C12.54 50.808 12.656 50.428 12.656 50.06C12.656 49.716 12.56 49.412 12.368 49.148C12.184 48.884 11.876 48.752 11.444 48.752C11.004 48.752 10.672 48.896 10.448 49.184C10.224 49.472 10.112 49.82 10.112 50.228H8.624C8.64 49.612 8.776 49.1 9.032 48.692C9.288 48.276 9.628 47.968 10.052 47.768C10.476 47.56 10.952 47.456 11.48 47.456C12.336 47.456 13 47.692 13.472 48.164C13.952 48.628 14.192 49.232 14.192 49.976C14.192 50.44 14.084 50.892 13.868 51.332C13.66 51.772 13.384 52.196 13.04 52.604C12.696 53.012 12.324 53.396 11.924 53.756C11.524 54.108 11.136 54.436 10.76 54.74H14.396V56H8.612ZM16.2955 56.084C16.0155 56.084 15.7835 55.996 15.5995 55.82C15.4235 55.644 15.3355 55.432 15.3355 55.184C15.3355 54.928 15.4235 54.712 15.5995 54.536C15.7835 54.36 16.0155 54.272 16.2955 54.272C16.5755 54.272 16.8035 54.36 16.9795 54.536C17.1635 54.712 17.2555 54.928 17.2555 55.184C17.2555 55.432 17.1635 55.644 16.9795 55.82C16.8035 55.996 16.5755 56.084 16.2955 56.084Z" fill="white"/>
<circle cx="12" cy="108" r="12" fill="#4CD080"/>
<path d="M11.564 112.144C11.012 112.144 10.512 112.048 10.064 111.856C9.616 111.656 9.256 111.352 8.984 110.944C8.712 110.536 8.568 110.024 8.552 109.408H10.064C10.072 109.816 10.204 110.16 10.46 110.44C10.724 110.712 11.092 110.848 11.564 110.848C12.012 110.848 12.356 110.724 12.596 110.476C12.836 110.228 12.956 109.916 12.956 109.54C12.956 109.1 12.796 108.768 12.476 108.544C12.164 108.312 11.76 108.196 11.264 108.196H10.64V106.936H11.276C11.684 106.936 12.024 106.84 12.296 106.648C12.568 106.456 12.704 106.172 12.704 105.796C12.704 105.484 12.6 105.236 12.392 105.052C12.192 104.86 11.912 104.764 11.552 104.764C11.16 104.764 10.852 104.88 10.628 105.112C10.412 105.344 10.292 105.628 10.268 105.964H8.768C8.8 105.188 9.068 104.576 9.572 104.128C10.084 103.68 10.744 103.456 11.552 103.456C12.128 103.456 12.612 103.56 13.004 103.768C13.404 103.968 13.704 104.236 13.904 104.572C14.112 104.908 14.216 105.28 14.216 105.688C14.216 106.16 14.084 106.56 13.82 106.888C13.564 107.208 13.244 107.424 12.86 107.536C13.332 107.632 13.716 107.864 14.012 108.232C14.308 108.592 14.456 109.048 14.456 109.6C14.456 110.064 14.344 110.488 14.12 110.872C13.896 111.256 13.568 111.564 13.136 111.796C12.712 112.028 12.188 112.144 11.564 112.144ZM16.5884 112.084C16.3084 112.084 16.0764 111.996 15.8924 111.82C15.7164 111.644 15.6284 111.432 15.6284 111.184C15.6284 110.928 15.7164 110.712 15.8924 110.536C16.0764 110.36 16.3084 110.272 16.5884 110.272C16.8684 110.272 17.0964 110.36 17.2724 110.536C17.4564 110.712 17.5484 110.928 17.5484 111.184C17.5484 111.432 17.4564 111.644 17.2724 111.82C17.0964 111.996 16.8684 112.084 16.5884 112.084Z" fill="white"/>
<circle cx="12" cy="146" r="12" fill="#4CD080"/>
<path d="M12.656 150V148.44H8.516V147.216L12.452 141.6H14.192V147.108H15.296V148.44H14.192V150H12.656ZM10.16 147.108H12.752V143.292L10.16 147.108ZM17.1275 150.084C16.8475 150.084 16.6155 149.996 16.4315 149.82C16.2555 149.644 16.1675 149.432 16.1675 149.184C16.1675 148.928 16.2555 148.712 16.4315 148.536C16.6155 148.36 16.8475 148.272 17.1275 148.272C17.4075 148.272 17.6355 148.36 17.8115 148.536C17.9955 148.712 18.0875 148.928 18.0875 149.184C18.0875 149.432 17.9955 149.644 17.8115 149.82C17.6355 149.996 17.4075 150.084 17.1275 150.084Z" fill="white"/>
</svg>
