<svg width="48" height="48" viewBox="0 0 48 48" fill="none" xmlns="http://www.w3.org/2000/svg">
<rect width="48" height="48" rx="16" fill="#FFD2A6"/>
<path d="M8 18C8 12.4772 12.4772 8 18 8H38C43.5228 8 48 12.4772 48 18V32C48 40.8366 40.8366 48 32 48H18C12.4772 48 8 43.5228 8 38V18Z" fill="white" fill-opacity="0.1"/>
<path d="M21 27L27 21" stroke="white" stroke-width="2" stroke-linecap="round" stroke-linejoin="round"/>
<path d="M21.5 22C21.7761 22 22 21.7761 22 21.5C22 21.2239 21.7761 21 21.5 21C21.2239 21 21 21.2239 21 21.5C21 21.7761 21.2239 22 21.5 22Z" fill="white" stroke="white" stroke-width="2" stroke-linecap="round" stroke-linejoin="round"/>
<path d="M26.5 27C26.7761 27 27 26.7761 27 26.5C27 26.2239 26.7761 26 26.5 26C26.2239 26 26 26.2239 26 26.5C26 26.7761 26.2239 27 26.5 27Z" fill="white" stroke="white" stroke-width="2" stroke-linecap="round" stroke-linejoin="round"/>
<path d="M17 19.2C17 18.6165 17.2318 18.0569 17.6443 17.6443C18.0569 17.2318 18.6165 17 19.2 17H20.2C20.7809 16.9996 21.3381 16.7696 21.75 16.36L22.45 15.66C22.6544 15.4544 22.8975 15.2912 23.1652 15.1799C23.4329 15.0685 23.72 15.0112 24.01 15.0112C24.2999 15.0112 24.587 15.0685 24.8547 15.1799C25.1225 15.2912 25.3655 15.4544 25.57 15.66L26.27 16.36C26.6819 16.7696 27.2391 16.9996 27.82 17H28.82C29.4034 17 29.963 17.2318 30.3756 17.6443C30.7882 18.0569 31.02 18.6165 31.02 19.2V20.2C31.0203 20.7809 31.2504 21.3381 31.66 21.75L32.36 22.45C32.5656 22.6544 32.7287 22.8975 32.8401 23.1652C32.9514 23.4329 33.0087 23.72 33.0087 24.01C33.0087 24.2999 32.9514 24.587 32.8401 24.8547C32.7287 25.1225 32.5656 25.3655 32.36 25.57L31.66 26.27C31.2504 26.6819 31.0203 27.2391 31.02 27.82V28.82C31.02 29.4034 30.7882 29.963 30.3756 30.3756C29.963 30.7882 29.4034 31.02 28.82 31.02H27.82C27.2391 31.0203 26.6819 31.2504 26.27 31.66L25.57 32.36C25.3655 32.5656 25.1225 32.7287 24.8547 32.8401C24.587 32.9514 24.2999 33.0087 24.01 33.0087C23.72 33.0087 23.4329 32.9514 23.1652 32.8401C22.8975 32.7287 22.6544 32.5656 22.45 32.36L21.75 31.66C21.3381 31.2504 20.7809 31.0203 20.2 31.02H19.2C18.6165 31.02 18.0569 30.7882 17.6443 30.3756C17.2318 29.963 17 29.4034 17 28.82V27.82C16.9996 27.2391 16.7696 26.6819 16.36 26.27L15.66 25.57C15.4544 25.3655 15.2912 25.1225 15.1799 24.8547C15.0685 24.587 15.0112 24.2999 15.0112 24.01C15.0112 23.72 15.0685 23.4329 15.1799 23.1652C15.2912 22.8975 15.4544 22.6544 15.66 22.45L16.36 21.75C16.7696 21.3381 16.9996 20.7809 17 20.2V19.2" stroke="white" stroke-width="2" stroke-linecap="round" stroke-linejoin="round"/>
</svg>
