<svg width="375" height="340" viewBox="0 0 375 340" fill="none" xmlns="http://www.w3.org/2000/svg">
<path d="M376.412 223.058C376.253 223.75 375.931 224.394 375.472 224.937C375.209 225.246 374.875 225.486 374.497 225.635C373.172 226.145 371.742 225.307 370.557 224.504C367.942 222.813 365.427 220.972 363.026 218.992C361.623 217.777 359.814 216.198 359.758 214.36C359.712 213.673 359.902 212.991 360.298 212.425C360.757 211.768 361.371 211.233 362.087 210.868C362.802 210.503 363.596 210.318 364.4 210.33C366.001 210.348 367.575 210.743 368.993 211.482C371.288 212.473 373.286 214.04 374.792 216.03C375.547 217.02 376.081 218.159 376.361 219.37C376.64 220.582 376.657 221.839 376.412 223.058Z" fill="#FFAE58"/>
<path d="M375.472 224.937C375.209 225.246 374.875 225.486 374.497 225.635C373.172 226.145 371.742 225.307 370.556 224.504C367.942 222.813 365.427 220.972 363.025 218.992C361.623 217.776 359.814 216.198 359.758 214.36C360.721 213.433 362.008 212.915 363.348 212.914C364.955 212.936 366.535 213.331 367.962 214.067C370.253 215.068 372.251 216.633 373.768 218.615C375.116 220.433 375.724 222.691 375.472 224.937Z" fill="url(#paint0_linear_166_5276)"/>
<path d="M143.455 165.558C141.786 168.709 136.787 168.353 134.606 171.105C133.659 172.286 133.414 173.899 133.203 175.408C132.236 182.45 131.233 189.47 130.237 196.491C132.965 198.161 135.798 199.984 137.2 202.869C138.603 205.754 137.712 209.855 134.69 210.91C131.422 211.957 128.428 208.995 125.511 207.193C122.11 205.042 116.739 204.804 114.818 208.353C116.739 209.484 118.709 210.693 119.979 212.544C121.248 214.395 121.626 217.057 120.245 218.831C118.225 221.332 114.278 220.522 111.283 219.285C108.289 218.049 104.699 216.729 102.105 218.671C104.12 220.22 105.802 222.159 107.048 224.371C107.798 225.663 108.338 227.326 107.504 228.562C106.67 229.799 104.832 229.799 103.297 229.526C96.2004 228.213 89.7703 223.477 82.646 223.156C82.214 223.128 81.7807 223.128 81.3488 223.156C73.979 223.372 67.9065 228.562 61.5605 232.328C61.3105 232.486 61.0506 232.629 60.7822 232.754C55.9596 235.571 50.7339 237.64 45.2854 238.887C42.4455 239.537 39.6126 239.076 36.8358 239.907C33.6733 240.85 31.0859 242.869 28.5194 244.937C18.3238 253.236 7.9529 261.786 0.183466 272.44C-3.59607 257.833 -3.16132 242.771 -2.02535 226.069C-0.16714 225.265 1.31943 224.616 1.48071 224.511C8.82006 220.152 16.1804 215.811 23.5619 211.489C24.1038 211.12 24.7066 210.848 25.343 210.686C27.3975 210.337 28.9612 212.272 30.0411 214.102C33.6593 208.856 38.8413 204.713 44.1635 201.22C50.0466 197.294 56.2313 193.85 62.395 190.379C68.0608 187.179 73.7546 184.008 79.4274 180.801C85.7383 177.308 92.1404 173.704 98.9702 171.231C104.804 169.135 110.933 167.843 116.655 165.447C122.489 163.05 126.591 160.766 132.783 159.746C135.188 159.369 139.094 158.859 141.155 160.095C143.217 161.332 144.563 163.4 143.455 165.558Z" fill="#FCD4D0"/>
<path d="M88.1437 219.67C87.7089 221.332 85.5211 221.954 83.712 222.17C83.4831 222.243 83.2716 222.362 83.0907 222.519C82.9097 222.677 82.7632 222.869 82.6602 223.086C82.2282 223.058 81.7949 223.058 81.3629 223.086C73.9932 223.302 67.9207 228.493 61.5748 232.258C61.3248 232.416 61.0648 232.559 60.7964 232.684C60.2284 230.861 60.2565 225.642 64.1131 213.648C64.8144 211.552 65.5997 208.758 66.2168 206.732C66.5766 205.391 67.1044 204.1 67.7875 202.89C70.1988 199.169 73.9129 196.475 78.2075 195.331C78.5954 195.177 79.0111 195.104 79.4287 195.117C79.8462 195.13 80.2565 195.229 80.6337 195.408C81.4471 195.89 81.5523 196.994 81.2858 197.86C81.0194 198.726 80.4444 199.495 80.1499 200.361C78.9368 203.609 81.5523 206.865 83.5788 209.743C85.2537 212.062 86.6405 214.574 87.7089 217.225C88.1053 217.975 88.2573 218.829 88.1437 219.67Z" fill="url(#paint1_linear_166_5276)"/>
<path d="M150.366 180.504L128.277 154.212C127.011 152.706 124.76 152.507 123.249 153.768L67.9132 199.91C66.4016 201.171 66.2019 203.413 67.4671 204.919L89.5567 231.211C90.8219 232.717 93.073 232.916 94.5846 231.655L149.92 185.512C151.432 184.252 151.632 182.009 150.366 180.504Z" fill="#FFD2A6"/>
<path d="M150.366 180.504L128.277 154.212C127.011 152.706 124.76 152.507 123.249 153.768L67.9132 199.91C66.4016 201.171 66.2019 203.413 67.4671 204.919L89.5567 231.211C90.8219 232.717 93.073 232.916 94.5846 231.655L149.92 185.512C151.432 184.252 151.632 182.009 150.366 180.504Z" fill="#105D38"/>
<path d="M146 182.358L125.382 157.819C124.251 156.473 122.239 156.295 120.888 157.421L73.3598 197.054C72.0086 198.18 71.83 200.185 72.961 201.531L93.5789 226.071C94.7099 227.417 96.7221 227.595 98.0733 226.468L145.601 186.836C146.953 185.709 147.131 183.705 146 182.358Z" fill="#4CD080"/>
<path d="M35.3003 194.57C38.1527 191.908 41.2413 189.509 44.5282 187.403C48.0854 185.34 51.7991 183.558 55.6354 182.073C62.8719 179.076 70.1154 176.065 77.6114 173.815C79.8903 173.117 82.1833 172.516 84.4762 171.908L104.299 166.613C104.924 168.59 103.851 170.686 102.652 172.376C98.9102 177.652 93.6692 181.691 87.6036 183.973C85.8857 184.615 84.0976 185.132 82.6391 186.271C81.5787 187.219 80.6369 188.291 79.8342 189.463C75.4516 195.052 69.0356 199.306 66.5112 205.936C65.6627 208.136 65.2701 210.539 64.0149 212.53C62.6125 214.717 60.3686 216.17 58.1738 217.546C49.7593 222.848 41.0923 228.206 31.4155 230.665C30.2725 231.054 29.0423 231.112 27.8674 230.833C26.7212 230.334 25.7359 229.529 25.0205 228.507C22.44 225.482 19.6562 222.534 17.2511 219.369C14.9371 216.316 16.045 214.402 18.394 211.797C23.7151 205.756 29.3587 200.006 35.3003 194.57Z" fill="#FCD4D0"/>
<path d="M376.685 275.234C368.748 263.267 357.465 253.962 346.365 244.839C343.826 242.743 341.239 240.753 338.056 239.809C335.3 238.978 332.446 239.439 329.599 238.79C324.051 237.513 318.735 235.393 313.836 232.502L313.352 232.209C307.041 228.444 300.933 223.253 293.564 223.037C292.15 222.994 290.736 223.13 289.356 223.442C283.368 224.65 277.779 228.332 271.651 229.436C270.164 229.708 268.355 229.708 267.443 228.472C266.532 227.235 267.17 225.594 267.899 224.28C269.149 222.062 270.841 220.122 272.871 218.58C270.276 216.638 266.658 217.986 263.692 219.195C260.726 220.403 256.722 221.241 254.731 218.741C253.328 216.987 253.672 214.326 254.969 212.453C256.266 210.581 258.237 209.415 260.13 208.262C258.237 204.713 252.837 204.951 249.436 207.102C246.547 208.905 243.553 211.867 240.286 210.819C237.263 209.792 236.394 205.628 237.747 202.778C239.101 199.928 241.954 198.07 244.71 196.4C243.714 189.38 242.74 182.359 241.744 175.317C241.555 173.808 241.281 172.195 240.342 171.014C238.161 168.22 233.161 168.618 231.52 165.468C230.412 163.316 231.71 161.276 233.785 160.012C235.861 158.747 239.753 159.313 242.13 159.662C248.364 160.682 252.438 162.967 258.3 165.363C263.994 167.759 270.15 169.051 275.956 171.147C282.786 173.62 289.181 177.197 295.527 180.717C301.2 183.924 306.866 187.095 312.559 190.295C318.744 193.788 324.901 197.211 330.791 201.137C336.113 204.629 341.309 208.772 344.941 214.018C345.993 212.188 347.557 210.253 349.633 210.602C350.263 210.762 350.859 211.035 351.393 211.406C358.765 215.737 366.134 220.077 373.502 224.427C374.014 224.72 375.844 225.978 376.117 226.488C375.542 242.52 375.037 259.362 376.685 275.234Z" fill="#FCD4D0"/>
<path d="M361.09 216.442L357.788 214.71C357.633 214.605 357.447 214.558 357.262 214.577C357.095 214.636 356.957 214.756 356.876 214.912C356.305 215.929 355.929 217.042 355.768 218.196C354.694 223.014 352.487 227.51 349.331 231.315C347.564 233.445 345.425 235.506 344.808 238.182C344.191 240.857 345.208 243.596 346.87 245.705C348.531 247.815 350.846 249.387 353.096 250.784C355.347 252.181 357.731 253.578 359.66 255.478C364.912 252.055 367.801 246.048 369.996 240.187C370.108 239.879 370.332 239.488 370.697 239.558C370.848 239.604 370.979 239.7 371.068 239.83C372.793 241.842 373.796 244.49 375.977 246.041L376.79 227.382C376.846 226.991 376.793 226.592 376.636 226.229C376.391 225.882 376.05 225.612 375.654 225.454C371.173 223.12 366.901 220.406 362.885 217.343" fill="url(#paint2_linear_166_5276)"/>
<path d="M325.069 227.605C325.135 228.56 324.976 229.517 324.606 230.4C323.688 232.146 321.367 232.551 319.396 232.635C317.542 232.703 315.685 232.666 313.836 232.523L313.352 232.23C307.041 228.465 300.933 223.274 293.563 223.058C292.149 223.015 290.736 223.151 289.356 223.463C287.944 222.485 286.65 221.349 285.5 220.075C283.834 218.162 282.612 215.907 281.921 213.471C281.23 211.034 281.087 208.476 281.503 205.978C282.961 197.644 294.826 187.179 301.613 197.05C303.691 200.206 306.139 203.105 308.906 205.684C313.197 209.666 319.677 210.658 322.972 215.932C325.013 219.348 325.069 223.54 325.069 227.605Z" fill="url(#paint3_linear_166_5276)"/>
<path d="M285.358 231.206L307.447 204.914C308.712 203.408 308.513 201.166 307.001 199.905L251.665 153.763C250.154 152.502 247.903 152.701 246.638 154.207L224.548 180.498C223.283 182.004 223.482 184.247 224.994 185.507L280.33 231.65C281.841 232.91 284.092 232.711 285.358 231.206Z" fill="#105D38"/>
<path d="M285.358 231.206L307.447 204.914C308.712 203.408 308.513 201.166 307.001 199.905L251.665 153.763C250.154 152.502 247.903 152.701 246.638 154.207L224.548 180.498C223.283 182.004 223.482 184.247 224.994 185.507L280.33 231.65C281.841 232.91 284.092 232.711 285.358 231.206Z" fill="url(#paint4_linear_166_5276)"/>
<path d="M281.33 226.054L301.948 201.514C303.079 200.168 302.9 198.163 301.549 197.036L254.021 157.404C252.67 156.277 250.657 156.455 249.526 157.801L228.909 182.341C227.778 183.687 227.956 185.692 229.307 186.819L276.835 226.451C278.187 227.578 280.199 227.4 281.33 226.054Z" fill="#4CD080"/>
<path d="M339.626 194.57C336.775 191.91 333.689 189.511 330.405 187.403C326.846 185.34 323.129 183.558 319.291 182.073C312.061 179.076 304.811 176.065 297.315 173.815C295.043 173.117 292.743 172.516 290.45 171.908L270.627 166.613C270.003 168.59 271.076 170.686 272.275 172.376C276.016 177.652 281.257 181.691 287.323 183.973C289.041 184.615 290.829 185.132 292.294 186.271C293.353 187.22 294.295 188.292 295.099 189.463C299.482 195.052 305.898 199.306 308.457 205.936C309.306 208.136 309.698 210.539 310.96 212.53C312.363 214.717 314.6 216.17 316.795 217.546C325.244 222.848 333.876 228.206 343.553 230.665C344.696 231.054 345.926 231.112 347.101 230.833C348.248 230.332 349.235 229.527 349.955 228.507C352.528 225.482 355.319 222.534 357.717 219.369C360.031 216.316 358.923 214.402 356.574 211.797C351.24 205.755 345.582 200.005 339.626 194.57Z" fill="#FCD4D0"/>
<path d="M151.933 168.967L150.453 166.907C153.355 164.987 156.436 163.349 159.653 162.017L160.656 164.343C157.608 165.607 154.687 167.155 151.933 168.967ZM218.926 164.706C215.859 163.402 212.714 162.287 209.509 161.367L210.21 158.936C213.516 159.884 216.759 161.034 219.922 162.38L218.926 164.706ZM170.073 161.046L169.372 158.601C172.696 157.692 176.079 157.01 179.497 156.561L179.827 159.076C176.534 159.507 173.275 160.165 170.073 161.046ZM199.755 159.271C196.463 158.787 193.14 158.528 189.812 158.496V155.96C193.258 155.997 196.697 156.267 200.106 156.77L199.755 159.271Z" fill="#FFD2A6"/>
<path d="M299 97C318.882 97 335 80.8823 335 61C335 41.1177 318.882 25 299 25C279.118 25 263 41.1177 263 61C263 80.8823 279.118 97 299 97Z" fill="#FFAE58"/>
<path d="M287.491 81.0227L284.644 75.3566C285.364 74.9386 286.099 74.567 286.787 74.1181C288.721 73.0395 290.206 71.3171 290.979 69.257C291.359 67.8293 291.192 66.3127 290.509 64.9997C290.509 64.8449 290.087 64.7365 289.853 64.7365H283.346V59.9064H287.178C286.552 58.7763 285.896 57.7236 285.395 56.5935C284.688 55.0365 284.403 53.3241 284.567 51.6248C284.732 49.9256 285.34 48.298 286.333 46.9023C287.379 45.3255 288.743 43.9795 290.339 42.9485C291.935 41.9176 293.729 41.224 295.608 40.9111C299.67 40.0187 303.917 40.504 307.667 42.2889C310.001 43.4679 311.892 45.356 313.063 47.6764L306.4 51.4383C305.87 50.6491 305.291 49.8941 304.664 49.178C303.841 48.363 302.808 47.7875 301.677 47.5145C300.546 47.2414 299.361 47.2814 298.251 47.6299C296.794 47.928 295.515 48.7868 294.697 50.0177C293.878 51.2486 293.587 52.7507 293.888 54.1939C293.983 54.6616 294.14 55.1146 294.357 55.5408C294.996 56.9407 295.749 58.2869 296.609 59.5658C296.711 59.6738 296.834 59.7587 296.972 59.8148C297.11 59.8709 297.258 59.8969 297.407 59.891H305.383V64.7056H298.658C298.832 66.1402 298.61 67.5946 298.015 68.9141C297.42 70.2336 296.475 71.3687 295.28 72.1984L296.437 72.0591C298.6 71.8601 300.774 72.2905 302.693 73.2976C303.845 73.8487 305.129 74.0725 306.402 73.944C307.675 73.8155 308.887 73.3399 309.903 72.57C310.202 72.3363 310.479 72.0773 310.732 71.7959C311.858 74.0097 312.953 76.1926 314.079 78.4373C313.049 79.51 311.748 80.2903 310.31 80.6975C307.184 81.704 303.817 81.704 300.691 80.6975C299.782 80.3923 298.889 80.0409 298.017 79.6448C296.794 79.1085 295.468 78.843 294.13 78.8671C292.793 78.8912 291.477 79.2041 290.275 79.7842L287.491 81.0227Z" fill="white"/>
<path d="M361.616 215.779C361.616 215.779 347.339 239.607 346.365 244.839C345.39 250.071 355.789 258.189 358.068 258.189C360.347 258.189 373.445 224.511 373.445 224.511C373.445 224.511 370.479 218.307 361.616 215.779Z" fill="#FFAE58"/>
<path d="M361.974 215.897C361.974 215.897 347.908 239.956 346.94 245.237C345.972 250.518 356.357 258.58 358.636 258.58C360.915 258.58 373.558 224.692 373.558 224.692C373.558 224.692 370.837 218.419 361.974 215.897Z" fill="url(#paint5_linear_166_5276)"/>
<path opacity="0.24" d="M109.818 205.482C117.234 205.482 123.246 199.492 123.246 192.104C123.246 184.716 117.234 178.726 109.818 178.726C102.402 178.726 96.3899 184.716 96.3899 192.104C96.3899 199.492 102.402 205.482 109.818 205.482Z" fill="white"/>
<path opacity="0.24" d="M266.343 204.671C273.759 204.671 279.771 198.682 279.771 191.294C279.771 183.905 273.759 177.916 266.343 177.916C258.926 177.916 252.914 183.905 252.914 191.294C252.914 198.682 258.926 204.671 266.343 204.671Z" fill="white"/>
<path d="M192 340C211.882 340 228 323.882 228 304C228 284.118 211.882 268 192 268C172.118 268 156 284.118 156 304C156 323.882 172.118 340 192 340Z" fill="#FFAE58"/>
<path d="M191.609 300.655L193.35 297.878C195.212 294.89 197.089 291.902 198.938 288.9C199.026 288.718 199.169 288.567 199.347 288.468C199.526 288.369 199.732 288.326 199.936 288.345H206.968C203.756 293.198 200.625 297.957 197.412 302.797H205.619V306.472H194.942V310.108H205.619V313.691H194.956V318.98H188.315V313.691H177.666V310.095H188.248V306.459H177.653V302.797H185.845L176.235 288.253H183.294C183.45 288.234 183.609 288.262 183.748 288.333C183.888 288.403 184.002 288.514 184.077 288.649C185.616 291.126 187.164 293.594 188.72 296.053L191.609 300.655Z" fill="white"/>
<path d="M100 80C119.882 80 136 63.8823 136 44C136 24.1177 119.882 8 100 8C80.1178 8 64 24.1177 64 44C64 63.8823 80.1178 80 100 80Z" fill="#FFAE58"/>
<path d="M97.5926 25.5674V20.5568H103.438V25.704C107.642 26.2117 111.581 28.0222 114.704 30.8816L109.967 37.1372C108.145 35.4202 105.921 34.1881 103.499 33.5539V40.4472C105.017 40.9635 106.536 41.3886 107.948 41.9656C110.476 42.6462 112.644 44.2769 113.999 46.5175C115.355 48.7582 115.792 51.4355 115.221 53.991C114.998 55.5496 114.431 57.0393 113.562 58.3522C112.693 59.6652 111.543 60.7686 110.195 61.5827C108.342 62.7011 106.271 63.4103 104.122 63.6629C103.545 63.6629 103.438 63.9514 103.453 64.4676V68.7038H97.5926V63.9514C96.0742 63.6325 94.6318 63.3744 93.2197 62.9948C90.3066 62.2514 87.6311 60.7778 85.4457 58.713C84.5195 57.8628 84.5347 57.8324 85.2635 56.7999C86.5238 54.9931 87.7992 53.2014 89.1353 51.3187C91.367 53.7798 94.3142 55.4791 97.5622 56.1774V48.3427C95.892 47.7809 94.2674 47.3254 92.7035 46.6877C91.3075 46.2363 90.0256 45.4883 88.9458 44.495C87.8661 43.5017 87.0139 42.2867 86.4479 40.9331C85.9244 39.5997 85.6813 38.1727 85.7335 36.7412C85.7858 35.3097 86.1323 33.9043 86.7515 32.6125C87.5945 30.9375 88.8102 29.4781 90.3053 28.3463C91.8003 27.2145 93.5349 26.4404 95.3758 26.0836C96.0742 25.871 96.7727 25.7647 97.5926 25.5674ZM103.484 56.0711C104.358 55.9797 105.171 55.5819 105.779 54.9483C106.388 54.3146 106.753 53.486 106.809 52.6093C106.809 51.3035 105.291 50.2254 103.484 49.861V56.0711ZM97.5167 38.8833V33.1591C96.7099 33.1774 95.94 33.501 95.3624 34.0646C94.7847 34.6281 94.4423 35.3897 94.404 36.1958C94.404 37.4257 95.7402 38.5645 97.5167 38.8681V38.8833Z" fill="white"/>
<defs>
<linearGradient id="paint0_linear_166_5276" x1="370.535" y1="214.402" x2="364.867" y2="224.648" gradientUnits="userSpaceOnUse">
<stop stop-color="#010101" stop-opacity="0"/>
<stop offset="0.95" stop-color="#010101"/>
</linearGradient>
<linearGradient id="paint1_linear_166_5276" x1="2056.03" y1="9957.63" x2="11692.9" y2="8346.28" gradientUnits="userSpaceOnUse">
<stop stop-color="#010101" stop-opacity="0"/>
<stop offset="0.95" stop-color="#010101"/>
</linearGradient>
<linearGradient id="paint2_linear_166_5276" x1="15346.4" y1="9436.68" x2="21755.7" y2="14228.1" gradientUnits="userSpaceOnUse">
<stop stop-color="#010101" stop-opacity="0"/>
<stop offset="0.95" stop-color="#010101"/>
</linearGradient>
<linearGradient id="paint3_linear_166_5276" x1="17479.1" y1="11599.3" x2="32076.2" y2="560.818" gradientUnits="userSpaceOnUse">
<stop stop-color="#010101" stop-opacity="0"/>
<stop offset="0.95" stop-color="#010101"/>
</linearGradient>
<linearGradient id="paint4_linear_166_5276" x1="14541.8" y1="19544.1" x2="28998.6" y2="15478.5" gradientUnits="userSpaceOnUse">
<stop stop-color="#010101" stop-opacity="0"/>
<stop offset="0.95" stop-color="#010101"/>
</linearGradient>
<linearGradient id="paint5_linear_166_5276" x1="14294.3" y1="11589.5" x2="14998.1" y2="15806.2" gradientUnits="userSpaceOnUse">
<stop stop-color="#010101" stop-opacity="0"/>
<stop offset="0.95" stop-color="#010101"/>
</linearGradient>
</defs>
</svg>
