<svg width="48" height="48" viewBox="0 0 48 48" fill="none" xmlns="http://www.w3.org/2000/svg">
<rect width="48" height="48" rx="16" fill="#105D38"/>
<path d="M13.5 29.625C13.5 30.3212 13.7766 30.9889 14.2688 31.4812C14.7611 31.9734 15.4288 32.25 16.125 32.25H31.875C32.5712 32.25 33.2389 31.9734 33.7312 31.4812C34.2234 30.9889 34.5 30.3212 34.5 29.625V22.4062H13.5V29.625ZM16.5938 26.0625C16.5938 25.6895 16.7419 25.3319 17.0056 25.0681C17.2694 24.8044 17.627 24.6562 18 24.6562H20.25C20.623 24.6562 20.9806 24.8044 21.2444 25.0681C21.5081 25.3319 21.6562 25.6895 21.6562 26.0625V27C21.6562 27.373 21.5081 27.7306 21.2444 27.9944C20.9806 28.2581 20.623 28.4062 20.25 28.4062H18C17.627 28.4062 17.2694 28.2581 17.0056 27.9944C16.7419 27.7306 16.5938 27.373 16.5938 27V26.0625Z" fill="white"/>
<path d="M31.875 15.75H16.125C15.4288 15.75 14.7611 16.0266 14.2688 16.5188C13.7766 17.0111 13.5 17.6788 13.5 18.375V19.5938H34.5V18.375C34.5 17.6788 34.2234 17.0111 33.7312 16.5188C33.2389 16.0266 32.5712 15.75 31.875 15.75Z" fill="white"/>
<path d="M34 11.5C30.4159 11.5 27.5 14.4159 27.5 18C27.5 21.5841 30.4159 24.5 34 24.5C37.5841 24.5 40.5 21.5841 40.5 18C40.5 14.4159 37.5841 11.5 34 11.5ZM37.3828 15.8216L33.1828 20.8216C33.1367 20.8764 33.0794 20.9208 33.0147 20.9516C32.95 20.9823 32.8795 20.9989 32.8078 21H32.7994C32.7293 21 32.66 20.9852 32.596 20.9567C32.532 20.9282 32.4747 20.8865 32.4278 20.8344L30.6278 18.8344C30.5821 18.7859 30.5465 18.7288 30.5232 18.6663C30.4999 18.6039 30.4893 18.5374 30.492 18.4709C30.4948 18.4043 30.5108 18.3389 30.5391 18.2786C30.5675 18.2183 30.6076 18.1643 30.6571 18.1197C30.7067 18.0751 30.7646 18.0409 30.8276 18.019C30.8905 17.9972 30.9572 17.9881 31.0237 17.9924C31.0902 17.9967 31.1552 18.0142 31.2148 18.044C31.2744 18.0737 31.3275 18.1151 31.3709 18.1656L32.7863 19.7381L36.6172 15.1784C36.7031 15.0791 36.8247 15.0175 36.9556 15.0071C37.0866 14.9967 37.2164 15.0382 37.317 15.1227C37.4175 15.2072 37.4808 15.3278 37.4931 15.4586C37.5055 15.5894 37.4658 15.7198 37.3828 15.8216Z" fill="#4CD080"/>
<path d="M37.125 15.5L32.75 20.5L30.875 18.625" stroke="white" stroke-width="1.5" stroke-linecap="round" stroke-linejoin="round"/>
</svg>
