<svg width="318" height="170" viewBox="0 0 318 170" fill="none" xmlns="http://www.w3.org/2000/svg">
<g clip-path="url(#clip0_132_4000)">
<rect width="318" height="170" rx="16" fill="#FFD2A6"/>
<path d="M211.071 128.74C208.271 122.733 210.869 115.593 216.876 112.793L291.336 78.0714C297.342 75.2705 304.482 77.8692 307.283 83.8757L350.812 177.225L254.601 222.089L211.071 128.74Z" fill="#4CD080"/>
<path d="M230.071 61.7397C227.271 55.7332 229.869 48.5935 235.876 45.7926L310.336 11.0714C316.342 8.27054 323.482 10.8692 326.283 16.8757L388.964 151.296L292.753 196.16L230.071 61.7397Z" fill="#00373E"/>
<path fill-rule="evenodd" clip-rule="evenodd" d="M225.027 83.2327C225.027 86.2906 227.506 88.7696 230.564 88.7696L242.745 88.7696L242.745 88.6131L253.091 82.4809C255.721 80.9217 256.59 77.5251 255.03 74.8946C253.471 72.264 250.074 71.3956 247.444 72.9549L239.446 77.6957L230.564 77.6957C227.506 77.6957 225.027 80.1747 225.027 83.2327Z" fill="#FFAE58"/>
<path d="M206.596 144.596C206.596 146.697 207.01 148.778 207.814 150.719C208.618 152.66 209.797 154.424 211.282 155.91C212.768 157.395 214.532 158.574 216.473 159.378C218.414 160.182 220.495 160.596 222.596 160.596C224.697 160.596 226.778 160.182 228.719 159.378C230.66 158.574 232.424 157.395 233.91 155.91C235.395 154.424 236.574 152.66 237.378 150.719C238.182 148.778 238.596 146.697 238.596 144.596L222.596 144.596L206.596 144.596Z" fill="white"/>
<path d="M30.14 45.24C29.1133 45.24 28.2067 45.0667 27.42 44.72C26.6333 44.36 26.0133 43.8533 25.56 43.2C25.1067 42.5333 24.8733 41.7267 24.86 40.78H27.56C27.5867 41.4333 27.82 41.9867 28.26 42.44C28.7133 42.88 29.3333 43.1 30.12 43.1C30.8 43.1 31.34 42.94 31.74 42.62C32.14 42.2867 32.34 41.8467 32.34 41.3C32.34 40.7267 32.16 40.28 31.8 39.96C31.4533 39.64 30.9867 39.38 30.4 39.18C29.8133 38.98 29.1867 38.7667 28.52 38.54C27.44 38.1667 26.6133 37.6867 26.04 37.1C25.48 36.5133 25.2 35.7333 25.2 34.76C25.1867 33.9333 25.38 33.2267 25.78 32.64C26.1933 32.04 26.7533 31.58 27.46 31.26C28.1667 30.9267 28.98 30.76 29.9 30.76C30.8333 30.76 31.6533 30.9267 32.36 31.26C33.08 31.5933 33.64 32.06 34.04 32.66C34.4533 33.26 34.6733 33.9733 34.7 34.8H31.96C31.9467 34.3067 31.7533 33.8733 31.38 33.5C31.02 33.1133 30.5133 32.92 29.86 32.92C29.3 32.9067 28.8267 33.0467 28.44 33.34C28.0667 33.62 27.88 34.0333 27.88 34.58C27.88 35.0467 28.0267 35.42 28.32 35.7C28.6133 35.9667 29.0133 36.1933 29.52 36.38C30.0267 36.5667 30.6067 36.7667 31.26 36.98C31.9533 37.22 32.5867 37.5 33.16 37.82C33.7333 38.14 34.1933 38.5667 34.54 39.1C34.8867 39.62 35.06 40.2933 35.06 41.12C35.06 41.8533 34.8733 42.5333 34.5 43.16C34.1267 43.7867 33.5733 44.2933 32.84 44.68C32.1067 45.0533 31.2067 45.24 30.14 45.24ZM37.2336 49.4V35.08H39.5136L39.7936 36.5C40.1136 36.06 40.5336 35.6733 41.0536 35.34C41.5869 35.0067 42.2736 34.84 43.1136 34.84C44.0469 34.84 44.8803 35.0667 45.6136 35.52C46.3469 35.9733 46.9269 36.5933 47.3536 37.38C47.7803 38.1667 47.9936 39.06 47.9936 40.06C47.9936 41.06 47.7803 41.9533 47.3536 42.74C46.9269 43.5133 46.3469 44.1267 45.6136 44.58C44.8803 45.02 44.0469 45.24 43.1136 45.24C42.3669 45.24 41.7136 45.1 41.1536 44.82C40.5936 44.54 40.1403 44.1467 39.7936 43.64V49.4H37.2336ZM42.5736 43C43.3869 43 44.0603 42.7267 44.5936 42.18C45.1269 41.6333 45.3936 40.9267 45.3936 40.06C45.3936 39.1933 45.1269 38.48 44.5936 37.92C44.0603 37.36 43.3869 37.08 42.5736 37.08C41.7469 37.08 41.0669 37.36 40.5336 37.92C40.0136 38.4667 39.7536 39.1733 39.7536 40.04C39.7536 40.9067 40.0136 41.62 40.5336 42.18C41.0669 42.7267 41.7469 43 42.5736 43ZM55.1005 45.24C54.1005 45.24 53.2138 45.0267 52.4405 44.6C51.6671 44.1733 51.0605 43.5733 50.6205 42.8C50.1805 42.0267 49.9605 41.1333 49.9605 40.12C49.9605 39.0933 50.1738 38.18 50.6005 37.38C51.0405 36.58 51.6405 35.96 52.4005 35.52C53.1738 35.0667 54.0805 34.84 55.1205 34.84C56.0938 34.84 56.9538 35.0533 57.7005 35.48C58.4471 35.9067 59.0271 36.4933 59.4405 37.24C59.8671 37.9733 60.0805 38.7933 60.0805 39.7C60.0805 39.8467 60.0738 40 60.0605 40.16C60.0605 40.32 60.0538 40.4867 60.0405 40.66H52.5005C52.5538 41.4333 52.8205 42.04 53.3005 42.48C53.7938 42.92 54.3871 43.14 55.0805 43.14C55.6005 43.14 56.0338 43.0267 56.3805 42.8C56.7405 42.56 57.0071 42.2533 57.1805 41.88H59.7805C59.5938 42.5067 59.2805 43.08 58.8405 43.6C58.4138 44.1067 57.8805 44.5067 57.2405 44.8C56.6138 45.0933 55.9005 45.24 55.1005 45.24ZM55.1205 36.92C54.4938 36.92 53.9405 37.1 53.4605 37.46C52.9805 37.8067 52.6738 38.34 52.5405 39.06H57.4805C57.4405 38.4067 57.2005 37.8867 56.7605 37.5C56.3205 37.1133 55.7738 36.92 55.1205 36.92ZM67.0936 45.24C66.0803 45.24 65.1869 45.02 64.4136 44.58C63.6403 44.14 63.0269 43.5267 62.5736 42.74C62.1336 41.9533 61.9136 41.0533 61.9136 40.04C61.9136 39.0267 62.1336 38.1267 62.5736 37.34C63.0269 36.5533 63.6403 35.94 64.4136 35.5C65.1869 35.06 66.0803 34.84 67.0936 34.84C68.3603 34.84 69.4269 35.1733 70.2936 35.84C71.1603 36.4933 71.7136 37.4 71.9536 38.56H69.2536C69.1203 38.08 68.8536 37.7067 68.4536 37.44C68.0669 37.16 67.6069 37.02 67.0736 37.02C66.3669 37.02 65.7669 37.2867 65.2736 37.82C64.7803 38.3533 64.5336 39.0933 64.5336 40.04C64.5336 40.9867 64.7803 41.7267 65.2736 42.26C65.7669 42.7933 66.3669 43.06 67.0736 43.06C67.6069 43.06 68.0669 42.9267 68.4536 42.66C68.8536 42.3933 69.1203 42.0133 69.2536 41.52H71.9536C71.7136 42.64 71.1603 43.54 70.2936 44.22C69.4269 44.9 68.3603 45.24 67.0936 45.24ZM75.6058 33.54C75.1391 33.54 74.7524 33.4 74.4458 33.12C74.1524 32.84 74.0058 32.4867 74.0058 32.06C74.0058 31.6333 74.1524 31.2867 74.4458 31.02C74.7524 30.74 75.1391 30.6 75.6058 30.6C76.0724 30.6 76.4524 30.74 76.7458 31.02C77.0524 31.2867 77.2058 31.6333 77.2058 32.06C77.2058 32.4867 77.0524 32.84 76.7458 33.12C76.4524 33.4 76.0724 33.54 75.6058 33.54ZM74.3258 45V35.08H76.8858V45H74.3258ZM82.9778 45.24C82.1245 45.24 81.4245 45.1067 80.8778 44.84C80.3311 44.56 79.9245 44.1933 79.6578 43.74C79.3911 43.2867 79.2578 42.7867 79.2578 42.24C79.2578 41.32 79.6178 40.5733 80.3378 40C81.0578 39.4267 82.1378 39.14 83.5778 39.14H86.0978V38.9C86.0978 38.22 85.9045 37.72 85.5178 37.4C85.1311 37.08 84.6511 36.92 84.0778 36.92C83.5578 36.92 83.1045 37.0467 82.7178 37.3C82.3311 37.54 82.0911 37.9 81.9978 38.38H79.4978C79.5645 37.66 79.8045 37.0333 80.2178 36.5C80.6445 35.9667 81.1911 35.56 81.8578 35.28C82.5245 34.9867 83.2711 34.84 84.0978 34.84C85.5111 34.84 86.6245 35.1933 87.4378 35.9C88.2511 36.6067 88.6578 37.6067 88.6578 38.9V45H86.4778L86.2378 43.4C85.9445 43.9333 85.5311 44.3733 84.9978 44.72C84.4778 45.0667 83.8045 45.24 82.9778 45.24ZM83.5578 43.24C84.2911 43.24 84.8578 43 85.2578 42.52C85.6711 42.04 85.9311 41.4467 86.0378 40.74H83.8578C83.1778 40.74 82.6911 40.8667 82.3978 41.12C82.1045 41.36 81.9578 41.66 81.9578 42.02C81.9578 42.4067 82.1045 42.7067 82.3978 42.92C82.6911 43.1333 83.0778 43.24 83.5578 43.24ZM91.1008 45V30.6H93.6608V45H91.1008ZM107.662 45.24C106.262 45.24 105.036 44.9333 103.982 44.32C102.942 43.7067 102.122 42.86 101.522 41.78C100.936 40.6867 100.642 39.4267 100.642 38C100.642 36.5733 100.936 35.32 101.522 34.24C102.122 33.1467 102.942 32.2933 103.982 31.68C105.036 31.0667 106.262 30.76 107.662 30.76C109.049 30.76 110.269 31.0667 111.322 31.68C112.376 32.2933 113.196 33.1467 113.782 34.24C114.369 35.32 114.662 36.5733 114.662 38C114.662 39.4267 114.369 40.6867 113.782 41.78C113.196 42.86 112.376 43.7067 111.322 44.32C110.269 44.9333 109.049 45.24 107.662 45.24ZM107.662 42.94C108.996 42.94 110.056 42.5 110.842 41.62C111.642 40.74 112.042 39.5333 112.042 38C112.042 36.4667 111.642 35.26 110.842 34.38C110.056 33.5 108.996 33.06 107.662 33.06C106.329 33.06 105.262 33.5 104.462 34.38C103.662 35.26 103.262 36.4667 103.262 38C103.262 39.5333 103.662 40.74 104.462 41.62C105.262 42.5 106.329 42.94 107.662 42.94ZM117.323 45V37.22H115.963V35.08H117.323V33.92C117.323 32.72 117.623 31.8667 118.223 31.36C118.836 30.8533 119.663 30.6 120.702 30.6H121.803V32.78H121.103C120.663 32.78 120.349 32.8667 120.163 33.04C119.976 33.2133 119.883 33.5067 119.883 33.92V35.08H122.023V37.22H119.883V45H117.323ZM124.51 45V37.22H123.15V35.08H124.51V33.92C124.51 32.72 124.81 31.8667 125.41 31.36C126.023 30.8533 126.85 30.6 127.89 30.6H128.99V32.78H128.29C127.85 32.78 127.537 32.8667 127.35 33.04C127.163 33.2133 127.07 33.5067 127.07 33.92V35.08H129.21V37.22H127.07V45H124.51ZM135.667 45.24C134.667 45.24 133.78 45.0267 133.007 44.6C132.234 44.1733 131.627 43.5733 131.187 42.8C130.747 42.0267 130.527 41.1333 130.527 40.12C130.527 39.0933 130.74 38.18 131.167 37.38C131.607 36.58 132.207 35.96 132.967 35.52C133.74 35.0667 134.647 34.84 135.687 34.84C136.66 34.84 137.52 35.0533 138.267 35.48C139.014 35.9067 139.594 36.4933 140.007 37.24C140.434 37.9733 140.647 38.7933 140.647 39.7C140.647 39.8467 140.64 40 140.627 40.16C140.627 40.32 140.62 40.4867 140.607 40.66H133.067C133.12 41.4333 133.387 42.04 133.867 42.48C134.36 42.92 134.954 43.14 135.647 43.14C136.167 43.14 136.6 43.0267 136.947 42.8C137.307 42.56 137.574 42.2533 137.747 41.88H140.347C140.16 42.5067 139.847 43.08 139.407 43.6C138.98 44.1067 138.447 44.5067 137.807 44.8C137.18 45.0933 136.467 45.24 135.667 45.24ZM135.687 36.92C135.06 36.92 134.507 37.1 134.027 37.46C133.547 37.8067 133.24 38.34 133.107 39.06H138.047C138.007 38.4067 137.767 37.8867 137.327 37.5C136.887 37.1133 136.34 36.92 135.687 36.92ZM142.8 45V35.08H145.08L145.32 36.94C145.68 36.3 146.167 35.7933 146.78 35.42C147.407 35.0333 148.14 34.84 148.98 34.84V37.54H148.26C147.7 37.54 147.2 37.6267 146.76 37.8C146.32 37.9733 145.973 38.2733 145.72 38.7C145.48 39.1267 145.36 39.72 145.36 40.48V45H142.8ZM155.955 45V37.22H154.595V35.08H155.955V33.92C155.955 32.72 156.255 31.8667 156.855 31.36C157.469 30.8533 158.295 30.6 159.335 30.6H160.435V32.78H159.735C159.295 32.78 158.982 32.8667 158.795 33.04C158.609 33.2133 158.515 33.5067 158.515 33.92V35.08H160.655V37.22H158.515V45H155.955ZM167.052 45.24C166.092 45.24 165.226 45.02 164.452 44.58C163.692 44.14 163.086 43.5333 162.632 42.76C162.192 41.9733 161.972 41.0667 161.972 40.04C161.972 39.0133 162.199 38.1133 162.652 37.34C163.106 36.5533 163.712 35.94 164.472 35.5C165.246 35.06 166.112 34.84 167.072 34.84C168.019 34.84 168.872 35.06 169.632 35.5C170.406 35.94 171.012 36.5533 171.452 37.34C171.906 38.1133 172.132 39.0133 172.132 40.04C172.132 41.0667 171.906 41.9733 171.452 42.76C171.012 43.5333 170.406 44.14 169.632 44.58C168.859 45.02 167.999 45.24 167.052 45.24ZM167.052 43.02C167.719 43.02 168.299 42.7733 168.792 42.28C169.286 41.7733 169.532 41.0267 169.532 40.04C169.532 39.0533 169.286 38.3133 168.792 37.82C168.299 37.3133 167.726 37.06 167.072 37.06C166.392 37.06 165.806 37.3133 165.312 37.82C164.832 38.3133 164.592 39.0533 164.592 40.04C164.592 41.0267 164.832 41.7733 165.312 42.28C165.806 42.7733 166.386 43.02 167.052 43.02ZM174.421 45V35.08H176.701L176.941 36.94C177.301 36.3 177.788 35.7933 178.401 35.42C179.028 35.0333 179.761 34.84 180.601 34.84V37.54H179.881C179.321 37.54 178.821 37.6267 178.381 37.8C177.941 37.9733 177.594 38.2733 177.341 38.7C177.101 39.1267 176.981 39.72 176.981 40.48V45H174.421ZM28.62 73V61.06H24.54V59H35.28V61.06H31.18V73H28.62ZM40.0795 73.24C39.1195 73.24 38.2529 73.02 37.4795 72.58C36.7195 72.14 36.1129 71.5333 35.6595 70.76C35.2195 69.9733 34.9995 69.0667 34.9995 68.04C34.9995 67.0133 35.2262 66.1133 35.6795 65.34C36.1329 64.5533 36.7395 63.94 37.4995 63.5C38.2729 63.06 39.1395 62.84 40.0995 62.84C41.0462 62.84 41.8995 63.06 42.6595 63.5C43.4329 63.94 44.0395 64.5533 44.4795 65.34C44.9329 66.1133 45.1595 67.0133 45.1595 68.04C45.1595 69.0667 44.9329 69.9733 44.4795 70.76C44.0395 71.5333 43.4329 72.14 42.6595 72.58C41.8862 73.02 41.0262 73.24 40.0795 73.24ZM40.0795 71.02C40.7462 71.02 41.3262 70.7733 41.8195 70.28C42.3129 69.7733 42.5595 69.0267 42.5595 68.04C42.5595 67.0533 42.3129 66.3133 41.8195 65.82C41.3262 65.3133 40.7529 65.06 40.0995 65.06C39.4195 65.06 38.8329 65.3133 38.3395 65.82C37.8595 66.3133 37.6195 67.0533 37.6195 68.04C37.6195 69.0267 37.8595 69.7733 38.3395 70.28C38.8329 70.7733 39.4129 71.02 40.0795 71.02ZM52.0084 73.24C51.0751 73.24 50.2418 73.0133 49.5084 72.56C48.7751 72.1067 48.1951 71.4867 47.7684 70.7C47.3418 69.9133 47.1284 69.02 47.1284 68.02C47.1284 67.02 47.3418 66.1333 47.7684 65.36C48.1951 64.5733 48.7751 63.96 49.5084 63.52C50.2418 63.0667 51.0751 62.84 52.0084 62.84C52.7551 62.84 53.4084 62.98 53.9684 63.26C54.5284 63.54 54.9818 63.9333 55.3284 64.44V58.6H57.8884V73H55.6084L55.3284 71.58C55.0084 72.02 54.5818 72.4067 54.0484 72.74C53.5284 73.0733 52.8484 73.24 52.0084 73.24ZM52.5484 71C53.3751 71 54.0484 70.7267 54.5684 70.18C55.1018 69.62 55.3684 68.9067 55.3684 68.04C55.3684 67.1733 55.1018 66.4667 54.5684 65.92C54.0484 65.36 53.3751 65.08 52.5484 65.08C51.7351 65.08 51.0618 65.3533 50.5284 65.9C49.9951 66.4467 49.7284 67.1533 49.7284 68.02C49.7284 68.8867 49.9951 69.6 50.5284 70.16C51.0618 70.72 51.7351 71 52.5484 71ZM63.9153 73.24C63.062 73.24 62.362 73.1067 61.8153 72.84C61.2686 72.56 60.862 72.1933 60.5953 71.74C60.3286 71.2867 60.1953 70.7867 60.1953 70.24C60.1953 69.32 60.5553 68.5733 61.2753 68C61.9953 67.4267 63.0753 67.14 64.5153 67.14H67.0353V66.9C67.0353 66.22 66.842 65.72 66.4553 65.4C66.0686 65.08 65.5886 64.92 65.0153 64.92C64.4953 64.92 64.042 65.0467 63.6553 65.3C63.2686 65.54 63.0286 65.9 62.9353 66.38H60.4353C60.502 65.66 60.742 65.0333 61.1553 64.5C61.582 63.9667 62.1286 63.56 62.7953 63.28C63.462 62.9867 64.2086 62.84 65.0353 62.84C66.4486 62.84 67.562 63.1933 68.3753 63.9C69.1886 64.6067 69.5953 65.6067 69.5953 66.9V73H67.4153L67.1753 71.4C66.882 71.9333 66.4686 72.3733 65.9353 72.72C65.4153 73.0667 64.742 73.24 63.9153 73.24ZM64.4953 71.24C65.2286 71.24 65.7953 71 66.1953 70.52C66.6086 70.04 66.8686 69.4467 66.9753 68.74H64.7953C64.1153 68.74 63.6286 68.8667 63.3353 69.12C63.042 69.36 62.8953 69.66 62.8953 70.02C62.8953 70.4067 63.042 70.7067 63.3353 70.92C63.6286 71.1333 64.0153 71.24 64.4953 71.24ZM72.9463 77.4L75.2463 72.34H74.6463L70.7863 63.08H73.5663L76.3463 70.06L79.2463 63.08H81.9663L75.6663 77.4H72.9463ZM83.1598 63.92L84.2598 59H86.9598L84.9198 63.92H83.1598ZM91.9977 73.24C91.1177 73.24 90.3443 73.1 89.6777 72.82C89.011 72.5267 88.4777 72.1267 88.0777 71.62C87.6777 71.1133 87.4377 70.5267 87.3577 69.86H89.9377C90.0177 70.2467 90.231 70.58 90.5777 70.86C90.9377 71.1267 91.3977 71.26 91.9577 71.26C92.5177 71.26 92.9243 71.1467 93.1777 70.92C93.4443 70.6933 93.5777 70.4333 93.5777 70.14C93.5777 69.7133 93.391 69.4267 93.0177 69.28C92.6443 69.12 92.1243 68.9667 91.4577 68.82C91.031 68.7267 90.5977 68.6133 90.1577 68.48C89.7177 68.3467 89.311 68.18 88.9377 67.98C88.5777 67.7667 88.2843 67.5 88.0577 67.18C87.831 66.8467 87.7177 66.44 87.7177 65.96C87.7177 65.08 88.0643 64.34 88.7577 63.74C89.4643 63.14 90.451 62.84 91.7177 62.84C92.891 62.84 93.8243 63.1133 94.5177 63.66C95.2243 64.2067 95.6443 64.96 95.7777 65.92H93.3577C93.211 65.1867 92.6577 64.82 91.6977 64.82C91.2177 64.82 90.8443 64.9133 90.5777 65.1C90.3243 65.2867 90.1977 65.52 90.1977 65.8C90.1977 66.0933 90.391 66.3267 90.7777 66.5C91.1643 66.6733 91.6777 66.8333 92.3177 66.98C93.011 67.14 93.6443 67.32 94.2177 67.52C94.8043 67.7067 95.271 67.9933 95.6177 68.38C95.9643 68.7533 96.1377 69.2933 96.1377 70C96.151 70.6133 95.991 71.1667 95.6577 71.66C95.3243 72.1533 94.8443 72.54 94.2177 72.82C93.591 73.1 92.851 73.24 91.9977 73.24ZM106.491 73V61.06H102.411V59H113.151V61.06H109.051V73H106.491ZM117.951 73.24C116.991 73.24 116.124 73.02 115.351 72.58C114.591 72.14 113.984 71.5333 113.531 70.76C113.091 69.9733 112.871 69.0667 112.871 68.04C112.871 67.0133 113.097 66.1133 113.551 65.34C114.004 64.5533 114.611 63.94 115.371 63.5C116.144 63.06 117.011 62.84 117.971 62.84C118.917 62.84 119.771 63.06 120.531 63.5C121.304 63.94 121.911 64.5533 122.351 65.34C122.804 66.1133 123.031 67.0133 123.031 68.04C123.031 69.0667 122.804 69.9733 122.351 70.76C121.911 71.5333 121.304 72.14 120.531 72.58C119.757 73.02 118.897 73.24 117.951 73.24ZM117.951 71.02C118.617 71.02 119.197 70.7733 119.691 70.28C120.184 69.7733 120.431 69.0267 120.431 68.04C120.431 67.0533 120.184 66.3133 119.691 65.82C119.197 65.3133 118.624 65.06 117.971 65.06C117.291 65.06 116.704 65.3133 116.211 65.82C115.731 66.3133 115.491 67.0533 115.491 68.04C115.491 69.0267 115.731 69.7733 116.211 70.28C116.704 70.7733 117.284 71.02 117.951 71.02ZM125.32 77.4V63.08H127.6L127.88 64.5C128.2 64.06 128.62 63.6733 129.14 63.34C129.673 63.0067 130.36 62.84 131.2 62.84C132.133 62.84 132.966 63.0667 133.7 63.52C134.433 63.9733 135.013 64.5933 135.44 65.38C135.866 66.1667 136.08 67.06 136.08 68.06C136.08 69.06 135.866 69.9533 135.44 70.74C135.013 71.5133 134.433 72.1267 133.7 72.58C132.966 73.02 132.133 73.24 131.2 73.24C130.453 73.24 129.8 73.1 129.24 72.82C128.68 72.54 128.226 72.1467 127.88 71.64V77.4H125.32ZM130.66 71C131.473 71 132.146 70.7267 132.68 70.18C133.213 69.6333 133.48 68.9267 133.48 68.06C133.48 67.1933 133.213 66.48 132.68 65.92C132.146 65.36 131.473 65.08 130.66 65.08C129.833 65.08 129.153 65.36 128.62 65.92C128.1 66.4667 127.84 67.1733 127.84 68.04C127.84 68.9067 128.1 69.62 128.62 70.18C129.153 70.7267 129.833 71 130.66 71ZM148.592 73.24C147.565 73.24 146.639 73.04 145.812 72.64C144.985 72.2267 144.325 71.6067 143.832 70.78C143.352 69.9533 143.112 68.9067 143.112 67.64V59H145.672V67.66C145.672 68.7533 145.932 69.5667 146.452 70.1C146.985 70.6333 147.719 70.9 148.652 70.9C149.572 70.9 150.299 70.6333 150.832 70.1C151.365 69.5667 151.632 68.7533 151.632 67.66V59H154.192V67.64C154.192 68.9067 153.939 69.9533 153.432 70.78C152.925 71.6067 152.245 72.2267 151.392 72.64C150.552 73.04 149.619 73.24 148.592 73.24ZM156.745 77.4V63.08H159.025L159.305 64.5C159.625 64.06 160.045 63.6733 160.565 63.34C161.099 63.0067 161.785 62.84 162.625 62.84C163.559 62.84 164.392 63.0667 165.125 63.52C165.859 63.9733 166.439 64.5933 166.865 65.38C167.292 66.1667 167.505 67.06 167.505 68.06C167.505 69.06 167.292 69.9533 166.865 70.74C166.439 71.5133 165.859 72.1267 165.125 72.58C164.392 73.02 163.559 73.24 162.625 73.24C161.879 73.24 161.225 73.1 160.665 72.82C160.105 72.54 159.652 72.1467 159.305 71.64V77.4H156.745ZM162.085 71C162.899 71 163.572 70.7267 164.105 70.18C164.639 69.6333 164.905 68.9267 164.905 68.06C164.905 67.1933 164.639 66.48 164.105 65.92C163.572 65.36 162.899 65.08 162.085 65.08C161.259 65.08 160.579 65.36 160.045 65.92C159.525 66.4667 159.265 67.1733 159.265 68.04C159.265 68.9067 159.525 69.62 160.045 70.18C160.579 70.7267 161.259 71 162.085 71Z" fill="#030319"/>
<path opacity="0.5" d="M28.5 109.144C27.716 109.144 27.028 108.964 26.436 108.604C25.844 108.236 25.384 107.728 25.056 107.08C24.728 106.424 24.564 105.668 24.564 104.812C24.564 103.956 24.728 103.2 25.056 102.544C25.392 101.888 25.864 101.376 26.472 101.008C27.088 100.64 27.812 100.456 28.644 100.456C29.588 100.456 30.372 100.684 30.996 101.14C31.628 101.596 32.036 102.224 32.22 103.024H31.056C30.944 102.52 30.676 102.12 30.252 101.824C29.836 101.528 29.3 101.38 28.644 101.38C28.028 101.38 27.492 101.52 27.036 101.8C26.58 102.072 26.224 102.464 25.968 102.976C25.72 103.488 25.596 104.1 25.596 104.812C25.596 105.524 25.72 106.136 25.968 106.648C26.216 107.16 26.56 107.556 27 107.836C27.44 108.108 27.952 108.244 28.536 108.244C29.432 108.244 30.108 107.984 30.564 107.464C31.02 106.936 31.28 106.216 31.344 105.304H28.92V104.512H32.376V109H31.452L31.368 107.62C31.064 108.108 30.692 108.484 30.252 108.748C29.812 109.012 29.228 109.144 28.5 109.144ZM36.586 109.144C36.018 109.144 35.514 109.016 35.074 108.76C34.634 108.496 34.286 108.132 34.03 107.668C33.782 107.204 33.658 106.656 33.658 106.024C33.658 105.4 33.782 104.856 34.03 104.392C34.278 103.92 34.622 103.556 35.062 103.3C35.51 103.036 36.026 102.904 36.61 102.904C37.186 102.904 37.682 103.036 38.098 103.3C38.522 103.556 38.846 103.896 39.07 104.32C39.294 104.744 39.406 105.2 39.406 105.688C39.406 105.776 39.402 105.864 39.394 105.952C39.394 106.04 39.394 106.14 39.394 106.252H34.654C34.678 106.708 34.782 107.088 34.966 107.392C35.158 107.688 35.394 107.912 35.674 108.064C35.962 108.216 36.266 108.292 36.586 108.292C37.002 108.292 37.35 108.196 37.63 108.004C37.91 107.812 38.114 107.552 38.242 107.224H39.238C39.078 107.776 38.77 108.236 38.314 108.604C37.866 108.964 37.29 109.144 36.586 109.144ZM36.586 103.756C36.106 103.756 35.678 103.904 35.302 104.2C34.934 104.488 34.722 104.912 34.666 105.472H38.41C38.386 104.936 38.202 104.516 37.858 104.212C37.514 103.908 37.09 103.756 36.586 103.756ZM42.8948 109C42.3508 109 41.9228 108.868 41.6108 108.604C41.2988 108.34 41.1428 107.864 41.1428 107.176V103.9H40.1108V103.048H41.1428L41.2748 101.62H42.1508V103.048H43.9028V103.9H42.1508V107.176C42.1508 107.552 42.2268 107.808 42.3788 107.944C42.5308 108.072 42.7988 108.136 43.1828 108.136H43.8068V109H42.8948ZM51.0592 109.144C50.4673 109.144 49.9473 109.008 49.4993 108.736C49.0593 108.464 48.7153 108.092 48.4673 107.62C48.2273 107.148 48.1073 106.612 48.1073 106.012C48.1073 105.412 48.2313 104.88 48.4793 104.416C48.7273 103.944 49.0713 103.576 49.5113 103.312C49.9513 103.04 50.4713 102.904 51.0713 102.904C51.5593 102.904 51.9913 103.004 52.3673 103.204C52.7433 103.404 53.0353 103.684 53.2433 104.044V100.36H54.2513V109H53.3393L53.2433 108.016C53.0513 108.304 52.7753 108.564 52.4153 108.796C52.0553 109.028 51.6033 109.144 51.0592 109.144ZM51.1673 108.268C51.5673 108.268 51.9193 108.176 52.2233 107.992C52.5353 107.8 52.7753 107.536 52.9433 107.2C53.1193 106.864 53.2073 106.472 53.2073 106.024C53.2073 105.576 53.1193 105.184 52.9433 104.848C52.7753 104.512 52.5353 104.252 52.2233 104.068C51.9193 103.876 51.5673 103.78 51.1673 103.78C50.7753 103.78 50.4233 103.876 50.1113 104.068C49.8073 104.252 49.5673 104.512 49.3913 104.848C49.2233 105.184 49.1393 105.576 49.1393 106.024C49.1393 106.472 49.2233 106.864 49.3913 107.2C49.5673 107.536 49.8073 107.8 50.1113 107.992C50.4233 108.176 50.7753 108.268 51.1673 108.268ZM56.5064 101.728C56.3064 101.728 56.1384 101.664 56.0024 101.536C55.8744 101.4 55.8104 101.232 55.8104 101.032C55.8104 100.84 55.8744 100.68 56.0024 100.552C56.1384 100.424 56.3064 100.36 56.5064 100.36C56.6984 100.36 56.8624 100.424 56.9984 100.552C57.1344 100.68 57.2024 100.84 57.2024 101.032C57.2024 101.232 57.1344 101.4 56.9984 101.536C56.8624 101.664 56.6984 101.728 56.5064 101.728ZM56.0024 109V103.048H57.0104V109H56.0024ZM61.0455 109.144C60.3335 109.144 59.7415 108.964 59.2695 108.604C58.7975 108.244 58.5215 107.756 58.4415 107.14H59.4735C59.5375 107.452 59.7015 107.724 59.9655 107.956C60.2375 108.18 60.6015 108.292 61.0575 108.292C61.4815 108.292 61.7935 108.204 61.9935 108.028C62.1935 107.844 62.2935 107.628 62.2935 107.38C62.2935 107.02 62.1615 106.78 61.8975 106.66C61.6415 106.54 61.2775 106.432 60.8055 106.336C60.4855 106.272 60.1655 106.18 59.8455 106.06C59.5255 105.94 59.2575 105.772 59.0415 105.556C58.8255 105.332 58.7175 105.04 58.7175 104.68C58.7175 104.16 58.9095 103.736 59.2935 103.408C59.6855 103.072 60.2135 102.904 60.8775 102.904C61.5095 102.904 62.0255 103.064 62.4255 103.384C62.8335 103.696 63.0695 104.144 63.1335 104.728H62.1375C62.0975 104.424 61.9655 104.188 61.7415 104.02C61.5255 103.844 61.2335 103.756 60.8655 103.756C60.5055 103.756 60.2255 103.832 60.0255 103.984C59.8335 104.136 59.7375 104.336 59.7375 104.584C59.7375 104.824 59.8615 105.012 60.1095 105.148C60.3655 105.284 60.7095 105.4 61.1415 105.496C61.5095 105.576 61.8575 105.676 62.1855 105.796C62.5215 105.908 62.7935 106.08 63.0015 106.312C63.2175 106.536 63.3255 106.864 63.3255 107.296C63.3335 107.832 63.1295 108.276 62.7135 108.628C62.3055 108.972 61.7495 109.144 61.0455 109.144ZM67.5015 109.144C66.9335 109.144 66.4215 109.016 65.9655 108.76C65.5175 108.496 65.1615 108.132 64.8975 107.668C64.6415 107.196 64.5135 106.648 64.5135 106.024C64.5135 105.4 64.6415 104.856 64.8975 104.392C65.1615 103.92 65.5175 103.556 65.9655 103.3C66.4215 103.036 66.9335 102.904 67.5015 102.904C68.2055 102.904 68.7975 103.088 69.2775 103.456C69.7655 103.824 70.0735 104.316 70.2015 104.932H69.1695C69.0895 104.564 68.8935 104.28 68.5815 104.08C68.2695 103.872 67.9055 103.768 67.4895 103.768C67.1535 103.768 66.8375 103.852 66.5415 104.02C66.2455 104.188 66.0055 104.44 65.8215 104.776C65.6375 105.112 65.5455 105.528 65.5455 106.024C65.5455 106.52 65.6375 106.936 65.8215 107.272C66.0055 107.608 66.2455 107.864 66.5415 108.04C66.8375 108.208 67.1535 108.292 67.4895 108.292C67.9055 108.292 68.2695 108.192 68.5815 107.992C68.8935 107.784 69.0895 107.492 69.1695 107.116H70.2015C70.0815 107.716 69.7775 108.204 69.2895 108.58C68.8015 108.956 68.2055 109.144 67.5015 109.144ZM74.3213 109.144C73.7613 109.144 73.2573 109.016 72.8093 108.76C72.3613 108.504 72.0053 108.144 71.7413 107.68C71.4853 107.208 71.3573 106.656 71.3573 106.024C71.3573 105.392 71.4893 104.844 71.7533 104.38C72.0173 103.908 72.3733 103.544 72.8213 103.288C73.2773 103.032 73.7853 102.904 74.3453 102.904C74.9053 102.904 75.4093 103.032 75.8573 103.288C76.3053 103.544 76.6573 103.908 76.9133 104.38C77.1773 104.844 77.3093 105.392 77.3093 106.024C77.3093 106.656 77.1773 107.208 76.9133 107.68C76.6493 108.144 76.2893 108.504 75.8333 108.76C75.3853 109.016 74.8813 109.144 74.3213 109.144ZM74.3213 108.28C74.6653 108.28 74.9853 108.196 75.2813 108.028C75.5773 107.86 75.8173 107.608 76.0013 107.272C76.1853 106.936 76.2773 106.52 76.2773 106.024C76.2773 105.528 76.1853 105.112 76.0013 104.776C75.8253 104.44 75.5893 104.188 75.2933 104.02C74.9973 103.852 74.6813 103.768 74.3453 103.768C74.0013 103.768 73.6813 103.852 73.3853 104.02C73.0893 104.188 72.8493 104.44 72.6653 104.776C72.4813 105.112 72.3893 105.528 72.3893 106.024C72.3893 106.52 72.4813 106.936 72.6653 107.272C72.8493 107.608 73.0853 107.86 73.3733 108.028C73.6693 108.196 73.9853 108.28 74.3213 108.28ZM80.8828 109.144C80.1788 109.144 79.6188 108.932 79.2028 108.508C78.7868 108.076 78.5788 107.416 78.5788 106.528V103.048H79.5868V106.42C79.5868 107.66 80.0948 108.28 81.1108 108.28C81.6308 108.28 82.0588 108.096 82.3948 107.728C82.7388 107.352 82.9108 106.82 82.9108 106.132V103.048H83.9188V109H83.0068L82.9348 107.932C82.7508 108.308 82.4748 108.604 82.1068 108.82C81.7468 109.036 81.3388 109.144 80.8828 109.144ZM85.578 109V103.048H86.49L86.55 104.116C86.742 103.74 87.018 103.444 87.378 103.228C87.738 103.012 88.146 102.904 88.602 102.904C89.306 102.904 89.866 103.12 90.282 103.552C90.706 103.976 90.918 104.632 90.918 105.52V109H89.91V105.628C89.91 104.388 89.398 103.768 88.374 103.768C87.862 103.768 87.434 103.956 87.09 104.332C86.754 104.7 86.586 105.228 86.586 105.916V109H85.578ZM94.7972 109C94.2532 109 93.8252 108.868 93.5132 108.604C93.2012 108.34 93.0452 107.864 93.0452 107.176V103.9H92.0132V103.048H93.0452L93.1772 101.62H94.0532V103.048H95.8052V103.9H94.0532V107.176C94.0532 107.552 94.1292 107.808 94.2812 107.944C94.4332 108.072 94.7012 108.136 95.0852 108.136H95.7092V109H94.7972ZM100.586 109V103.9H99.6856V103.048H100.586V102.016C100.586 101.44 100.73 101.02 101.018 100.756C101.306 100.492 101.726 100.36 102.278 100.36H102.878V101.224H102.434C102.13 101.224 101.914 101.288 101.786 101.416C101.658 101.536 101.594 101.744 101.594 102.04V103.048H103.058V103.9H101.594V109H100.586ZM106.735 109.144C106.175 109.144 105.671 109.016 105.223 108.76C104.775 108.504 104.419 108.144 104.155 107.68C103.899 107.208 103.771 106.656 103.771 106.024C103.771 105.392 103.903 104.844 104.167 104.38C104.431 103.908 104.787 103.544 105.235 103.288C105.691 103.032 106.199 102.904 106.759 102.904C107.319 102.904 107.823 103.032 108.271 103.288C108.719 103.544 109.071 103.908 109.327 104.38C109.591 104.844 109.723 105.392 109.723 106.024C109.723 106.656 109.591 107.208 109.327 107.68C109.063 108.144 108.703 108.504 108.247 108.76C107.799 109.016 107.295 109.144 106.735 109.144ZM106.735 108.28C107.079 108.28 107.399 108.196 107.695 108.028C107.991 107.86 108.231 107.608 108.415 107.272C108.599 106.936 108.691 106.52 108.691 106.024C108.691 105.528 108.599 105.112 108.415 104.776C108.239 104.44 108.003 104.188 107.707 104.02C107.411 103.852 107.095 103.768 106.759 103.768C106.415 103.768 106.095 103.852 105.799 104.02C105.503 104.188 105.263 104.44 105.079 104.776C104.895 105.112 104.803 105.528 104.803 106.024C104.803 106.52 104.895 106.936 105.079 107.272C105.263 107.608 105.499 107.86 105.787 108.028C106.083 108.196 106.399 108.28 106.735 108.28ZM111.125 109V103.048H112.037L112.121 104.188C112.305 103.796 112.585 103.484 112.961 103.252C113.337 103.02 113.801 102.904 114.353 102.904V103.96H114.077C113.725 103.96 113.401 104.024 113.105 104.152C112.809 104.272 112.573 104.48 112.397 104.776C112.221 105.072 112.133 105.48 112.133 106V109H111.125ZM121.336 109.144C120.768 109.144 120.264 109.016 119.824 108.76C119.384 108.496 119.036 108.132 118.78 107.668C118.532 107.204 118.408 106.656 118.408 106.024C118.408 105.4 118.532 104.856 118.78 104.392C119.028 103.92 119.372 103.556 119.812 103.3C120.26 103.036 120.776 102.904 121.36 102.904C121.936 102.904 122.432 103.036 122.848 103.3C123.272 103.556 123.596 103.896 123.82 104.32C124.044 104.744 124.156 105.2 124.156 105.688C124.156 105.776 124.152 105.864 124.144 105.952C124.144 106.04 124.144 106.14 124.144 106.252H119.404C119.428 106.708 119.532 107.088 119.716 107.392C119.908 107.688 120.144 107.912 120.424 108.064C120.712 108.216 121.016 108.292 121.336 108.292C121.752 108.292 122.1 108.196 122.38 108.004C122.66 107.812 122.864 107.552 122.992 107.224H123.988C123.828 107.776 123.52 108.236 123.064 108.604C122.616 108.964 122.04 109.144 121.336 109.144ZM121.336 103.756C120.856 103.756 120.428 103.904 120.052 104.2C119.684 104.488 119.472 104.912 119.416 105.472H123.16C123.136 104.936 122.952 104.516 122.608 104.212C122.264 103.908 121.84 103.756 121.336 103.756ZM126.974 109L124.718 103.048H125.774L127.562 108.028L129.362 103.048H130.394L128.138 109H126.974ZM133.887 109.144C133.319 109.144 132.815 109.016 132.375 108.76C131.935 108.496 131.587 108.132 131.331 107.668C131.083 107.204 130.959 106.656 130.959 106.024C130.959 105.4 131.083 104.856 131.331 104.392C131.579 103.92 131.923 103.556 132.363 103.3C132.811 103.036 133.327 102.904 133.911 102.904C134.487 102.904 134.983 103.036 135.399 103.3C135.823 103.556 136.147 103.896 136.371 104.32C136.595 104.744 136.707 105.2 136.707 105.688C136.707 105.776 136.703 105.864 136.695 105.952C136.695 106.04 136.695 106.14 136.695 106.252H131.955C131.979 106.708 132.083 107.088 132.267 107.392C132.459 107.688 132.695 107.912 132.975 108.064C133.263 108.216 133.567 108.292 133.887 108.292C134.303 108.292 134.651 108.196 134.931 108.004C135.211 107.812 135.415 107.552 135.543 107.224H136.539C136.379 107.776 136.071 108.236 135.615 108.604C135.167 108.964 134.591 109.144 133.887 109.144ZM133.887 103.756C133.407 103.756 132.979 103.904 132.603 104.2C132.235 104.488 132.023 104.912 131.967 105.472H135.711C135.687 104.936 135.503 104.516 135.159 104.212C134.815 103.908 134.391 103.756 133.887 103.756ZM138.043 109V103.048H138.955L139.039 104.188C139.223 103.796 139.503 103.484 139.879 103.252C140.255 103.02 140.719 102.904 141.271 102.904V103.96H140.995C140.643 103.96 140.319 104.024 140.023 104.152C139.727 104.272 139.491 104.48 139.315 104.776C139.139 105.072 139.051 105.48 139.051 106V109H138.043ZM143.05 111.64L144.526 108.424H144.178L141.814 103.048H142.906L144.874 107.68L146.962 103.048H148.006L144.106 111.64H143.05ZM154.598 109C154.054 109 153.626 108.868 153.314 108.604C153.002 108.34 152.846 107.864 152.846 107.176V103.9H151.814V103.048H152.846L152.978 101.62H153.854V103.048H155.606V103.9H153.854V107.176C153.854 107.552 153.93 107.808 154.082 107.944C154.234 108.072 154.502 108.136 154.886 108.136H155.51V109H154.598ZM159.435 109.144C158.875 109.144 158.371 109.016 157.923 108.76C157.475 108.504 157.119 108.144 156.855 107.68C156.599 107.208 156.471 106.656 156.471 106.024C156.471 105.392 156.603 104.844 156.867 104.38C157.131 103.908 157.487 103.544 157.935 103.288C158.391 103.032 158.899 102.904 159.459 102.904C160.019 102.904 160.523 103.032 160.971 103.288C161.419 103.544 161.771 103.908 162.027 104.38C162.291 104.844 162.423 105.392 162.423 106.024C162.423 106.656 162.291 107.208 162.027 107.68C161.763 108.144 161.403 108.504 160.947 108.76C160.499 109.016 159.995 109.144 159.435 109.144ZM159.435 108.28C159.779 108.28 160.099 108.196 160.395 108.028C160.691 107.86 160.931 107.608 161.115 107.272C161.299 106.936 161.391 106.52 161.391 106.024C161.391 105.528 161.299 105.112 161.115 104.776C160.939 104.44 160.703 104.188 160.407 104.02C160.111 103.852 159.795 103.768 159.459 103.768C159.115 103.768 158.795 103.852 158.499 104.02C158.203 104.188 157.963 104.44 157.779 104.776C157.595 105.112 157.503 105.528 157.503 106.024C157.503 106.52 157.595 106.936 157.779 107.272C157.963 107.608 158.199 107.86 158.487 108.028C158.783 108.196 159.099 108.28 159.435 108.28ZM163.824 111.64V103.048H164.736L164.832 104.032C165.024 103.744 165.296 103.484 165.648 103.252C166.008 103.02 166.464 102.904 167.016 102.904C167.608 102.904 168.124 103.04 168.564 103.312C169.004 103.584 169.344 103.956 169.584 104.428C169.832 104.9 169.956 105.436 169.956 106.036C169.956 106.636 169.832 107.172 169.584 107.644C169.344 108.108 169 108.476 168.552 108.748C168.112 109.012 167.596 109.144 167.004 109.144C166.516 109.144 166.08 109.044 165.696 108.844C165.32 108.644 165.032 108.364 164.832 108.004V111.64H163.824ZM166.896 108.268C167.296 108.268 167.648 108.176 167.952 107.992C168.256 107.8 168.496 107.536 168.672 107.2C168.848 106.864 168.936 106.472 168.936 106.024C168.936 105.576 168.848 105.184 168.672 104.848C168.496 104.512 168.256 104.252 167.952 104.068C167.648 103.876 167.296 103.78 166.896 103.78C166.496 103.78 166.144 103.876 165.84 104.068C165.536 104.252 165.296 104.512 165.12 104.848C164.944 105.184 164.856 105.576 164.856 106.024C164.856 106.472 164.944 106.864 165.12 107.2C165.296 107.536 165.536 107.8 165.84 107.992C166.144 108.176 166.496 108.268 166.896 108.268ZM176.707 109.144C176.003 109.144 175.443 108.932 175.027 108.508C174.611 108.076 174.403 107.416 174.403 106.528V103.048H175.411V106.42C175.411 107.66 175.919 108.28 176.935 108.28C177.455 108.28 177.883 108.096 178.219 107.728C178.563 107.352 178.735 106.82 178.735 106.132V103.048H179.743V109H178.831L178.759 107.932C178.575 108.308 178.299 108.604 177.931 108.82C177.571 109.036 177.163 109.144 176.707 109.144ZM181.402 111.64V103.048H182.314L182.41 104.032C182.602 103.744 182.874 103.484 183.226 103.252C183.586 103.02 184.042 102.904 184.594 102.904C185.186 102.904 185.702 103.04 186.142 103.312C186.582 103.584 186.922 103.956 187.162 104.428C187.41 104.9 187.534 105.436 187.534 106.036C187.534 106.636 187.41 107.172 187.162 107.644C186.922 108.108 186.578 108.476 186.13 108.748C185.69 109.012 185.174 109.144 184.582 109.144C184.094 109.144 183.658 109.044 183.274 108.844C182.898 108.644 182.61 108.364 182.41 108.004V111.64H181.402ZM184.474 108.268C184.874 108.268 185.226 108.176 185.53 107.992C185.834 107.8 186.074 107.536 186.25 107.2C186.426 106.864 186.514 106.472 186.514 106.024C186.514 105.576 186.426 105.184 186.25 104.848C186.074 104.512 185.834 104.252 185.53 104.068C185.226 103.876 184.874 103.78 184.474 103.78C184.074 103.78 183.722 103.876 183.418 104.068C183.114 104.252 182.874 104.512 182.698 104.848C182.522 105.184 182.434 105.576 182.434 106.024C182.434 106.472 182.522 106.864 182.698 107.2C182.874 107.536 183.114 107.8 183.418 107.992C183.722 108.176 184.074 108.268 184.474 108.268ZM188.133 110.428L188.829 107.776H189.873L188.829 110.428H188.133ZM27.18 126C26.636 126 26.208 125.868 25.896 125.604C25.584 125.34 25.428 124.864 25.428 124.176V120.9H24.396V120.048H25.428L25.56 118.62H26.436V120.048H28.188V120.9H26.436V124.176C26.436 124.552 26.512 124.808 26.664 124.944C26.816 125.072 27.084 125.136 27.468 125.136H28.092V126H27.18ZM29.4686 126V120.048H30.3806L30.4646 121.188C30.6486 120.796 30.9286 120.484 31.3046 120.252C31.6806 120.02 32.1446 119.904 32.6966 119.904V120.96H32.4206C32.0686 120.96 31.7446 121.024 31.4486 121.152C31.1526 121.272 30.9166 121.48 30.7406 121.776C30.5646 122.072 30.4766 122.48 30.4766 123V126H29.4686ZM35.808 126.144C35.312 126.144 34.9 126.06 34.572 125.892C34.244 125.724 34 125.5 33.84 125.22C33.68 124.94 33.6 124.636 33.6 124.308C33.6 123.7 33.832 123.232 34.296 122.904C34.76 122.576 35.392 122.412 36.192 122.412H37.8V122.34C37.8 121.82 37.664 121.428 37.392 121.164C37.12 120.892 36.756 120.756 36.3 120.756C35.908 120.756 35.568 120.856 35.28 121.056C35 121.248 34.824 121.532 34.752 121.908H33.72C33.76 121.476 33.904 121.112 34.152 120.816C34.408 120.52 34.724 120.296 35.1 120.144C35.476 119.984 35.876 119.904 36.3 119.904C37.132 119.904 37.756 120.128 38.172 120.576C38.596 121.016 38.808 121.604 38.808 122.34V126H37.908L37.848 124.932C37.68 125.268 37.432 125.556 37.104 125.796C36.784 126.028 36.352 126.144 35.808 126.144ZM35.964 125.292C36.348 125.292 36.676 125.192 36.948 124.992C37.228 124.792 37.44 124.532 37.584 124.212C37.728 123.892 37.8 123.556 37.8 123.204V123.192H36.276C35.684 123.192 35.264 123.296 35.016 123.504C34.776 123.704 34.656 123.956 34.656 124.26C34.656 124.572 34.768 124.824 34.992 125.016C35.224 125.2 35.548 125.292 35.964 125.292ZM40.3202 126V120.048H41.2322L41.2922 121.116C41.4842 120.74 41.7602 120.444 42.1202 120.228C42.4802 120.012 42.8882 119.904 43.3442 119.904C44.0482 119.904 44.6082 120.12 45.0242 120.552C45.4482 120.976 45.6602 121.632 45.6602 122.52V126H44.6522V122.628C44.6522 121.388 44.1402 120.768 43.1162 120.768C42.6042 120.768 42.1762 120.956 41.8322 121.332C41.4962 121.7 41.3282 122.228 41.3282 122.916V126H40.3202ZM49.4674 126.144C48.7554 126.144 48.1634 125.964 47.6914 125.604C47.2194 125.244 46.9434 124.756 46.8634 124.14H47.8954C47.9594 124.452 48.1234 124.724 48.3874 124.956C48.6594 125.18 49.0234 125.292 49.4794 125.292C49.9034 125.292 50.2154 125.204 50.4154 125.028C50.6154 124.844 50.7154 124.628 50.7154 124.38C50.7154 124.02 50.5834 123.78 50.3194 123.66C50.0634 123.54 49.6994 123.432 49.2274 123.336C48.9074 123.272 48.5874 123.18 48.2674 123.06C47.9474 122.94 47.6794 122.772 47.4634 122.556C47.2474 122.332 47.1394 122.04 47.1394 121.68C47.1394 121.16 47.3314 120.736 47.7154 120.408C48.1074 120.072 48.6354 119.904 49.2994 119.904C49.9314 119.904 50.4474 120.064 50.8474 120.384C51.2554 120.696 51.4914 121.144 51.5554 121.728H50.5594C50.5194 121.424 50.3874 121.188 50.1634 121.02C49.9474 120.844 49.6554 120.756 49.2874 120.756C48.9274 120.756 48.6474 120.832 48.4474 120.984C48.2554 121.136 48.1594 121.336 48.1594 121.584C48.1594 121.824 48.2834 122.012 48.5314 122.148C48.7874 122.284 49.1314 122.4 49.5634 122.496C49.9314 122.576 50.2794 122.676 50.6074 122.796C50.9434 122.908 51.2154 123.08 51.4234 123.312C51.6394 123.536 51.7474 123.864 51.7474 124.296C51.7554 124.832 51.5514 125.276 51.1354 125.628C50.7274 125.972 50.1714 126.144 49.4674 126.144ZM53.5114 126V120.9H52.6114V120.048H53.5114V119.016C53.5114 118.44 53.6554 118.02 53.9434 117.756C54.2314 117.492 54.6514 117.36 55.2034 117.36H55.8034V118.224H55.3594C55.0554 118.224 54.8394 118.288 54.7114 118.416C54.5834 118.536 54.5194 118.744 54.5194 119.04V120.048H55.9834V120.9H54.5194V126H53.5114ZM59.6251 126.144C59.0571 126.144 58.5531 126.016 58.1131 125.76C57.6731 125.496 57.3251 125.132 57.0691 124.668C56.8211 124.204 56.6971 123.656 56.6971 123.024C56.6971 122.4 56.8211 121.856 57.0691 121.392C57.3171 120.92 57.6611 120.556 58.1011 120.3C58.5491 120.036 59.0651 119.904 59.6491 119.904C60.2251 119.904 60.7211 120.036 61.1371 120.3C61.5611 120.556 61.8851 120.896 62.1091 121.32C62.3331 121.744 62.4451 122.2 62.4451 122.688C62.4451 122.776 62.4411 122.864 62.4331 122.952C62.4331 123.04 62.4331 123.14 62.4331 123.252H57.6931C57.7171 123.708 57.8211 124.088 58.0051 124.392C58.1971 124.688 58.4331 124.912 58.7131 125.064C59.0011 125.216 59.3051 125.292 59.6251 125.292C60.0411 125.292 60.3891 125.196 60.6691 125.004C60.9491 124.812 61.1531 124.552 61.2811 124.224H62.2771C62.1171 124.776 61.8091 125.236 61.3531 125.604C60.9051 125.964 60.3291 126.144 59.6251 126.144ZM59.6251 120.756C59.1451 120.756 58.7171 120.904 58.3411 121.2C57.9731 121.488 57.7611 121.912 57.7051 122.472H61.4491C61.4251 121.936 61.2411 121.516 60.8971 121.212C60.5531 120.908 60.1291 120.756 59.6251 120.756ZM63.7811 126V120.048H64.6931L64.7771 121.188C64.9611 120.796 65.2411 120.484 65.6171 120.252C65.9931 120.02 66.4571 119.904 67.0091 119.904V120.96H66.7331C66.3811 120.96 66.0571 121.024 65.7611 121.152C65.4651 121.272 65.2291 121.48 65.0531 121.776C64.8771 122.072 64.7891 122.48 64.7891 123V126H63.7811ZM73.2963 126.144C72.8003 126.144 72.3883 126.06 72.0603 125.892C71.7323 125.724 71.4883 125.5 71.3283 125.22C71.1683 124.94 71.0883 124.636 71.0883 124.308C71.0883 123.7 71.3203 123.232 71.7843 122.904C72.2483 122.576 72.8803 122.412 73.6803 122.412H75.2883V122.34C75.2883 121.82 75.1523 121.428 74.8803 121.164C74.6083 120.892 74.2443 120.756 73.7883 120.756C73.3963 120.756 73.0563 120.856 72.7683 121.056C72.4883 121.248 72.3123 121.532 72.2403 121.908H71.2083C71.2483 121.476 71.3923 121.112 71.6403 120.816C71.8963 120.52 72.2123 120.296 72.5883 120.144C72.9643 119.984 73.3643 119.904 73.7883 119.904C74.6203 119.904 75.2443 120.128 75.6603 120.576C76.0843 121.016 76.2963 121.604 76.2963 122.34V126H75.3963L75.3363 124.932C75.1683 125.268 74.9203 125.556 74.5923 125.796C74.2723 126.028 73.8403 126.144 73.2963 126.144ZM73.4523 125.292C73.8363 125.292 74.1643 125.192 74.4363 124.992C74.7163 124.792 74.9283 124.532 75.0723 124.212C75.2163 123.892 75.2883 123.556 75.2883 123.204V123.192H73.7643C73.1723 123.192 72.7523 123.296 72.5043 123.504C72.2643 123.704 72.1443 123.956 72.1443 124.26C72.1443 124.572 72.2563 124.824 72.4803 125.016C72.7123 125.2 73.0363 125.292 73.4523 125.292ZM77.8085 126V120.048H78.7205L78.7805 121.116C78.9725 120.74 79.2485 120.444 79.6085 120.228C79.9685 120.012 80.3765 119.904 80.8325 119.904C81.5365 119.904 82.0965 120.12 82.5125 120.552C82.9365 120.976 83.1485 121.632 83.1485 122.52V126H82.1405V122.628C82.1405 121.388 81.6285 120.768 80.6045 120.768C80.0925 120.768 79.6645 120.956 79.3205 121.332C78.9845 121.7 78.8165 122.228 78.8165 122.916V126H77.8085ZM87.3757 126.144C86.7837 126.144 86.2637 126.008 85.8157 125.736C85.3757 125.464 85.0317 125.092 84.7837 124.62C84.5437 124.148 84.4237 123.612 84.4237 123.012C84.4237 122.412 84.5477 121.88 84.7957 121.416C85.0437 120.944 85.3877 120.576 85.8277 120.312C86.2677 120.04 86.7877 119.904 87.3877 119.904C87.8757 119.904 88.3077 120.004 88.6837 120.204C89.0597 120.404 89.3517 120.684 89.5597 121.044V117.36H90.5677V126H89.6557L89.5597 125.016C89.3677 125.304 89.0917 125.564 88.7317 125.796C88.3717 126.028 87.9197 126.144 87.3757 126.144ZM87.4837 125.268C87.8837 125.268 88.2357 125.176 88.5397 124.992C88.8517 124.8 89.0917 124.536 89.2597 124.2C89.4357 123.864 89.5237 123.472 89.5237 123.024C89.5237 122.576 89.4357 122.184 89.2597 121.848C89.0917 121.512 88.8517 121.252 88.5397 121.068C88.2357 120.876 87.8837 120.78 87.4837 120.78C87.0917 120.78 86.7397 120.876 86.4277 121.068C86.1237 121.252 85.8837 121.512 85.7077 121.848C85.5397 122.184 85.4557 122.576 85.4557 123.024C85.4557 123.472 85.5397 123.864 85.7077 124.2C85.8837 124.536 86.1237 124.8 86.4277 124.992C86.7397 125.176 87.0917 125.268 87.4837 125.268ZM95.3866 128.64V120.048H96.2986L96.3946 121.032C96.5866 120.744 96.8586 120.484 97.2106 120.252C97.5706 120.02 98.0266 119.904 98.5786 119.904C99.1706 119.904 99.6866 120.04 100.127 120.312C100.567 120.584 100.907 120.956 101.147 121.428C101.395 121.9 101.519 122.436 101.519 123.036C101.519 123.636 101.395 124.172 101.147 124.644C100.907 125.108 100.563 125.476 100.115 125.748C99.6746 126.012 99.1586 126.144 98.5666 126.144C98.0786 126.144 97.6426 126.044 97.2586 125.844C96.8826 125.644 96.5946 125.364 96.3946 125.004V128.64H95.3866ZM98.4586 125.268C98.8586 125.268 99.2106 125.176 99.5146 124.992C99.8186 124.8 100.059 124.536 100.235 124.2C100.411 123.864 100.499 123.472 100.499 123.024C100.499 122.576 100.411 122.184 100.235 121.848C100.059 121.512 99.8186 121.252 99.5146 121.068C99.2106 120.876 98.8586 120.78 98.4586 120.78C98.0586 120.78 97.7066 120.876 97.4026 121.068C97.0986 121.252 96.8586 121.512 96.6826 121.848C96.5066 122.184 96.4186 122.576 96.4186 123.024C96.4186 123.472 96.5066 123.864 96.6826 124.2C96.8586 124.536 97.0986 124.8 97.4026 124.992C97.7066 125.176 98.0586 125.268 98.4586 125.268ZM104.902 126.144C104.406 126.144 103.994 126.06 103.666 125.892C103.338 125.724 103.094 125.5 102.934 125.22C102.774 124.94 102.694 124.636 102.694 124.308C102.694 123.7 102.926 123.232 103.39 122.904C103.854 122.576 104.486 122.412 105.286 122.412H106.894V122.34C106.894 121.82 106.758 121.428 106.486 121.164C106.214 120.892 105.85 120.756 105.394 120.756C105.002 120.756 104.662 120.856 104.374 121.056C104.094 121.248 103.918 121.532 103.846 121.908H102.814C102.854 121.476 102.998 121.112 103.246 120.816C103.502 120.52 103.818 120.296 104.194 120.144C104.57 119.984 104.97 119.904 105.394 119.904C106.226 119.904 106.85 120.128 107.266 120.576C107.69 121.016 107.902 121.604 107.902 122.34V126H107.002L106.942 124.932C106.774 125.268 106.526 125.556 106.198 125.796C105.878 126.028 105.446 126.144 104.902 126.144ZM105.058 125.292C105.442 125.292 105.77 125.192 106.042 124.992C106.322 124.792 106.534 124.532 106.678 124.212C106.822 123.892 106.894 123.556 106.894 123.204V123.192H105.37C104.778 123.192 104.358 123.296 104.11 123.504C103.87 123.704 103.75 123.956 103.75 124.26C103.75 124.572 103.862 124.824 104.086 125.016C104.318 125.2 104.642 125.292 105.058 125.292ZM109.886 128.64L111.362 125.424H111.014L108.65 120.048H109.742L111.71 124.68L113.798 120.048H114.842L110.942 128.64H109.886ZM115.906 126V120.048H116.818L116.89 120.912C117.082 120.592 117.338 120.344 117.658 120.168C117.978 119.992 118.338 119.904 118.738 119.904C119.21 119.904 119.614 120 119.95 120.192C120.294 120.384 120.558 120.676 120.742 121.068C120.95 120.708 121.234 120.424 121.594 120.216C121.962 120.008 122.358 119.904 122.782 119.904C123.494 119.904 124.062 120.12 124.486 120.552C124.91 120.976 125.122 121.632 125.122 122.52V126H124.126V122.628C124.126 122.012 124.002 121.548 123.754 121.236C123.506 120.924 123.15 120.768 122.686 120.768C122.206 120.768 121.806 120.956 121.486 121.332C121.174 121.7 121.018 122.228 121.018 122.916V126H120.01V122.628C120.01 122.012 119.886 121.548 119.638 121.236C119.39 120.924 119.034 120.768 118.57 120.768C118.098 120.768 117.702 120.956 117.382 121.332C117.07 121.7 116.914 122.228 116.914 122.916V126H115.906ZM129.317 126.144C128.749 126.144 128.245 126.016 127.805 125.76C127.365 125.496 127.017 125.132 126.761 124.668C126.513 124.204 126.389 123.656 126.389 123.024C126.389 122.4 126.513 121.856 126.761 121.392C127.009 120.92 127.353 120.556 127.793 120.3C128.241 120.036 128.757 119.904 129.34 119.904C129.917 119.904 130.413 120.036 130.829 120.3C131.253 120.556 131.577 120.896 131.801 121.32C132.025 121.744 132.137 122.2 132.137 122.688C132.137 122.776 132.133 122.864 132.125 122.952C132.125 123.04 132.125 123.14 132.125 123.252H127.385C127.409 123.708 127.513 124.088 127.697 124.392C127.889 124.688 128.125 124.912 128.405 125.064C128.693 125.216 128.997 125.292 129.317 125.292C129.733 125.292 130.081 125.196 130.361 125.004C130.641 124.812 130.845 124.552 130.973 124.224H131.969C131.809 124.776 131.501 125.236 131.045 125.604C130.597 125.964 130.021 126.144 129.317 126.144ZM129.317 120.756C128.837 120.756 128.409 120.904 128.033 121.2C127.665 121.488 127.453 121.912 127.396 122.472H131.141C131.117 121.936 130.933 121.516 130.589 121.212C130.245 120.908 129.821 120.756 129.317 120.756ZM133.473 126V120.048H134.385L134.445 121.116C134.637 120.74 134.913 120.444 135.273 120.228C135.633 120.012 136.041 119.904 136.497 119.904C137.201 119.904 137.761 120.12 138.177 120.552C138.601 120.976 138.813 121.632 138.813 122.52V126H137.805V122.628C137.805 121.388 137.293 120.768 136.269 120.768C135.757 120.768 135.329 120.956 134.985 121.332C134.649 121.7 134.481 122.228 134.481 122.916V126H133.473ZM142.692 126C142.148 126 141.72 125.868 141.408 125.604C141.096 125.34 140.94 124.864 140.94 124.176V120.9H139.908V120.048H140.94L141.072 118.62H141.948V120.048H143.7V120.9H141.948V124.176C141.948 124.552 142.024 124.808 142.176 124.944C142.328 125.072 142.596 125.136 142.98 125.136H143.604V126H142.692Z" fill="#030319"/>
</g>
<defs>
<clipPath id="clip0_132_4000">
<rect width="318" height="170" rx="16" fill="white"/>
</clipPath>
</defs>
</svg>
