<svg width="318" height="170" viewBox="0 0 318 170" fill="none" xmlns="http://www.w3.org/2000/svg">
<g clip-path="url(#clip0_132_3966)">
<rect width="318" height="170" rx="16" fill="#00373E"/>
<path d="M204.071 110.74C201.271 104.733 203.869 97.5935 209.876 94.7926L284.336 60.0714C290.342 57.2705 297.482 59.8692 300.283 65.8757L347.329 166.768L251.118 211.632L204.071 110.74Z" fill="#4CD080"/>
<circle cx="289" cy="59" r="12" fill="#FFD2A6"/>
<path d="M25.36 67V53H30.98C32.4333 53 33.54 53.34 34.3 54.02C35.0733 54.6867 35.46 55.5467 35.46 56.6C35.46 57.48 35.22 58.1867 34.74 58.72C34.2733 59.24 33.7 59.5933 33.02 59.78C33.82 59.94 34.48 60.34 35 60.98C35.52 61.6067 35.78 62.34 35.78 63.18C35.78 64.2867 35.38 65.2 34.58 65.92C33.78 66.64 32.6467 67 31.18 67H25.36ZM27.92 58.88H30.6C31.32 58.88 31.8733 58.7133 32.26 58.38C32.6467 58.0467 32.84 57.5733 32.84 56.96C32.84 56.3733 32.6467 55.9133 32.26 55.58C31.8867 55.2333 31.32 55.06 30.56 55.06H27.92V58.88ZM27.92 64.92H30.78C31.54 64.92 32.1267 64.7467 32.54 64.4C32.9667 64.04 33.18 63.54 33.18 62.9C33.18 62.2467 32.96 61.7333 32.52 61.36C32.08 60.9867 31.4867 60.8 30.74 60.8H27.92V64.92ZM37.9172 67V52.6H40.4772V67H37.9172ZM46.513 67.24C45.6596 67.24 44.9596 67.1067 44.413 66.84C43.8663 66.56 43.4596 66.1933 43.193 65.74C42.9263 65.2867 42.793 64.7867 42.793 64.24C42.793 63.32 43.153 62.5733 43.873 62C44.593 61.4267 45.673 61.14 47.113 61.14H49.633V60.9C49.633 60.22 49.4396 59.72 49.053 59.4C48.6663 59.08 48.1863 58.92 47.613 58.92C47.093 58.92 46.6396 59.0467 46.253 59.3C45.8663 59.54 45.6263 59.9 45.533 60.38H43.033C43.0996 59.66 43.3396 59.0333 43.753 58.5C44.1796 57.9667 44.7263 57.56 45.393 57.28C46.0596 56.9867 46.8063 56.84 47.633 56.84C49.0463 56.84 50.1596 57.1933 50.973 57.9C51.7863 58.6067 52.193 59.6067 52.193 60.9V67H50.013L49.773 65.4C49.4796 65.9333 49.0663 66.3733 48.533 66.72C48.013 67.0667 47.3396 67.24 46.513 67.24ZM47.093 65.24C47.8263 65.24 48.393 65 48.793 64.52C49.2063 64.04 49.4663 63.4467 49.573 62.74H47.393C46.713 62.74 46.2263 62.8667 45.933 63.12C45.6396 63.36 45.493 63.66 45.493 64.02C45.493 64.4067 45.6396 64.7067 45.933 64.92C46.2263 65.1333 46.613 65.24 47.093 65.24ZM59.4959 67.24C58.4826 67.24 57.5893 67.02 56.8159 66.58C56.0426 66.14 55.4293 65.5267 54.9759 64.74C54.5359 63.9533 54.3159 63.0533 54.3159 62.04C54.3159 61.0267 54.5359 60.1267 54.9759 59.34C55.4293 58.5533 56.0426 57.94 56.8159 57.5C57.5893 57.06 58.4826 56.84 59.4959 56.84C60.7626 56.84 61.8293 57.1733 62.6959 57.84C63.5626 58.4933 64.1159 59.4 64.3559 60.56H61.6559C61.5226 60.08 61.2559 59.7067 60.8559 59.44C60.4693 59.16 60.0093 59.02 59.4759 59.02C58.7693 59.02 58.1693 59.2867 57.6759 59.82C57.1826 60.3533 56.9359 61.0933 56.9359 62.04C56.9359 62.9867 57.1826 63.7267 57.6759 64.26C58.1693 64.7933 58.7693 65.06 59.4759 65.06C60.0093 65.06 60.4693 64.9267 60.8559 64.66C61.2559 64.3933 61.5226 64.0133 61.6559 63.52H64.3559C64.1159 64.64 63.5626 65.54 62.6959 66.22C61.8293 66.9 60.7626 67.24 59.4959 67.24ZM66.6281 67V52.6H69.1881V61.1L72.7081 57.08H75.7481L71.6881 61.6L76.4081 67H73.2081L69.1881 62.02V67H66.6281ZM82.8209 67V53H91.8609V55.06H85.3809V58.98H90.6209V61H85.3809V67H82.8209ZM93.7766 67V57.08H96.0566L96.2966 58.94C96.6566 58.3 97.1432 57.7933 97.7566 57.42C98.3832 57.0333 99.1166 56.84 99.9566 56.84V59.54H99.2366C98.6766 59.54 98.1766 59.6267 97.7366 59.8C97.2966 59.9733 96.9499 60.2733 96.6966 60.7C96.4566 61.1267 96.3366 61.72 96.3366 62.48V67H93.7766ZM103.086 55.54C102.62 55.54 102.233 55.4 101.926 55.12C101.633 54.84 101.486 54.4867 101.486 54.06C101.486 53.6333 101.633 53.2867 101.926 53.02C102.233 52.74 102.62 52.6 103.086 52.6C103.553 52.6 103.933 52.74 104.226 53.02C104.533 53.2867 104.686 53.6333 104.686 54.06C104.686 54.4867 104.533 54.84 104.226 55.12C103.933 55.4 103.553 55.54 103.086 55.54ZM101.806 67V57.08H104.366V67H101.806ZM111.598 67.24C110.665 67.24 109.832 67.0133 109.098 66.56C108.365 66.1067 107.785 65.4867 107.358 64.7C106.932 63.9133 106.718 63.02 106.718 62.02C106.718 61.02 106.932 60.1333 107.358 59.36C107.785 58.5733 108.365 57.96 109.098 57.52C109.832 57.0667 110.665 56.84 111.598 56.84C112.345 56.84 112.998 56.98 113.558 57.26C114.118 57.54 114.572 57.9333 114.918 58.44V52.6H117.478V67H115.198L114.918 65.58C114.598 66.02 114.172 66.4067 113.638 66.74C113.118 67.0733 112.438 67.24 111.598 67.24ZM112.138 65C112.965 65 113.638 64.7267 114.158 64.18C114.692 63.62 114.958 62.9067 114.958 62.04C114.958 61.1733 114.692 60.4667 114.158 59.92C113.638 59.36 112.965 59.08 112.138 59.08C111.325 59.08 110.652 59.3533 110.118 59.9C109.585 60.4467 109.318 61.1533 109.318 62.02C109.318 62.8867 109.585 63.6 110.118 64.16C110.652 64.72 111.325 65 112.138 65ZM123.505 67.24C122.652 67.24 121.952 67.1067 121.405 66.84C120.858 66.56 120.452 66.1933 120.185 65.74C119.918 65.2867 119.785 64.7867 119.785 64.24C119.785 63.32 120.145 62.5733 120.865 62C121.585 61.4267 122.665 61.14 124.105 61.14H126.625V60.9C126.625 60.22 126.432 59.72 126.045 59.4C125.658 59.08 125.178 58.92 124.605 58.92C124.085 58.92 123.632 59.0467 123.245 59.3C122.858 59.54 122.618 59.9 122.525 60.38H120.025C120.092 59.66 120.332 59.0333 120.745 58.5C121.172 57.9667 121.718 57.56 122.385 57.28C123.052 56.9867 123.798 56.84 124.625 56.84C126.038 56.84 127.152 57.1933 127.965 57.9C128.778 58.6067 129.185 59.6067 129.185 60.9V67H127.005L126.765 65.4C126.472 65.9333 126.058 66.3733 125.525 66.72C125.005 67.0667 124.332 67.24 123.505 67.24ZM124.085 65.24C124.818 65.24 125.385 65 125.785 64.52C126.198 64.04 126.458 63.4467 126.565 62.74H124.385C123.705 62.74 123.218 62.8667 122.925 63.12C122.632 63.36 122.485 63.66 122.485 64.02C122.485 64.4067 122.632 64.7067 122.925 64.92C123.218 65.1333 123.605 65.24 124.085 65.24ZM132.536 71.4L134.836 66.34H134.236L130.376 57.08H133.156L135.936 64.06L138.836 57.08H141.556L135.256 71.4H132.536ZM152.555 67.24C151.622 67.24 150.789 67.0133 150.055 66.56C149.322 66.1067 148.742 65.4867 148.315 64.7C147.889 63.9133 147.675 63.02 147.675 62.02C147.675 61.02 147.889 60.1333 148.315 59.36C148.742 58.5733 149.322 57.96 150.055 57.52C150.789 57.0667 151.622 56.84 152.555 56.84C153.302 56.84 153.955 56.98 154.515 57.26C155.075 57.54 155.529 57.9333 155.875 58.44V52.6H158.435V67H156.155L155.875 65.58C155.555 66.02 155.129 66.4067 154.595 66.74C154.075 67.0733 153.395 67.24 152.555 67.24ZM153.095 65C153.922 65 154.595 64.7267 155.115 64.18C155.649 63.62 155.915 62.9067 155.915 62.04C155.915 61.1733 155.649 60.4667 155.115 59.92C154.595 59.36 153.922 59.08 153.095 59.08C152.282 59.08 151.609 59.3533 151.075 59.9C150.542 60.4467 150.275 61.1533 150.275 62.02C150.275 62.8867 150.542 63.6 151.075 64.16C151.609 64.72 152.282 65 153.095 65ZM165.862 67.24C164.862 67.24 163.976 67.0267 163.202 66.6C162.429 66.1733 161.822 65.5733 161.382 64.8C160.942 64.0267 160.722 63.1333 160.722 62.12C160.722 61.0933 160.936 60.18 161.362 59.38C161.802 58.58 162.402 57.96 163.162 57.52C163.936 57.0667 164.842 56.84 165.882 56.84C166.856 56.84 167.716 57.0533 168.462 57.48C169.209 57.9067 169.789 58.4933 170.202 59.24C170.629 59.9733 170.842 60.7933 170.842 61.7C170.842 61.8467 170.836 62 170.822 62.16C170.822 62.32 170.816 62.4867 170.802 62.66H163.262C163.316 63.4333 163.582 64.04 164.062 64.48C164.556 64.92 165.149 65.14 165.842 65.14C166.362 65.14 166.796 65.0267 167.142 64.8C167.502 64.56 167.769 64.2533 167.942 63.88H170.542C170.356 64.5067 170.042 65.08 169.602 65.6C169.176 66.1067 168.642 66.5067 168.002 66.8C167.376 67.0933 166.662 67.24 165.862 67.24ZM165.882 58.92C165.256 58.92 164.702 59.1 164.222 59.46C163.742 59.8067 163.436 60.34 163.302 61.06H168.242C168.202 60.4067 167.962 59.8867 167.522 59.5C167.082 59.1133 166.536 58.92 165.882 58.92ZM176.415 67.24C175.562 67.24 174.862 67.1067 174.315 66.84C173.769 66.56 173.362 66.1933 173.095 65.74C172.829 65.2867 172.695 64.7867 172.695 64.24C172.695 63.32 173.055 62.5733 173.775 62C174.495 61.4267 175.575 61.14 177.015 61.14H179.535V60.9C179.535 60.22 179.342 59.72 178.955 59.4C178.569 59.08 178.089 58.92 177.515 58.92C176.995 58.92 176.542 59.0467 176.155 59.3C175.769 59.54 175.529 59.9 175.435 60.38H172.935C173.002 59.66 173.242 59.0333 173.655 58.5C174.082 57.9667 174.629 57.56 175.295 57.28C175.962 56.9867 176.709 56.84 177.535 56.84C178.949 56.84 180.062 57.1933 180.875 57.9C181.689 58.6067 182.095 59.6067 182.095 60.9V67H179.915L179.675 65.4C179.382 65.9333 178.969 66.3733 178.435 66.72C177.915 67.0667 177.242 67.24 176.415 67.24ZM176.995 65.24C177.729 65.24 178.295 65 178.695 64.52C179.109 64.04 179.369 63.4467 179.475 62.74H177.295C176.615 62.74 176.129 62.8667 175.835 63.12C175.542 63.36 175.395 63.66 175.395 64.02C175.395 64.4067 175.542 64.7067 175.835 64.92C176.129 65.1333 176.515 65.24 176.995 65.24ZM184.538 67V52.6H187.098V67H184.538Z" fill="white"/>
<path d="M28.158 39.168C27.514 39.168 26.9307 39.056 26.408 38.832C25.8853 38.5987 25.4653 38.244 25.148 37.768C24.8307 37.292 24.6627 36.6947 24.644 35.976H26.408C26.4173 36.452 26.5713 36.8533 26.87 37.18C27.178 37.4973 27.6073 37.656 28.158 37.656C28.6807 37.656 29.082 37.5113 29.362 37.222C29.642 36.9327 29.782 36.5687 29.782 36.13C29.782 35.6167 29.5953 35.2293 29.222 34.968C28.858 34.6973 28.3867 34.562 27.808 34.562H27.08V33.092H27.822C28.298 33.092 28.6947 32.98 29.012 32.756C29.3293 32.532 29.488 32.2007 29.488 31.762C29.488 31.398 29.3667 31.1087 29.124 30.894C28.8907 30.67 28.564 30.558 28.144 30.558C27.6867 30.558 27.3273 30.6933 27.066 30.964C26.814 31.2347 26.674 31.566 26.646 31.958H24.896C24.9333 31.0527 25.246 30.3387 25.834 29.816C26.4313 29.2933 27.2013 29.032 28.144 29.032C28.816 29.032 29.3807 29.1533 29.838 29.396C30.3047 29.6293 30.6547 29.942 30.888 30.334C31.1307 30.726 31.252 31.16 31.252 31.636C31.252 32.1867 31.098 32.6533 30.79 33.036C30.4913 33.4093 30.118 33.6613 29.67 33.792C30.2207 33.904 30.6687 34.1747 31.014 34.604C31.3593 35.024 31.532 35.556 31.532 36.2C31.532 36.7413 31.4013 37.236 31.14 37.684C30.8787 38.132 30.496 38.4913 29.992 38.762C29.4973 39.0327 28.886 39.168 28.158 39.168ZM37.3098 39.168C36.4045 39.168 35.6298 38.958 34.9858 38.538C34.3418 38.1087 33.8425 37.516 33.4878 36.76C33.1425 35.9947 32.9698 35.108 32.9698 34.1C32.9698 33.1013 33.1425 32.2193 33.4878 31.454C33.8425 30.6887 34.3418 30.096 34.9858 29.676C35.6298 29.2467 36.4045 29.032 37.3098 29.032C38.2152 29.032 38.9898 29.2467 39.6338 29.676C40.2778 30.096 40.7725 30.6887 41.1178 31.454C41.4725 32.2193 41.6498 33.1013 41.6498 34.1C41.6498 35.108 41.4725 35.9947 41.1178 36.76C40.7725 37.516 40.2778 38.1087 39.6338 38.538C38.9898 38.958 38.2152 39.168 37.3098 39.168ZM37.3098 37.558C38.0472 37.558 38.6492 37.25 39.1158 36.634C39.5825 36.018 39.8158 35.1733 39.8158 34.1C39.8158 33.0267 39.5825 32.182 39.1158 31.566C38.6492 30.95 38.0472 30.642 37.3098 30.642C36.5632 30.642 35.9565 30.95 35.4898 31.566C35.0325 32.182 34.8038 33.0267 34.8038 34.1C34.8038 35.1733 35.0325 36.018 35.4898 36.634C35.9565 37.25 36.5632 37.558 37.3098 37.558ZM45.2473 34.016C44.7993 34.016 44.3933 33.918 44.0293 33.722C43.6653 33.5167 43.376 33.2273 43.1613 32.854C42.9466 32.4807 42.8393 32.0373 42.8393 31.524C42.8393 31.0107 42.9466 30.5673 43.1613 30.194C43.376 29.8207 43.6653 29.536 44.0293 29.34C44.3933 29.1347 44.804 29.032 45.2613 29.032C45.7093 29.032 46.1106 29.1347 46.4653 29.34C46.8293 29.536 47.1186 29.8207 47.3333 30.194C47.548 30.5673 47.6553 31.0107 47.6553 31.524C47.6553 32.0373 47.548 32.4807 47.3333 32.854C47.1186 33.2273 46.8293 33.5167 46.4653 33.722C46.1013 33.918 45.6953 34.016 45.2473 34.016ZM44.7153 39L50.2453 29.2H51.9953L46.4653 39H44.7153ZM45.2473 32.77C45.518 32.77 45.7513 32.6673 45.9473 32.462C46.1433 32.2473 46.2413 31.9347 46.2413 31.524C46.2413 31.1133 46.1433 30.8007 45.9473 30.586C45.7606 30.3713 45.5273 30.264 45.2473 30.264C44.9673 30.264 44.7293 30.3713 44.5333 30.586C44.3466 30.8007 44.2533 31.1133 44.2533 31.524C44.2533 31.9347 44.3466 32.2473 44.5333 32.462C44.7293 32.6673 44.9673 32.77 45.2473 32.77ZM51.5193 39.168C51.0713 39.168 50.6653 39.07 50.3013 38.874C49.9373 38.6687 49.648 38.3793 49.4333 38.006C49.2186 37.6327 49.1113 37.1893 49.1113 36.676C49.1113 36.1627 49.2186 35.724 49.4333 35.36C49.648 34.9867 49.9373 34.702 50.3013 34.506C50.6653 34.3007 51.076 34.198 51.5333 34.198C51.9813 34.198 52.3826 34.3007 52.7373 34.506C53.1013 34.702 53.3906 34.9867 53.6053 35.36C53.82 35.724 53.9273 36.1627 53.9273 36.676C53.9273 37.1893 53.82 37.6327 53.6053 38.006C53.3906 38.3793 53.1013 38.6687 52.7373 38.874C52.3826 39.07 51.9766 39.168 51.5193 39.168ZM51.5193 37.922C51.7993 37.922 52.0326 37.8193 52.2193 37.614C52.4153 37.3993 52.5133 37.0867 52.5133 36.676C52.5133 36.2653 52.4153 35.9527 52.2193 35.738C52.0326 35.5233 51.7993 35.416 51.5193 35.416C51.2393 35.416 51.0013 35.5233 50.8053 35.738C50.6186 35.9527 50.5253 36.2653 50.5253 36.676C50.5253 37.0867 50.6186 37.3993 50.8053 37.614C51.0013 37.8193 51.2393 37.922 51.5193 37.922ZM63.3682 39.168C62.3882 39.168 61.5296 38.9533 60.7922 38.524C60.0642 38.0947 59.4902 37.502 59.0702 36.746C58.6596 35.9807 58.4542 35.0987 58.4542 34.1C58.4542 33.1013 58.6596 32.224 59.0702 31.468C59.4902 30.7027 60.0642 30.1053 60.7922 29.676C61.5296 29.2467 62.3882 29.032 63.3682 29.032C64.3389 29.032 65.1929 29.2467 65.9302 29.676C66.6676 30.1053 67.2416 30.7027 67.6522 31.468C68.0629 32.224 68.2682 33.1013 68.2682 34.1C68.2682 35.0987 68.0629 35.9807 67.6522 36.746C67.2416 37.502 66.6676 38.0947 65.9302 38.524C65.1929 38.9533 64.3389 39.168 63.3682 39.168ZM63.3682 37.558C64.3016 37.558 65.0436 37.25 65.5942 36.634C66.1542 36.018 66.4342 35.1733 66.4342 34.1C66.4342 33.0267 66.1542 32.182 65.5942 31.566C65.0436 30.95 64.3016 30.642 63.3682 30.642C62.4349 30.642 61.6882 30.95 61.1282 31.566C60.5682 32.182 60.2882 33.0267 60.2882 34.1C60.2882 35.1733 60.5682 36.018 61.1282 36.634C61.6882 37.25 62.4349 37.558 63.3682 37.558ZM69.8504 39V29.2H76.1784V30.642H71.6424V33.386H75.3104V34.8H71.6424V39H69.8504ZM77.5614 39V29.2H83.8894V30.642H79.3534V33.386H83.0214V34.8H79.3534V39H77.5614Z" fill="white"/>
<path d="M248.316 134.336C247.028 134.336 245.861 134.112 244.816 133.664C243.771 133.197 242.931 132.488 242.296 131.536C241.661 130.584 241.325 129.389 241.288 127.952H244.816C244.835 128.904 245.143 129.707 245.74 130.36C246.356 130.995 247.215 131.312 248.316 131.312C249.361 131.312 250.164 131.023 250.724 130.444C251.284 129.865 251.564 129.137 251.564 128.26C251.564 127.233 251.191 126.459 250.444 125.936C249.716 125.395 248.773 125.124 247.616 125.124H246.16V122.184H247.644C248.596 122.184 249.389 121.96 250.024 121.512C250.659 121.064 250.976 120.401 250.976 119.524C250.976 118.796 250.733 118.217 250.248 117.788C249.781 117.34 249.128 117.116 248.288 117.116C247.373 117.116 246.655 117.387 246.132 117.928C245.628 118.469 245.348 119.132 245.292 119.916H241.792C241.867 118.105 242.492 116.677 243.668 115.632C244.863 114.587 246.403 114.064 248.288 114.064C249.632 114.064 250.761 114.307 251.676 114.792C252.609 115.259 253.309 115.884 253.776 116.668C254.261 117.452 254.504 118.32 254.504 119.272C254.504 120.373 254.196 121.307 253.58 122.072C252.983 122.819 252.236 123.323 251.34 123.584C252.441 123.808 253.337 124.349 254.028 125.208C254.719 126.048 255.064 127.112 255.064 128.4C255.064 129.483 254.803 130.472 254.28 131.368C253.757 132.264 252.992 132.983 251.984 133.524C250.995 134.065 249.772 134.336 248.316 134.336ZM266.62 134.336C264.809 134.336 263.26 133.916 261.972 133.076C260.684 132.217 259.685 131.032 258.976 129.52C258.285 127.989 257.94 126.216 257.94 124.2C257.94 122.203 258.285 120.439 258.976 118.908C259.685 117.377 260.684 116.192 261.972 115.352C263.26 114.493 264.809 114.064 266.62 114.064C268.43 114.064 269.98 114.493 271.268 115.352C272.556 116.192 273.545 117.377 274.236 118.908C274.945 120.439 275.3 122.203 275.3 124.2C275.3 126.216 274.945 127.989 274.236 129.52C273.545 131.032 272.556 132.217 271.268 133.076C269.98 133.916 268.43 134.336 266.62 134.336ZM266.62 131.116C268.094 131.116 269.298 130.5 270.232 129.268C271.165 128.036 271.632 126.347 271.632 124.2C271.632 122.053 271.165 120.364 270.232 119.132C269.298 117.9 268.094 117.284 266.62 117.284C265.126 117.284 263.913 117.9 262.98 119.132C262.065 120.364 261.608 122.053 261.608 124.2C261.608 126.347 262.065 128.036 262.98 129.268C263.913 130.5 265.126 131.116 266.62 131.116ZM282.495 124.032C281.599 124.032 280.787 123.836 280.059 123.444C279.331 123.033 278.752 122.455 278.323 121.708C277.893 120.961 277.679 120.075 277.679 119.048C277.679 118.021 277.893 117.135 278.323 116.388C278.752 115.641 279.331 115.072 280.059 114.68C280.787 114.269 281.608 114.064 282.523 114.064C283.419 114.064 284.221 114.269 284.931 114.68C285.659 115.072 286.237 115.641 286.667 116.388C287.096 117.135 287.311 118.021 287.311 119.048C287.311 120.075 287.096 120.961 286.667 121.708C286.237 122.455 285.659 123.033 284.931 123.444C284.203 123.836 283.391 124.032 282.495 124.032ZM281.431 134L292.491 114.4H295.991L284.931 134H281.431ZM282.495 121.54C283.036 121.54 283.503 121.335 283.895 120.924C284.287 120.495 284.483 119.869 284.483 119.048C284.483 118.227 284.287 117.601 283.895 117.172C283.521 116.743 283.055 116.528 282.495 116.528C281.935 116.528 281.459 116.743 281.067 117.172C280.693 117.601 280.507 118.227 280.507 119.048C280.507 119.869 280.693 120.495 281.067 120.924C281.459 121.335 281.935 121.54 282.495 121.54ZM295.039 134.336C294.143 134.336 293.331 134.14 292.603 133.748C291.875 133.337 291.296 132.759 290.867 132.012C290.437 131.265 290.223 130.379 290.223 129.352C290.223 128.325 290.437 127.448 290.867 126.72C291.296 125.973 291.875 125.404 292.603 125.012C293.331 124.601 294.152 124.396 295.067 124.396C295.963 124.396 296.765 124.601 297.475 125.012C298.203 125.404 298.781 125.973 299.211 126.72C299.64 127.448 299.855 128.325 299.855 129.352C299.855 130.379 299.64 131.265 299.211 132.012C298.781 132.759 298.203 133.337 297.475 133.748C296.765 134.14 295.953 134.336 295.039 134.336ZM295.039 131.844C295.599 131.844 296.065 131.639 296.439 131.228C296.831 130.799 297.027 130.173 297.027 129.352C297.027 128.531 296.831 127.905 296.439 127.476C296.065 127.047 295.599 126.832 295.039 126.832C294.479 126.832 294.003 127.047 293.611 127.476C293.237 127.905 293.051 128.531 293.051 129.352C293.051 130.173 293.237 130.799 293.611 131.228C294.003 131.639 294.479 131.844 295.039 131.844Z" fill="white"/>
<path d="M28.5 103.144C27.716 103.144 27.028 102.964 26.436 102.604C25.844 102.236 25.384 101.728 25.056 101.08C24.728 100.424 24.564 99.668 24.564 98.812C24.564 97.956 24.728 97.2 25.056 96.544C25.392 95.888 25.864 95.376 26.472 95.008C27.088 94.64 27.812 94.456 28.644 94.456C29.588 94.456 30.372 94.684 30.996 95.14C31.628 95.596 32.036 96.224 32.22 97.024H31.056C30.944 96.52 30.676 96.12 30.252 95.824C29.836 95.528 29.3 95.38 28.644 95.38C28.028 95.38 27.492 95.52 27.036 95.8C26.58 96.072 26.224 96.464 25.968 96.976C25.72 97.488 25.596 98.1 25.596 98.812C25.596 99.524 25.72 100.136 25.968 100.648C26.216 101.16 26.56 101.556 27 101.836C27.44 102.108 27.952 102.244 28.536 102.244C29.432 102.244 30.108 101.984 30.564 101.464C31.02 100.936 31.28 100.216 31.344 99.304H28.92V98.512H32.376V103H31.452L31.368 101.62C31.064 102.108 30.692 102.484 30.252 102.748C29.812 103.012 29.228 103.144 28.5 103.144ZM36.586 103.144C36.018 103.144 35.514 103.016 35.074 102.76C34.634 102.496 34.286 102.132 34.03 101.668C33.782 101.204 33.658 100.656 33.658 100.024C33.658 99.4 33.782 98.856 34.03 98.392C34.278 97.92 34.622 97.556 35.062 97.3C35.51 97.036 36.026 96.904 36.61 96.904C37.186 96.904 37.682 97.036 38.098 97.3C38.522 97.556 38.846 97.896 39.07 98.32C39.294 98.744 39.406 99.2 39.406 99.688C39.406 99.776 39.402 99.864 39.394 99.952C39.394 100.04 39.394 100.14 39.394 100.252H34.654C34.678 100.708 34.782 101.088 34.966 101.392C35.158 101.688 35.394 101.912 35.674 102.064C35.962 102.216 36.266 102.292 36.586 102.292C37.002 102.292 37.35 102.196 37.63 102.004C37.91 101.812 38.114 101.552 38.242 101.224H39.238C39.078 101.776 38.77 102.236 38.314 102.604C37.866 102.964 37.29 103.144 36.586 103.144ZM36.586 97.756C36.106 97.756 35.678 97.904 35.302 98.2C34.934 98.488 34.722 98.912 34.666 99.472H38.41C38.386 98.936 38.202 98.516 37.858 98.212C37.514 97.908 37.09 97.756 36.586 97.756ZM42.8948 103C42.3508 103 41.9228 102.868 41.6108 102.604C41.2988 102.34 41.1428 101.864 41.1428 101.176V97.9H40.1108V97.048H41.1428L41.2748 95.62H42.1508V97.048H43.9028V97.9H42.1508V101.176C42.1508 101.552 42.2268 101.808 42.3788 101.944C42.5308 102.072 42.7988 102.136 43.1828 102.136H43.8068V103H42.8948ZM51.0592 103.144C50.4673 103.144 49.9473 103.008 49.4993 102.736C49.0593 102.464 48.7153 102.092 48.4673 101.62C48.2273 101.148 48.1073 100.612 48.1073 100.012C48.1073 99.412 48.2313 98.88 48.4793 98.416C48.7273 97.944 49.0713 97.576 49.5113 97.312C49.9513 97.04 50.4713 96.904 51.0713 96.904C51.5593 96.904 51.9913 97.004 52.3673 97.204C52.7433 97.404 53.0353 97.684 53.2433 98.044V94.36H54.2513V103H53.3393L53.2433 102.016C53.0513 102.304 52.7753 102.564 52.4153 102.796C52.0553 103.028 51.6033 103.144 51.0592 103.144ZM51.1673 102.268C51.5673 102.268 51.9193 102.176 52.2233 101.992C52.5353 101.8 52.7753 101.536 52.9433 101.2C53.1193 100.864 53.2073 100.472 53.2073 100.024C53.2073 99.576 53.1193 99.184 52.9433 98.848C52.7753 98.512 52.5353 98.252 52.2233 98.068C51.9193 97.876 51.5673 97.78 51.1673 97.78C50.7753 97.78 50.4233 97.876 50.1113 98.068C49.8073 98.252 49.5673 98.512 49.3913 98.848C49.2233 99.184 49.1393 99.576 49.1393 100.024C49.1393 100.472 49.2233 100.864 49.3913 101.2C49.5673 101.536 49.8073 101.8 50.1113 101.992C50.4233 102.176 50.7753 102.268 51.1673 102.268ZM56.5064 95.728C56.3064 95.728 56.1384 95.664 56.0024 95.536C55.8744 95.4 55.8104 95.232 55.8104 95.032C55.8104 94.84 55.8744 94.68 56.0024 94.552C56.1384 94.424 56.3064 94.36 56.5064 94.36C56.6984 94.36 56.8624 94.424 56.9984 94.552C57.1344 94.68 57.2024 94.84 57.2024 95.032C57.2024 95.232 57.1344 95.4 56.9984 95.536C56.8624 95.664 56.6984 95.728 56.5064 95.728ZM56.0024 103V97.048H57.0104V103H56.0024ZM61.0455 103.144C60.3335 103.144 59.7415 102.964 59.2695 102.604C58.7975 102.244 58.5215 101.756 58.4415 101.14H59.4735C59.5375 101.452 59.7015 101.724 59.9655 101.956C60.2375 102.18 60.6015 102.292 61.0575 102.292C61.4815 102.292 61.7935 102.204 61.9935 102.028C62.1935 101.844 62.2935 101.628 62.2935 101.38C62.2935 101.02 62.1615 100.78 61.8975 100.66C61.6415 100.54 61.2775 100.432 60.8055 100.336C60.4855 100.272 60.1655 100.18 59.8455 100.06C59.5255 99.94 59.2575 99.772 59.0415 99.556C58.8255 99.332 58.7175 99.04 58.7175 98.68C58.7175 98.16 58.9095 97.736 59.2935 97.408C59.6855 97.072 60.2135 96.904 60.8775 96.904C61.5095 96.904 62.0255 97.064 62.4255 97.384C62.8335 97.696 63.0695 98.144 63.1335 98.728H62.1375C62.0975 98.424 61.9655 98.188 61.7415 98.02C61.5255 97.844 61.2335 97.756 60.8655 97.756C60.5055 97.756 60.2255 97.832 60.0255 97.984C59.8335 98.136 59.7375 98.336 59.7375 98.584C59.7375 98.824 59.8615 99.012 60.1095 99.148C60.3655 99.284 60.7095 99.4 61.1415 99.496C61.5095 99.576 61.8575 99.676 62.1855 99.796C62.5215 99.908 62.7935 100.08 63.0015 100.312C63.2175 100.536 63.3255 100.864 63.3255 101.296C63.3335 101.832 63.1295 102.276 62.7135 102.628C62.3055 102.972 61.7495 103.144 61.0455 103.144ZM67.5015 103.144C66.9335 103.144 66.4215 103.016 65.9655 102.76C65.5175 102.496 65.1615 102.132 64.8975 101.668C64.6415 101.196 64.5135 100.648 64.5135 100.024C64.5135 99.4 64.6415 98.856 64.8975 98.392C65.1615 97.92 65.5175 97.556 65.9655 97.3C66.4215 97.036 66.9335 96.904 67.5015 96.904C68.2055 96.904 68.7975 97.088 69.2775 97.456C69.7655 97.824 70.0735 98.316 70.2015 98.932H69.1695C69.0895 98.564 68.8935 98.28 68.5815 98.08C68.2695 97.872 67.9055 97.768 67.4895 97.768C67.1535 97.768 66.8375 97.852 66.5415 98.02C66.2455 98.188 66.0055 98.44 65.8215 98.776C65.6375 99.112 65.5455 99.528 65.5455 100.024C65.5455 100.52 65.6375 100.936 65.8215 101.272C66.0055 101.608 66.2455 101.864 66.5415 102.04C66.8375 102.208 67.1535 102.292 67.4895 102.292C67.9055 102.292 68.2695 102.192 68.5815 101.992C68.8935 101.784 69.0895 101.492 69.1695 101.116H70.2015C70.0815 101.716 69.7775 102.204 69.2895 102.58C68.8015 102.956 68.2055 103.144 67.5015 103.144ZM74.3213 103.144C73.7613 103.144 73.2573 103.016 72.8093 102.76C72.3613 102.504 72.0053 102.144 71.7413 101.68C71.4853 101.208 71.3573 100.656 71.3573 100.024C71.3573 99.392 71.4893 98.844 71.7533 98.38C72.0173 97.908 72.3733 97.544 72.8213 97.288C73.2773 97.032 73.7853 96.904 74.3453 96.904C74.9053 96.904 75.4093 97.032 75.8573 97.288C76.3053 97.544 76.6573 97.908 76.9133 98.38C77.1773 98.844 77.3093 99.392 77.3093 100.024C77.3093 100.656 77.1773 101.208 76.9133 101.68C76.6493 102.144 76.2893 102.504 75.8333 102.76C75.3853 103.016 74.8813 103.144 74.3213 103.144ZM74.3213 102.28C74.6653 102.28 74.9853 102.196 75.2813 102.028C75.5773 101.86 75.8173 101.608 76.0013 101.272C76.1853 100.936 76.2773 100.52 76.2773 100.024C76.2773 99.528 76.1853 99.112 76.0013 98.776C75.8253 98.44 75.5893 98.188 75.2933 98.02C74.9973 97.852 74.6813 97.768 74.3453 97.768C74.0013 97.768 73.6813 97.852 73.3853 98.02C73.0893 98.188 72.8493 98.44 72.6653 98.776C72.4813 99.112 72.3893 99.528 72.3893 100.024C72.3893 100.52 72.4813 100.936 72.6653 101.272C72.8493 101.608 73.0853 101.86 73.3733 102.028C73.6693 102.196 73.9853 102.28 74.3213 102.28ZM80.8828 103.144C80.1788 103.144 79.6188 102.932 79.2028 102.508C78.7868 102.076 78.5788 101.416 78.5788 100.528V97.048H79.5868V100.42C79.5868 101.66 80.0948 102.28 81.1108 102.28C81.6308 102.28 82.0588 102.096 82.3948 101.728C82.7388 101.352 82.9108 100.82 82.9108 100.132V97.048H83.9188V103H83.0068L82.9348 101.932C82.7508 102.308 82.4748 102.604 82.1068 102.82C81.7468 103.036 81.3388 103.144 80.8828 103.144ZM85.578 103V97.048H86.49L86.55 98.116C86.742 97.74 87.018 97.444 87.378 97.228C87.738 97.012 88.146 96.904 88.602 96.904C89.306 96.904 89.866 97.12 90.282 97.552C90.706 97.976 90.918 98.632 90.918 99.52V103H89.91V99.628C89.91 98.388 89.398 97.768 88.374 97.768C87.862 97.768 87.434 97.956 87.09 98.332C86.754 98.7 86.586 99.228 86.586 99.916V103H85.578ZM94.7972 103C94.2532 103 93.8252 102.868 93.5132 102.604C93.2012 102.34 93.0452 101.864 93.0452 101.176V97.9H92.0132V97.048H93.0452L93.1772 95.62H94.0532V97.048H95.8052V97.9H94.0532V101.176C94.0532 101.552 94.1292 101.808 94.2812 101.944C94.4332 102.072 94.7012 102.136 95.0852 102.136H95.7092V103H94.7972ZM100.586 103V97.9H99.6856V97.048H100.586V96.016C100.586 95.44 100.73 95.02 101.018 94.756C101.306 94.492 101.726 94.36 102.278 94.36H102.878V95.224H102.434C102.13 95.224 101.914 95.288 101.786 95.416C101.658 95.536 101.594 95.744 101.594 96.04V97.048H103.058V97.9H101.594V103H100.586ZM106.735 103.144C106.175 103.144 105.671 103.016 105.223 102.76C104.775 102.504 104.419 102.144 104.155 101.68C103.899 101.208 103.771 100.656 103.771 100.024C103.771 99.392 103.903 98.844 104.167 98.38C104.431 97.908 104.787 97.544 105.235 97.288C105.691 97.032 106.199 96.904 106.759 96.904C107.319 96.904 107.823 97.032 108.271 97.288C108.719 97.544 109.071 97.908 109.327 98.38C109.591 98.844 109.723 99.392 109.723 100.024C109.723 100.656 109.591 101.208 109.327 101.68C109.063 102.144 108.703 102.504 108.247 102.76C107.799 103.016 107.295 103.144 106.735 103.144ZM106.735 102.28C107.079 102.28 107.399 102.196 107.695 102.028C107.991 101.86 108.231 101.608 108.415 101.272C108.599 100.936 108.691 100.52 108.691 100.024C108.691 99.528 108.599 99.112 108.415 98.776C108.239 98.44 108.003 98.188 107.707 98.02C107.411 97.852 107.095 97.768 106.759 97.768C106.415 97.768 106.095 97.852 105.799 98.02C105.503 98.188 105.263 98.44 105.079 98.776C104.895 99.112 104.803 99.528 104.803 100.024C104.803 100.52 104.895 100.936 105.079 101.272C105.263 101.608 105.499 101.86 105.787 102.028C106.083 102.196 106.399 102.28 106.735 102.28ZM111.125 103V97.048H112.037L112.121 98.188C112.305 97.796 112.585 97.484 112.961 97.252C113.337 97.02 113.801 96.904 114.353 96.904V97.96H114.077C113.725 97.96 113.401 98.024 113.105 98.152C112.809 98.272 112.573 98.48 112.397 98.776C112.221 99.072 112.133 99.48 112.133 100V103H111.125ZM121.336 103.144C120.768 103.144 120.264 103.016 119.824 102.76C119.384 102.496 119.036 102.132 118.78 101.668C118.532 101.204 118.408 100.656 118.408 100.024C118.408 99.4 118.532 98.856 118.78 98.392C119.028 97.92 119.372 97.556 119.812 97.3C120.26 97.036 120.776 96.904 121.36 96.904C121.936 96.904 122.432 97.036 122.848 97.3C123.272 97.556 123.596 97.896 123.82 98.32C124.044 98.744 124.156 99.2 124.156 99.688C124.156 99.776 124.152 99.864 124.144 99.952C124.144 100.04 124.144 100.14 124.144 100.252H119.404C119.428 100.708 119.532 101.088 119.716 101.392C119.908 101.688 120.144 101.912 120.424 102.064C120.712 102.216 121.016 102.292 121.336 102.292C121.752 102.292 122.1 102.196 122.38 102.004C122.66 101.812 122.864 101.552 122.992 101.224H123.988C123.828 101.776 123.52 102.236 123.064 102.604C122.616 102.964 122.04 103.144 121.336 103.144ZM121.336 97.756C120.856 97.756 120.428 97.904 120.052 98.2C119.684 98.488 119.472 98.912 119.416 99.472H123.16C123.136 98.936 122.952 98.516 122.608 98.212C122.264 97.908 121.84 97.756 121.336 97.756ZM126.974 103L124.718 97.048H125.774L127.562 102.028L129.362 97.048H130.394L128.138 103H126.974ZM133.887 103.144C133.319 103.144 132.815 103.016 132.375 102.76C131.935 102.496 131.587 102.132 131.331 101.668C131.083 101.204 130.959 100.656 130.959 100.024C130.959 99.4 131.083 98.856 131.331 98.392C131.579 97.92 131.923 97.556 132.363 97.3C132.811 97.036 133.327 96.904 133.911 96.904C134.487 96.904 134.983 97.036 135.399 97.3C135.823 97.556 136.147 97.896 136.371 98.32C136.595 98.744 136.707 99.2 136.707 99.688C136.707 99.776 136.703 99.864 136.695 99.952C136.695 100.04 136.695 100.14 136.695 100.252H131.955C131.979 100.708 132.083 101.088 132.267 101.392C132.459 101.688 132.695 101.912 132.975 102.064C133.263 102.216 133.567 102.292 133.887 102.292C134.303 102.292 134.651 102.196 134.931 102.004C135.211 101.812 135.415 101.552 135.543 101.224H136.539C136.379 101.776 136.071 102.236 135.615 102.604C135.167 102.964 134.591 103.144 133.887 103.144ZM133.887 97.756C133.407 97.756 132.979 97.904 132.603 98.2C132.235 98.488 132.023 98.912 131.967 99.472H135.711C135.687 98.936 135.503 98.516 135.159 98.212C134.815 97.908 134.391 97.756 133.887 97.756ZM138.043 103V97.048H138.955L139.039 98.188C139.223 97.796 139.503 97.484 139.879 97.252C140.255 97.02 140.719 96.904 141.271 96.904V97.96H140.995C140.643 97.96 140.319 98.024 140.023 98.152C139.727 98.272 139.491 98.48 139.315 98.776C139.139 99.072 139.051 99.48 139.051 100V103H138.043ZM143.05 105.64L144.526 102.424H144.178L141.814 97.048H142.906L144.874 101.68L146.962 97.048H148.006L144.106 105.64H143.05ZM154.598 103C154.054 103 153.626 102.868 153.314 102.604C153.002 102.34 152.846 101.864 152.846 101.176V97.9H151.814V97.048H152.846L152.978 95.62H153.854V97.048H155.606V97.9H153.854V101.176C153.854 101.552 153.93 101.808 154.082 101.944C154.234 102.072 154.502 102.136 154.886 102.136H155.51V103H154.598ZM159.435 103.144C158.875 103.144 158.371 103.016 157.923 102.76C157.475 102.504 157.119 102.144 156.855 101.68C156.599 101.208 156.471 100.656 156.471 100.024C156.471 99.392 156.603 98.844 156.867 98.38C157.131 97.908 157.487 97.544 157.935 97.288C158.391 97.032 158.899 96.904 159.459 96.904C160.019 96.904 160.523 97.032 160.971 97.288C161.419 97.544 161.771 97.908 162.027 98.38C162.291 98.844 162.423 99.392 162.423 100.024C162.423 100.656 162.291 101.208 162.027 101.68C161.763 102.144 161.403 102.504 160.947 102.76C160.499 103.016 159.995 103.144 159.435 103.144ZM159.435 102.28C159.779 102.28 160.099 102.196 160.395 102.028C160.691 101.86 160.931 101.608 161.115 101.272C161.299 100.936 161.391 100.52 161.391 100.024C161.391 99.528 161.299 99.112 161.115 98.776C160.939 98.44 160.703 98.188 160.407 98.02C160.111 97.852 159.795 97.768 159.459 97.768C159.115 97.768 158.795 97.852 158.499 98.02C158.203 98.188 157.963 98.44 157.779 98.776C157.595 99.112 157.503 99.528 157.503 100.024C157.503 100.52 157.595 100.936 157.779 101.272C157.963 101.608 158.199 101.86 158.487 102.028C158.783 102.196 159.099 102.28 159.435 102.28ZM163.824 105.64V97.048H164.736L164.832 98.032C165.024 97.744 165.296 97.484 165.648 97.252C166.008 97.02 166.464 96.904 167.016 96.904C167.608 96.904 168.124 97.04 168.564 97.312C169.004 97.584 169.344 97.956 169.584 98.428C169.832 98.9 169.956 99.436 169.956 100.036C169.956 100.636 169.832 101.172 169.584 101.644C169.344 102.108 169 102.476 168.552 102.748C168.112 103.012 167.596 103.144 167.004 103.144C166.516 103.144 166.08 103.044 165.696 102.844C165.32 102.644 165.032 102.364 164.832 102.004V105.64H163.824ZM166.896 102.268C167.296 102.268 167.648 102.176 167.952 101.992C168.256 101.8 168.496 101.536 168.672 101.2C168.848 100.864 168.936 100.472 168.936 100.024C168.936 99.576 168.848 99.184 168.672 98.848C168.496 98.512 168.256 98.252 167.952 98.068C167.648 97.876 167.296 97.78 166.896 97.78C166.496 97.78 166.144 97.876 165.84 98.068C165.536 98.252 165.296 98.512 165.12 98.848C164.944 99.184 164.856 99.576 164.856 100.024C164.856 100.472 164.944 100.864 165.12 101.2C165.296 101.536 165.536 101.8 165.84 101.992C166.144 102.176 166.496 102.268 166.896 102.268ZM173.531 103.144C172.827 103.144 172.267 102.932 171.851 102.508C171.435 102.076 171.227 101.416 171.227 100.528V97.048H172.235V100.42C172.235 101.66 172.743 102.28 173.759 102.28C174.279 102.28 174.707 102.096 175.043 101.728C175.387 101.352 175.559 100.82 175.559 100.132V97.048H176.567V103H175.655L175.583 101.932C175.399 102.308 175.123 102.604 174.755 102.82C174.395 103.036 173.987 103.144 173.531 103.144ZM178.226 105.64V97.048H179.138L179.234 98.032C179.426 97.744 179.698 97.484 180.05 97.252C180.41 97.02 180.866 96.904 181.418 96.904C182.01 96.904 182.526 97.04 182.966 97.312C183.406 97.584 183.746 97.956 183.986 98.428C184.234 98.9 184.358 99.436 184.358 100.036C184.358 100.636 184.234 101.172 183.986 101.644C183.746 102.108 183.402 102.476 182.954 102.748C182.514 103.012 181.998 103.144 181.406 103.144C180.918 103.144 180.482 103.044 180.098 102.844C179.722 102.644 179.434 102.364 179.234 102.004V105.64H178.226ZM181.298 102.268C181.698 102.268 182.05 102.176 182.354 101.992C182.658 101.8 182.898 101.536 183.074 101.2C183.25 100.864 183.338 100.472 183.338 100.024C183.338 99.576 183.25 99.184 183.074 98.848C182.898 98.512 182.658 98.252 182.354 98.068C182.05 97.876 181.698 97.78 181.298 97.78C180.898 97.78 180.546 97.876 180.242 98.068C179.938 98.252 179.698 98.512 179.522 98.848C179.346 99.184 179.258 99.576 179.258 100.024C179.258 100.472 179.346 100.864 179.522 101.2C179.698 101.536 179.938 101.8 180.242 101.992C180.546 102.176 180.898 102.268 181.298 102.268ZM184.958 104.428L185.654 101.776H186.698L185.654 104.428H184.958ZM27.18 120C26.636 120 26.208 119.868 25.896 119.604C25.584 119.34 25.428 118.864 25.428 118.176V114.9H24.396V114.048H25.428L25.56 112.62H26.436V114.048H28.188V114.9H26.436V118.176C26.436 118.552 26.512 118.808 26.664 118.944C26.816 119.072 27.084 119.136 27.468 119.136H28.092V120H27.18ZM29.4686 120V114.048H30.3806L30.4646 115.188C30.6486 114.796 30.9286 114.484 31.3046 114.252C31.6806 114.02 32.1446 113.904 32.6966 113.904V114.96H32.4206C32.0686 114.96 31.7446 115.024 31.4486 115.152C31.1526 115.272 30.9166 115.48 30.7406 115.776C30.5646 116.072 30.4766 116.48 30.4766 117V120H29.4686ZM35.808 120.144C35.312 120.144 34.9 120.06 34.572 119.892C34.244 119.724 34 119.5 33.84 119.22C33.68 118.94 33.6 118.636 33.6 118.308C33.6 117.7 33.832 117.232 34.296 116.904C34.76 116.576 35.392 116.412 36.192 116.412H37.8V116.34C37.8 115.82 37.664 115.428 37.392 115.164C37.12 114.892 36.756 114.756 36.3 114.756C35.908 114.756 35.568 114.856 35.28 115.056C35 115.248 34.824 115.532 34.752 115.908H33.72C33.76 115.476 33.904 115.112 34.152 114.816C34.408 114.52 34.724 114.296 35.1 114.144C35.476 113.984 35.876 113.904 36.3 113.904C37.132 113.904 37.756 114.128 38.172 114.576C38.596 115.016 38.808 115.604 38.808 116.34V120H37.908L37.848 118.932C37.68 119.268 37.432 119.556 37.104 119.796C36.784 120.028 36.352 120.144 35.808 120.144ZM35.964 119.292C36.348 119.292 36.676 119.192 36.948 118.992C37.228 118.792 37.44 118.532 37.584 118.212C37.728 117.892 37.8 117.556 37.8 117.204V117.192H36.276C35.684 117.192 35.264 117.296 35.016 117.504C34.776 117.704 34.656 117.956 34.656 118.26C34.656 118.572 34.768 118.824 34.992 119.016C35.224 119.2 35.548 119.292 35.964 119.292ZM40.3202 120V114.048H41.2322L41.2922 115.116C41.4842 114.74 41.7602 114.444 42.1202 114.228C42.4802 114.012 42.8882 113.904 43.3442 113.904C44.0482 113.904 44.6082 114.12 45.0242 114.552C45.4482 114.976 45.6602 115.632 45.6602 116.52V120H44.6522V116.628C44.6522 115.388 44.1402 114.768 43.1162 114.768C42.6042 114.768 42.1762 114.956 41.8322 115.332C41.4962 115.7 41.3282 116.228 41.3282 116.916V120H40.3202ZM49.4674 120.144C48.7554 120.144 48.1634 119.964 47.6914 119.604C47.2194 119.244 46.9434 118.756 46.8634 118.14H47.8954C47.9594 118.452 48.1234 118.724 48.3874 118.956C48.6594 119.18 49.0234 119.292 49.4794 119.292C49.9034 119.292 50.2154 119.204 50.4154 119.028C50.6154 118.844 50.7154 118.628 50.7154 118.38C50.7154 118.02 50.5834 117.78 50.3194 117.66C50.0634 117.54 49.6994 117.432 49.2274 117.336C48.9074 117.272 48.5874 117.18 48.2674 117.06C47.9474 116.94 47.6794 116.772 47.4634 116.556C47.2474 116.332 47.1394 116.04 47.1394 115.68C47.1394 115.16 47.3314 114.736 47.7154 114.408C48.1074 114.072 48.6354 113.904 49.2994 113.904C49.9314 113.904 50.4474 114.064 50.8474 114.384C51.2554 114.696 51.4914 115.144 51.5554 115.728H50.5594C50.5194 115.424 50.3874 115.188 50.1634 115.02C49.9474 114.844 49.6554 114.756 49.2874 114.756C48.9274 114.756 48.6474 114.832 48.4474 114.984C48.2554 115.136 48.1594 115.336 48.1594 115.584C48.1594 115.824 48.2834 116.012 48.5314 116.148C48.7874 116.284 49.1314 116.4 49.5634 116.496C49.9314 116.576 50.2794 116.676 50.6074 116.796C50.9434 116.908 51.2154 117.08 51.4234 117.312C51.6394 117.536 51.7474 117.864 51.7474 118.296C51.7554 118.832 51.5514 119.276 51.1354 119.628C50.7274 119.972 50.1714 120.144 49.4674 120.144ZM53.5114 120V114.9H52.6114V114.048H53.5114V113.016C53.5114 112.44 53.6554 112.02 53.9434 111.756C54.2314 111.492 54.6514 111.36 55.2034 111.36H55.8034V112.224H55.3594C55.0554 112.224 54.8394 112.288 54.7114 112.416C54.5834 112.536 54.5194 112.744 54.5194 113.04V114.048H55.9834V114.9H54.5194V120H53.5114ZM59.6251 120.144C59.0571 120.144 58.5531 120.016 58.1131 119.76C57.6731 119.496 57.3251 119.132 57.0691 118.668C56.8211 118.204 56.6971 117.656 56.6971 117.024C56.6971 116.4 56.8211 115.856 57.0691 115.392C57.3171 114.92 57.6611 114.556 58.1011 114.3C58.5491 114.036 59.0651 113.904 59.6491 113.904C60.2251 113.904 60.7211 114.036 61.1371 114.3C61.5611 114.556 61.8851 114.896 62.1091 115.32C62.3331 115.744 62.4451 116.2 62.4451 116.688C62.4451 116.776 62.4411 116.864 62.4331 116.952C62.4331 117.04 62.4331 117.14 62.4331 117.252H57.6931C57.7171 117.708 57.8211 118.088 58.0051 118.392C58.1971 118.688 58.4331 118.912 58.7131 119.064C59.0011 119.216 59.3051 119.292 59.6251 119.292C60.0411 119.292 60.3891 119.196 60.6691 119.004C60.9491 118.812 61.1531 118.552 61.2811 118.224H62.2771C62.1171 118.776 61.8091 119.236 61.3531 119.604C60.9051 119.964 60.3291 120.144 59.6251 120.144ZM59.6251 114.756C59.1451 114.756 58.7171 114.904 58.3411 115.2C57.9731 115.488 57.7611 115.912 57.7051 116.472H61.4491C61.4251 115.936 61.2411 115.516 60.8971 115.212C60.5531 114.908 60.1291 114.756 59.6251 114.756ZM63.7811 120V114.048H64.6931L64.7771 115.188C64.9611 114.796 65.2411 114.484 65.6171 114.252C65.9931 114.02 66.4571 113.904 67.0091 113.904V114.96H66.7331C66.3811 114.96 66.0571 115.024 65.7611 115.152C65.4651 115.272 65.2291 115.48 65.0531 115.776C64.8771 116.072 64.7891 116.48 64.7891 117V120H63.7811ZM73.2963 120.144C72.8003 120.144 72.3883 120.06 72.0603 119.892C71.7323 119.724 71.4883 119.5 71.3283 119.22C71.1683 118.94 71.0883 118.636 71.0883 118.308C71.0883 117.7 71.3203 117.232 71.7843 116.904C72.2483 116.576 72.8803 116.412 73.6803 116.412H75.2883V116.34C75.2883 115.82 75.1523 115.428 74.8803 115.164C74.6083 114.892 74.2443 114.756 73.7883 114.756C73.3963 114.756 73.0563 114.856 72.7683 115.056C72.4883 115.248 72.3123 115.532 72.2403 115.908H71.2083C71.2483 115.476 71.3923 115.112 71.6403 114.816C71.8963 114.52 72.2123 114.296 72.5883 114.144C72.9643 113.984 73.3643 113.904 73.7883 113.904C74.6203 113.904 75.2443 114.128 75.6603 114.576C76.0843 115.016 76.2963 115.604 76.2963 116.34V120H75.3963L75.3363 118.932C75.1683 119.268 74.9203 119.556 74.5923 119.796C74.2723 120.028 73.8403 120.144 73.2963 120.144ZM73.4523 119.292C73.8363 119.292 74.1643 119.192 74.4363 118.992C74.7163 118.792 74.9283 118.532 75.0723 118.212C75.2163 117.892 75.2883 117.556 75.2883 117.204V117.192H73.7643C73.1723 117.192 72.7523 117.296 72.5043 117.504C72.2643 117.704 72.1443 117.956 72.1443 118.26C72.1443 118.572 72.2563 118.824 72.4803 119.016C72.7123 119.2 73.0363 119.292 73.4523 119.292ZM77.8085 120V114.048H78.7205L78.7805 115.116C78.9725 114.74 79.2485 114.444 79.6085 114.228C79.9685 114.012 80.3765 113.904 80.8325 113.904C81.5365 113.904 82.0965 114.12 82.5125 114.552C82.9365 114.976 83.1485 115.632 83.1485 116.52V120H82.1405V116.628C82.1405 115.388 81.6285 114.768 80.6045 114.768C80.0925 114.768 79.6645 114.956 79.3205 115.332C78.9845 115.7 78.8165 116.228 78.8165 116.916V120H77.8085ZM87.3757 120.144C86.7837 120.144 86.2637 120.008 85.8157 119.736C85.3757 119.464 85.0317 119.092 84.7837 118.62C84.5437 118.148 84.4237 117.612 84.4237 117.012C84.4237 116.412 84.5477 115.88 84.7957 115.416C85.0437 114.944 85.3877 114.576 85.8277 114.312C86.2677 114.04 86.7877 113.904 87.3877 113.904C87.8757 113.904 88.3077 114.004 88.6837 114.204C89.0597 114.404 89.3517 114.684 89.5597 115.044V111.36H90.5677V120H89.6557L89.5597 119.016C89.3677 119.304 89.0917 119.564 88.7317 119.796C88.3717 120.028 87.9197 120.144 87.3757 120.144ZM87.4837 119.268C87.8837 119.268 88.2357 119.176 88.5397 118.992C88.8517 118.8 89.0917 118.536 89.2597 118.2C89.4357 117.864 89.5237 117.472 89.5237 117.024C89.5237 116.576 89.4357 116.184 89.2597 115.848C89.0917 115.512 88.8517 115.252 88.5397 115.068C88.2357 114.876 87.8837 114.78 87.4837 114.78C87.0917 114.78 86.7397 114.876 86.4277 115.068C86.1237 115.252 85.8837 115.512 85.7077 115.848C85.5397 116.184 85.4557 116.576 85.4557 117.024C85.4557 117.472 85.5397 117.864 85.7077 118.2C85.8837 118.536 86.1237 118.8 86.4277 118.992C86.7397 119.176 87.0917 119.268 87.4837 119.268ZM95.3866 122.64V114.048H96.2986L96.3946 115.032C96.5866 114.744 96.8586 114.484 97.2106 114.252C97.5706 114.02 98.0266 113.904 98.5786 113.904C99.1706 113.904 99.6866 114.04 100.127 114.312C100.567 114.584 100.907 114.956 101.147 115.428C101.395 115.9 101.519 116.436 101.519 117.036C101.519 117.636 101.395 118.172 101.147 118.644C100.907 119.108 100.563 119.476 100.115 119.748C99.6746 120.012 99.1586 120.144 98.5666 120.144C98.0786 120.144 97.6426 120.044 97.2586 119.844C96.8826 119.644 96.5946 119.364 96.3946 119.004V122.64H95.3866ZM98.4586 119.268C98.8586 119.268 99.2106 119.176 99.5146 118.992C99.8186 118.8 100.059 118.536 100.235 118.2C100.411 117.864 100.499 117.472 100.499 117.024C100.499 116.576 100.411 116.184 100.235 115.848C100.059 115.512 99.8186 115.252 99.5146 115.068C99.2106 114.876 98.8586 114.78 98.4586 114.78C98.0586 114.78 97.7066 114.876 97.4026 115.068C97.0986 115.252 96.8586 115.512 96.6826 115.848C96.5066 116.184 96.4186 116.576 96.4186 117.024C96.4186 117.472 96.5066 117.864 96.6826 118.2C96.8586 118.536 97.0986 118.8 97.4026 118.992C97.7066 119.176 98.0586 119.268 98.4586 119.268ZM104.902 120.144C104.406 120.144 103.994 120.06 103.666 119.892C103.338 119.724 103.094 119.5 102.934 119.22C102.774 118.94 102.694 118.636 102.694 118.308C102.694 117.7 102.926 117.232 103.39 116.904C103.854 116.576 104.486 116.412 105.286 116.412H106.894V116.34C106.894 115.82 106.758 115.428 106.486 115.164C106.214 114.892 105.85 114.756 105.394 114.756C105.002 114.756 104.662 114.856 104.374 115.056C104.094 115.248 103.918 115.532 103.846 115.908H102.814C102.854 115.476 102.998 115.112 103.246 114.816C103.502 114.52 103.818 114.296 104.194 114.144C104.57 113.984 104.97 113.904 105.394 113.904C106.226 113.904 106.85 114.128 107.266 114.576C107.69 115.016 107.902 115.604 107.902 116.34V120H107.002L106.942 118.932C106.774 119.268 106.526 119.556 106.198 119.796C105.878 120.028 105.446 120.144 104.902 120.144ZM105.058 119.292C105.442 119.292 105.77 119.192 106.042 118.992C106.322 118.792 106.534 118.532 106.678 118.212C106.822 117.892 106.894 117.556 106.894 117.204V117.192H105.37C104.778 117.192 104.358 117.296 104.11 117.504C103.87 117.704 103.75 117.956 103.75 118.26C103.75 118.572 103.862 118.824 104.086 119.016C104.318 119.2 104.642 119.292 105.058 119.292ZM109.886 122.64L111.362 119.424H111.014L108.65 114.048H109.742L111.71 118.68L113.798 114.048H114.842L110.942 122.64H109.886ZM115.906 120V114.048H116.818L116.89 114.912C117.082 114.592 117.338 114.344 117.658 114.168C117.978 113.992 118.338 113.904 118.738 113.904C119.21 113.904 119.614 114 119.95 114.192C120.294 114.384 120.558 114.676 120.742 115.068C120.95 114.708 121.234 114.424 121.594 114.216C121.962 114.008 122.358 113.904 122.782 113.904C123.494 113.904 124.062 114.12 124.486 114.552C124.91 114.976 125.122 115.632 125.122 116.52V120H124.126V116.628C124.126 116.012 124.002 115.548 123.754 115.236C123.506 114.924 123.15 114.768 122.686 114.768C122.206 114.768 121.806 114.956 121.486 115.332C121.174 115.7 121.018 116.228 121.018 116.916V120H120.01V116.628C120.01 116.012 119.886 115.548 119.638 115.236C119.39 114.924 119.034 114.768 118.57 114.768C118.098 114.768 117.702 114.956 117.382 115.332C117.07 115.7 116.914 116.228 116.914 116.916V120H115.906ZM129.317 120.144C128.749 120.144 128.245 120.016 127.805 119.76C127.365 119.496 127.017 119.132 126.761 118.668C126.513 118.204 126.389 117.656 126.389 117.024C126.389 116.4 126.513 115.856 126.761 115.392C127.009 114.92 127.353 114.556 127.793 114.3C128.241 114.036 128.757 113.904 129.34 113.904C129.917 113.904 130.413 114.036 130.829 114.3C131.253 114.556 131.577 114.896 131.801 115.32C132.025 115.744 132.137 116.2 132.137 116.688C132.137 116.776 132.133 116.864 132.125 116.952C132.125 117.04 132.125 117.14 132.125 117.252H127.385C127.409 117.708 127.513 118.088 127.697 118.392C127.889 118.688 128.125 118.912 128.405 119.064C128.693 119.216 128.997 119.292 129.317 119.292C129.733 119.292 130.081 119.196 130.361 119.004C130.641 118.812 130.845 118.552 130.973 118.224H131.969C131.809 118.776 131.501 119.236 131.045 119.604C130.597 119.964 130.021 120.144 129.317 120.144ZM129.317 114.756C128.837 114.756 128.409 114.904 128.033 115.2C127.665 115.488 127.453 115.912 127.396 116.472H131.141C131.117 115.936 130.933 115.516 130.589 115.212C130.245 114.908 129.821 114.756 129.317 114.756ZM133.473 120V114.048H134.385L134.445 115.116C134.637 114.74 134.913 114.444 135.273 114.228C135.633 114.012 136.041 113.904 136.497 113.904C137.201 113.904 137.761 114.12 138.177 114.552C138.601 114.976 138.813 115.632 138.813 116.52V120H137.805V116.628C137.805 115.388 137.293 114.768 136.269 114.768C135.757 114.768 135.329 114.956 134.985 115.332C134.649 115.7 134.481 116.228 134.481 116.916V120H133.473ZM142.692 120C142.148 120 141.72 119.868 141.408 119.604C141.096 119.34 140.94 118.864 140.94 118.176V114.9H139.908V114.048H140.94L141.072 112.62H141.948V114.048H143.7V114.9H141.948V118.176C141.948 118.552 142.024 118.808 142.176 118.944C142.328 119.072 142.596 119.136 142.98 119.136H143.604V120H142.692Z" fill="#BDBDBD"/>
</g>
<defs>
<clipPath id="clip0_132_3966">
<rect width="318" height="170" rx="16" fill="white"/>
</clipPath>
</defs>
</svg>
