<svg width="343" height="186" viewBox="0 0 343 186" fill="none" xmlns="http://www.w3.org/2000/svg">
<rect width="343" height="186" rx="16" fill="#FFAE58"/>
<path d="M17.162 155.228H20.536C21.4227 155.228 22.1087 155.457 22.594 155.914C23.0887 156.371 23.336 156.997 23.336 157.79C23.336 158.359 23.196 158.812 22.916 159.148C22.636 159.484 22.258 159.722 21.782 159.862V159.932C22.3513 160.063 22.8087 160.315 23.154 160.688C23.4993 161.052 23.672 161.57 23.672 162.242C23.672 162.643 23.6067 163.012 23.476 163.348C23.3453 163.684 23.1587 163.978 22.916 164.23C22.6733 164.473 22.3793 164.664 22.034 164.804C21.698 164.935 21.3247 165 20.914 165H17.162V155.228ZM20.438 163.796C20.9607 163.796 21.362 163.689 21.642 163.474C21.922 163.259 22.062 162.914 22.062 162.438V161.934C22.062 161.458 21.922 161.113 21.642 160.898C21.362 160.683 20.9607 160.576 20.438 160.576H18.702V163.796H20.438ZM20.214 159.428C20.7087 159.428 21.082 159.335 21.334 159.148C21.5953 158.952 21.726 158.63 21.726 158.182V157.678C21.726 157.23 21.5953 156.913 21.334 156.726C21.082 156.53 20.7087 156.432 20.214 156.432H18.702V159.428H20.214ZM25.5145 165V163.81H27.8105V156.418H25.5145V155.228H31.6745V156.418H29.3785V163.81H31.6745V165H25.5145ZM39.2571 165L38.5151 162.396H35.4071L34.6651 165H33.0691L35.9251 155.228H38.0671L40.9231 165H39.2571ZM37.0171 156.81H36.9051L35.7011 161.094H38.2211L37.0171 156.81ZM43.6896 157.482H43.5636V165H42.1916V155.228H44.2076L47.0776 162.746H47.2036V155.228H48.5756V165H46.5596L43.6896 157.482ZM54.0581 165.168C52.8168 165.168 51.8928 164.729 51.2861 163.852C50.6888 162.975 50.3901 161.729 50.3901 160.114C50.3901 158.499 50.6888 157.253 51.2861 156.376C51.8928 155.499 52.8168 155.06 54.0581 155.06C54.5341 155.06 54.9448 155.125 55.2901 155.256C55.6448 155.377 55.9481 155.55 56.2001 155.774C56.4521 155.989 56.6621 156.245 56.8301 156.544C57.0075 156.833 57.1521 157.146 57.2641 157.482L55.8501 157.958C55.7755 157.734 55.6915 157.524 55.5981 157.328C55.5048 157.132 55.3881 156.964 55.2481 156.824C55.1081 156.684 54.9401 156.572 54.7441 156.488C54.5575 156.404 54.3241 156.362 54.0441 156.362C53.3535 156.362 52.8495 156.628 52.5321 157.16C52.2148 157.683 52.0561 158.392 52.0561 159.288V160.94C52.0561 161.836 52.2148 162.55 52.5321 163.082C52.8495 163.605 53.3535 163.866 54.0441 163.866C54.3241 163.866 54.5575 163.824 54.7441 163.74C54.9401 163.656 55.1081 163.544 55.2481 163.404C55.3881 163.264 55.5048 163.096 55.5981 162.9C55.6915 162.704 55.7755 162.494 55.8501 162.27L57.2641 162.746C57.1521 163.082 57.0075 163.399 56.8301 163.698C56.6621 163.987 56.4521 164.244 56.2001 164.468C55.9481 164.683 55.6448 164.855 55.2901 164.986C54.9448 165.107 54.5341 165.168 54.0581 165.168ZM64.4407 165L63.6987 162.396H60.5907L59.8487 165H58.2527L61.1087 155.228H63.2507L66.1067 165H64.4407ZM62.2007 156.81H62.0887L60.8847 161.094H63.4047L62.2007 156.81ZM79.2417 165.168C78.0004 165.168 77.0764 164.729 76.4697 163.852C75.8724 162.975 75.5737 161.729 75.5737 160.114C75.5737 158.499 75.8724 157.253 76.4697 156.376C77.0764 155.499 78.0004 155.06 79.2417 155.06C79.7177 155.06 80.1284 155.125 80.4737 155.256C80.8284 155.377 81.1317 155.55 81.3837 155.774C81.6357 155.989 81.8457 156.245 82.0137 156.544C82.1911 156.833 82.3357 157.146 82.4477 157.482L81.0337 157.958C80.9591 157.734 80.8751 157.524 80.7817 157.328C80.6884 157.132 80.5717 156.964 80.4317 156.824C80.2917 156.684 80.1237 156.572 79.9277 156.488C79.7411 156.404 79.5077 156.362 79.2277 156.362C78.5371 156.362 78.0331 156.628 77.7157 157.16C77.3984 157.683 77.2397 158.392 77.2397 159.288V160.94C77.2397 161.836 77.3984 162.55 77.7157 163.082C78.0331 163.605 78.5371 163.866 79.2277 163.866C79.5077 163.866 79.7411 163.824 79.9277 163.74C80.1237 163.656 80.2917 163.544 80.4317 163.404C80.5717 163.264 80.6884 163.096 80.7817 162.9C80.8751 162.704 80.9591 162.494 81.0337 162.27L82.4477 162.746C82.3357 163.082 82.1911 163.399 82.0137 163.698C81.8457 163.987 81.6357 164.244 81.3837 164.468C81.1317 164.683 80.8284 164.855 80.4737 164.986C80.1284 165.107 79.7177 165.168 79.2417 165.168ZM87.3563 165.168C86.7403 165.168 86.2036 165.056 85.7463 164.832C85.2983 164.599 84.9249 164.267 84.6263 163.838C84.3369 163.409 84.1223 162.881 83.9823 162.256C83.8423 161.631 83.7723 160.917 83.7723 160.114C83.7723 159.321 83.8423 158.611 83.9823 157.986C84.1223 157.351 84.3369 156.819 84.6263 156.39C84.9249 155.961 85.2983 155.634 85.7463 155.41C86.2036 155.177 86.7403 155.06 87.3563 155.06C87.9723 155.06 88.5043 155.177 88.9523 155.41C89.4096 155.634 89.7829 155.961 90.0723 156.39C90.3709 156.819 90.5903 157.351 90.7303 157.986C90.8703 158.611 90.9403 159.321 90.9403 160.114C90.9403 160.917 90.8703 161.631 90.7303 162.256C90.5903 162.881 90.3709 163.409 90.0723 163.838C89.7829 164.267 89.4096 164.599 88.9523 164.832C88.5043 165.056 87.9723 165.168 87.3563 165.168ZM87.3563 163.866C88.0563 163.866 88.5509 163.605 88.8403 163.082C89.1296 162.55 89.2743 161.831 89.2743 160.926V159.288C89.2743 158.392 89.1296 157.683 88.8403 157.16C88.5509 156.628 88.0563 156.362 87.3563 156.362C86.6563 156.362 86.1616 156.628 85.8723 157.16C85.5829 157.683 85.4383 158.392 85.4383 159.288V160.94C85.4383 161.836 85.5829 162.55 85.8723 163.082C86.1616 163.605 86.6563 163.866 87.3563 163.866ZM95.7508 165.168C95.1348 165.168 94.5981 165.056 94.1408 164.832C93.6928 164.599 93.3194 164.267 93.0208 163.838C92.7314 163.409 92.5168 162.881 92.3768 162.256C92.2368 161.631 92.1668 160.917 92.1668 160.114C92.1668 159.321 92.2368 158.611 92.3768 157.986C92.5168 157.351 92.7314 156.819 93.0208 156.39C93.3194 155.961 93.6928 155.634 94.1408 155.41C94.5981 155.177 95.1348 155.06 95.7508 155.06C96.3668 155.06 96.8988 155.177 97.3468 155.41C97.8041 155.634 98.1774 155.961 98.4668 156.39C98.7654 156.819 98.9848 157.351 99.1248 157.986C99.2648 158.611 99.3348 159.321 99.3348 160.114C99.3348 160.917 99.2648 161.631 99.1248 162.256C98.9848 162.881 98.7654 163.409 98.4668 163.838C98.1774 164.267 97.8041 164.599 97.3468 164.832C96.8988 165.056 96.3668 165.168 95.7508 165.168ZM95.7508 163.866C96.4508 163.866 96.9454 163.605 97.2348 163.082C97.5241 162.55 97.6688 161.831 97.6688 160.926V159.288C97.6688 158.392 97.5241 157.683 97.2348 157.16C96.9454 156.628 96.4508 156.362 95.7508 156.362C95.0508 156.362 94.5561 156.628 94.2668 157.16C93.9774 157.683 93.8328 158.392 93.8328 159.288V160.94C93.8328 161.836 93.9774 162.55 94.2668 163.082C94.5561 163.605 95.0508 163.866 95.7508 163.866ZM101.121 165V155.228H104.775C105.709 155.228 106.418 155.489 106.903 156.012C107.398 156.535 107.645 157.253 107.645 158.168C107.645 159.083 107.398 159.801 106.903 160.324C106.418 160.847 105.709 161.108 104.775 161.108H102.689V165H101.121ZM102.689 159.806H104.537C105.508 159.806 105.993 159.358 105.993 158.462V157.86C105.993 156.973 105.508 156.53 104.537 156.53H102.689V159.806ZM109.544 165V155.228H115.662V156.544H111.112V159.386H115.494V160.702H111.112V163.684H115.662V165H109.544ZM119.464 165H117.91V155.228H121.564C122.498 155.228 123.207 155.489 123.692 156.012C124.187 156.535 124.434 157.253 124.434 158.168C124.434 158.915 124.252 159.531 123.888 160.016C123.524 160.501 123.002 160.8 122.32 160.912L124.574 165H122.838L120.766 161.052H119.464V165ZM121.34 159.792C122.311 159.792 122.796 159.349 122.796 158.462V157.86C122.796 156.973 122.311 156.53 121.34 156.53H119.464V159.792H121.34Z" fill="#F2F2F2"/>
<path d="M286.259 165V163.698H289.003V156.376H288.891L286.623 158.798L285.657 157.93L288.149 155.228H290.571V163.698H292.937V165H286.259ZM294.654 165V163.698H297.398V156.376H297.286L295.018 158.798L294.052 157.93L296.544 155.228H298.966V163.698H301.332V165H294.654ZM302.978 166.932L307.696 154.36H309.054L304.336 166.932H302.978ZM317.841 165H311.093V163.502L314.285 160.716C314.789 160.268 315.176 159.843 315.447 159.442C315.727 159.041 315.867 158.616 315.867 158.168V158.014C315.867 157.501 315.727 157.109 315.447 156.838C315.167 156.558 314.761 156.418 314.229 156.418C313.688 156.418 313.268 156.563 312.969 156.852C312.68 157.141 312.47 157.51 312.339 157.958L310.967 157.44C311.06 157.132 311.196 156.838 311.373 156.558C311.55 156.269 311.774 156.012 312.045 155.788C312.325 155.564 312.652 155.387 313.025 155.256C313.408 155.125 313.846 155.06 314.341 155.06C314.845 155.06 315.293 155.135 315.685 155.284C316.086 155.424 316.422 155.62 316.693 155.872C316.964 156.124 317.169 156.427 317.309 156.782C317.449 157.127 317.519 157.51 317.519 157.93C317.519 158.322 317.458 158.686 317.337 159.022C317.225 159.349 317.062 159.666 316.847 159.974C316.642 160.273 316.394 160.562 316.105 160.842C315.816 161.122 315.498 161.402 315.153 161.682L312.787 163.67H317.841V165ZM323.673 165V163.096H319.025V161.752L323.113 155.228H325.171V161.864H326.543V163.096H325.171V165H323.673ZM320.355 161.864H323.673V156.67H323.589L320.355 161.864Z" fill="#F2F2F2"/>
<ellipse opacity="0.6" cx="295.846" cy="30" rx="13.8462" ry="14" fill="white"/>
<ellipse opacity="0.4" cx="313.154" cy="30" rx="13.8462" ry="14" fill="white"/>
<path fill-rule="evenodd" clip-rule="evenodd" d="M304.5 40.9295C307.665 38.3638 309.692 34.4212 309.692 30C309.692 25.5789 307.665 21.6364 304.5 19.0707C301.335 21.6364 299.308 25.5789 299.308 30.0002C299.308 34.4213 301.334 38.3638 304.5 40.9295Z" fill="white"/>
<path d="M22.264 62.264C21.016 62.168 19.944 61.888 19.048 61.424C18.168 60.944 17.448 60.328 16.888 59.576L18.784 57.632C19.84 58.816 21.056 59.488 22.432 59.648V54.68L21.88 54.584C21.096 54.44 20.416 54.224 19.84 53.936C19.28 53.648 18.816 53.296 18.448 52.88C18.096 52.464 17.832 52 17.656 51.488C17.496 50.976 17.416 50.424 17.416 49.832C17.416 48.472 17.832 47.376 18.664 46.544C19.512 45.712 20.712 45.208 22.264 45.032V42.536H24.616V45.008C25.656 45.136 26.544 45.4 27.28 45.8C28.032 46.2 28.664 46.72 29.176 47.36L27.28 49.304C26.544 48.424 25.6 47.888 24.448 47.696V52.256L25.048 52.352C26.616 52.64 27.752 53.2 28.456 54.032C29.16 54.848 29.512 55.856 29.512 57.056C29.512 58.416 29.088 59.552 28.24 60.464C27.408 61.36 26.2 61.928 24.616 62.168V64.712H22.264V62.264ZM20.368 49.736C20.368 50.328 20.528 50.784 20.848 51.104C21.168 51.424 21.696 51.672 22.432 51.848V47.624C21.056 47.816 20.368 48.52 20.368 49.736ZM26.584 57.248C26.584 56.608 26.416 56.128 26.08 55.808C25.744 55.472 25.2 55.224 24.448 55.064V59.624C25.168 59.496 25.704 59.232 26.056 58.832C26.408 58.432 26.584 57.904 26.584 57.248ZM36.9186 52.016C37.9266 52.016 38.6626 51.816 39.1266 51.416C39.6066 51.016 39.8466 50.512 39.8466 49.904V49.736C39.8466 49.048 39.6146 48.512 39.1506 48.128C38.7026 47.744 38.0786 47.552 37.2786 47.552C36.5106 47.552 35.8386 47.728 35.2626 48.08C34.6866 48.432 34.1906 48.928 33.7746 49.568L31.7346 47.744C32.0226 47.36 32.3426 47 32.6946 46.664C33.0626 46.312 33.4706 46.016 33.9186 45.776C34.3826 45.52 34.8946 45.32 35.4546 45.176C36.0146 45.032 36.6546 44.96 37.3746 44.96C38.2226 44.96 38.9986 45.064 39.7026 45.272C40.4226 45.464 41.0306 45.752 41.5266 46.136C42.0386 46.52 42.4306 46.984 42.7026 47.528C42.9906 48.056 43.1346 48.656 43.1346 49.328C43.1346 49.856 43.0466 50.336 42.8706 50.768C42.6946 51.2 42.4546 51.576 42.1506 51.896C41.8626 52.216 41.5186 52.48 41.1186 52.688C40.7346 52.896 40.3186 53.048 39.8706 53.144V53.264C40.3666 53.36 40.8306 53.52 41.2626 53.744C41.6946 53.952 42.0706 54.224 42.3906 54.56C42.7106 54.896 42.9666 55.304 43.1586 55.784C43.3506 56.248 43.4466 56.776 43.4466 57.368C43.4466 58.104 43.2946 58.776 42.9906 59.384C42.6866 59.992 42.2546 60.512 41.6946 60.944C41.1506 61.376 40.4866 61.712 39.7026 61.952C38.9346 62.176 38.0706 62.288 37.1106 62.288C36.3106 62.288 35.5986 62.2 34.9746 62.024C34.3506 61.864 33.7986 61.64 33.3186 61.352C32.8386 61.064 32.4226 60.736 32.0706 60.368C31.7186 59.984 31.4066 59.592 31.1346 59.192L33.4626 57.392C33.8626 58.064 34.3346 58.616 34.8786 59.048C35.4386 59.48 36.1986 59.696 37.1586 59.696C38.1186 59.696 38.8546 59.48 39.3666 59.048C39.8946 58.6 40.1586 57.984 40.1586 57.2V57.008C40.1586 56.24 39.8786 55.656 39.3186 55.256C38.7586 54.84 37.9666 54.632 36.9426 54.632H35.2626V52.016H36.9186ZM50.4453 58.088H54.5733L51.4293 65.552H49.1013L50.4453 58.088ZM67.5959 62V58.76H59.8439V56.072L66.6839 45.248H70.5959V56.312H72.8519V58.76H70.5959V62H67.5959ZM62.4119 56.312H67.5959V48.32H67.4039L62.4119 56.312ZM86.7625 62H74.9545V59.072L80.3305 54.488C81.2265 53.72 81.8905 53.024 82.3225 52.4C82.7545 51.76 82.9705 51.08 82.9705 50.36V50.12C82.9705 49.32 82.7465 48.712 82.2985 48.296C81.8505 47.88 81.2265 47.672 80.4265 47.672C79.5465 47.672 78.8745 47.912 78.4105 48.392C77.9465 48.872 77.6105 49.464 77.4025 50.168L74.6665 49.136C74.8425 48.592 75.0905 48.072 75.4105 47.576C75.7465 47.064 76.1545 46.616 76.6345 46.232C77.1305 45.848 77.7145 45.544 78.3865 45.32C79.0585 45.08 79.8265 44.96 80.6905 44.96C81.5865 44.96 82.3785 45.088 83.0665 45.344C83.7705 45.584 84.3625 45.928 84.8425 46.376C85.3225 46.808 85.6825 47.328 85.9225 47.936C86.1785 48.544 86.3065 49.208 86.3065 49.928C86.3065 50.616 86.1945 51.248 85.9705 51.824C85.7625 52.4 85.4665 52.952 85.0825 53.48C84.6985 53.992 84.2425 54.488 83.7145 54.968C83.2025 55.448 82.6425 55.928 82.0345 56.408L78.3865 59.36H86.7625V62ZM90.1371 62V59.432H94.7451V47.528H94.5291L90.8811 51.848L88.9131 50.192L93.0651 45.248H97.8891V59.432H101.681V62H90.1371ZM109.544 62.264C108.712 62.264 108.12 62.088 107.768 61.736C107.416 61.384 107.24 60.952 107.24 60.44V59.72C107.24 59.208 107.416 58.776 107.768 58.424C108.12 58.072 108.712 57.896 109.544 57.896C110.376 57.896 110.968 58.072 111.32 58.424C111.672 58.776 111.848 59.208 111.848 59.72V60.44C111.848 60.952 111.672 61.384 111.32 61.736C110.968 62.088 110.376 62.264 109.544 62.264ZM123.934 62.288C122.846 62.288 121.902 62.096 121.102 61.712C120.302 61.312 119.638 60.744 119.11 60.008C118.598 59.272 118.214 58.368 117.958 57.296C117.718 56.224 117.598 55 117.598 53.624C117.598 52.264 117.718 51.048 117.958 49.976C118.214 48.888 118.598 47.976 119.11 47.24C119.638 46.504 120.302 45.944 121.102 45.56C121.902 45.16 122.846 44.96 123.934 44.96C126.11 44.96 127.71 45.72 128.734 47.24C129.758 48.76 130.27 50.888 130.27 53.624C130.27 56.36 129.758 58.488 128.734 60.008C127.71 61.528 126.11 62.288 123.934 62.288ZM123.934 59.768C125.086 59.768 125.894 59.36 126.358 58.544C126.838 57.712 127.078 56.568 127.078 55.112V52.136C127.078 50.68 126.838 49.544 126.358 48.728C125.894 47.896 125.086 47.48 123.934 47.48C122.782 47.48 121.966 47.896 121.486 48.728C121.022 49.544 120.79 50.68 120.79 52.136V55.112C120.79 56.568 121.022 57.712 121.486 58.544C121.966 59.36 122.782 59.768 123.934 59.768ZM123.934 55.04C123.374 55.04 122.982 54.928 122.758 54.704C122.55 54.48 122.446 54.208 122.446 53.888V53.36C122.446 53.04 122.55 52.768 122.758 52.544C122.982 52.32 123.374 52.208 123.934 52.208C124.494 52.208 124.878 52.32 125.086 52.544C125.31 52.768 125.422 53.04 125.422 53.36V53.888C125.422 54.208 125.31 54.48 125.086 54.704C124.878 54.928 124.494 55.04 123.934 55.04ZM138.325 62.288C137.237 62.288 136.293 62.096 135.493 61.712C134.693 61.312 134.029 60.744 133.501 60.008C132.989 59.272 132.605 58.368 132.349 57.296C132.109 56.224 131.989 55 131.989 53.624C131.989 52.264 132.109 51.048 132.349 49.976C132.605 48.888 132.989 47.976 133.501 47.24C134.029 46.504 134.693 45.944 135.493 45.56C136.293 45.16 137.237 44.96 138.325 44.96C140.501 44.96 142.101 45.72 143.125 47.24C144.149 48.76 144.661 50.888 144.661 53.624C144.661 56.36 144.149 58.488 143.125 60.008C142.101 61.528 140.501 62.288 138.325 62.288ZM138.325 59.768C139.477 59.768 140.285 59.36 140.749 58.544C141.229 57.712 141.469 56.568 141.469 55.112V52.136C141.469 50.68 141.229 49.544 140.749 48.728C140.285 47.896 139.477 47.48 138.325 47.48C137.173 47.48 136.357 47.896 135.877 48.728C135.413 49.544 135.181 50.68 135.181 52.136V55.112C135.181 56.568 135.413 57.712 135.877 58.544C136.357 59.36 137.173 59.768 138.325 59.768ZM138.325 55.04C137.765 55.04 137.373 54.928 137.149 54.704C136.941 54.48 136.837 54.208 136.837 53.888V53.36C136.837 53.04 136.941 52.768 137.149 52.544C137.373 52.32 137.765 52.208 138.325 52.208C138.885 52.208 139.269 52.32 139.477 52.544C139.701 52.768 139.813 53.04 139.813 53.36V53.888C139.813 54.208 139.701 54.48 139.477 54.704C139.269 54.928 138.885 55.04 138.325 55.04Z" fill="white"/>
<path d="M17.232 21.228H20.55C21.39 21.228 22.048 21.4567 22.524 21.914C23 22.3713 23.238 22.9827 23.238 23.748C23.238 24.336 23.0933 24.798 22.804 25.134C22.524 25.47 22.16 25.708 21.712 25.848V25.89C22.2627 26.0207 22.7153 26.268 23.07 26.632C23.4247 26.9867 23.602 27.5047 23.602 28.186C23.602 28.578 23.5367 28.9467 23.406 29.292C23.2753 29.6373 23.0887 29.936 22.846 30.188C22.6127 30.44 22.3327 30.6407 22.006 30.79C21.6887 30.93 21.3433 31 20.97 31H17.232V21.228ZM20.62 29.978C21.1613 29.978 21.586 29.8567 21.894 29.614C22.202 29.3713 22.356 28.998 22.356 28.494V27.92C22.356 27.4253 22.202 27.0567 21.894 26.814C21.586 26.562 21.1613 26.436 20.62 26.436H18.408V29.978H20.62ZM20.424 25.47C20.9187 25.47 21.306 25.3627 21.586 25.148C21.866 24.924 22.006 24.588 22.006 24.14V23.594C22.006 23.146 21.866 22.81 21.586 22.586C21.306 22.362 20.9187 22.25 20.424 22.25H18.408V25.47H20.424ZM31.3245 31C30.8859 31 30.5732 30.888 30.3865 30.664C30.1999 30.44 30.0832 30.16 30.0365 29.824H29.9665C29.8079 30.244 29.5512 30.5753 29.1965 30.818C28.8512 31.0513 28.3845 31.168 27.7965 31.168C27.0405 31.168 26.4385 30.972 25.9905 30.58C25.5425 30.188 25.3185 29.6513 25.3185 28.97C25.3185 28.298 25.5612 27.78 26.0465 27.416C26.5412 27.052 27.3345 26.87 28.4265 26.87H29.9665V26.156C29.9665 25.624 29.8172 25.2273 29.5185 24.966C29.2199 24.6953 28.7952 24.56 28.2445 24.56C27.7592 24.56 27.3625 24.658 27.0545 24.854C26.7465 25.0407 26.4992 25.2973 26.3125 25.624L25.5565 25.064C25.6499 24.8773 25.7759 24.6953 25.9345 24.518C26.0932 24.3407 26.2892 24.1867 26.5225 24.056C26.7559 23.916 27.0219 23.8087 27.3205 23.734C27.6192 23.65 27.9505 23.608 28.3145 23.608C29.1639 23.608 29.8359 23.8227 30.3305 24.252C30.8345 24.6813 31.0865 25.2787 31.0865 26.044V30.02H32.0945V31H31.3245ZM27.9925 30.23C28.2819 30.23 28.5432 30.1973 28.7765 30.132C29.0192 30.0573 29.2292 29.964 29.4065 29.852C29.5839 29.7307 29.7192 29.5907 29.8125 29.432C29.9152 29.264 29.9665 29.0867 29.9665 28.9V27.71H28.4265C27.7545 27.71 27.2645 27.8033 26.9565 27.99C26.6485 28.1767 26.4945 28.4473 26.4945 28.802V29.096C26.4945 29.4693 26.6252 29.754 26.8865 29.95C27.1572 30.1367 27.5259 30.23 27.9925 30.23ZM33.9091 30.048H36.4291V21.592H33.9091V20.64H37.5491V30.048H40.0691V31H33.9091V30.048ZM48.1136 31C47.6749 31 47.3623 30.888 47.1756 30.664C46.9889 30.44 46.8723 30.16 46.8256 29.824H46.7556C46.5969 30.244 46.3403 30.5753 45.9856 30.818C45.6403 31.0513 45.1736 31.168 44.5856 31.168C43.8296 31.168 43.2276 30.972 42.7796 30.58C42.3316 30.188 42.1076 29.6513 42.1076 28.97C42.1076 28.298 42.3503 27.78 42.8356 27.416C43.3303 27.052 44.1236 26.87 45.2156 26.87H46.7556V26.156C46.7556 25.624 46.6063 25.2273 46.3076 24.966C46.0089 24.6953 45.5843 24.56 45.0336 24.56C44.5483 24.56 44.1516 24.658 43.8436 24.854C43.5356 25.0407 43.2883 25.2973 43.1016 25.624L42.3456 25.064C42.4389 24.8773 42.5649 24.6953 42.7236 24.518C42.8823 24.3407 43.0783 24.1867 43.3116 24.056C43.5449 23.916 43.8109 23.8087 44.1096 23.734C44.4083 23.65 44.7396 23.608 45.1036 23.608C45.9529 23.608 46.6249 23.8227 47.1196 24.252C47.6236 24.6813 47.8756 25.2787 47.8756 26.044V30.02H48.8836V31H48.1136ZM44.7816 30.23C45.0709 30.23 45.3323 30.1973 45.5656 30.132C45.8083 30.0573 46.0183 29.964 46.1956 29.852C46.3729 29.7307 46.5083 29.5907 46.6016 29.432C46.7043 29.264 46.7556 29.0867 46.7556 28.9V27.71H45.2156C44.5436 27.71 44.0536 27.8033 43.7456 27.99C43.4376 28.1767 43.2836 28.4473 43.2836 28.802V29.096C43.2836 29.4693 43.4143 29.754 43.6756 29.95C43.9463 30.1367 44.3149 30.23 44.7816 30.23ZM50.9501 31V23.776H52.0701V24.952H52.1261C52.2008 24.7747 52.2941 24.6067 52.4061 24.448C52.5181 24.28 52.6535 24.1353 52.8121 24.014C52.9801 23.8927 53.1761 23.7947 53.4001 23.72C53.6241 23.6453 53.8855 23.608 54.1841 23.608C54.9401 23.608 55.5468 23.8507 56.0041 24.336C56.4615 24.812 56.6901 25.4887 56.6901 26.366V31H55.5701V26.562C55.5701 25.8993 55.4255 25.4093 55.1361 25.092C54.8468 24.7653 54.4221 24.602 53.8621 24.602C53.6381 24.602 53.4188 24.63 53.2041 24.686C52.9895 24.742 52.7981 24.826 52.6301 24.938C52.4621 25.05 52.3268 25.1947 52.2241 25.372C52.1215 25.5493 52.0701 25.7547 52.0701 25.988V31H50.9501ZM62.4247 31.168C61.902 31.168 61.4353 31.0793 61.0247 30.902C60.6233 30.7153 60.2827 30.4587 60.0027 30.132C59.7227 29.8053 59.508 29.4087 59.3587 28.942C59.2187 28.4753 59.1487 27.9573 59.1487 27.388C59.1487 26.8187 59.2233 26.3007 59.3727 25.834C59.522 25.3673 59.7367 24.9707 60.0167 24.644C60.2967 24.308 60.6373 24.0513 61.0387 23.874C61.44 23.6967 61.8973 23.608 62.4107 23.608C63.1107 23.608 63.68 23.762 64.1187 24.07C64.5573 24.378 64.8793 24.7793 65.0847 25.274L64.1887 25.75C64.058 25.3767 63.8387 25.0873 63.5307 24.882C63.232 24.6767 62.8587 24.574 62.4107 24.574C62.084 24.574 61.79 24.63 61.5287 24.742C61.2767 24.8447 61.062 24.994 60.8847 25.19C60.7073 25.386 60.572 25.6193 60.4787 25.89C60.3947 26.1607 60.3527 26.4547 60.3527 26.772V28.004C60.3527 28.3213 60.3947 28.6153 60.4787 28.886C60.572 29.1567 60.7073 29.39 60.8847 29.586C61.062 29.782 61.2813 29.936 61.5427 30.048C61.804 30.1507 62.1027 30.202 62.4387 30.202C62.924 30.202 63.3253 30.09 63.6427 29.866C63.96 29.642 64.212 29.334 64.3987 28.942L65.1967 29.488C64.982 29.9733 64.646 30.3747 64.1887 30.692C63.7407 31.0093 63.1527 31.168 62.4247 31.168ZM70.6932 31.168C70.1705 31.168 69.6992 31.0793 69.2792 30.902C68.8685 30.7247 68.5139 30.4727 68.2152 30.146C67.9259 29.81 67.7019 29.4133 67.5432 28.956C67.3845 28.4893 67.3052 27.9713 67.3052 27.402C67.3052 26.8233 67.3845 26.3007 67.5432 25.834C67.7112 25.3673 67.9399 24.9707 68.2292 24.644C68.5185 24.308 68.8639 24.0513 69.2652 23.874C69.6759 23.6967 70.1285 23.608 70.6232 23.608C71.1085 23.608 71.5472 23.6967 71.9392 23.874C72.3405 24.0513 72.6812 24.2987 72.9612 24.616C73.2412 24.924 73.4559 25.2927 73.6052 25.722C73.7545 26.1513 73.8292 26.6227 73.8292 27.136V27.668H68.4812V28.004C68.4812 28.3213 68.5325 28.6153 68.6352 28.886C68.7379 29.1567 68.8825 29.39 69.0692 29.586C69.2652 29.782 69.4985 29.936 69.7692 30.048C70.0492 30.1507 70.3572 30.202 70.6932 30.202C71.1785 30.202 71.5985 30.09 71.9532 29.866C72.3079 29.642 72.5785 29.334 72.7652 28.942L73.5912 29.502C73.3765 29.9873 73.0172 30.3887 72.5132 30.706C72.0185 31.014 71.4119 31.168 70.6932 31.168ZM70.6232 24.532C70.3152 24.532 70.0305 24.588 69.7692 24.7C69.5079 24.812 69.2792 24.966 69.0832 25.162C68.8965 25.358 68.7472 25.5913 68.6352 25.862C68.5325 26.1233 68.4812 26.4127 68.4812 26.73V26.828H72.6252V26.674C72.6252 26.3567 72.5739 26.0673 72.4712 25.806C72.3779 25.5447 72.2425 25.3207 72.0652 25.134C71.8972 24.938 71.6872 24.7887 71.4352 24.686C71.1925 24.5833 70.9219 24.532 70.6232 24.532Z" fill="#F2F2F2"/>
<circle cx="83" cy="110" r="3" fill="white"/>
<circle cx="95" cy="110" r="3" fill="white"/>
<circle cx="107" cy="110" r="3" fill="white"/>
<circle cx="119" cy="110" r="3" fill="white"/>
<circle cx="141" cy="110" r="3" fill="white"/>
<circle cx="153" cy="110" r="3" fill="white"/>
<circle cx="165" cy="110" r="3" fill="white"/>
<circle cx="177" cy="110" r="3" fill="white"/>
<circle cx="199" cy="110" r="3" fill="white"/>
<circle cx="211" cy="110" r="3" fill="white"/>
<circle cx="223" cy="110" r="3" fill="white"/>
<circle cx="235" cy="110" r="3" fill="white"/>
<path d="M262.72 116H255.008V114.288L258.656 111.104C259.232 110.592 259.675 110.107 259.984 109.648C260.304 109.189 260.464 108.704 260.464 108.192V108.016C260.464 107.429 260.304 106.981 259.984 106.672C259.664 106.352 259.2 106.192 258.592 106.192C257.973 106.192 257.493 106.357 257.152 106.688C256.821 107.019 256.581 107.44 256.432 107.952L254.864 107.36C254.971 107.008 255.125 106.672 255.328 106.352C255.531 106.021 255.787 105.728 256.096 105.472C256.416 105.216 256.789 105.013 257.216 104.864C257.653 104.715 258.155 104.64 258.72 104.64C259.296 104.64 259.808 104.725 260.256 104.896C260.715 105.056 261.099 105.28 261.408 105.568C261.717 105.856 261.952 106.203 262.112 106.608C262.272 107.003 262.352 107.44 262.352 107.92C262.352 108.368 262.283 108.784 262.144 109.168C262.016 109.541 261.829 109.904 261.584 110.256C261.349 110.597 261.067 110.928 260.736 111.248C260.405 111.568 260.043 111.888 259.648 112.208L256.944 114.48H262.72V116ZM267.93 109.44C268.644 109.44 269.172 109.291 269.514 108.992C269.866 108.683 270.042 108.299 270.042 107.84V107.728C270.042 107.216 269.871 106.827 269.53 106.56C269.199 106.283 268.751 106.144 268.186 106.144C267.642 106.144 267.178 106.267 266.794 106.512C266.42 106.757 266.106 107.093 265.85 107.52L264.634 106.48C264.804 106.235 265.002 106 265.226 105.776C265.45 105.552 265.706 105.36 265.994 105.2C266.282 105.029 266.612 104.896 266.986 104.8C267.359 104.693 267.78 104.64 268.25 104.64C268.772 104.64 269.258 104.704 269.706 104.832C270.154 104.96 270.543 105.152 270.874 105.408C271.204 105.653 271.46 105.957 271.642 106.32C271.823 106.672 271.914 107.072 271.914 107.52C271.914 107.872 271.855 108.192 271.738 108.48C271.631 108.768 271.476 109.024 271.274 109.248C271.082 109.461 270.852 109.637 270.586 109.776C270.319 109.915 270.036 110.016 269.738 110.08V110.16C270.058 110.224 270.362 110.331 270.65 110.48C270.938 110.619 271.194 110.805 271.418 111.04C271.642 111.264 271.818 111.536 271.946 111.856C272.074 112.165 272.138 112.523 272.138 112.928C272.138 113.419 272.042 113.867 271.85 114.272C271.658 114.667 271.38 115.008 271.018 115.296C270.666 115.584 270.239 115.808 269.738 115.968C269.236 116.117 268.676 116.192 268.058 116.192C267.535 116.192 267.071 116.133 266.666 116.016C266.271 115.909 265.919 115.765 265.61 115.584C265.3 115.392 265.028 115.179 264.794 114.944C264.57 114.699 264.372 114.448 264.202 114.192L265.53 113.168C265.807 113.616 266.132 113.984 266.506 114.272C266.89 114.549 267.412 114.688 268.074 114.688C268.778 114.688 269.316 114.528 269.69 114.208C270.063 113.877 270.25 113.424 270.25 112.848V112.72C270.25 112.144 270.052 111.707 269.658 111.408C269.274 111.099 268.714 110.944 267.978 110.944H266.778V109.44H267.93ZM281.364 106.384H276.292L276.004 110.352H276.132C276.388 109.915 276.697 109.568 277.06 109.312C277.422 109.045 277.918 108.912 278.548 108.912C279.028 108.912 279.47 108.992 279.876 109.152C280.292 109.312 280.649 109.541 280.948 109.84C281.257 110.139 281.497 110.507 281.668 110.944C281.849 111.371 281.94 111.856 281.94 112.4C281.94 112.955 281.849 113.467 281.668 113.936C281.486 114.395 281.225 114.795 280.884 115.136C280.542 115.467 280.121 115.728 279.62 115.92C279.118 116.101 278.548 116.192 277.908 116.192C277.406 116.192 276.958 116.133 276.564 116.016C276.18 115.909 275.833 115.765 275.524 115.584C275.225 115.392 274.964 115.179 274.74 114.944C274.516 114.699 274.318 114.448 274.148 114.192L275.46 113.168C275.598 113.381 275.742 113.584 275.892 113.776C276.052 113.957 276.228 114.117 276.42 114.256C276.612 114.395 276.83 114.501 277.076 114.576C277.332 114.651 277.62 114.688 277.94 114.688C278.633 114.688 279.161 114.501 279.524 114.128C279.886 113.744 280.068 113.227 280.068 112.576V112.448C280.068 111.797 279.881 111.291 279.508 110.928C279.145 110.565 278.622 110.384 277.94 110.384C277.438 110.384 277.044 110.475 276.756 110.656C276.468 110.837 276.217 111.04 276.004 111.264L274.516 111.056L274.932 104.832H281.364V106.384ZM287.613 116.192C286.984 116.192 286.424 116.091 285.933 115.888C285.443 115.685 285.027 115.397 284.685 115.024C284.344 114.64 284.083 114.181 283.901 113.648C283.72 113.115 283.629 112.512 283.629 111.84C283.629 111.029 283.752 110.267 283.997 109.552C284.243 108.837 284.563 108.181 284.957 107.584C285.352 106.987 285.789 106.459 286.269 106C286.749 105.531 287.224 105.141 287.693 104.832H290.093C289.453 105.291 288.877 105.733 288.365 106.16C287.853 106.587 287.405 107.024 287.021 107.472C286.648 107.92 286.333 108.395 286.077 108.896C285.821 109.387 285.624 109.936 285.485 110.544L285.597 110.576C285.715 110.352 285.853 110.144 286.013 109.952C286.173 109.749 286.36 109.573 286.573 109.424C286.787 109.275 287.032 109.157 287.309 109.072C287.587 108.987 287.901 108.944 288.253 108.944C288.733 108.944 289.176 109.024 289.581 109.184C289.987 109.344 290.339 109.579 290.637 109.888C290.936 110.187 291.165 110.549 291.325 110.976C291.496 111.403 291.581 111.883 291.581 112.416C291.581 112.971 291.485 113.483 291.293 113.952C291.112 114.411 290.845 114.805 290.493 115.136C290.152 115.467 289.736 115.728 289.245 115.92C288.755 116.101 288.211 116.192 287.613 116.192ZM287.597 114.752C288.28 114.752 288.808 114.571 289.181 114.208C289.555 113.835 289.741 113.312 289.741 112.64V112.48C289.741 111.808 289.555 111.291 289.181 110.928C288.808 110.555 288.28 110.368 287.597 110.368C286.925 110.368 286.403 110.555 286.029 110.928C285.656 111.291 285.469 111.808 285.469 112.48V112.64C285.469 113.312 285.656 113.835 286.029 114.208C286.403 114.571 286.925 114.752 287.597 114.752Z" fill="white"/>
<g opacity="0.7">
<rect x="16.5" y="94.5" width="47" height="31" rx="5.5" fill="white" stroke="#BDBDBD"/>
<path d="M16.5 100H63.5" stroke="#BDBDBD"/>
<path d="M16.5 118H63.5" stroke="#BDBDBD"/>
<path d="M36.5 112H63.5" stroke="#BDBDBD"/>
<path d="M16.5 112H27.5" stroke="#BDBDBD"/>
<path d="M36.5 106H63.5" stroke="#BDBDBD"/>
<path d="M16.5 106H27" stroke="#BDBDBD"/>
<path d="M32.5 95V100.5" stroke="#BDBDBD"/>
<path d="M32.5 118V125.5" stroke="#BDBDBD"/>
<path d="M32 100C29.2386 100 27 102.239 27 105C27 106.157 27.3931 107.222 28.053 108.07C28.4622 108.595 28.4622 109.405 28.053 109.93C27.3931 110.778 27 111.843 27 113C27 115.761 29.2386 118 32 118C34.7614 118 37 115.761 37 113C37 111.843 36.6069 110.778 35.947 109.93C35.5378 109.405 35.5378 108.595 35.947 108.07C36.4116 107.473 36.744 106.769 36.9 106" stroke="#BDBDBD"/>
</g>
</svg>
