<svg width="343" height="186" viewBox="0 0 343 186" fill="none" xmlns="http://www.w3.org/2000/svg">
<rect width="343" height="186" rx="16" fill="#4CD080"/>
<path d="M17.162 155.228H20.536C21.4227 155.228 22.1087 155.457 22.594 155.914C23.0887 156.371 23.336 156.997 23.336 157.79C23.336 158.359 23.196 158.812 22.916 159.148C22.636 159.484 22.258 159.722 21.782 159.862V159.932C22.3513 160.063 22.8087 160.315 23.154 160.688C23.4993 161.052 23.672 161.57 23.672 162.242C23.672 162.643 23.6067 163.012 23.476 163.348C23.3453 163.684 23.1587 163.978 22.916 164.23C22.6733 164.473 22.3793 164.664 22.034 164.804C21.698 164.935 21.3247 165 20.914 165H17.162V155.228ZM20.438 163.796C20.9607 163.796 21.362 163.689 21.642 163.474C21.922 163.259 22.062 162.914 22.062 162.438V161.934C22.062 161.458 21.922 161.113 21.642 160.898C21.362 160.683 20.9607 160.576 20.438 160.576H18.702V163.796H20.438ZM20.214 159.428C20.7087 159.428 21.082 159.335 21.334 159.148C21.5953 158.952 21.726 158.63 21.726 158.182V157.678C21.726 157.23 21.5953 156.913 21.334 156.726C21.082 156.53 20.7087 156.432 20.214 156.432H18.702V159.428H20.214ZM25.5145 165V163.81H27.8105V156.418H25.5145V155.228H31.6745V156.418H29.3785V163.81H31.6745V165H25.5145ZM39.2571 165L38.5151 162.396H35.4071L34.6651 165H33.0691L35.9251 155.228H38.0671L40.9231 165H39.2571ZM37.0171 156.81H36.9051L35.7011 161.094H38.2211L37.0171 156.81ZM43.6896 157.482H43.5636V165H42.1916V155.228H44.2076L47.0776 162.746H47.2036V155.228H48.5756V165H46.5596L43.6896 157.482ZM54.0581 165.168C52.8168 165.168 51.8928 164.729 51.2861 163.852C50.6888 162.975 50.3901 161.729 50.3901 160.114C50.3901 158.499 50.6888 157.253 51.2861 156.376C51.8928 155.499 52.8168 155.06 54.0581 155.06C54.5341 155.06 54.9448 155.125 55.2901 155.256C55.6448 155.377 55.9481 155.55 56.2001 155.774C56.4521 155.989 56.6621 156.245 56.8301 156.544C57.0075 156.833 57.1521 157.146 57.2641 157.482L55.8501 157.958C55.7755 157.734 55.6915 157.524 55.5981 157.328C55.5048 157.132 55.3881 156.964 55.2481 156.824C55.1081 156.684 54.9401 156.572 54.7441 156.488C54.5575 156.404 54.3241 156.362 54.0441 156.362C53.3535 156.362 52.8495 156.628 52.5321 157.16C52.2148 157.683 52.0561 158.392 52.0561 159.288V160.94C52.0561 161.836 52.2148 162.55 52.5321 163.082C52.8495 163.605 53.3535 163.866 54.0441 163.866C54.3241 163.866 54.5575 163.824 54.7441 163.74C54.9401 163.656 55.1081 163.544 55.2481 163.404C55.3881 163.264 55.5048 163.096 55.5981 162.9C55.6915 162.704 55.7755 162.494 55.8501 162.27L57.2641 162.746C57.1521 163.082 57.0075 163.399 56.8301 163.698C56.6621 163.987 56.4521 164.244 56.2001 164.468C55.9481 164.683 55.6448 164.855 55.2901 164.986C54.9448 165.107 54.5341 165.168 54.0581 165.168ZM64.4407 165L63.6987 162.396H60.5907L59.8487 165H58.2527L61.1087 155.228H63.2507L66.1067 165H64.4407ZM62.2007 156.81H62.0887L60.8847 161.094H63.4047L62.2007 156.81ZM79.2417 165.168C78.0004 165.168 77.0764 164.729 76.4697 163.852C75.8724 162.975 75.5737 161.729 75.5737 160.114C75.5737 158.499 75.8724 157.253 76.4697 156.376C77.0764 155.499 78.0004 155.06 79.2417 155.06C79.7177 155.06 80.1284 155.125 80.4737 155.256C80.8284 155.377 81.1317 155.55 81.3837 155.774C81.6357 155.989 81.8457 156.245 82.0137 156.544C82.1911 156.833 82.3357 157.146 82.4477 157.482L81.0337 157.958C80.9591 157.734 80.8751 157.524 80.7817 157.328C80.6884 157.132 80.5717 156.964 80.4317 156.824C80.2917 156.684 80.1237 156.572 79.9277 156.488C79.7411 156.404 79.5077 156.362 79.2277 156.362C78.5371 156.362 78.0331 156.628 77.7157 157.16C77.3984 157.683 77.2397 158.392 77.2397 159.288V160.94C77.2397 161.836 77.3984 162.55 77.7157 163.082C78.0331 163.605 78.5371 163.866 79.2277 163.866C79.5077 163.866 79.7411 163.824 79.9277 163.74C80.1237 163.656 80.2917 163.544 80.4317 163.404C80.5717 163.264 80.6884 163.096 80.7817 162.9C80.8751 162.704 80.9591 162.494 81.0337 162.27L82.4477 162.746C82.3357 163.082 82.1911 163.399 82.0137 163.698C81.8457 163.987 81.6357 164.244 81.3837 164.468C81.1317 164.683 80.8284 164.855 80.4737 164.986C80.1284 165.107 79.7177 165.168 79.2417 165.168ZM87.3563 165.168C86.7403 165.168 86.2036 165.056 85.7463 164.832C85.2983 164.599 84.9249 164.267 84.6263 163.838C84.3369 163.409 84.1223 162.881 83.9823 162.256C83.8423 161.631 83.7723 160.917 83.7723 160.114C83.7723 159.321 83.8423 158.611 83.9823 157.986C84.1223 157.351 84.3369 156.819 84.6263 156.39C84.9249 155.961 85.2983 155.634 85.7463 155.41C86.2036 155.177 86.7403 155.06 87.3563 155.06C87.9723 155.06 88.5043 155.177 88.9523 155.41C89.4096 155.634 89.7829 155.961 90.0723 156.39C90.3709 156.819 90.5903 157.351 90.7303 157.986C90.8703 158.611 90.9403 159.321 90.9403 160.114C90.9403 160.917 90.8703 161.631 90.7303 162.256C90.5903 162.881 90.3709 163.409 90.0723 163.838C89.7829 164.267 89.4096 164.599 88.9523 164.832C88.5043 165.056 87.9723 165.168 87.3563 165.168ZM87.3563 163.866C88.0563 163.866 88.5509 163.605 88.8403 163.082C89.1296 162.55 89.2743 161.831 89.2743 160.926V159.288C89.2743 158.392 89.1296 157.683 88.8403 157.16C88.5509 156.628 88.0563 156.362 87.3563 156.362C86.6563 156.362 86.1616 156.628 85.8723 157.16C85.5829 157.683 85.4383 158.392 85.4383 159.288V160.94C85.4383 161.836 85.5829 162.55 85.8723 163.082C86.1616 163.605 86.6563 163.866 87.3563 163.866ZM95.7508 165.168C95.1348 165.168 94.5981 165.056 94.1408 164.832C93.6928 164.599 93.3194 164.267 93.0208 163.838C92.7314 163.409 92.5168 162.881 92.3768 162.256C92.2368 161.631 92.1668 160.917 92.1668 160.114C92.1668 159.321 92.2368 158.611 92.3768 157.986C92.5168 157.351 92.7314 156.819 93.0208 156.39C93.3194 155.961 93.6928 155.634 94.1408 155.41C94.5981 155.177 95.1348 155.06 95.7508 155.06C96.3668 155.06 96.8988 155.177 97.3468 155.41C97.8041 155.634 98.1774 155.961 98.4668 156.39C98.7654 156.819 98.9848 157.351 99.1248 157.986C99.2648 158.611 99.3348 159.321 99.3348 160.114C99.3348 160.917 99.2648 161.631 99.1248 162.256C98.9848 162.881 98.7654 163.409 98.4668 163.838C98.1774 164.267 97.8041 164.599 97.3468 164.832C96.8988 165.056 96.3668 165.168 95.7508 165.168ZM95.7508 163.866C96.4508 163.866 96.9454 163.605 97.2348 163.082C97.5241 162.55 97.6688 161.831 97.6688 160.926V159.288C97.6688 158.392 97.5241 157.683 97.2348 157.16C96.9454 156.628 96.4508 156.362 95.7508 156.362C95.0508 156.362 94.5561 156.628 94.2668 157.16C93.9774 157.683 93.8328 158.392 93.8328 159.288V160.94C93.8328 161.836 93.9774 162.55 94.2668 163.082C94.5561 163.605 95.0508 163.866 95.7508 163.866ZM101.121 165V155.228H104.775C105.709 155.228 106.418 155.489 106.903 156.012C107.398 156.535 107.645 157.253 107.645 158.168C107.645 159.083 107.398 159.801 106.903 160.324C106.418 160.847 105.709 161.108 104.775 161.108H102.689V165H101.121ZM102.689 159.806H104.537C105.508 159.806 105.993 159.358 105.993 158.462V157.86C105.993 156.973 105.508 156.53 104.537 156.53H102.689V159.806ZM109.544 165V155.228H115.662V156.544H111.112V159.386H115.494V160.702H111.112V163.684H115.662V165H109.544ZM119.464 165H117.91V155.228H121.564C122.498 155.228 123.207 155.489 123.692 156.012C124.187 156.535 124.434 157.253 124.434 158.168C124.434 158.915 124.252 159.531 123.888 160.016C123.524 160.501 123.002 160.8 122.32 160.912L124.574 165H122.838L120.766 161.052H119.464V165ZM121.34 159.792C122.311 159.792 122.796 159.349 122.796 158.462V157.86C122.796 156.973 122.311 156.53 121.34 156.53H119.464V159.792H121.34Z" fill="#F2F2F2"/>
<path d="M289.227 165.168C288.611 165.168 288.075 165.056 287.617 164.832C287.169 164.599 286.796 164.267 286.497 163.838C286.208 163.409 285.993 162.881 285.853 162.256C285.713 161.631 285.643 160.917 285.643 160.114C285.643 159.321 285.713 158.611 285.853 157.986C285.993 157.351 286.208 156.819 286.497 156.39C286.796 155.961 287.169 155.634 287.617 155.41C288.075 155.177 288.611 155.06 289.227 155.06C289.843 155.06 290.375 155.177 290.823 155.41C291.281 155.634 291.654 155.961 291.943 156.39C292.242 156.819 292.461 157.351 292.601 157.986C292.741 158.611 292.811 159.321 292.811 160.114C292.811 160.917 292.741 161.631 292.601 162.256C292.461 162.881 292.242 163.409 291.943 163.838C291.654 164.267 291.281 164.599 290.823 164.832C290.375 165.056 289.843 165.168 289.227 165.168ZM289.227 163.88C289.937 163.88 290.441 163.619 290.739 163.096C291.047 162.564 291.201 161.85 291.201 160.954V159.274C291.201 158.378 291.047 157.669 290.739 157.146C290.441 156.614 289.937 156.348 289.227 156.348C288.873 156.348 288.569 156.418 288.317 156.558C288.065 156.689 287.86 156.885 287.701 157.146C287.543 157.398 287.426 157.706 287.351 158.07C287.286 158.425 287.253 158.826 287.253 159.274V160.954C287.253 161.402 287.286 161.808 287.351 162.172C287.426 162.527 287.543 162.835 287.701 163.096C287.86 163.348 288.065 163.544 288.317 163.684C288.569 163.815 288.873 163.88 289.227 163.88ZM289.227 160.94C288.901 160.94 288.672 160.875 288.541 160.744C288.42 160.613 288.359 160.455 288.359 160.268V159.96C288.359 159.773 288.42 159.615 288.541 159.484C288.672 159.353 288.901 159.288 289.227 159.288C289.554 159.288 289.778 159.353 289.899 159.484C290.03 159.615 290.095 159.773 290.095 159.96V160.268C290.095 160.455 290.03 160.613 289.899 160.744C289.778 160.875 289.554 160.94 289.227 160.94ZM301.052 165H294.304V163.502L297.496 160.716C298 160.268 298.387 159.843 298.658 159.442C298.938 159.041 299.078 158.616 299.078 158.168V158.014C299.078 157.501 298.938 157.109 298.658 156.838C298.378 156.558 297.972 156.418 297.44 156.418C296.899 156.418 296.479 156.563 296.18 156.852C295.891 157.141 295.681 157.51 295.55 157.958L294.178 157.44C294.271 157.132 294.407 156.838 294.584 156.558C294.761 156.269 294.985 156.012 295.256 155.788C295.536 155.564 295.863 155.387 296.236 155.256C296.619 155.125 297.057 155.06 297.552 155.06C298.056 155.06 298.504 155.135 298.896 155.284C299.297 155.424 299.633 155.62 299.904 155.872C300.175 156.124 300.38 156.427 300.52 156.782C300.66 157.127 300.73 157.51 300.73 157.93C300.73 158.322 300.669 158.686 300.548 159.022C300.436 159.349 300.273 159.666 300.058 159.974C299.853 160.273 299.605 160.562 299.316 160.842C299.027 161.122 298.709 161.402 298.364 161.682L295.998 163.67H301.052V165ZM302.978 166.932L307.696 154.36H309.054L304.336 166.932H302.978ZM317.841 165H311.093V163.502L314.285 160.716C314.789 160.268 315.176 159.843 315.447 159.442C315.727 159.041 315.867 158.616 315.867 158.168V158.014C315.867 157.501 315.727 157.109 315.447 156.838C315.167 156.558 314.761 156.418 314.229 156.418C313.688 156.418 313.268 156.563 312.969 156.852C312.68 157.141 312.47 157.51 312.339 157.958L310.967 157.44C311.06 157.132 311.196 156.838 311.373 156.558C311.55 156.269 311.774 156.012 312.045 155.788C312.325 155.564 312.652 155.387 313.025 155.256C313.408 155.125 313.846 155.06 314.341 155.06C314.845 155.06 315.293 155.135 315.685 155.284C316.086 155.424 316.422 155.62 316.693 155.872C316.964 156.124 317.169 156.427 317.309 156.782C317.449 157.127 317.519 157.51 317.519 157.93C317.519 158.322 317.458 158.686 317.337 159.022C317.225 159.349 317.062 159.666 316.847 159.974C316.642 160.273 316.394 160.562 316.105 160.842C315.816 161.122 315.498 161.402 315.153 161.682L312.787 163.67H317.841V165ZM319.837 165V163.698H322.581V156.376H322.469L320.201 158.798L319.235 157.93L321.727 155.228H324.149V163.698H326.515V165H319.837Z" fill="#F2F2F2"/>
<ellipse opacity="0.6" cx="295.846" cy="30" rx="13.8462" ry="14" fill="white"/>
<ellipse opacity="0.4" cx="313.154" cy="30" rx="13.8462" ry="14" fill="white"/>
<path fill-rule="evenodd" clip-rule="evenodd" d="M304.5 40.9295C307.665 38.3638 309.692 34.4212 309.692 30C309.692 25.5789 307.665 21.6364 304.5 19.0707C301.335 21.6364 299.308 25.5789 299.308 30.0002C299.308 34.4213 301.334 38.3638 304.5 40.9295Z" fill="white"/>
<path d="M22.072 62.24C20.872 62.144 19.816 61.88 18.904 61.448C18.008 61 17.28 60.416 16.72 59.696L18.808 57.416C19.32 57.96 19.864 58.384 20.44 58.688C21.032 58.992 21.656 59.192 22.312 59.288V54.872L21.76 54.776C20.224 54.504 19.088 53.944 18.352 53.096C17.616 52.232 17.248 51.184 17.248 49.952C17.248 48.592 17.664 47.488 18.496 46.64C19.328 45.792 20.52 45.264 22.072 45.056V42.536H24.808V45.032C25.816 45.16 26.672 45.416 27.376 45.8C28.096 46.184 28.696 46.656 29.176 47.216L27.112 49.52C26.44 48.784 25.592 48.304 24.568 48.08V52.088L25.12 52.184C26.656 52.472 27.792 53.032 28.528 53.864C29.264 54.68 29.632 55.696 29.632 56.912C29.632 57.568 29.52 58.184 29.296 58.76C29.088 59.336 28.776 59.848 28.36 60.296C27.96 60.744 27.456 61.128 26.848 61.448C26.256 61.752 25.576 61.976 24.808 62.12V64.712H22.072V62.24ZM20.632 49.832C20.632 50.344 20.76 50.736 21.016 51.008C21.288 51.264 21.72 51.472 22.312 51.632V48.008C21.72 48.104 21.288 48.304 21.016 48.608C20.76 48.912 20.632 49.32 20.632 49.832ZM26.272 57.152C26.272 56.608 26.136 56.2 25.864 55.928C25.592 55.656 25.16 55.448 24.568 55.304V59.264C25.144 59.136 25.568 58.896 25.84 58.544C26.128 58.176 26.272 57.712 26.272 57.152ZM43.7106 62H31.6626V58.712L36.9426 54.32C37.8546 53.536 38.5106 52.856 38.9106 52.28C39.3106 51.704 39.5106 51.096 39.5106 50.456V50.216C39.5106 49.512 39.3026 48.984 38.8866 48.632C38.4706 48.264 37.9106 48.08 37.2066 48.08C36.4066 48.08 35.7906 48.312 35.3586 48.776C34.9266 49.24 34.6226 49.792 34.4466 50.432L31.3026 49.232C31.4946 48.656 31.7586 48.112 32.0946 47.6C32.4306 47.072 32.8546 46.616 33.3666 46.232C33.8946 45.848 34.5026 45.544 35.1906 45.32C35.8786 45.08 36.6706 44.96 37.5666 44.96C38.4786 44.96 39.2946 45.088 40.0146 45.344C40.7346 45.6 41.3426 45.952 41.8386 46.4C42.3346 46.848 42.7106 47.384 42.9666 48.008C43.2226 48.616 43.3506 49.28 43.3506 50C43.3506 50.704 43.2306 51.352 42.9906 51.944C42.7666 52.52 42.4466 53.064 42.0306 53.576C41.6306 54.088 41.1506 54.584 40.5906 55.064C40.0466 55.544 39.4626 56.024 38.8386 56.504L35.6466 58.976H43.7106V62ZM52.0773 62.288C51.0693 62.288 50.1653 62.136 49.3653 61.832C48.5813 61.512 47.9173 61.064 47.3733 60.488C46.8293 59.896 46.4133 59.192 46.1253 58.376C45.8373 57.56 45.6933 56.648 45.6933 55.64C45.6933 54.472 45.8773 53.368 46.2453 52.328C46.6133 51.272 47.0853 50.304 47.6613 49.424C48.2533 48.528 48.9093 47.728 49.6293 47.024C50.3653 46.32 51.0933 45.728 51.8133 45.248H56.7812C55.7413 45.968 54.8053 46.664 53.9733 47.336C53.1573 47.992 52.4373 48.656 51.8133 49.328C51.2053 49.984 50.7013 50.664 50.3013 51.368C49.9173 52.072 49.6373 52.832 49.4613 53.648L49.6773 53.72C49.8213 53.4 49.9973 53.088 50.2053 52.784C50.4133 52.48 50.6693 52.216 50.9733 51.992C51.2773 51.752 51.6293 51.56 52.0293 51.416C52.4453 51.272 52.9253 51.2 53.4693 51.2C54.1733 51.2 54.8293 51.328 55.4373 51.584C56.0453 51.824 56.5653 52.176 56.9973 52.64C57.4453 53.088 57.7973 53.632 58.0533 54.272C58.3093 54.912 58.4373 55.632 58.4373 56.432C58.4373 57.28 58.2853 58.064 57.9813 58.784C57.6773 59.504 57.2453 60.128 56.6853 60.656C56.1413 61.168 55.4773 61.568 54.6933 61.856C53.9093 62.144 53.0373 62.288 52.0773 62.288ZM52.0533 59.48C52.9173 59.48 53.5733 59.256 54.0213 58.808C54.4693 58.344 54.6933 57.696 54.6933 56.864V56.528C54.6933 55.696 54.4613 55.064 53.9973 54.632C53.5493 54.184 52.9013 53.96 52.0533 53.96C51.2373 53.96 50.5973 54.184 50.1333 54.632C49.6693 55.064 49.4373 55.696 49.4373 56.528V56.864C49.4373 57.696 49.6533 58.344 50.0853 58.808C50.5333 59.256 51.1893 59.48 52.0533 59.48ZM64.6199 57.824H69.1799L65.8919 65.624H63.2519L64.6199 57.824ZM87.0505 51.608C87.0505 52.792 86.8665 53.904 86.4985 54.944C86.1305 55.984 85.6505 56.952 85.0585 57.848C84.4825 58.728 83.8265 59.52 83.0905 60.224C82.3705 60.928 81.6505 61.52 80.9305 62H75.9625C77.0025 61.28 77.9305 60.592 78.7465 59.936C79.5785 59.264 80.2985 58.6 80.9065 57.944C81.5305 57.272 82.0345 56.584 82.4185 55.88C82.8185 55.176 83.1065 54.416 83.2825 53.6L83.0665 53.528C82.9225 53.848 82.7385 54.16 82.5145 54.464C82.3065 54.768 82.0505 55.04 81.7465 55.28C81.4585 55.504 81.1065 55.688 80.6905 55.832C80.2905 55.976 79.8185 56.048 79.2745 56.048C78.5705 56.048 77.9145 55.928 77.3065 55.688C76.6985 55.432 76.1705 55.08 75.7225 54.632C75.2905 54.168 74.9465 53.616 74.6905 52.976C74.4345 52.336 74.3065 51.616 74.3065 50.816C74.3065 49.968 74.4585 49.184 74.7625 48.464C75.0665 47.744 75.4905 47.128 76.0345 46.616C76.5945 46.088 77.2665 45.68 78.0505 45.392C78.8345 45.104 79.7065 44.96 80.6665 44.96C81.6745 44.96 82.5705 45.12 83.3545 45.44C84.1545 45.744 84.8265 46.192 85.3705 46.784C85.9145 47.36 86.3305 48.056 86.6185 48.872C86.9065 49.688 87.0505 50.6 87.0505 51.608ZM80.6905 53.288C81.5065 53.288 82.1465 53.072 82.6105 52.64C83.0745 52.192 83.3065 51.552 83.3065 50.72V50.384C83.3065 49.552 83.0825 48.912 82.6345 48.464C82.2025 48 81.5545 47.768 80.6905 47.768C79.8265 47.768 79.1705 48 78.7225 48.464C78.2745 48.912 78.0505 49.552 78.0505 50.384V50.72C78.0505 51.552 78.2745 52.192 78.7225 52.64C79.1865 53.072 79.8425 53.288 80.6905 53.288ZM95.2491 62.288C94.2411 62.288 93.3371 62.136 92.5371 61.832C91.7531 61.512 91.0891 61.064 90.5451 60.488C90.0011 59.896 89.5851 59.192 89.2971 58.376C89.0091 57.56 88.8651 56.648 88.8651 55.64C88.8651 54.472 89.0491 53.368 89.4171 52.328C89.7851 51.272 90.2571 50.304 90.8331 49.424C91.4251 48.528 92.0811 47.728 92.8011 47.024C93.5371 46.32 94.2651 45.728 94.9851 45.248H99.9531C98.9131 45.968 97.9771 46.664 97.1451 47.336C96.3291 47.992 95.6091 48.656 94.9851 49.328C94.3771 49.984 93.8731 50.664 93.4731 51.368C93.0891 52.072 92.8091 52.832 92.6331 53.648L92.8491 53.72C92.9931 53.4 93.1691 53.088 93.3771 52.784C93.5851 52.48 93.8411 52.216 94.1451 51.992C94.4491 51.752 94.8011 51.56 95.2011 51.416C95.6171 51.272 96.0971 51.2 96.6411 51.2C97.3451 51.2 98.0011 51.328 98.6091 51.584C99.2171 51.824 99.7371 52.176 100.169 52.64C100.617 53.088 100.969 53.632 101.225 54.272C101.481 54.912 101.609 55.632 101.609 56.432C101.609 57.28 101.457 58.064 101.153 58.784C100.849 59.504 100.417 60.128 99.8571 60.656C99.3131 61.168 98.6491 61.568 97.8651 61.856C97.0811 62.144 96.2091 62.288 95.2491 62.288ZM95.2251 59.48C96.0891 59.48 96.7451 59.256 97.1931 58.808C97.6411 58.344 97.8651 57.696 97.8651 56.864V56.528C97.8651 55.696 97.6331 55.064 97.1691 54.632C96.7211 54.184 96.0731 53.96 95.2251 53.96C94.4091 53.96 93.7691 54.184 93.3051 54.632C92.8411 55.064 92.6091 55.696 92.6091 56.528V56.864C92.6091 57.696 92.8251 58.344 93.2571 58.808C93.7051 59.256 94.3611 59.48 95.2251 59.48ZM109.544 62.288C108.536 62.288 107.64 62.168 106.856 61.928C106.072 61.672 105.408 61.328 104.864 60.896C104.32 60.464 103.904 59.952 103.616 59.36C103.344 58.752 103.208 58.096 103.208 57.392C103.208 56.304 103.52 55.432 104.144 54.776C104.768 54.104 105.568 53.632 106.544 53.36V53.168C105.712 52.864 105.032 52.4 104.504 51.776C103.976 51.152 103.712 50.352 103.712 49.376C103.712 48.736 103.84 48.144 104.096 47.6C104.352 47.056 104.728 46.592 105.224 46.208C105.72 45.808 106.328 45.504 107.048 45.296C107.768 45.072 108.6 44.96 109.544 44.96C110.472 44.96 111.296 45.072 112.016 45.296C112.752 45.504 113.368 45.808 113.864 46.208C114.36 46.592 114.736 47.056 114.992 47.6C115.248 48.144 115.376 48.736 115.376 49.376C115.376 50.352 115.112 51.152 114.584 51.776C114.056 52.4 113.376 52.864 112.544 53.168V53.36C113.52 53.632 114.32 54.104 114.944 54.776C115.568 55.432 115.88 56.304 115.88 57.392C115.88 58.096 115.736 58.752 115.448 59.36C115.176 59.952 114.768 60.464 114.224 60.896C113.68 61.328 113.016 61.672 112.232 61.928C111.448 62.168 110.552 62.288 109.544 62.288ZM109.544 59.528C110.376 59.528 111.008 59.336 111.44 58.952C111.888 58.568 112.112 58.048 112.112 57.392V56.912C112.112 56.24 111.896 55.72 111.464 55.352C111.032 54.968 110.392 54.776 109.544 54.776C108.696 54.776 108.056 54.968 107.624 55.352C107.192 55.72 106.976 56.24 106.976 56.912V57.392C106.976 58.048 107.192 58.568 107.624 58.952C108.072 59.336 108.712 59.528 109.544 59.528ZM109.544 52.136C110.344 52.136 110.952 51.952 111.368 51.584C111.784 51.216 111.992 50.72 111.992 50.096V49.736C111.992 49.112 111.776 48.624 111.344 48.272C110.928 47.904 110.328 47.72 109.544 47.72C108.76 47.72 108.152 47.904 107.72 48.272C107.304 48.624 107.096 49.112 107.096 49.736V50.096C107.096 50.72 107.304 51.216 107.72 51.584C108.136 51.952 108.744 52.136 109.544 52.136ZM123.934 62.288C123.038 62.288 122.39 62.096 121.99 61.712C121.606 61.312 121.414 60.84 121.414 60.296V59.456C121.414 58.912 121.606 58.448 121.99 58.064C122.39 57.664 123.038 57.464 123.934 57.464C124.83 57.464 125.47 57.664 125.854 58.064C126.254 58.448 126.454 58.912 126.454 59.456V60.296C126.454 60.84 126.254 61.312 125.854 61.712C125.47 62.096 124.83 62.288 123.934 62.288ZM138.325 62.288C136.085 62.288 134.429 61.528 133.357 60.008C132.301 58.488 131.773 56.36 131.773 53.624C131.773 50.888 132.301 48.76 133.357 47.24C134.429 45.72 136.085 44.96 138.325 44.96C140.565 44.96 142.213 45.72 143.269 47.24C144.341 48.76 144.877 50.888 144.877 53.624C144.877 56.36 144.341 58.488 143.269 60.008C142.213 61.528 140.565 62.288 138.325 62.288ZM138.325 59.456C139.397 59.456 140.141 59.08 140.557 58.328C140.989 57.576 141.205 56.528 141.205 55.184V52.064C141.205 50.72 140.989 49.672 140.557 48.92C140.141 48.168 139.397 47.792 138.325 47.792C137.253 47.792 136.501 48.168 136.069 48.92C135.653 49.672 135.445 50.72 135.445 52.064V55.184C135.445 56.528 135.653 57.576 136.069 58.328C136.501 59.08 137.253 59.456 138.325 59.456ZM138.325 55.04C137.765 55.04 137.373 54.928 137.149 54.704C136.941 54.48 136.837 54.208 136.837 53.888V53.36C136.837 53.04 136.941 52.768 137.149 52.544C137.373 52.32 137.765 52.208 138.325 52.208C138.885 52.208 139.269 52.32 139.477 52.544C139.701 52.768 139.813 53.04 139.813 53.36V53.888C139.813 54.208 139.701 54.48 139.477 54.704C139.269 54.928 138.885 55.04 138.325 55.04ZM152.716 62.288C150.476 62.288 148.82 61.528 147.748 60.008C146.692 58.488 146.164 56.36 146.164 53.624C146.164 50.888 146.692 48.76 147.748 47.24C148.82 45.72 150.476 44.96 152.716 44.96C154.956 44.96 156.604 45.72 157.66 47.24C158.732 48.76 159.268 50.888 159.268 53.624C159.268 56.36 158.732 58.488 157.66 60.008C156.604 61.528 154.956 62.288 152.716 62.288ZM152.716 59.456C153.788 59.456 154.532 59.08 154.948 58.328C155.38 57.576 155.596 56.528 155.596 55.184V52.064C155.596 50.72 155.38 49.672 154.948 48.92C154.532 48.168 153.788 47.792 152.716 47.792C151.644 47.792 150.892 48.168 150.46 48.92C150.044 49.672 149.836 50.72 149.836 52.064V55.184C149.836 56.528 150.044 57.576 150.46 58.328C150.892 59.08 151.644 59.456 152.716 59.456ZM152.716 55.04C152.156 55.04 151.764 54.928 151.54 54.704C151.332 54.48 151.228 54.208 151.228 53.888V53.36C151.228 53.04 151.332 52.768 151.54 52.544C151.764 52.32 152.156 52.208 152.716 52.208C153.276 52.208 153.66 52.32 153.868 52.544C154.092 52.768 154.204 53.04 154.204 53.36V53.888C154.204 54.208 154.092 54.48 153.868 54.704C153.66 54.928 153.276 55.04 152.716 55.04Z" fill="white"/>
<path d="M17.232 21.228H20.55C21.39 21.228 22.048 21.4567 22.524 21.914C23 22.3713 23.238 22.9827 23.238 23.748C23.238 24.336 23.0933 24.798 22.804 25.134C22.524 25.47 22.16 25.708 21.712 25.848V25.89C22.2627 26.0207 22.7153 26.268 23.07 26.632C23.4247 26.9867 23.602 27.5047 23.602 28.186C23.602 28.578 23.5367 28.9467 23.406 29.292C23.2753 29.6373 23.0887 29.936 22.846 30.188C22.6127 30.44 22.3327 30.6407 22.006 30.79C21.6887 30.93 21.3433 31 20.97 31H17.232V21.228ZM20.62 29.978C21.1613 29.978 21.586 29.8567 21.894 29.614C22.202 29.3713 22.356 28.998 22.356 28.494V27.92C22.356 27.4253 22.202 27.0567 21.894 26.814C21.586 26.562 21.1613 26.436 20.62 26.436H18.408V29.978H20.62ZM20.424 25.47C20.9187 25.47 21.306 25.3627 21.586 25.148C21.866 24.924 22.006 24.588 22.006 24.14V23.594C22.006 23.146 21.866 22.81 21.586 22.586C21.306 22.362 20.9187 22.25 20.424 22.25H18.408V25.47H20.424ZM31.3245 31C30.8859 31 30.5732 30.888 30.3865 30.664C30.1999 30.44 30.0832 30.16 30.0365 29.824H29.9665C29.8079 30.244 29.5512 30.5753 29.1965 30.818C28.8512 31.0513 28.3845 31.168 27.7965 31.168C27.0405 31.168 26.4385 30.972 25.9905 30.58C25.5425 30.188 25.3185 29.6513 25.3185 28.97C25.3185 28.298 25.5612 27.78 26.0465 27.416C26.5412 27.052 27.3345 26.87 28.4265 26.87H29.9665V26.156C29.9665 25.624 29.8172 25.2273 29.5185 24.966C29.2199 24.6953 28.7952 24.56 28.2445 24.56C27.7592 24.56 27.3625 24.658 27.0545 24.854C26.7465 25.0407 26.4992 25.2973 26.3125 25.624L25.5565 25.064C25.6499 24.8773 25.7759 24.6953 25.9345 24.518C26.0932 24.3407 26.2892 24.1867 26.5225 24.056C26.7559 23.916 27.0219 23.8087 27.3205 23.734C27.6192 23.65 27.9505 23.608 28.3145 23.608C29.1639 23.608 29.8359 23.8227 30.3305 24.252C30.8345 24.6813 31.0865 25.2787 31.0865 26.044V30.02H32.0945V31H31.3245ZM27.9925 30.23C28.2819 30.23 28.5432 30.1973 28.7765 30.132C29.0192 30.0573 29.2292 29.964 29.4065 29.852C29.5839 29.7307 29.7192 29.5907 29.8125 29.432C29.9152 29.264 29.9665 29.0867 29.9665 28.9V27.71H28.4265C27.7545 27.71 27.2645 27.8033 26.9565 27.99C26.6485 28.1767 26.4945 28.4473 26.4945 28.802V29.096C26.4945 29.4693 26.6252 29.754 26.8865 29.95C27.1572 30.1367 27.5259 30.23 27.9925 30.23ZM33.9091 30.048H36.4291V21.592H33.9091V20.64H37.5491V30.048H40.0691V31H33.9091V30.048ZM48.1136 31C47.6749 31 47.3623 30.888 47.1756 30.664C46.9889 30.44 46.8723 30.16 46.8256 29.824H46.7556C46.5969 30.244 46.3403 30.5753 45.9856 30.818C45.6403 31.0513 45.1736 31.168 44.5856 31.168C43.8296 31.168 43.2276 30.972 42.7796 30.58C42.3316 30.188 42.1076 29.6513 42.1076 28.97C42.1076 28.298 42.3503 27.78 42.8356 27.416C43.3303 27.052 44.1236 26.87 45.2156 26.87H46.7556V26.156C46.7556 25.624 46.6063 25.2273 46.3076 24.966C46.0089 24.6953 45.5843 24.56 45.0336 24.56C44.5483 24.56 44.1516 24.658 43.8436 24.854C43.5356 25.0407 43.2883 25.2973 43.1016 25.624L42.3456 25.064C42.4389 24.8773 42.5649 24.6953 42.7236 24.518C42.8823 24.3407 43.0783 24.1867 43.3116 24.056C43.5449 23.916 43.8109 23.8087 44.1096 23.734C44.4083 23.65 44.7396 23.608 45.1036 23.608C45.9529 23.608 46.6249 23.8227 47.1196 24.252C47.6236 24.6813 47.8756 25.2787 47.8756 26.044V30.02H48.8836V31H48.1136ZM44.7816 30.23C45.0709 30.23 45.3323 30.1973 45.5656 30.132C45.8083 30.0573 46.0183 29.964 46.1956 29.852C46.3729 29.7307 46.5083 29.5907 46.6016 29.432C46.7043 29.264 46.7556 29.0867 46.7556 28.9V27.71H45.2156C44.5436 27.71 44.0536 27.8033 43.7456 27.99C43.4376 28.1767 43.2836 28.4473 43.2836 28.802V29.096C43.2836 29.4693 43.4143 29.754 43.6756 29.95C43.9463 30.1367 44.3149 30.23 44.7816 30.23ZM50.9501 31V23.776H52.0701V24.952H52.1261C52.2008 24.7747 52.2941 24.6067 52.4061 24.448C52.5181 24.28 52.6535 24.1353 52.8121 24.014C52.9801 23.8927 53.1761 23.7947 53.4001 23.72C53.6241 23.6453 53.8855 23.608 54.1841 23.608C54.9401 23.608 55.5468 23.8507 56.0041 24.336C56.4615 24.812 56.6901 25.4887 56.6901 26.366V31H55.5701V26.562C55.5701 25.8993 55.4255 25.4093 55.1361 25.092C54.8468 24.7653 54.4221 24.602 53.8621 24.602C53.6381 24.602 53.4188 24.63 53.2041 24.686C52.9895 24.742 52.7981 24.826 52.6301 24.938C52.4621 25.05 52.3268 25.1947 52.2241 25.372C52.1215 25.5493 52.0701 25.7547 52.0701 25.988V31H50.9501ZM62.4247 31.168C61.902 31.168 61.4353 31.0793 61.0247 30.902C60.6233 30.7153 60.2827 30.4587 60.0027 30.132C59.7227 29.8053 59.508 29.4087 59.3587 28.942C59.2187 28.4753 59.1487 27.9573 59.1487 27.388C59.1487 26.8187 59.2233 26.3007 59.3727 25.834C59.522 25.3673 59.7367 24.9707 60.0167 24.644C60.2967 24.308 60.6373 24.0513 61.0387 23.874C61.44 23.6967 61.8973 23.608 62.4107 23.608C63.1107 23.608 63.68 23.762 64.1187 24.07C64.5573 24.378 64.8793 24.7793 65.0847 25.274L64.1887 25.75C64.058 25.3767 63.8387 25.0873 63.5307 24.882C63.232 24.6767 62.8587 24.574 62.4107 24.574C62.084 24.574 61.79 24.63 61.5287 24.742C61.2767 24.8447 61.062 24.994 60.8847 25.19C60.7073 25.386 60.572 25.6193 60.4787 25.89C60.3947 26.1607 60.3527 26.4547 60.3527 26.772V28.004C60.3527 28.3213 60.3947 28.6153 60.4787 28.886C60.572 29.1567 60.7073 29.39 60.8847 29.586C61.062 29.782 61.2813 29.936 61.5427 30.048C61.804 30.1507 62.1027 30.202 62.4387 30.202C62.924 30.202 63.3253 30.09 63.6427 29.866C63.96 29.642 64.212 29.334 64.3987 28.942L65.1967 29.488C64.982 29.9733 64.646 30.3747 64.1887 30.692C63.7407 31.0093 63.1527 31.168 62.4247 31.168ZM70.6932 31.168C70.1705 31.168 69.6992 31.0793 69.2792 30.902C68.8685 30.7247 68.5139 30.4727 68.2152 30.146C67.9259 29.81 67.7019 29.4133 67.5432 28.956C67.3845 28.4893 67.3052 27.9713 67.3052 27.402C67.3052 26.8233 67.3845 26.3007 67.5432 25.834C67.7112 25.3673 67.9399 24.9707 68.2292 24.644C68.5185 24.308 68.8639 24.0513 69.2652 23.874C69.6759 23.6967 70.1285 23.608 70.6232 23.608C71.1085 23.608 71.5472 23.6967 71.9392 23.874C72.3405 24.0513 72.6812 24.2987 72.9612 24.616C73.2412 24.924 73.4559 25.2927 73.6052 25.722C73.7545 26.1513 73.8292 26.6227 73.8292 27.136V27.668H68.4812V28.004C68.4812 28.3213 68.5325 28.6153 68.6352 28.886C68.7379 29.1567 68.8825 29.39 69.0692 29.586C69.2652 29.782 69.4985 29.936 69.7692 30.048C70.0492 30.1507 70.3572 30.202 70.6932 30.202C71.1785 30.202 71.5985 30.09 71.9532 29.866C72.3079 29.642 72.5785 29.334 72.7652 28.942L73.5912 29.502C73.3765 29.9873 73.0172 30.3887 72.5132 30.706C72.0185 31.014 71.4119 31.168 70.6932 31.168ZM70.6232 24.532C70.3152 24.532 70.0305 24.588 69.7692 24.7C69.5079 24.812 69.2792 24.966 69.0832 25.162C68.8965 25.358 68.7472 25.5913 68.6352 25.862C68.5325 26.1233 68.4812 26.4127 68.4812 26.73V26.828H72.6252V26.674C72.6252 26.3567 72.5739 26.0673 72.4712 25.806C72.3779 25.5447 72.2425 25.3207 72.0652 25.134C71.8972 24.938 71.6872 24.7887 71.4352 24.686C71.1925 24.5833 70.9219 24.532 70.6232 24.532Z" fill="#F2F2F2"/>
<circle cx="83" cy="110" r="3" fill="white"/>
<circle cx="95" cy="110" r="3" fill="white"/>
<circle cx="107" cy="110" r="3" fill="white"/>
<circle cx="119" cy="110" r="3" fill="white"/>
<circle cx="141" cy="110" r="3" fill="white"/>
<circle cx="153" cy="110" r="3" fill="white"/>
<circle cx="165" cy="110" r="3" fill="white"/>
<circle cx="177" cy="110" r="3" fill="white"/>
<circle cx="199" cy="110" r="3" fill="white"/>
<circle cx="211" cy="110" r="3" fill="white"/>
<circle cx="223" cy="110" r="3" fill="white"/>
<circle cx="235" cy="110" r="3" fill="white"/>
<path d="M258.336 109.44C259.051 109.44 259.579 109.291 259.92 108.992C260.272 108.683 260.448 108.299 260.448 107.84V107.728C260.448 107.216 260.277 106.827 259.936 106.56C259.605 106.283 259.157 106.144 258.592 106.144C258.048 106.144 257.584 106.267 257.2 106.512C256.827 106.757 256.512 107.093 256.256 107.52L255.04 106.48C255.211 106.235 255.408 106 255.632 105.776C255.856 105.552 256.112 105.36 256.4 105.2C256.688 105.029 257.019 104.896 257.392 104.8C257.765 104.693 258.187 104.64 258.656 104.64C259.179 104.64 259.664 104.704 260.112 104.832C260.56 104.96 260.949 105.152 261.28 105.408C261.611 105.653 261.867 105.957 262.048 106.32C262.229 106.672 262.32 107.072 262.32 107.52C262.32 107.872 262.261 108.192 262.144 108.48C262.037 108.768 261.883 109.024 261.68 109.248C261.488 109.461 261.259 109.637 260.992 109.776C260.725 109.915 260.443 110.016 260.144 110.08V110.16C260.464 110.224 260.768 110.331 261.056 110.48C261.344 110.619 261.6 110.805 261.824 111.04C262.048 111.264 262.224 111.536 262.352 111.856C262.48 112.165 262.544 112.523 262.544 112.928C262.544 113.419 262.448 113.867 262.256 114.272C262.064 114.667 261.787 115.008 261.424 115.296C261.072 115.584 260.645 115.808 260.144 115.968C259.643 116.117 259.083 116.192 258.464 116.192C257.941 116.192 257.477 116.133 257.072 116.016C256.677 115.909 256.325 115.765 256.016 115.584C255.707 115.392 255.435 115.179 255.2 114.944C254.976 114.699 254.779 114.448 254.608 114.192L255.936 113.168C256.213 113.616 256.539 113.984 256.912 114.272C257.296 114.549 257.819 114.688 258.48 114.688C259.184 114.688 259.723 114.528 260.096 114.208C260.469 113.877 260.656 113.424 260.656 112.848V112.72C260.656 112.144 260.459 111.707 260.064 111.408C259.68 111.099 259.12 110.944 258.384 110.944H257.184V109.44H258.336ZM266.298 116L270.442 106.32H266.09V108.384H264.538V104.832H272.234V106.4L268.202 116H266.298ZM278.02 116.192C277.39 116.192 276.83 116.091 276.34 115.888C275.849 115.685 275.433 115.397 275.092 115.024C274.75 114.64 274.489 114.181 274.308 113.648C274.126 113.115 274.036 112.512 274.036 111.84C274.036 111.029 274.158 110.267 274.404 109.552C274.649 108.837 274.969 108.181 275.364 107.584C275.758 106.987 276.196 106.459 276.676 106C277.156 105.531 277.63 105.141 278.1 104.832H280.5C279.86 105.291 279.284 105.733 278.772 106.16C278.26 106.587 277.812 107.024 277.428 107.472C277.054 107.92 276.74 108.395 276.484 108.896C276.228 109.387 276.03 109.936 275.892 110.544L276.004 110.576C276.121 110.352 276.26 110.144 276.42 109.952C276.58 109.749 276.766 109.573 276.98 109.424C277.193 109.275 277.438 109.157 277.716 109.072C277.993 108.987 278.308 108.944 278.66 108.944C279.14 108.944 279.582 109.024 279.988 109.184C280.393 109.344 280.745 109.579 281.044 109.888C281.342 110.187 281.572 110.549 281.732 110.976C281.902 111.403 281.988 111.883 281.988 112.416C281.988 112.971 281.892 113.483 281.7 113.952C281.518 114.411 281.252 114.805 280.9 115.136C280.558 115.467 280.142 115.728 279.652 115.92C279.161 116.101 278.617 116.192 278.02 116.192ZM278.004 114.752C278.686 114.752 279.214 114.571 279.588 114.208C279.961 113.835 280.148 113.312 280.148 112.64V112.48C280.148 111.808 279.961 111.291 279.588 110.928C279.214 110.555 278.686 110.368 278.004 110.368C277.332 110.368 276.809 110.555 276.436 110.928C276.062 111.291 275.876 111.808 275.876 112.48V112.64C275.876 113.312 276.062 113.835 276.436 114.208C276.809 114.571 277.332 114.752 278.004 114.752ZM290.957 106.384H285.885L285.597 110.352H285.725C285.981 109.915 286.291 109.568 286.653 109.312C287.016 109.045 287.512 108.912 288.141 108.912C288.621 108.912 289.064 108.992 289.469 109.152C289.885 109.312 290.243 109.541 290.541 109.84C290.851 110.139 291.091 110.507 291.261 110.944C291.443 111.371 291.533 111.856 291.533 112.4C291.533 112.955 291.443 113.467 291.261 113.936C291.08 114.395 290.819 114.795 290.477 115.136C290.136 115.467 289.715 115.728 289.213 115.92C288.712 116.101 288.141 116.192 287.501 116.192C287 116.192 286.552 116.133 286.157 116.016C285.773 115.909 285.427 115.765 285.117 115.584C284.819 115.392 284.557 115.179 284.333 114.944C284.109 114.699 283.912 114.448 283.741 114.192L285.053 113.168C285.192 113.381 285.336 113.584 285.485 113.776C285.645 113.957 285.821 114.117 286.013 114.256C286.205 114.395 286.424 114.501 286.669 114.576C286.925 114.651 287.213 114.688 287.533 114.688C288.227 114.688 288.755 114.501 289.117 114.128C289.48 113.744 289.661 113.227 289.661 112.576V112.448C289.661 111.797 289.475 111.291 289.101 110.928C288.739 110.565 288.216 110.384 287.533 110.384C287.032 110.384 286.637 110.475 286.349 110.656C286.061 110.837 285.811 111.04 285.597 111.264L284.109 111.056L284.525 104.832H290.957V106.384Z" fill="white"/>
<g opacity="0.7">
<rect x="16.5" y="94.5" width="47" height="31" rx="5.5" fill="white" stroke="#BDBDBD"/>
<path d="M16.5 100H63.5" stroke="#BDBDBD"/>
<path d="M16.5 118H63.5" stroke="#BDBDBD"/>
<path d="M36.5 112H63.5" stroke="#BDBDBD"/>
<path d="M16.5 112H27.5" stroke="#BDBDBD"/>
<path d="M36.5 106H63.5" stroke="#BDBDBD"/>
<path d="M16.5 106H27" stroke="#BDBDBD"/>
<path d="M32.5 95V100.5" stroke="#BDBDBD"/>
<path d="M32.5 118V125.5" stroke="#BDBDBD"/>
<path d="M32 100C29.2386 100 27 102.239 27 105C27 106.157 27.3931 107.222 28.053 108.07C28.4622 108.595 28.4622 109.405 28.053 109.93C27.3931 110.778 27 111.843 27 113C27 115.761 29.2386 118 32 118C34.7614 118 37 115.761 37 113C37 111.843 36.6069 110.778 35.947 109.93C35.5378 109.405 35.5378 108.595 35.947 108.07C36.4116 107.473 36.744 106.769 36.9 106" stroke="#BDBDBD"/>
</g>
</svg>
