<svg width="48" height="48" viewBox="0 0 48 48" fill="none" xmlns="http://www.w3.org/2000/svg">
<rect opacity="0.3" width="48" height="48" rx="16" fill="#4CD080"/>
<mask id="mask0_156_7065" style="mask-type:alpha" maskUnits="userSpaceOnUse" x="0" y="0" width="48" height="48">
<rect width="48" height="48" rx="16" fill="#4CD080"/>
</mask>
<g mask="url(#mask0_156_7065)">
<path d="M36 44.6667C36 45.5507 35.6552 46.3986 35.0414 47.0237C34.4277 47.6488 33.5953 48 32.7273 48H3.27273C2.40475 48 1.57232 47.6488 0.95856 47.0237C0.344804 46.3986 0 45.5507 0 44.6667V26.3333C0 25.4493 0.344804 24.6014 0.95856 23.9763C1.57232 23.3512 2.40475 23 3.27273 23H9.81818L13.0909 18H22.9091L26.1818 23H32.7273C33.5953 23 34.4277 23.3512 35.0414 23.9763C35.6552 24.6014 36 25.4493 36 26.3333V44.6667Z" fill="#4CD080"/>
<path d="M18 40C21.3137 40 24 37.3137 24 34C24 30.6863 21.3137 28 18 28C14.6863 28 12 30.6863 12 34C12 37.3137 14.6863 40 18 40Z" fill="#3BAE68"/>
<path d="M16.5 38C18.9853 38 21 35.9853 21 33.5C21 31.0147 18.9853 29 16.5 29C14.0147 29 12 31.0147 12 33.5C12 35.9853 14.0147 38 16.5 38Z" fill="#EDFAF2"/>
</g>
<rect opacity="0.2" x="22.5" y="10.5" width="5.83333" height="15" fill="white"/>
<path d="M28.2353 10.5C27.9906 10.5 26.1773 10.5 24.4999 10.5C23.3953 10.5 22.5 11.3954 22.5 12.5V16.0714M32.2059 10.5H35.5C36.6046 10.5 37.5 11.3954 37.5 12.5V16.0714M22.5 20.7857V23.5C22.5 24.6046 23.3954 25.5 24.5 25.5H28.2353M37.5 20.7857V23.5C37.5 24.6046 36.6046 25.5 35.5 25.5H32.2059" stroke="white" stroke-width="1.5"/>
</svg>
