<svg width="24" height="24" viewBox="0 0 24 24" fill="none" xmlns="http://www.w3.org/2000/svg">
<path d="M11.9991 8.25146C11.2574 8.25146 10.5324 8.4714 9.9157 8.88345C9.29902 9.29551 8.81837 9.88118 8.53454 10.5664C8.25071 11.2516 8.17645 12.0056 8.32115 12.7331C8.46584 13.4605 8.82299 14.1287 9.34744 14.6531C9.87189 15.1776 10.5401 15.5347 11.2675 15.6794C11.9949 15.8241 12.7489 15.7498 13.4342 15.466C14.1194 15.1822 14.705 14.7015 15.1171 14.0849C15.5292 13.4682 15.7491 12.7431 15.7491 12.0015C15.7461 11.0078 15.3501 10.0557 14.6475 9.35309C13.9448 8.65047 12.9927 8.25443 11.9991 8.25146ZM20.0953 12.0015C20.0934 12.3519 20.0677 12.7017 20.0185 13.0487L22.3008 14.8355C22.4002 14.9176 22.4672 15.0324 22.4898 15.1593C22.5124 15.2862 22.4891 15.417 22.4241 15.5283L20.265 19.2558C20.1994 19.3662 20.097 19.4499 19.9757 19.4921C19.8545 19.5344 19.7222 19.5326 19.6022 19.4869L16.9186 18.4088C16.3598 18.8391 15.7483 19.1962 15.0989 19.4715L14.6977 22.3205C14.6752 22.4481 14.6091 22.564 14.5107 22.6483C14.4123 22.7326 14.2877 22.7801 14.1582 22.7827H9.84003C9.71283 22.7802 9.59023 22.7347 9.49224 22.6536C9.39425 22.5725 9.32666 22.4605 9.3005 22.336L8.89925 19.4869C8.24809 19.2149 7.63613 18.8572 7.07956 18.4233L4.39597 19.5015C4.27601 19.5471 4.14379 19.549 4.02256 19.5069C3.90133 19.4647 3.79886 19.3811 3.73315 19.2708L1.57409 15.5438C1.5091 15.4325 1.48582 15.3017 1.5084 15.1747C1.53099 15.0478 1.59797 14.9331 1.69737 14.851L3.97972 13.0641C3.93103 12.7119 3.90535 12.357 3.90284 12.0015C3.90479 11.6511 3.93047 11.3012 3.97972 10.9543L1.69737 9.1674C1.59797 9.08532 1.53099 8.97057 1.5084 8.84365C1.48582 8.71673 1.5091 8.58592 1.57409 8.47459L3.73315 4.74709C3.79879 4.63674 3.90123 4.55308 4.02246 4.51081C4.1437 4.46854 4.27595 4.47038 4.39597 4.516L7.07956 5.59412C7.63837 5.16381 8.24988 4.8067 8.89925 4.53146L9.3005 1.6824C9.32295 1.55478 9.38903 1.43893 9.48744 1.35463C9.58585 1.27033 9.71048 1.22282 9.84003 1.22021H14.1582C14.2853 1.22269 14.4079 1.26821 14.5059 1.34934C14.6039 1.43048 14.6715 1.54243 14.6977 1.66693L15.0989 4.516C15.7509 4.78786 16.3637 5.14555 16.921 5.57959L19.6022 4.50146C19.7222 4.4558 19.8544 4.4539 19.9756 4.49608C20.0968 4.53826 20.1993 4.62183 20.265 4.73209L22.4241 8.45959C22.4891 8.57092 22.5124 8.70174 22.4898 8.82865C22.4672 8.95557 22.4002 9.07032 22.3008 9.1524L20.0185 10.9393C20.0671 11.2913 20.0928 11.6461 20.0953 12.0015Z" fill="#105D38"/>
</svg>
