<svg width="32" height="32" viewBox="0 0 32 32" fill="none" xmlns="http://www.w3.org/2000/svg">
<g clip-path="url(#clip0_166_4936)">
<path d="M32.0001 15.9995C32.0001 24.8351 24.8367 31.998 16.0002 31.998C7.1636 31.998 0.000244141 24.8351 0.000244141 15.9995C0.000244141 7.16381 7.16371 0.000976562 16.0002 0.000976562C24.8367 0.000976562 32.0001 7.16381 32.0001 15.9995Z" fill="white"/>
<path d="M15.8656 5.68902C16.4289 6.01198 17.0264 6.42762 17.4811 6.86819L17.3026 7.04669C16.405 6.95177 15.4598 7.07034 14.6089 7.0834C14.5141 6.98815 14.3229 6.84497 14.5009 6.72533L15.8656 5.68902ZM31.7349 16.7796C31.7469 17.1825 31.7849 17.5286 31.6269 17.9411C29.9873 18.4051 28.9103 16.6782 27.3194 16.9385L27.4993 17.8337C28.9711 17.8818 29.8905 19.286 31.4109 19.2256C31.1949 19.6547 31.5073 20.7856 30.5503 20.3336C29.5568 20.096 28.8384 19.2256 27.7499 19.2256C27.6186 19.4654 27.7018 19.7976 27.6787 20.0815C28.8271 20.2606 29.6532 21.2263 30.8012 21.4046C30.6932 21.7971 30.5863 22.2366 30.2627 22.4759C29.3287 22.2498 28.5991 21.4153 27.6047 21.4392L27.4277 22.2611C28.3725 22.2853 28.9833 23.117 29.8325 23.3668C29.8558 23.7134 29.5444 24.0233 29.3648 24.3327C28.6109 24.1075 28.036 23.4631 27.1745 23.5107C27.1626 23.1877 27.3552 22.8212 27.2825 22.4759C26.315 22.7623 25.6662 21.868 24.9491 21.3314C24.9286 19.576 23.0708 18.4242 22.9727 16.7797C22.9538 16.4517 23.004 16.1018 23.1543 15.7255C23.7649 14.3212 23.5731 12.4978 22.9037 11.1884C22.7 10.8437 22.3398 10.5718 22.0038 10.3691C22.4952 11.4054 23.0943 12.6298 22.7952 13.9034C22.7606 14.8869 22.1771 15.8316 22.1705 16.7797C22.1683 17.1178 22.2409 17.4558 22.4364 17.7972C23.2145 19.1917 24.6149 20.5119 24.0883 22.2609C23.9436 22.7981 23.5126 23.2134 23.4048 23.7602C24.3154 24.5104 25.1764 25.3559 26.3847 25.4034C26.8152 25.1299 26.5761 23.9169 27.4617 24.4765L28.7548 25.12C28.6607 25.4642 28.3708 25.7729 28.1083 26.01C27.6177 25.7725 27.1391 25.4877 26.5273 25.5109C26.347 25.7014 26.1918 25.9151 26.2055 26.1883C26.636 26.2588 27.031 26.4394 27.3905 26.69C27.2234 27.0477 26.898 27.2718 26.5989 27.5458L25.5959 27.1891C25.4284 27.4275 25.0805 27.6779 25.2026 27.9396C25.429 28.036 25.68 28.1663 25.8465 28.3333C25.4039 28.8094 24.8426 29.1158 24.3026 29.4389C23.8375 27.9265 22.3048 26.8662 22.4365 25.1172L22.3653 25.0463C22.0051 25.4494 22.1254 26.0936 22.1486 26.6165C22.5798 27.7119 23.6081 28.5581 23.7641 29.7594C23.5841 30.0687 23.1782 30.1303 22.8665 30.2611C22.9029 28.0952 19.6001 26.4525 21.7181 24.2616C22.4244 23.1888 23.6079 22.165 23.1886 20.688C22.7581 19.2619 21.2353 18.3783 21.2488 16.7797L21.2512 16.6549C21.5979 14.9879 22.6516 13.2139 21.7897 11.4404C21.5494 10.7271 21.0127 9.91645 20.2829 9.61831C21.3712 10.8574 21.8025 12.8793 21.18 14.5468C20.8661 15.2102 20.4341 16.0002 20.3909 16.7799H20.3882C20.3651 17.1871 20.4485 17.5922 20.7128 17.976C21.539 19.3099 22.9743 20.7749 22.1487 22.5131C21.2154 23.9054 19.5879 25.3216 20.4969 27.1555C21.155 28.2505 22.1731 29.3433 21.8983 30.6897L20.8215 31.0466C21.5394 28.5354 18.0206 27.0599 19.4938 24.5478C20.4031 23.2027 22.0297 21.9405 21.1089 20.1552C20.5585 19.049 19.4212 18.3943 19.4569 17.012L19.4962 16.7798C19.8668 14.8193 21.365 12.9634 20.3173 10.8684C20.042 10.2497 19.492 9.61906 18.8814 9.26164L18.8446 9.29823C20.0658 10.4768 20.4372 12.4159 19.7788 13.9747C19.4717 14.8892 18.7974 15.8002 18.6605 16.7801C18.5952 17.2423 18.6501 17.7212 18.9184 18.2257C19.6962 19.4509 21.0602 20.7505 20.2091 22.3345C19.3128 23.6428 17.8164 24.9159 18.4141 26.6173C19.0726 28.1058 20.447 29.524 19.705 31.3696L18.5935 31.6193C19.4788 29.8206 18.1515 28.0356 17.3739 26.4757C16.428 24.2374 19.406 23.1657 19.4539 21.1195C19.4426 19.7986 18.0311 19.0487 17.733 17.8346C17.122 17.3218 16.4888 18.0384 15.7585 17.9054C15.2194 18.0131 14.3913 17.1671 14.0695 18.0843C13.6863 19.4288 11.9401 20.4172 12.7074 22.012C13.4377 23.4292 15.195 24.4654 14.608 26.2995C14.0824 28.0124 12.3461 29.6435 13.423 31.6193C12.9805 31.4767 12.1546 31.7497 12.1665 31.0467C11.4847 28.6541 14.3922 27.26 13.4942 24.8686C13.0763 23.4038 11.1721 22.5947 11.5913 20.8328C11.9013 19.3826 13.5371 18.3687 13.3077 16.7801C13.2873 16.6405 13.2543 16.503 13.2091 16.3692C12.5985 14.655 11.3529 12.9402 12.0953 10.9395C12.2992 10.3682 12.7063 9.88017 13.0641 9.3694C11.8793 10 11.2816 11.3337 11.3062 12.6905C11.2545 14.166 12.3502 15.43 12.506 16.7801C12.5673 17.3251 12.4776 17.8831 12.0953 18.475C11.3181 19.5241 10.3017 20.6302 10.7677 22.0117C11.2107 23.4051 12.9577 24.2493 12.8502 25.8688C12.8382 27.7848 10.6004 28.9776 11.2346 31.1203L10.1208 30.7608C9.67859 28.8568 11.7126 27.8827 11.7359 26.121C12.0238 24.0952 9.42644 23.3436 9.58231 21.3686C9.57113 19.8682 10.8988 18.9179 11.4852 17.6558C11.5856 17.3487 11.6192 17.0586 11.6058 16.7802C11.5339 15.3848 10.2699 14.2939 10.4797 12.7249C10.5503 11.5702 10.9452 10.558 11.6993 9.68969C10.6588 10.1054 10.2289 11.297 9.9415 12.2972C9.44269 13.901 10.6334 15.3435 10.7527 16.7802C10.8056 17.4148 10.6499 18.0457 10.0497 18.6906C9.18763 19.7012 8.31339 20.9764 8.93581 22.3347C9.5949 23.8335 11.6656 25 10.7674 26.8692C10.2774 28.048 9.10416 28.9402 9.15235 30.3327C8.84146 30.2017 8.51896 30.0711 8.25476 29.8336C8.25476 28.0602 10.7907 26.9526 9.58242 25.0836C9.47539 25.4522 9.45237 25.9535 9.36857 26.3701C8.94925 27.4539 8.0521 28.3214 7.71637 29.4419C7.15494 29.2264 6.56792 28.7735 6.10095 28.2973L6.74778 27.9036C6.67592 27.6649 6.48477 27.4628 6.31749 27.2604C5.89753 27.2018 5.62171 27.476 5.27533 27.5834C4.97617 27.3209 4.68745 27.0828 4.44896 26.7613C4.66367 26.1531 6.34137 26.656 5.49144 25.6558C4.91765 25.299 4.34171 25.8088 3.83924 26.0468L3.15809 25.1909C3.74447 24.8341 4.32934 24.3329 5.05868 24.4767C5.23843 24.7987 5.25091 25.2721 5.59719 25.4403C6.82997 25.4165 7.70345 24.4888 8.64848 23.7624C7.98981 22.7875 7.45367 21.4415 8.03876 20.2623C8.50745 19.0809 9.72904 18.0857 9.78434 16.7795C9.79692 16.4823 9.75034 16.1695 9.61964 15.8329C8.97378 14.1779 8.74583 11.9411 9.97861 10.4763C9.30833 10.6555 8.91311 11.4866 8.68538 12.1176C7.94431 13.7336 8.88159 15.2308 8.91397 16.7794C8.91838 17.0581 8.89568 17.3371 8.8278 17.6184C8.19334 18.892 7.16538 20.0096 6.99843 21.4752C6.26822 21.9386 5.66872 22.7489 4.62828 22.4755C4.59171 22.749 4.67551 23.1659 4.77092 23.4758C3.94584 23.4413 3.38324 24.0463 2.68864 24.3319C2.31849 24.2138 2.22221 23.7379 2.07892 23.405C2.89206 23.1318 3.47866 22.3208 4.41228 22.3336C4.5205 22.0345 4.35161 21.7604 4.30395 21.475C3.1426 20.9623 1.30171 24.0099 1.14692 21.3676C2.30741 21.2962 3.0489 20.2245 4.19832 20.1177L4.23263 19.2618C2.92832 19.1308 2.08925 20.4646 0.785471 20.3332L0.497933 19.1909C2.0061 19.2847 2.90465 17.9402 4.34096 17.8678C4.53179 17.6182 4.55481 17.2492 4.5916 16.9043C3.02384 16.7009 1.94812 18.4294 0.284078 17.9045C0.284078 17.9045 0.22674 17.1852 0.195651 16.7795H0.197913C0.191615 16.6897 0.184262 16.6001 0.175859 16.5105C1.65961 17.0831 2.96328 16.0229 4.23263 15.4758C4.55546 15.3797 5.0589 15.5463 5.20358 15.1894C5.19121 14.9156 5.69314 14.5954 5.27522 14.4044C3.41949 14.1537 2.18671 16.3805 0.283861 15.368L0.141113 15.0816C0.536657 9.70135 3.58677 4.49989 8.64826 1.94025C10.6981 0.774882 13.2447 0.180961 15.813 0.159772C18.9124 0.134089 22.0445 0.943001 24.3743 2.58361C26.6366 3.96408 28.8007 6.23927 29.9751 8.54893C31.0985 10.5726 31.6154 12.8434 31.7699 15.2607C29.8069 16.7362 28.49 13.8707 26.4911 14.512C26.5987 14.822 26.6584 15.143 26.887 15.4048C28.6586 15.3923 29.8784 17.2377 31.733 16.5104L31.7349 16.7796ZM9.18645 10.1535C7.94162 9.34382 6.36353 10.1063 5.20347 10.5473C5.09579 9.46346 4.65335 8.47606 3.7308 7.76185C3.6413 7.71744 3.5176 7.62434 3.40615 7.61739C3.33946 7.61321 3.27599 7.64007 3.22672 7.72483C3.64485 10.2839 1.97264 12.0695 0.787625 14.0108C1.1822 14.3315 1.81612 14.2836 2.29471 14.1893C3.55094 13.6896 4.74758 12.8197 6.24337 13.1178C6.68582 12.3679 7.42893 11.6415 8.03833 11.0464C8.41074 10.7258 8.92214 10.5224 9.18645 10.1535ZM12.9925 11.7606C12.9685 11.9147 13.0044 12.1895 13.2432 12.0832C13.6148 11.5714 14.2726 11.9764 14.6792 12.0124V11.8684C14.4561 11.5198 13.9972 11.3449 13.531 11.3622C13.4234 11.366 13.3141 11.3816 13.2089 11.406C13.053 11.4404 12.9444 11.5823 12.9925 11.7606ZM18.8441 10.2271C18.5099 9.48882 17.7439 9.19005 17.0491 9.01144C16.7083 8.96971 16.3548 8.94156 16.0041 8.93814C15.9383 8.9375 15.8727 8.93664 15.8072 8.93814C14.8264 8.95783 13.8891 9.20835 13.3165 10.0116C13.2343 10.2383 12.873 10.5568 13.2085 10.76C13.9625 10.7122 14.8228 10.6181 15.3254 11.2617C15.3254 11.8338 15.6967 12.5947 15.0746 12.8685C14.5593 12.3938 13.9489 13.0707 13.3881 12.6897C13.1245 12.5346 12.9576 12.7155 12.8496 12.9417C12.6937 14.4174 13.4706 16.0462 14.8584 16.8674C15.4209 17.0692 16.177 17.2611 16.7641 16.9748C18.176 16.3207 18.7608 14.8217 19.0239 13.4406C18.9887 13.1778 19.001 12.6656 18.6304 12.6531C18.2119 12.9166 17.6014 12.7609 17.1579 12.6531C16.8955 12.7373 16.8835 13.1191 16.585 13.1915L16.4031 13.0471C16.2472 12.3933 16.1511 11.4645 16.7621 11.012C17.4448 10.7382 18.2465 10.6187 18.9524 10.8335C19.0842 10.6073 18.8809 10.4294 18.8441 10.2271ZM18.1237 11.4008C18.0762 11.4021 18.0302 11.4045 17.9833 11.406C17.7326 11.5724 17.0019 11.4527 17.2658 12.0124C17.7207 11.6544 18.355 11.9053 18.8097 12.0832C18.9777 12.0003 18.9414 11.8336 18.9523 11.6898C18.8062 11.4196 18.4575 11.3943 18.1237 11.4008ZM23.3337 6.36748C22.448 6.32072 21.7063 6.821 20.8924 7.04722C20.8216 6.35828 21.3476 5.63069 21.4677 4.93907C20.1518 5.02329 19.1095 5.81133 18.0207 6.44078C17.768 5.83383 17.5165 5.22643 17.266 4.61857L18.7021 3.26122L18.7389 3.08229L16.799 2.97485C16.465 2.39249 16.3332 1.69102 15.9384 1.15531C15.6153 1.7625 15.3982 2.40501 15.0754 3.01145L13.138 3.11921V3.26122L14.6084 4.58197C14.4287 5.26086 14.2616 5.99849 13.8192 6.51151C12.9577 5.99817 12.1083 5.43957 11.1638 5.083C10.9365 5.01012 10.6125 4.89145 10.4091 5.0464C10.7078 5.70143 11.1262 6.4059 11.0558 7.12074C10.6606 7.0484 10.3501 6.79638 9.97883 6.69044C9.53487 6.56984 9.0082 6.33452 8.57748 6.4777C9.29563 7.47698 9.8818 8.52303 10.0846 9.72575C12.467 8.58178 15.2454 7.95266 18.1294 8.4416C19.4813 8.65552 20.7243 9.20342 21.9332 9.65459C21.9805 8.39355 22.782 7.38025 23.3337 6.36748ZM27.425 13.2254C28.6447 13.5464 29.8681 14.8685 31.1596 14.0108C30.0347 12.154 28.3606 10.4392 28.8263 8.01119C28.875 7.84543 28.7672 7.67763 28.6124 7.65409C27.8828 7.95073 27.3176 8.6659 27.0288 9.36876C26.9101 9.78461 26.8399 10.2265 26.6727 10.6185C25.7984 10.1658 24.8658 9.72746 23.8008 9.8333C23.4166 9.88092 22.8662 9.90596 22.7952 10.2983C24.0037 10.9408 24.9976 12.0129 25.7383 13.1549C26.2542 13.0713 26.8866 13.1427 27.425 13.2254ZM14.6448 14.9036L14.6792 15.1188C15.1468 15.4286 15.2906 15.9538 15.9381 15.9062C16.5121 15.94 16.9429 15.4049 17.2288 14.9767C16.4521 14.8699 15.5065 15.035 14.6448 14.9036ZM15.2912 13.9399C15.3145 14.0352 15.2319 14.178 15.3624 14.2263C15.7455 14.1436 16.4392 14.429 16.6531 13.9765C16.5036 13.8101 16.26 13.7346 16.0041 13.7346C15.7484 13.7346 15.4831 13.8086 15.2912 13.9399Z" fill="#106E33"/>
<path opacity="0.99" d="M14.6465 13.5273H17.2705V14.5996H14.6465V13.5273Z" fill="white"/>
<path d="M15.1309 14.101C15.47 14.1808 15.5539 14.3004 15.8217 14.3339C16.1068 14.3288 16.0657 14.2713 16.5624 14.1007C16.5952 14.0892 16.6399 14.0175 16.5844 13.9626C16.2758 13.6581 16.0625 13.8757 15.8693 13.8815C15.6125 13.8842 15.372 13.663 15.1213 13.9506C15.0786 14.009 15.0564 14.0664 15.1309 14.101Z" fill="#106E33"/>
</g>
<defs>
<clipPath id="clip0_166_4936">
<rect width="32" height="32" fill="white"/>
</clipPath>
</defs>
</svg>
