<svg width="48" height="48" viewBox="0 0 48 48" fill="none" xmlns="http://www.w3.org/2000/svg">
<rect width="48" height="48" rx="16" fill="#105D38"/>
<g clip-path="url(#clip0_166_4610)">
<path d="M36.0002 23.9998C36.0002 30.6266 30.6276 35.9987 24.0002 35.9987C17.3728 35.9987 12.0002 30.6266 12.0002 23.9998C12.0002 17.3731 17.3728 12.001 24.0002 12.001C30.6276 12.001 36.0002 17.3731 36.0002 23.9998Z" fill="white"/>
<path d="M23.8993 16.2665C24.3218 16.5087 24.7699 16.8205 25.111 17.1509L24.9771 17.2848C24.3039 17.2136 23.5949 17.3025 22.9568 17.3123C22.8857 17.2409 22.7423 17.1335 22.8758 17.0438L23.8993 16.2665ZM35.8013 24.5845C35.8103 24.8866 35.8388 25.1462 35.7203 25.4556C34.4906 25.8036 33.6828 24.5084 32.4897 24.7036L32.6246 25.375C33.7284 25.4111 34.418 26.4642 35.5583 26.419C35.3963 26.7408 35.6306 27.589 34.9129 27.25C34.1677 27.0718 33.6289 26.419 32.8125 26.419C32.714 26.5988 32.7765 26.8479 32.7591 27.0609C33.6205 27.1952 34.24 27.9195 35.101 28.0532C35.02 28.3476 34.9398 28.6772 34.6971 28.8567C33.9967 28.6871 33.4494 28.0612 32.7036 28.0791L32.5709 28.6956C33.2795 28.7137 33.7376 29.3375 34.3745 29.5248C34.392 29.7848 34.1584 30.0172 34.0237 30.2493C33.4583 30.0804 33.0272 29.5971 32.381 29.6328C32.372 29.3906 32.5165 29.1157 32.462 28.8567C31.7364 29.0714 31.2498 28.4007 30.712 27.9983C30.6966 26.6817 29.3032 25.8179 29.2297 24.5845C29.2155 24.3385 29.2531 24.0761 29.3658 23.7939C29.8238 22.7407 29.6799 21.3731 29.1779 20.3911C29.0251 20.1325 28.7549 19.9286 28.503 19.7766C28.8715 20.5538 29.3208 21.4721 29.0965 22.4273C29.0706 23.1649 28.633 23.8734 28.628 24.5845C28.6263 24.8381 28.6808 25.0916 28.8274 25.3476C29.411 26.3935 30.4613 27.3837 30.0664 28.6954C29.9578 29.0983 29.6346 29.4098 29.5537 29.8199C30.2367 30.3826 30.8825 31.0167 31.7886 31.0523C32.1115 30.8472 31.9322 29.9375 32.5964 30.3571L33.5663 30.8397C33.4957 31.0979 33.2782 31.3294 33.0814 31.5072C32.7134 31.3292 32.3545 31.1155 31.8956 31.1329C31.7604 31.2758 31.644 31.4361 31.6542 31.641C31.9771 31.6939 32.2734 31.8293 32.543 32.0172C32.4177 32.2855 32.1736 32.4536 31.9493 32.6591L31.197 32.3916C31.0714 32.5704 30.8105 32.7582 30.9021 32.9545C31.0719 33.0267 31.2601 33.1245 31.385 33.2498C31.053 33.6068 30.6321 33.8366 30.2271 34.0789C29.8782 32.9446 28.7287 32.1494 28.8275 30.8376L28.7741 30.7845C28.504 31.0868 28.5941 31.5699 28.6116 31.9622C28.9349 32.7837 29.7062 33.4183 29.8232 34.3193C29.6882 34.5513 29.3838 34.5975 29.15 34.6956C29.1773 33.0712 26.7002 31.8391 28.2887 30.196C28.8184 29.3914 29.7061 28.6235 29.3916 27.5158C29.0687 26.4462 27.9266 25.7835 27.9367 24.5845L27.9385 24.491C28.1986 23.2407 28.9888 21.9102 28.3424 20.5801C28.1622 20.0451 27.7597 19.4371 27.2123 19.2135C28.0285 20.1428 28.352 21.6592 27.8851 22.9098C27.6497 23.4074 27.3257 23.9999 27.2933 24.5847H27.2913C27.2739 24.8901 27.3365 25.1939 27.5347 25.4818C28.1544 26.4822 29.2309 27.581 28.6117 28.8846C27.9117 29.9288 26.6911 30.9909 27.3728 32.3663C27.8663 33.1876 28.63 34.0073 28.4238 35.017L27.6162 35.2847C28.1547 33.4013 25.5156 32.2947 26.6205 30.4106C27.3025 29.4018 28.5224 28.4551 27.8318 27.1162C27.419 26.2865 26.566 25.7955 26.5928 24.7588L26.6223 24.5846C26.9002 23.1143 28.0239 21.7223 27.2381 20.1511C27.0316 19.687 26.6191 19.2141 26.1612 18.946L26.1336 18.9734C27.0495 19.8573 27.328 21.3117 26.8342 22.4808C26.6039 23.1667 26.0982 23.8499 25.9955 24.5849C25.9465 24.9315 25.9877 25.2907 26.1889 25.669C26.7722 26.5879 27.7953 27.5627 27.1569 28.7507C26.4847 29.7318 25.3625 30.6867 25.8107 31.9627C26.3045 33.0791 27.3354 34.1427 26.7789 35.527L25.9453 35.7142C26.6092 34.3652 25.6138 33.0265 25.0305 31.8565C24.3211 30.1778 26.5547 29.374 26.5906 27.8394C26.5821 26.8487 25.5234 26.2863 25.2998 25.3757C24.8416 24.9911 24.3667 25.5286 23.819 25.4288C23.4147 25.5096 22.7936 24.8751 22.5522 25.563C22.2649 26.5714 20.9552 27.3126 21.5307 28.5088C22.0784 29.5716 23.3964 30.3488 22.9561 31.7244C22.5619 33.0091 21.2597 34.2324 22.0674 35.7142C21.7355 35.6073 21.1161 35.8121 21.125 35.2847C20.6137 33.4903 22.7943 32.4448 22.1208 30.6512C21.8073 29.5526 20.3792 28.9458 20.6936 27.6244C20.9261 26.5367 22.153 25.7763 21.9809 24.5849C21.9656 24.4801 21.9408 24.377 21.907 24.2767C21.449 22.991 20.5148 21.7049 21.0716 20.2044C21.2245 19.7759 21.5299 19.4099 21.7982 19.0268C20.9096 19.4998 20.4614 20.5 20.4797 21.5177C20.441 22.6243 21.2627 23.5722 21.3796 24.5849C21.4256 24.9935 21.3583 25.4121 21.0716 25.856C20.4887 26.6428 19.7264 27.4724 20.0759 28.5085C20.4082 29.5536 21.7184 30.1867 21.6377 31.4014C21.6288 32.8384 19.9504 33.7329 20.4261 35.34L19.5907 35.0704C19.2591 33.6423 20.7846 32.9118 20.8021 31.5905C21.018 30.0712 19.07 29.5074 19.1869 28.0262C19.1785 26.9009 20.1742 26.1882 20.614 25.2416C20.6894 25.0113 20.7145 24.7937 20.7044 24.5849C20.6505 23.5384 19.7026 22.7202 19.8599 21.5434C19.9128 20.6774 20.209 19.9182 20.7746 19.267C19.9942 19.5788 19.6718 20.4725 19.4562 21.2226C19.0821 22.4255 19.9752 23.5074 20.0646 24.5849C20.1043 25.0609 19.9875 25.534 19.5374 26.0177C18.8908 26.7756 18.2352 27.7321 18.702 28.7508C19.1963 29.8749 20.7493 30.7498 20.0757 32.1517C19.7082 33.0358 18.8282 33.7049 18.8644 34.7493C18.6312 34.651 18.3893 34.5531 18.1912 34.3749C18.1912 33.0449 20.0931 32.2142 19.1869 30.8124C19.1067 31.0889 19.0894 31.4649 19.0265 31.7773C18.7121 32.5902 18.0392 33.2408 17.7874 34.0812C17.3663 33.9195 16.9261 33.5799 16.5758 33.2227L17.061 32.9274C17.0071 32.7485 16.8637 32.5969 16.7382 32.4451C16.4233 32.4011 16.2164 32.6067 15.9566 32.6873C15.7323 32.4904 15.5157 32.3119 15.3368 32.0708C15.4979 31.6146 16.7562 31.9918 16.1187 31.2416C15.6884 30.974 15.2564 31.3564 14.8795 31.5349L14.3687 30.8929C14.8085 30.6254 15.2471 30.2494 15.7941 30.3573C15.9289 30.5988 15.9383 30.9539 16.198 31.0799C17.1226 31.0621 17.7777 30.3664 18.4865 29.8216C17.9925 29.0904 17.5904 28.0809 18.0292 27.1965C18.3807 26.3104 19.2969 25.564 19.3384 24.5844C19.3478 24.3615 19.3129 24.1269 19.2149 23.8744C18.7305 22.6332 18.5595 20.9556 19.4841 19.857C18.9814 19.9914 18.685 20.6147 18.5142 21.088C17.9584 22.3 18.6613 23.4229 18.6856 24.5843C18.6889 24.7933 18.6719 25.0026 18.621 25.2135C18.1451 26.1688 17.3742 27.0069 17.2489 28.1062C16.7013 28.4537 16.2517 29.0614 15.4713 28.8564C15.4439 29.0615 15.5068 29.3742 15.5783 29.6066C14.9595 29.5807 14.5376 30.0345 14.0166 30.2487C13.739 30.1601 13.6668 29.8032 13.5593 29.5535C14.1692 29.3486 14.6091 28.7404 15.3093 28.7499C15.3905 28.5256 15.2638 28.3201 15.2281 28.106C14.3571 27.7215 12.9764 30.0072 12.8603 28.0254C13.7307 27.9719 14.2868 27.1681 15.1489 27.088L15.1746 26.4461C14.1964 26.3478 13.5671 27.3482 12.5892 27.2496L12.3736 26.393C13.5047 26.4633 14.1786 25.4549 15.2558 25.4006C15.399 25.2134 15.4162 24.9366 15.4438 24.678C14.268 24.5255 13.4612 25.8218 12.2132 25.4282C12.2132 25.4282 12.1702 24.8886 12.1469 24.5844H12.1486C12.1438 24.5171 12.1383 24.4498 12.132 24.3826C13.2448 24.8121 14.2226 24.0169 15.1746 23.6066C15.4167 23.5345 15.7943 23.6595 15.9028 23.3918C15.8935 23.1864 16.27 22.9463 15.9565 22.803C14.5647 22.6151 13.6402 24.2851 12.213 23.5258L12.106 23.311C12.4026 19.2758 14.6902 15.3747 18.4863 13.4549C20.0237 12.5809 21.9337 12.1355 23.8599 12.1196C26.1844 12.1003 28.5335 12.707 30.2808 13.9375C31.9776 14.9728 33.6006 16.6792 34.4815 18.4115C35.324 19.9292 35.7117 21.6323 35.8275 23.4453C34.3553 24.5519 33.3676 22.4028 31.8684 22.8838C31.9491 23.1163 31.9939 23.357 32.1653 23.5534C33.494 23.544 34.4089 24.9281 35.7999 24.3825L35.8013 24.5845ZM18.89 19.6149C17.9563 19.0076 16.7728 19.5795 15.9027 19.9102C15.822 19.0974 15.4901 18.3568 14.7982 17.8211C14.7311 17.7878 14.6383 17.718 14.5547 17.7128C14.5047 17.7097 14.4571 17.7298 14.4202 17.7934C14.7338 19.7127 13.4796 21.0519 12.5908 22.5078C12.8868 22.7484 13.3622 22.7125 13.7212 22.6417C14.6633 22.267 15.5608 21.6145 16.6827 21.8381C17.0145 21.2757 17.5718 20.7309 18.0289 20.2846C18.3082 20.0441 18.6917 19.8915 18.89 19.6149ZM21.7445 20.8202C21.7265 20.9358 21.7534 21.1419 21.9325 21.0622C22.2112 20.6783 22.7046 20.9821 23.0095 21.0091V20.901C22.8422 20.6396 22.498 20.5084 22.1484 20.5214C22.0677 20.5243 21.9857 20.5359 21.9068 20.5542C21.7899 20.5801 21.7084 20.6865 21.7445 20.8202ZM26.1332 19.6701C25.8825 19.1164 25.3081 18.8923 24.787 18.7583C24.5314 18.727 24.2662 18.7059 24.0032 18.7034C23.9539 18.7029 23.9047 18.7022 23.8555 18.7034C23.1199 18.7181 22.4169 18.906 21.9875 19.5084C21.9258 19.6785 21.6548 19.9174 21.9065 20.0698C22.472 20.0339 23.1172 19.9634 23.4942 20.446C23.4942 20.8751 23.7727 21.4458 23.3061 21.6511C22.9196 21.2951 22.4618 21.8027 22.0412 21.517C21.8435 21.4007 21.7183 21.5364 21.6373 21.706C21.5204 22.8128 22.1031 24.0344 23.1439 24.6503C23.5658 24.8016 24.1329 24.9455 24.5732 24.7309C25.6321 24.2403 26.0707 23.116 26.2681 22.0802C26.2416 21.8831 26.2509 21.499 25.973 21.4896C25.659 21.6872 25.2012 21.5704 24.8685 21.4896C24.6718 21.5527 24.6627 21.8391 24.4388 21.8934L24.3024 21.7851C24.1855 21.2947 24.1135 20.5981 24.5717 20.2588C25.0837 20.0534 25.685 19.9638 26.2144 20.1249C26.3133 19.9552 26.1608 19.8218 26.1332 19.6701ZM25.5929 20.5504C25.5573 20.5513 25.5228 20.5531 25.4876 20.5542C25.2996 20.679 24.7516 20.5893 24.9495 21.0091C25.2907 20.7406 25.7663 20.9287 26.1074 21.0622C26.2334 21 26.2062 20.8749 26.2143 20.7671C26.1048 20.5644 25.8432 20.5455 25.5929 20.5504ZM29.5004 16.7754C28.8361 16.7403 28.2798 17.1155 27.6694 17.2852C27.6163 16.7685 28.0108 16.2228 28.1009 15.7041C27.114 15.7672 26.3322 16.3583 25.5157 16.8303C25.3262 16.3751 25.1375 15.9196 24.9496 15.4637L26.0267 14.4457L26.0543 14.3115L24.5994 14.2309C24.3489 13.7941 24.25 13.268 23.954 12.8662C23.7116 13.3216 23.5488 13.8035 23.3067 14.2583L21.8536 14.3392V14.4457L22.9564 15.4362C22.8216 15.9454 22.6963 16.4986 22.3645 16.8834C21.7184 16.4984 21.0814 16.0794 20.373 15.812C20.2025 15.7573 19.9595 15.6683 19.807 15.7846C20.031 16.2758 20.3448 16.8042 20.292 17.3403C19.9956 17.2861 19.7627 17.097 19.4842 17.0176C19.1513 16.9271 18.7563 16.7506 18.4332 16.858C18.9718 17.6075 19.4115 18.392 19.5635 19.2941C21.3504 18.4361 23.4341 17.9642 25.5972 18.331C26.6111 18.4914 27.5434 18.9023 28.4501 19.2407C28.4855 18.2949 29.0866 17.5349 29.5004 16.7754ZM32.5689 21.9188C33.4836 22.1596 34.4012 23.1511 35.3698 22.5078C34.5262 21.1152 33.2706 19.8292 33.6198 18.0082C33.6564 17.8838 33.5755 17.758 33.4594 17.7403C32.9122 17.9628 32.4883 18.4992 32.2718 19.0263C32.1827 19.3382 32.1301 19.6696 32.0046 19.9636C31.3489 19.6241 30.6495 19.2954 29.8507 19.3747C29.5625 19.4104 29.1498 19.4292 29.0965 19.7235C30.0029 20.2053 30.7483 21.0095 31.3038 21.8659C31.6908 21.8032 32.1651 21.8568 32.5689 21.9188ZM22.9837 23.1774L23.0095 23.3388C23.3602 23.5712 23.4681 23.9651 23.9537 23.9294C24.3842 23.9547 24.7073 23.5534 24.9217 23.2322C24.3392 23.1521 23.63 23.276 22.9837 23.1774ZM23.4685 22.4547C23.486 22.5261 23.4241 22.6333 23.5219 22.6695C23.8092 22.6074 24.3295 22.8215 24.4899 22.4821C24.3778 22.3573 24.1951 22.3007 24.0032 22.3007C23.8114 22.3007 23.6124 22.3562 23.4685 22.4547Z" fill="#106E33"/>
<path opacity="0.99" d="M22.9849 22.1455H24.9528V22.9497H22.9849V22.1455Z" fill="white"/>
<path d="M23.3482 22.5758C23.6025 22.6356 23.6654 22.7253 23.8663 22.7504C24.0801 22.7466 24.0493 22.7034 24.4218 22.5755C24.4464 22.5669 24.48 22.5131 24.4383 22.472C24.2069 22.2435 24.0469 22.4068 23.902 22.4111C23.7094 22.4131 23.529 22.2472 23.341 22.463C23.309 22.5067 23.2923 22.5498 23.3482 22.5758Z" fill="#106E33"/>
</g>
<defs>
<clipPath id="clip0_166_4610">
<rect width="24" height="24" fill="white" transform="translate(12 12)"/>
</clipPath>
</defs>
</svg>
