<svg width="32" height="32" viewBox="0 0 32 32" fill="none" xmlns="http://www.w3.org/2000/svg">
<g clip-path="url(#clip0_147_699)">
<path d="M25.5 6H6.5C4.567 6 3 7.567 3 9.5V22.5C3 24.433 4.567 26 6.5 26H25.5C27.433 26 29 24.433 29 22.5V9.5C29 7.567 27.433 6 25.5 6Z" stroke="white" stroke-width="2" stroke-linecap="round" stroke-linejoin="round"/>
<path d="M2.66675 12H28.6667" stroke="white" stroke-width="2" stroke-linejoin="round"/>
<mask id="path-3-outside-1_147_699" maskUnits="userSpaceOnUse" x="23.6667" y="20.6666" width="11" height="11" fill="black">
<rect fill="white" x="23.6667" y="20.6666" width="11" height="11"/>
<path fill-rule="evenodd" clip-rule="evenodd" d="M30.0001 22.6666H28.0001V25H25.6667V27H28.0001V29.3333H30.0001V27H32.3334V25H30.0001V22.6666Z"/>
</mask>
<path fill-rule="evenodd" clip-rule="evenodd" d="M30.0001 22.6666H28.0001V25H25.6667V27H28.0001V29.3333H30.0001V27H32.3334V25H30.0001V22.6666Z" fill="white"/>
<path d="M28.0001 22.6666V20.6666H26.0001V22.6666H28.0001ZM30.0001 22.6666H32.0001V20.6666H30.0001V22.6666ZM28.0001 25V27H30.0001V25H28.0001ZM25.6667 25V23H23.6667V25H25.6667ZM25.6667 27H23.6667V29H25.6667V27ZM28.0001 27H30.0001V25H28.0001V27ZM28.0001 29.3333H26.0001V31.3333H28.0001V29.3333ZM30.0001 29.3333V31.3333H32.0001V29.3333H30.0001ZM30.0001 27V25H28.0001V27H30.0001ZM32.3334 27V29H34.3334V27H32.3334ZM32.3334 25H34.3334V23H32.3334V25ZM30.0001 25H28.0001V27H30.0001V25ZM28.0001 24.6666H30.0001V20.6666H28.0001V24.6666ZM30.0001 25V22.6666H26.0001V25H30.0001ZM25.6667 27H28.0001V23H25.6667V27ZM27.6667 27V25H23.6667V27H27.6667ZM28.0001 25H25.6667V29H28.0001V25ZM30.0001 29.3333V27H26.0001V29.3333H30.0001ZM30.0001 27.3333H28.0001V31.3333H30.0001V27.3333ZM28.0001 27V29.3333H32.0001V27H28.0001ZM32.3334 25H30.0001V29H32.3334V25ZM30.3334 25V27H34.3334V25H30.3334ZM30.0001 27H32.3334V23H30.0001V27ZM28.0001 22.6666V25H32.0001V22.6666H28.0001Z" fill="#4CD080" mask="url(#path-3-outside-1_147_699)"/>
<path d="M11 18.75H8V20H11V18.75Z" stroke="white" stroke-width="2" stroke-linejoin="round"/>
</g>
<defs>
<clipPath id="clip0_147_699">
<rect width="32" height="32" fill="white"/>
</clipPath>
</defs>
</svg>
