<svg width="24" height="24" viewBox="0 0 24 24" fill="none" xmlns="http://www.w3.org/2000/svg">
<path d="M22.9771 8.50303L20.9085 6.43444C20.7416 6.26979 20.5191 6.17365 20.2848 6.16498C20.0505 6.1563 19.8215 6.23571 19.6429 6.38756C19.3671 6.62228 19.0132 6.74484 18.6514 6.73095C18.2895 6.71706 17.9461 6.56773 17.6891 6.31256C17.4341 6.05563 17.2848 5.71229 17.271 5.35054C17.2571 4.98879 17.3795 4.63501 17.6141 4.35928C17.766 4.18067 17.8454 3.95164 17.8367 3.71736C17.828 3.48308 17.7319 3.26055 17.5672 3.09366L15.4968 1.02272C15.3218 0.848082 15.0847 0.75 14.8375 0.75C14.5903 0.75 14.3532 0.848082 14.1782 1.02272L10.8805 4.31991C10.6769 4.52423 10.5234 4.77291 10.4319 5.04647C10.4141 5.09906 10.3844 5.14685 10.3452 5.18611C10.3059 5.22538 10.2581 5.25507 10.2055 5.27288C9.93186 5.36433 9.68315 5.51805 9.47897 5.72194L1.02272 14.1782C0.848082 14.3532 0.75 14.5903 0.75 14.8375C0.75 15.0847 0.848082 15.3218 1.02272 15.4968L3.09366 17.5654C3.26055 17.73 3.48308 17.8262 3.71736 17.8348C3.95164 17.8435 4.18067 17.7641 4.35928 17.6123C4.63438 17.3756 4.98874 17.2517 5.35135 17.2653C5.71396 17.2789 6.05803 17.4291 6.31461 17.6857C6.5712 17.9423 6.72134 18.2863 6.73495 18.6489C6.74857 19.0115 6.62465 19.3659 6.38803 19.641C6.23618 19.8196 6.15677 20.0486 6.16545 20.2829C6.17412 20.5172 6.27026 20.7397 6.43491 20.9066L8.5035 22.9752C8.67847 23.1499 8.91559 23.2479 9.1628 23.2479C9.41001 23.2479 9.64712 23.1499 9.82209 22.9752L18.2783 14.519C18.4821 14.3149 18.6358 14.0663 18.7274 13.7929C18.7451 13.7401 18.7748 13.6922 18.8142 13.6528C18.8536 13.6134 18.9015 13.5837 18.9543 13.566C19.2277 13.4745 19.4762 13.321 19.6804 13.1174L22.9776 9.81975C23.1516 9.64479 23.2492 9.40805 23.2491 9.16129C23.249 8.91454 23.1512 8.67786 22.9771 8.50303ZM12.2723 7.11319C12.2026 7.18285 12.1199 7.23811 12.0289 7.27581C11.9379 7.31351 11.8404 7.33292 11.7419 7.33292C11.6434 7.33292 11.5458 7.31351 11.4548 7.27581C11.3638 7.23811 11.2811 7.18285 11.2115 7.11319L10.6719 6.57366C10.5347 6.4323 10.4586 6.24262 10.4601 6.04561C10.4616 5.8486 10.5405 5.66008 10.6799 5.52081C10.8192 5.38153 11.0078 5.30267 11.2048 5.30127C11.4018 5.29988 11.5914 5.37605 11.7327 5.51334L12.2723 6.05241C12.3419 6.12205 12.3972 6.20474 12.4349 6.29575C12.4726 6.38675 12.492 6.48429 12.492 6.5828C12.492 6.6813 12.4726 6.77884 12.4349 6.86985C12.3972 6.96086 12.3419 7.04354 12.2723 7.11319ZM14.3348 9.17569C14.1941 9.31623 14.0034 9.39518 13.8046 9.39518C13.6058 9.39518 13.4151 9.31623 13.2744 9.17569L12.7588 8.66006C12.6892 8.59041 12.6339 8.50772 12.5962 8.41672C12.5585 8.32571 12.5391 8.22818 12.5391 8.12967C12.5391 8.03117 12.5585 7.93363 12.5962 7.84263C12.6339 7.75162 12.6892 7.66893 12.7588 7.59928C12.8995 7.45861 13.0903 7.37959 13.2892 7.37959C13.3877 7.37959 13.4852 7.39899 13.5762 7.43668C13.6673 7.47438 13.7499 7.52963 13.8196 7.59928L14.3352 8.11491C14.4051 8.18455 14.4606 8.2673 14.4985 8.35842C14.5363 8.44954 14.5558 8.54723 14.5559 8.6459C14.5559 8.74458 14.5365 8.84229 14.4987 8.93344C14.4609 9.02459 14.4055 9.10739 14.3357 9.17709L14.3348 9.17569ZM16.3973 11.2382C16.3276 11.3078 16.2449 11.3631 16.1539 11.4008C16.0629 11.4385 15.9654 11.4579 15.8669 11.4579C15.7684 11.4579 15.6708 11.4385 15.5798 11.4008C15.4888 11.3631 15.4061 11.3078 15.3365 11.2382L14.8208 10.7226C14.6836 10.5812 14.6075 10.3915 14.609 10.1945C14.6105 9.9975 14.6894 9.80899 14.8288 9.66971C14.9681 9.53043 15.1567 9.45157 15.3537 9.45018C15.5507 9.44878 15.7403 9.52496 15.8816 9.66225L16.3973 10.1779C16.4673 10.2474 16.523 10.3301 16.5611 10.4212C16.5992 10.5123 16.6189 10.61 16.6191 10.7087C16.6193 10.8074 16.6 10.9052 16.5624 10.9965C16.5247 11.0878 16.4694 11.1707 16.3996 11.2405L16.3973 11.2382ZM18.4799 13.326C18.4103 13.3957 18.3276 13.4509 18.2366 13.4886C18.1456 13.5263 18.048 13.5457 17.9495 13.5457C17.851 13.5457 17.7535 13.5263 17.6625 13.4886C17.5715 13.4509 17.4888 13.3957 17.4191 13.326L16.8829 12.7869C16.8118 12.7175 16.7551 12.6346 16.7163 12.5431C16.6775 12.4516 16.6573 12.3533 16.6568 12.2539C16.6563 12.1545 16.6756 12.056 16.7136 11.9641C16.7515 11.8722 16.8073 11.7888 16.8778 11.7187C16.9482 11.6486 17.0319 11.5931 17.124 11.5557C17.216 11.5182 17.3146 11.4994 17.414 11.5003C17.5134 11.5013 17.6117 11.522 17.703 11.5612C17.7943 11.6005 17.8769 11.6575 17.946 11.729L18.4827 12.2676C18.5524 12.3372 18.6076 12.42 18.6452 12.511C18.6829 12.602 18.7023 12.6995 18.7022 12.7981C18.7022 12.8966 18.6827 12.9941 18.645 13.0851C18.6072 13.1761 18.5519 13.2587 18.4823 13.3283L18.4799 13.326Z" fill="#2ECC72"/>
</svg>
